<svg width="1511" height="407" viewBox="0 0 1511 407" fill="none" xmlns="http://www.w3.org/2000/svg">
<g id="LooperGroup" clip-path="url(#clip0_384_19135)">
<g id="LooperGroup_18" opacity="0.0526316">
<rect id="Rectangle 2_1_2" x="606.355" y="1276.21" width="894.136" height="894.136" transform="rotate(-120 606.355 1276.21)" fill="white" stroke="#03283D" stroke-width="2.5"/>
<rect id="Rectangle 2_1_1" x="372.102" y="1156.85" width="894.135" height="894.135" transform="rotate(-96 372.102 1156.85)" fill="white" stroke="#03283D" stroke-width="2.5"/>
<rect id="Rectangle 2_1" x="206.656" y="952.535" width="894.135" height="894.135" transform="rotate(-72 206.656 952.535)" fill="white" stroke="#03283D" stroke-width="2.5"/>
</g>
<g id="LooperGroup_17" opacity="0.105263">
<rect id="Rectangle 2_1_2_2" x="386.027" y="1139.66" width="862.863" height="862.863" transform="rotate(-96 386.027 1139.66)" fill="white" stroke="#03283D" stroke-width="2.5"/>
<rect id="Rectangle 2_1_1_2" x="226.359" y="942.496" width="862.863" height="862.863" transform="rotate(-72 226.359 942.496)" fill="white" stroke="#03283D" stroke-width="2.5"/>
<rect id="Rectangle 2_1_3" x="160.703" y="697.432" width="862.863" height="862.863" transform="rotate(-48 160.703 697.432)" fill="white" stroke="#03283D" stroke-width="2.5"/>
</g>
<g id="LooperGroup_16" opacity="0.157895">
<rect id="Rectangle 2_1_2_3" x="246.051" y="932.457" width="831.591" height="831.591" transform="rotate(-72 246.051 932.457)" fill="white" stroke="#03283D" stroke-width="2.5"/>
<rect id="Rectangle 2_1_1_3" x="182.777" y="696.276" width="831.591" height="831.591" transform="rotate(-48 182.777 696.276)" fill="white" stroke="#03283D" stroke-width="2.5"/>
<rect id="Rectangle 2_1_4" x="221.02" y="454.774" width="831.591" height="831.591" transform="rotate(-24 221.02 454.774)" fill="white" stroke="#03283D" stroke-width="2.5"/>
</g>
<g id="LooperGroup_15" opacity="0.210526">
<rect id="Rectangle 2_1_2_4" x="204.852" y="695.117" width="800.319" height="800.319" transform="rotate(-48 204.852 695.117)" fill="white" stroke="#03283D" stroke-width="2.5"/>
<rect id="Rectangle 2_1_1_4" x="241.668" y="462.697" width="800.319" height="800.319" transform="rotate(-24 241.668 462.697)" fill="white" stroke="#03283D" stroke-width="2.5"/>
<rect id="Rectangle 2_1_5" x="369.828" y="265.342" width="800.319" height="800.319" fill="white" stroke="#03283D" stroke-width="2.5"/>
</g>
<g id="LooperGroup_14" opacity="0.263158">
<rect id="Rectangle 2_1_2_5" x="262.312" y="470.621" width="769.047" height="769.047" transform="rotate(-24 262.312 470.621)" fill="white" stroke="#03283D" stroke-width="2.5"/>
<rect id="Rectangle 2_1_1_5" x="385.469" y="280.981" width="769.047" height="769.047" fill="white" stroke="#03283D" stroke-width="2.5"/>
<rect id="Rectangle 2_1_6" x="575.109" y="157.825" width="769.047" height="769.047" transform="rotate(24 575.109 157.825)" fill="white" stroke="#03283D" stroke-width="2.5"/>
</g>
<g id="LooperGroup_13" opacity="0.315789">
<rect id="Rectangle 2_1_2_6" x="401.102" y="296.612" width="737.775" height="737.775" fill="white" stroke="#03283D" stroke-width="2.5"/>
<rect id="Rectangle 2_1_1_6" x="583.031" y="178.466" width="737.775" height="737.775" transform="rotate(24 583.031 178.466)" fill="white" stroke="#03283D" stroke-width="2.5"/>
<rect id="Rectangle 2_1_7" x="797.289" y="144.53" width="737.775" height="737.775" transform="rotate(48 797.289 144.53)" fill="white" stroke="#03283D" stroke-width="2.5"/>
</g>
<g id="LooperGroup_12" opacity="0.368421">
<rect id="Rectangle 2_1_2_7" x="590.961" y="199.109" width="706.503" height="706.503" transform="rotate(24 590.961 199.109)" fill="white" stroke="#03283D" stroke-width="2.5"/>
<rect id="Rectangle 2_1_1_7" x="796.137" y="166.615" width="706.503" height="706.503" transform="rotate(48 796.137 166.615)" fill="white" stroke="#03283D" stroke-width="2.5"/>
<rect id="Rectangle 2_1_8" x="996.797" y="220.38" width="706.503" height="706.503" transform="rotate(72 996.797 220.38)" fill="white" stroke="#03283D" stroke-width="2.5"/>
</g>
<g id="LooperGroup_11" opacity="0.421053">
<rect id="Rectangle 2_1_2_8" x="794.98" y="188.695" width="675.231" height="675.231" transform="rotate(48 794.98 188.695)" fill="white" stroke="#03283D" stroke-width="2.5"/>
<rect id="Rectangle 2_1_1_8" x="986.754" y="240.083" width="675.23" height="675.23" transform="rotate(72 986.754 240.083)" fill="white" stroke="#03283D" stroke-width="2.5"/>
<rect id="Rectangle 2_1_9" x="1141.05" y="365.026" width="675.23" height="675.23" transform="rotate(96 1141.05 365.026)" fill="white" stroke="#03283D" stroke-width="2.5"/>
</g>
<g id="LooperGroup_10" opacity="0.473684">
<rect id="Rectangle 2_1_2_9" x="976.715" y="259.784" width="643.958" height="643.958" transform="rotate(72 976.715 259.784)" fill="white" stroke="#03283D" stroke-width="2.5"/>
<rect id="Rectangle 2_1_1_9" x="1123.87" y="378.943" width="643.958" height="643.958" transform="rotate(96 1123.87 378.943)" fill="white" stroke="#03283D" stroke-width="2.5"/>
<rect id="Rectangle 2_1_10" x="1209.82" y="547.649" width="643.958" height="643.958" transform="rotate(120 1209.82 547.649)" fill="white" stroke="#03283D" stroke-width="2.5"/>
</g>
<g id="LooperGroup_9" opacity="0.526316">
<rect id="Rectangle 2_1_2_10" x="1106.68" y="392.857" width="612.686" height="612.686" transform="rotate(96 1106.68 392.857)" fill="white" stroke="#03283D" stroke-width="2.5"/>
<rect id="Rectangle 2_1_1_10" x="1188.47" y="553.371" width="612.686" height="612.686" transform="rotate(120 1188.47 553.371)" fill="white" stroke="#03283D" stroke-width="2.5"/>
<rect id="Rectangle 2_1_11" x="1197.9" y="733.273" width="612.686" height="612.686" transform="rotate(144 1197.9 733.273)" fill="white" stroke="#03283D" stroke-width="2.5"/>
</g>
<g id="LooperGroup_8" opacity="0.578947">
<rect id="Rectangle 2_1_2_11" x="1167.11" y="559.095" width="581.414" height="581.414" transform="rotate(120 1167.11 559.095)" fill="white" stroke="#03283D" stroke-width="2.5"/>
<rect id="Rectangle 2_1_1_11" x="1176.05" y="729.815" width="581.414" height="581.414" transform="rotate(144 1176.05 729.815)" fill="white" stroke="#03283D" stroke-width="2.5"/>
<rect id="Rectangle 2_1_12" x="1114.78" y="889.414" width="581.414" height="581.414" transform="rotate(168 1114.78 889.414)" fill="white" stroke="#03283D" stroke-width="2.5"/>
</g>
<g id="LooperGroup_7" opacity="0.631579">
<rect id="Rectangle 2_1_2_12" x="1154.21" y="726.355" width="550.142" height="550.142" transform="rotate(144 1154.21 726.355)" fill="white" stroke="#03283D" stroke-width="2.5"/>
<rect id="Rectangle 2_1_1_12" x="1096.24" y="877.369" width="550.142" height="550.142" transform="rotate(168 1096.24 877.369)" fill="white" stroke="#03283D" stroke-width="2.5"/>
<rect id="Rectangle 2_1_13" x="981.867" y="991.75" width="550.142" height="550.142" transform="rotate(-168 981.867 991.75)" fill="white" stroke="#03283D" stroke-width="2.5"/>
</g>
<g id="LooperGroup_6" opacity="0.684211">
<rect id="Rectangle 2_1_2_13" x="1077.7" y="865.325" width="518.87" height="518.87" transform="rotate(168 1077.7 865.325)" fill="white" stroke="#03283D" stroke-width="2.5"/>
<rect id="Rectangle 2_1_1_13" x="969.82" y="973.203" width="518.87" height="518.87" transform="rotate(-168 969.82 973.203)" fill="white" stroke="#03283D" stroke-width="2.5"/>
<rect id="Rectangle 2_1_14" x="827.391" y="1027.88" width="518.87" height="518.87" transform="rotate(-144 827.391 1027.88)" fill="white" stroke="#03283D" stroke-width="2.5"/>
</g>
<g id="LooperGroup_5" opacity="0.736842">
<rect id="Rectangle 2_1_2_14" x="957.773" y="954.662" width="487.597" height="487.597" transform="rotate(-168 957.773 954.662)" fill="white" stroke="#03283D" stroke-width="2.5"/>
<rect id="Rectangle 2_1_1_14" x="823.929" y="1006.04" width="487.598" height="487.598" transform="rotate(-144 823.929 1006.04)" fill="white" stroke="#03283D" stroke-width="2.5"/>
<rect id="Rectangle 2_1_15" x="680.75" y="998.536" width="487.598" height="487.598" transform="rotate(-120 680.75 998.536)" fill="white" stroke="#03283D" stroke-width="2.5"/>
</g>
<g id="LooperGroup_4" opacity="0.789474">
<rect id="Rectangle 2_1_2_15" x="820.477" y="984.198" width="456.325" height="456.325" transform="rotate(-144 820.477 984.198)" fill="white" stroke="#03283D" stroke-width="2.5"/>
<rect id="Rectangle 2_1_1_15" x="686.492" y="977.175" width="456.325" height="456.325" transform="rotate(-120 686.492 977.175)" fill="white" stroke="#03283D" stroke-width="2.5"/>
</g>
<g id="LooperGroup_3" opacity="0.842105">
<rect id="Rectangle 2_1_2_16" x="692.203" y="955.818" width="425.053" height="425.053" transform="rotate(-120 692.203 955.818)" fill="white" stroke="#03283D" stroke-width="2.5"/>
<rect id="Rectangle 2_1_16" x="502.195" y="801.951" width="425.053" height="425.053" transform="rotate(-72 502.195 801.951)" fill="white" stroke="#03283D" stroke-width="2.5"/>
</g>
<g id="LooperGroup_2" opacity="0.894737">
<rect id="Rectangle 2_1_17" x="491.919" y="680.075" width="393.781" height="393.781" transform="rotate(-48 491.919 680.075)" fill="white" stroke="#03283D" stroke-width="2.5"/>
</g>
</g>
<defs>
<clipPath id="clip0_384_19135">
<rect width="1512" height="407" fill="white"/>
</clipPath>
</defs>
</svg>
