<svg width="100" height="40" viewBox="0 0 100 40" fill="none" xmlns="http://www.w3.org/2000/svg">
<path d="M0 25.053V0H2.911V22.42H13.963V25.053H0ZM34.37 25.053H20.407V0H34.34V2.576H23.318V10.644H33.691V13.22H23.318V22.449H34.37V25.053ZM59.865 25.053H56.558L49.83 14.041L42.99 25.053H39.91L48.22 11.946L40.475 0H43.697L49.916 9.936L56.19 0H59.3L51.555 11.861L59.865 25.053ZM65.97 25.053V0H68.881V22.42H79.933V25.053H65.97ZM90.192 12.54L96.862 0H100L91.662 15.343V25.053H88.722V15.485L80.386 0H83.58L90.193 12.54H90.192ZM0 39.83V31.875H0.99V38.952H4.183V39.802H0V39.83ZM5.653 39.83L8.79 31.875H9.695L12.832 39.83H11.786L10.91 37.509H7.603L6.727 39.829H5.653V39.83ZM7.914 36.66H10.571L9.242 33.206L7.914 36.659V36.66ZM16.054 39.83L13.708 31.875H14.783L16.62 38.5L18.74 31.876H19.474L21.622 38.5L23.46 31.876H24.59L22.244 39.831H21.142L19.135 33.801L17.128 39.831H16.054V39.83ZM29.338 39.83L30.299 31.875H31.345L33.55 37.707L35.755 31.875H36.8L37.761 39.83H36.744L35.981 33.687L33.861 39.434H33.211L31.091 33.687L30.328 39.83H29.338ZM39.4 39.83L42.538 31.875H43.442L46.58 39.83H45.534L44.658 37.509H41.35L40.473 39.829H39.4V39.83ZM41.662 36.66H44.318L42.99 33.206L41.662 36.659V36.66ZM48.7 39.83V31.875H50.594C51.159 31.875 51.668 31.989 52.177 32.187C52.657 32.385 53.081 32.667 53.449 33.036C53.816 33.404 54.099 33.828 54.297 34.31C54.494 34.791 54.607 35.3 54.607 35.867C54.607 36.433 54.494 36.943 54.297 37.424C54.099 37.905 53.816 38.33 53.449 38.698C53.0859 39.063 52.6534 39.3517 52.177 39.547C51.6747 39.7531 51.1369 39.8588 50.594 39.858H48.7V39.83ZM49.69 38.952H50.509C50.933 38.952 51.357 38.868 51.724 38.726C52.0906 38.5867 52.4197 38.3638 52.685 38.075C52.94 37.792 53.165 37.452 53.335 37.084C53.4834 36.6953 53.5603 36.283 53.562 35.867C53.562 35.442 53.477 35.017 53.336 34.65C53.1905 34.2781 52.9692 33.9406 52.686 33.659C52.4152 33.3761 52.0873 33.1542 51.724 33.008C51.357 32.838 50.961 32.781 50.509 32.781H49.689V38.952H49.69ZM56.642 39.83V31.875H60.769V32.725H57.632V35.385H60.656V36.235H57.632V38.925H60.769V39.773H56.642V39.83ZM66.422 39.83V31.875H70.548V32.725H67.411V35.385H70.435V36.235H67.411V38.925H70.548V39.773H66.422V39.83ZM72.075 39.83L75.212 31.875H76.116L79.254 39.83H78.208L77.332 37.509H74.025L73.149 39.829H72.074L72.075 39.83ZM74.335 36.66H76.993L75.664 33.206L74.336 36.659L74.335 36.66ZM83.24 40C82.844 40 82.476 39.943 82.165 39.83C81.8882 39.7267 81.6234 39.5939 81.375 39.434C81.1747 39.2879 80.9855 39.1271 80.809 38.953C80.6945 38.8399 80.5904 38.7167 80.498 38.585L81.035 37.82C81.12 37.905 81.205 38.018 81.345 38.16C81.459 38.302 81.628 38.443 81.798 38.585C81.968 38.726 82.194 38.839 82.448 38.953C82.703 39.066 82.957 39.094 83.268 39.094C83.55 39.094 83.833 39.038 84.059 38.953C84.285 38.839 84.483 38.698 84.625 38.5C84.7793 38.2753 84.8584 38.0075 84.851 37.735C84.851 37.48 84.794 37.255 84.709 37.085C84.5983 36.9077 84.4543 36.7536 84.285 36.631C84.0843 36.4895 83.8657 36.3752 83.635 36.291C83.3783 36.1707 83.1141 36.0671 82.844 35.981C82.6406 35.898 82.4423 35.8031 82.25 35.697C82.052 35.584 81.855 35.471 81.685 35.301C81.515 35.131 81.375 34.961 81.261 34.735C81.1451 34.4969 81.0869 34.2348 81.091 33.97C81.091 33.687 81.148 33.404 81.261 33.121C81.374 32.866 81.544 32.611 81.741 32.413C81.939 32.215 82.194 32.045 82.476 31.933C82.759 31.819 83.07 31.763 83.409 31.763C83.72 31.763 84.003 31.819 84.285 31.903C84.568 31.989 84.795 32.13 85.02 32.272C85.246 32.413 85.416 32.583 85.529 32.753L85.077 33.461C84.9596 33.3148 84.8269 33.1817 84.681 33.064C84.511 32.951 84.341 32.838 84.116 32.753C83.8984 32.6743 83.6683 32.636 83.437 32.64C83.127 32.64 82.9 32.696 82.674 32.838C82.4744 32.9532 82.3088 33.1192 82.194 33.319C82.081 33.517 82.024 33.715 82.024 33.942C82.024 34.14 82.052 34.31 82.137 34.452C82.2202 34.5919 82.3371 34.7088 82.477 34.792C82.617 34.876 82.759 34.962 82.929 35.046C83.099 35.131 83.268 35.188 83.466 35.244C83.805 35.386 84.088 35.499 84.398 35.641C84.681 35.782 84.935 35.924 85.162 36.121C85.388 36.291 85.557 36.518 85.67 36.773C85.783 37.028 85.868 37.339 85.868 37.679C85.868 38.159 85.755 38.585 85.529 38.924C85.303 39.264 84.992 39.519 84.596 39.717C84.201 39.915 83.748 40 83.24 40ZM89.684 39.83V36.348L86.914 31.875H88.1L90.191 35.329L92.283 31.875H93.47L90.7 36.348V39.83H89.683H89.684Z" fill="white"/>
</svg>
