<svg width="968" height="816" viewBox="0 0 968 816" fill="none" xmlns="http://www.w3.org/2000/svg">
<path opacity="0.010101" d="M310.914 410.545C305.347 404.78 304.125 396.085 307.888 389.009L465.989 91.6636C469.752 84.5871 477.643 80.7382 485.536 82.1299L817.184 140.608C825.077 142 831.176 148.316 832.291 156.253L879.16 489.739C880.275 497.676 876.153 505.428 868.95 508.942L566.268 656.569C559.065 660.083 550.418 658.558 544.85 652.793L310.914 410.545Z" stroke="url(#paint0_linear_220_16095)" stroke-width="3"/>
<path opacity="0.020202" d="M307.197 406.42C301.731 400.558 300.661 391.844 304.546 384.834L467.489 90.8772C471.375 83.8674 479.332 80.1568 487.199 81.6861L817.121 145.816C824.988 147.346 830.976 153.767 831.953 161.722L872.913 495.313C873.89 503.268 869.633 510.947 862.369 514.334L557.762 656.375C550.499 659.762 541.88 658.087 536.414 652.225L307.197 406.42Z" stroke="url(#paint1_linear_220_16095)" stroke-width="3"/>
<path opacity="0.030303" d="M303.571 402.3C298.208 396.344 297.29 387.612 301.298 380.671L469.012 90.1814C473.019 83.2405 481.04 79.6693 488.88 81.3357L816.979 151.075C824.818 152.742 830.693 159.266 831.531 167.237L866.593 500.829C867.431 508.799 863.041 516.403 855.719 519.663L549.289 656.094C541.968 659.354 533.379 657.529 528.017 651.572L303.571 402.3Z" stroke="url(#paint2_linear_220_16095)" stroke-width="3"/>
<path opacity="0.040404" d="M300.039 398.188C294.781 392.14 294.016 383.393 298.144 376.523L470.559 89.5767C474.687 82.7068 482.769 79.2762 490.578 81.0791L816.759 156.384C824.569 158.187 830.329 164.813 831.027 172.797L860.204 506.285C860.902 514.269 856.38 521.795 849.003 524.927L540.853 655.728C533.476 658.86 524.921 656.885 519.662 650.836L300.039 398.188Z" stroke="url(#paint3_linear_220_16095)" stroke-width="3"/>
<path opacity="0.050505" d="M296.598 394.085C291.447 387.945 290.834 379.186 295.081 372.39L472.124 89.062C476.371 82.2651 484.512 78.9761 492.289 80.915L816.458 161.74C824.235 163.678 829.879 170.404 830.438 178.4L853.743 511.679C854.302 519.675 849.649 527.121 842.218 530.123L532.452 655.277C525.021 658.279 516.502 656.155 511.35 650.015L296.598 394.085Z" stroke="url(#paint4_linear_220_16095)" stroke-width="3"/>
<path opacity="0.0606061" d="M293.251 389.99C288.207 383.762 287.747 374.994 292.112 368.272L473.709 88.6371C478.074 81.9154 486.271 78.769 494.013 80.8434L816.078 167.14C823.819 169.215 829.345 176.038 829.764 184.042L847.214 517.011C847.634 525.015 842.852 532.378 835.37 535.251L524.089 654.74C516.607 657.612 508.126 655.34 503.082 649.111L293.251 389.99Z" stroke="url(#paint5_linear_220_16095)" stroke-width="3"/>
<path opacity="0.0707071" d="M289.994 385.907C285.06 379.592 284.753 370.817 289.235 364.173L475.311 88.3031C479.793 81.6586 488.044 78.6557 495.748 80.8648L815.616 172.586C823.32 174.795 828.726 181.713 829.005 189.723L840.618 522.279C840.898 530.289 835.988 537.568 828.457 540.309L515.766 654.119C508.235 656.86 499.795 654.44 494.861 648.125L289.994 385.907Z" stroke="url(#paint6_linear_220_16095)" stroke-width="3"/>
<path opacity="0.0808081" d="M286.827 381.839C282.004 375.438 281.851 366.66 286.448 360.094L476.927 88.0614C481.524 81.4962 489.826 78.6377 497.491 80.981L815.071 178.075C822.735 180.418 828.019 187.43 828.159 195.444L833.955 527.484C834.095 535.498 829.059 542.69 821.481 545.299L507.482 653.417C499.904 656.027 491.508 653.46 486.685 647.059L286.827 381.839Z" stroke="url(#paint7_linear_220_16095)" stroke-width="3"/>
<path opacity="0.0909091" d="M283.755 377.785C279.044 371.301 279.044 362.521 283.755 356.037L478.56 87.9098C483.271 81.4258 491.622 78.7126 499.244 81.1893L814.446 183.605C822.069 186.081 827.23 193.185 827.23 201.199V532.623C827.23 540.638 822.069 547.741 814.446 550.217L499.244 652.633C491.622 655.11 483.271 652.396 478.56 645.912L283.755 377.785Z" stroke="url(#paint8_linear_220_16095)" stroke-width="3"/>
<path opacity="0.10101" d="M280.77 373.747C276.173 367.182 276.327 358.403 281.15 352.002L480.204 87.8487C485.027 81.4479 493.424 78.8809 501.002 81.4902L813.737 189.174C821.315 191.783 826.351 198.975 826.212 206.989L820.439 537.694C820.299 545.708 815.015 552.72 807.351 555.063L491.047 651.767C483.383 654.11 475.081 651.252 470.484 644.686L280.77 373.747Z" stroke="url(#paint9_linear_220_16095)" stroke-width="3"/>
<path opacity="0.111111" d="M277.875 369.728C273.393 363.084 273.7 354.309 278.634 347.994L481.857 87.8803C486.791 81.5647 495.231 79.1446 502.762 81.8858L812.944 194.783C820.475 197.524 825.385 204.803 825.105 212.813L813.585 542.7C813.306 550.71 807.9 557.628 800.196 559.838L482.895 650.822C475.19 653.031 466.94 650.028 462.458 643.384L277.875 369.728Z" stroke="url(#paint10_linear_220_16095)" stroke-width="3"/>
<path opacity="0.121212" d="M275.071 365.728C270.706 359.006 271.165 350.238 276.209 344.009L483.52 88.0014C488.564 81.7728 497.045 79.5004 504.527 82.3726L812.068 200.426C819.551 203.299 824.333 210.662 823.913 218.666L806.673 547.635C806.253 555.639 800.728 562.462 792.986 564.537L474.79 649.797C467.048 651.871 458.852 648.725 454.486 642.003L275.071 365.728Z" stroke="url(#paint11_linear_220_16095)" stroke-width="3"/>
<path opacity="0.131313" d="M272.355 361.75C268.108 354.953 268.72 346.194 273.872 340.055L485.19 88.2152C490.342 82.0756 498.861 79.9515 506.292 82.9539L811.107 206.107C818.538 209.109 823.191 216.555 822.632 224.55L799.699 552.503C799.14 560.498 793.496 567.224 785.72 569.163L466.732 648.695C458.955 650.634 450.815 647.345 446.567 640.548L272.355 361.75Z" stroke="url(#paint12_linear_220_16095)" stroke-width="3"/>
<path opacity="0.141414" d="M269.727 357.794C265.599 350.924 266.364 342.177 271.622 336.129L486.866 88.5192C492.124 82.4705 500.679 80.4954 508.056 83.627L810.061 211.82C817.438 214.952 821.961 222.478 821.262 230.462L792.667 557.299C791.969 565.283 786.209 571.91 778.399 573.713L458.723 647.516C450.913 649.319 442.831 645.888 438.703 639.018L269.727 357.794Z" stroke="url(#paint13_linear_220_16095)" stroke-width="3"/>
<path opacity="0.151515" d="M267.189 353.862C263.182 346.921 264.1 338.189 269.463 332.233L488.548 88.9139C493.911 82.9578 502.499 81.1323 509.821 84.3922L808.932 217.565C816.254 220.825 820.644 228.429 819.806 236.4L785.582 562.024C784.744 569.995 778.869 576.52 771.03 578.186L450.766 646.26C442.927 647.926 434.906 644.355 430.898 637.414L267.189 353.862Z" stroke="url(#paint14_linear_220_16095)" stroke-width="3"/>
<path opacity="0.161616" d="M264.735 349.956C260.85 342.946 261.92 334.232 267.386 328.37L490.229 89.4001C495.695 83.5385 504.314 81.8632 511.577 85.2503L807.714 223.341C814.978 226.728 819.234 234.407 818.258 242.362L778.437 566.677C777.46 574.632 771.472 581.054 763.605 582.583L442.857 644.93C434.99 646.459 427.033 642.749 423.147 635.739L264.735 349.956Z" stroke="url(#paint15_linear_220_16095)" stroke-width="3"/>
<path opacity="0.171717" d="M262.371 346.078C258.608 339.002 259.83 330.307 265.397 324.542L491.914 89.9775C497.481 84.2123 506.128 82.6877 513.331 86.2011L806.413 229.146C813.616 232.66 817.738 240.412 816.623 248.349L771.241 571.258C770.125 579.195 764.026 585.511 756.133 586.903L435.004 643.526C427.111 644.918 419.22 641.069 415.457 633.993L262.371 346.078Z" stroke="url(#paint16_linear_220_16095)" stroke-width="3"/>
<path opacity="0.181818" d="M260.09 342.228C256.452 335.087 257.825 326.415 263.493 320.748L493.596 90.6446C499.263 84.9775 507.935 83.6039 515.076 87.2425L805.024 234.978C812.165 238.617 816.151 246.44 814.897 254.356L763.991 575.765C762.737 583.681 756.529 589.889 748.613 591.143L427.204 642.049C419.288 643.303 411.464 639.317 407.826 632.176L260.09 342.228Z" stroke="url(#paint17_linear_220_16095)" stroke-width="3"/>
<path opacity="0.191919" d="M257.897 338.409C254.383 331.206 255.908 322.559 261.673 316.992L495.277 91.4028C501.043 85.8354 509.737 84.6134 516.814 88.3761L803.549 240.836C810.626 244.599 814.474 252.49 813.083 260.383L756.691 580.197C755.299 588.09 748.983 594.189 741.047 595.305L419.459 640.501C411.523 641.616 403.77 637.494 400.257 630.291L257.897 338.409Z" stroke="url(#paint18_linear_220_16095)" stroke-width="3"/>
<path opacity="0.20202" d="M255.786 334.62C252.399 327.356 254.075 318.738 259.936 313.272L496.953 92.2493C502.815 86.7833 511.53 85.7133 518.539 89.5989L801.986 246.716C808.996 250.602 812.707 258.559 811.178 266.427L749.34 584.553C747.811 592.42 741.39 598.408 733.435 599.385L411.77 638.88C403.815 639.857 396.136 635.6 392.749 628.337L255.786 334.62Z" stroke="url(#paint19_linear_220_16095)" stroke-width="3"/>
<path opacity="0.212121" d="M253.76 330.866C250.5 323.545 252.325 314.956 258.282 309.594L498.624 93.1881C504.58 87.8253 513.312 86.9075 520.253 90.9149L800.337 252.621C807.278 256.629 810.849 264.65 809.182 272.489L741.941 588.834C740.275 596.674 733.75 602.549 725.779 603.387L404.138 637.193C396.167 638.03 388.564 633.64 385.304 626.319L253.76 330.866Z" stroke="url(#paint20_linear_220_16095)" stroke-width="3"/>
<path opacity="0.222222" d="M251.816 327.145C248.684 319.768 250.659 311.213 256.708 305.955L500.287 94.2147C506.336 88.9566 515.082 88.1914 521.952 92.3192L798.599 258.545C805.469 262.673 808.899 270.755 807.096 278.564L734.495 593.038C732.692 600.847 726.065 606.607 718.081 607.306L396.564 635.435C388.58 636.133 381.054 631.611 377.922 624.234L251.816 327.145Z" stroke="url(#paint21_linear_220_16095)" stroke-width="3"/>
<path opacity="0.232323" d="M249.955 323.461C246.952 316.03 249.077 307.511 255.216 302.359L501.942 95.3315C508.082 90.1797 516.84 89.5673 523.637 93.8145L796.774 264.49C803.571 268.737 806.86 276.877 804.921 284.654L727.004 597.165C725.065 604.941 718.339 610.585 710.344 611.144L389.051 633.611C381.055 634.17 373.61 629.517 370.607 622.086L249.955 323.461Z" stroke="url(#paint22_linear_220_16095)" stroke-width="3"/>
<path opacity="0.242424" d="M248.175 319.814C245.303 312.332 247.576 303.851 253.804 298.807L503.587 96.5375C509.815 91.4937 518.583 91.0342 525.305 95.3993L794.862 270.452C801.584 274.817 804.73 283.014 802.656 290.755L719.469 601.214C717.395 608.955 710.571 614.481 702.568 614.9L381.598 631.721C373.594 632.141 366.231 627.359 363.359 619.877L248.175 319.814Z" stroke="url(#paint23_linear_220_16095)" stroke-width="3"/>
<path opacity="0.252525" d="M246.476 316.206C243.735 308.674 246.155 300.234 252.471 295.3L505.22 97.8311C511.535 92.8968 520.31 92.5904 526.954 97.0721L792.862 276.429C799.506 280.911 802.509 289.161 800.3 296.866L711.892 605.183C709.682 612.887 702.764 618.293 694.754 618.572L374.207 629.766C366.197 630.046 358.918 625.136 356.177 617.605L246.476 316.206Z" stroke="url(#paint24_linear_220_16095)" stroke-width="3"/>
<path opacity="0.262626" d="M244.857 312.637C242.247 305.059 244.814 296.662 251.215 291.839L506.838 99.2129C513.239 94.3896 522.018 94.2363 528.583 98.8334L790.773 282.421C797.338 287.018 800.197 295.319 797.853 302.984L704.273 609.073C701.929 616.738 694.917 622.022 686.904 622.161L366.878 627.747C358.864 627.887 351.672 622.851 349.063 615.273L244.857 312.637Z" stroke="url(#paint25_linear_220_16095)" stroke-width="3"/>
<path opacity="0.272727" d="M243.316 309.11C240.84 301.487 243.553 293.137 250.037 288.426L508.443 100.683C514.927 95.9723 523.707 95.9722 530.191 100.683L788.597 288.426C795.081 293.137 797.794 301.487 795.317 309.11L696.615 612.884C694.138 620.506 687.035 625.667 679.02 625.667L359.613 625.667C351.598 625.667 344.495 620.507 342.018 612.884L243.316 309.11Z" stroke="url(#paint26_linear_220_16095)" stroke-width="3"/>
<path opacity="0.282828" d="M241.854 305.625C239.511 297.961 242.37 289.659 248.935 285.062L510.031 102.241C516.596 97.6437 525.375 97.7969 531.776 102.62L786.333 294.443C792.734 299.266 795.3 307.662 792.691 315.24L688.92 616.615C686.31 624.193 679.118 629.229 671.105 629.089L352.413 623.526C344.4 623.386 337.388 618.102 335.045 610.438L241.854 305.625Z" stroke="url(#paint27_linear_220_16095)" stroke-width="3"/>
<path opacity="0.292929" d="M240.468 302.186C238.258 294.482 241.261 286.231 247.906 281.749L511.6 103.886C518.244 99.4041 527.019 99.7105 533.334 104.645L783.979 300.47C790.294 305.404 792.714 313.844 789.973 321.375L681.186 620.265C678.445 627.797 671.166 632.706 663.156 632.427L345.278 621.326C337.268 621.046 330.349 615.641 328.14 607.937L240.468 302.186Z" stroke="url(#paint28_linear_220_16095)" stroke-width="3"/>
<path opacity="0.30303" d="M239.159 298.79C237.084 291.048 240.231 282.852 246.953 278.486L513.15 105.615C519.872 101.25 528.64 101.71 534.869 106.754L781.538 306.503C787.767 311.547 790.039 320.028 787.167 327.51L673.42 623.833C670.547 631.315 663.184 636.097 655.18 635.678L338.21 619.066C330.207 618.646 323.383 613.121 321.309 605.379L239.159 298.79Z" stroke="url(#paint29_linear_220_16095)" stroke-width="3"/>
<path opacity="0.313131" d="M237.925 295.442C235.986 287.666 239.275 279.525 246.071 275.278L514.68 107.433C521.477 103.186 530.235 103.798 536.375 108.95L779.01 312.544C785.149 317.696 787.273 326.215 784.271 333.646L665.619 627.32C662.617 634.751 655.171 639.404 647.176 638.845L331.21 616.75C323.215 616.191 316.489 610.547 314.55 602.771L237.925 295.442Z" stroke="url(#paint30_linear_220_16095)" stroke-width="3"/>
<path opacity="0.323232" d="M236.764 292.14C234.961 284.331 238.392 276.249 245.261 272.121L516.186 109.333C523.056 105.206 531.802 105.971 537.851 111.229L776.392 318.589C782.441 323.847 784.416 332.402 781.284 339.78L657.786 630.723C654.654 638.101 647.128 642.623 639.144 641.924L324.277 614.377C316.293 613.679 309.667 607.918 307.864 600.109L236.764 292.14Z" stroke="url(#paint31_linear_220_16095)" stroke-width="3"/>
<path opacity="0.333333" d="M235.677 288.889C234.011 281.05 237.582 273.029 244.523 269.021L517.669 111.32C524.61 107.313 533.342 108.231 539.298 113.594L773.687 324.639C779.644 330.001 781.469 338.59 778.209 345.911L649.924 634.045C646.664 641.367 639.06 645.757 631.089 644.919L317.415 611.951C309.444 611.113 302.92 605.238 301.253 597.399L235.677 288.889Z" stroke="url(#paint32_linear_220_16095)" stroke-width="3"/>
<path opacity="0.343434" d="M234.662 285.687C233.133 277.819 236.844 269.862 243.853 265.976L519.126 113.39C526.136 109.505 534.851 110.575 540.712 116.041L770.894 330.689C776.756 336.155 778.431 344.774 775.044 352.037L642.032 637.284C638.644 644.547 630.965 648.804 623.01 647.827L310.622 609.471C302.667 608.494 296.246 602.506 294.716 594.639L234.662 285.687Z" stroke="url(#paint33_linear_220_16095)" stroke-width="3"/>
<path opacity="0.353535" d="M233.717 282.537C232.325 274.644 236.174 266.753 243.251 262.99L520.555 115.545C527.632 111.782 536.326 113.004 542.092 118.572L768.012 336.741C773.778 342.308 775.302 350.955 771.789 358.159L634.111 640.44C630.598 647.643 622.845 651.765 614.909 650.65L303.898 606.94C295.962 605.825 289.646 599.726 288.254 591.833L233.717 282.537Z" stroke="url(#paint34_linear_220_16095)" stroke-width="3"/>
<path opacity="0.363636" d="M232.843 279.439C231.589 271.523 235.575 263.7 242.716 260.062L521.957 117.781C529.098 114.143 537.77 115.516 543.437 121.184L765.044 342.79C770.711 348.457 772.085 357.129 768.446 364.271L626.166 643.511C622.527 650.652 614.704 654.638 606.788 653.385L297.247 604.358C289.331 603.104 283.123 596.896 281.869 588.98L232.843 279.439Z" stroke="url(#paint35_linear_220_16095)" stroke-width="3"/>
<path opacity="0.373737" d="M232.038 276.396C230.923 268.459 235.045 260.707 242.248 257.193L523.33 120.101C530.533 116.587 539.18 118.112 544.747 123.877L761.989 348.838C767.557 354.603 768.778 363.297 765.016 370.374L618.197 646.5C614.434 653.576 606.543 657.425 598.65 656.033L290.67 601.728C282.777 600.336 276.678 594.021 275.562 586.084L232.038 276.396Z" stroke="url(#paint36_linear_220_16095)" stroke-width="3"/>
<path opacity="0.383838" d="M231.301 273.406C230.324 265.451 234.58 257.772 241.844 254.384L524.67 122.5C531.934 119.113 540.553 120.789 546.019 126.65L758.846 354.879C764.312 360.741 765.382 369.456 761.496 376.465L610.205 649.403C606.319 656.413 598.362 660.123 590.494 658.594L284.164 599.049C276.296 597.52 270.308 591.099 269.332 583.144L231.301 273.406Z" stroke="url(#paint37_linear_220_16095)" stroke-width="3"/>
<path opacity="0.393939" d="M230.631 270.472C229.793 262.502 234.183 254.898 241.505 251.638L525.98 124.982C533.301 121.722 541.889 123.547 547.252 129.503L755.617 360.916C760.98 366.872 761.898 375.604 757.891 382.545L602.192 652.222C598.185 659.163 590.164 662.734 582.324 661.068L277.733 596.325C269.893 594.659 264.018 588.134 263.18 580.163L230.631 270.472Z" stroke="url(#paint38_linear_220_16095)" stroke-width="3"/>
<path opacity="0.40404" d="M230.025 267.595C229.327 259.611 233.849 252.085 241.226 248.953L527.254 127.541C534.632 124.41 543.187 126.385 548.445 132.434L752.301 366.944C757.559 372.993 758.325 381.739 754.197 388.609L594.159 654.956C590.032 661.826 581.949 665.256 574.14 663.454L271.375 593.555C263.566 591.752 257.806 585.125 257.107 577.141L230.025 267.595Z" stroke="url(#paint39_linear_220_16095)" stroke-width="3"/>
<path opacity="0.414141" d="M229.484 264.777C228.925 256.782 233.578 249.336 241.009 246.333L528.493 130.182C535.924 127.18 544.443 129.304 549.595 135.444L748.898 372.964C754.05 379.104 754.663 387.863 750.415 394.66L586.108 657.606C581.861 664.403 573.72 667.692 565.943 665.753L265.092 590.743C257.316 588.804 251.672 582.078 251.113 574.083L229.484 264.777Z" stroke="url(#paint40_linear_220_16095)" stroke-width="3"/>
<path opacity="0.424242" d="M229.007 262.017C228.588 254.013 233.37 246.65 240.852 243.778L529.696 132.901C537.179 130.029 545.66 132.301 550.703 138.53L745.411 378.974C750.455 385.202 750.914 393.97 746.549 400.692L578.041 660.172C573.676 666.893 565.479 670.04 557.738 667.965L258.886 587.888C251.145 585.814 245.619 578.991 245.2 570.987L229.007 262.017Z" stroke="url(#paint41_linear_220_16095)" stroke-width="3"/>
<path opacity="0.434343" d="M228.593 259.317C228.313 251.307 233.223 244.028 240.754 241.287L530.862 135.697C538.393 132.955 546.833 135.375 551.767 141.691L741.838 384.971C746.773 391.286 747.079 400.061 742.597 406.706L569.96 662.651C565.478 669.296 557.227 672.299 549.523 670.089L252.757 584.993C245.052 582.784 239.647 575.865 239.367 567.855L228.593 259.317Z" stroke="url(#paint42_linear_220_16095)" stroke-width="3"/>
<path opacity="0.444444" d="M228.239 256.679C228.099 248.665 233.135 241.473 240.713 238.864L531.988 138.569C539.566 135.96 547.963 138.527 552.786 144.928L738.18 390.955C743.004 397.355 743.157 406.134 738.56 412.699L561.865 665.046C557.268 671.611 548.966 674.47 541.302 672.127L246.704 582.059C239.039 579.716 233.755 572.704 233.615 564.69L228.239 256.679Z" stroke="url(#paint43_linear_220_16095)" stroke-width="3"/>
<path opacity="0.454545" d="M227.943 254.103C227.943 246.088 233.104 238.985 240.726 236.508L533.073 141.519C540.695 139.042 549.045 141.755 553.756 148.239L734.436 396.924C739.147 403.408 739.147 412.188 734.436 418.672L553.756 667.357C549.045 673.841 540.695 676.554 533.073 674.077L240.726 579.088C233.104 576.612 227.943 569.508 227.943 561.494L227.943 254.103Z" stroke="url(#paint44_linear_220_16095)" stroke-width="3"/>
<path opacity="0.464646" d="M227.709 251.589C227.849 243.575 233.133 236.563 240.797 234.22L534.118 144.543C541.783 142.199 550.084 145.058 554.681 151.623L730.611 402.876C735.208 409.441 735.055 418.22 730.231 424.621L545.64 669.581C540.817 675.982 532.421 678.549 524.843 675.94L234.83 576.08C227.252 573.471 222.216 566.279 222.356 558.265L227.709 251.589Z" stroke="url(#paint45_linear_220_16095)" stroke-width="3"/>
<path opacity="0.474747" d="M227.527 249.138C227.806 241.128 233.212 234.209 240.916 232L535.116 147.64C542.82 145.43 551.071 148.433 555.553 155.078L726.697 408.81C731.179 415.454 730.872 424.229 725.938 430.545L537.511 671.72C532.577 678.036 524.137 680.456 516.605 677.715L229.007 573.037C221.476 570.296 216.566 563.017 216.846 555.007L227.527 249.138Z" stroke="url(#paint46_linear_220_16095)" stroke-width="3"/>
<path opacity="0.484848" d="M227.404 246.752C227.824 238.748 233.349 231.925 241.091 229.851L536.073 150.81C543.815 148.736 552.012 151.883 556.377 158.604L722.703 414.724C727.068 421.446 726.609 430.214 721.565 436.443L529.378 673.774C524.334 680.003 515.853 682.275 508.371 679.403L223.266 569.962C215.784 567.089 211.002 559.726 211.421 551.722L227.404 246.752Z" stroke="url(#paint47_linear_220_16095)" stroke-width="3"/>
<path opacity="0.494949" d="M227.337 244.431C227.896 236.436 233.539 229.71 241.316 227.771L536.985 154.053C544.762 152.114 552.903 155.403 557.15 162.199L718.627 420.617C722.874 427.414 722.262 436.173 717.11 442.313L521.239 675.742C516.088 681.882 507.569 684.006 500.137 681.004L217.605 566.853C210.174 563.851 205.521 556.405 206.08 548.41L227.337 244.431Z" stroke="url(#paint48_linear_220_16095)" stroke-width="3"/>
<path opacity="0.50505" d="M227.321 242.179C228.02 234.194 233.78 227.568 241.589 225.765L537.85 157.368C545.659 155.565 553.741 158.996 557.869 165.866L714.468 426.49C718.596 433.36 717.831 442.107 712.572 448.155L513.095 677.627C507.837 683.676 499.282 685.651 491.905 682.52L212.022 563.717C204.645 560.585 200.123 553.059 200.821 545.075L227.321 242.179Z" stroke="url(#paint49_linear_220_16095)" stroke-width="3"/>
<path opacity="0.515152" d="M227.359 239.992C228.197 232.021 234.072 225.497 241.911 223.83L538.667 160.753C546.507 159.086 554.528 162.658 558.535 169.598L710.228 432.338C714.235 439.279 713.318 448.011 707.955 453.967L504.95 679.427C499.587 685.383 490.999 687.208 483.677 683.948L206.521 560.55C199.199 557.29 194.809 549.687 195.647 541.716L227.359 239.992Z" stroke="url(#paint50_linear_220_16095)" stroke-width="3"/>
<path opacity="0.525253" d="M227.446 237.873C228.422 229.918 234.41 223.497 242.278 221.967L539.434 164.206C547.302 162.677 555.259 166.387 559.145 173.397L705.905 438.161C709.791 445.17 708.721 453.885 703.255 459.746L496.802 681.141C491.335 687.002 482.717 688.677 475.453 685.29L201.097 557.356C193.833 553.969 189.577 546.29 190.554 538.335L227.446 237.873Z" stroke="url(#paint51_linear_220_16095)" stroke-width="3"/>
<path opacity="0.535354" d="M227.582 235.823C228.698 227.887 234.797 221.571 242.69 220.179L540.151 167.729C548.044 166.337 555.936 170.186 559.698 177.262L701.503 443.957C705.265 451.034 704.043 459.728 698.476 465.494L488.654 682.771C483.086 688.536 474.44 690.061 467.236 686.547L195.755 554.137C188.551 550.624 184.429 542.871 185.545 534.935L227.582 235.823Z" stroke="url(#paint52_linear_220_16095)" stroke-width="3"/>
<path opacity="0.545455" d="M227.768 233.843C229.022 225.927 235.23 219.718 243.146 218.465L540.819 171.318C548.735 170.064 556.558 174.05 560.197 181.191L697.022 449.726C700.66 456.867 699.287 465.539 693.619 471.206L480.509 684.316C474.842 689.983 466.17 691.357 459.029 687.718L190.495 550.893C183.354 547.254 179.368 539.431 180.621 531.515L227.768 233.843Z" stroke="url(#paint53_linear_220_16095)" stroke-width="3"/>
<path opacity="0.555556" d="M228.001 231.932C229.393 224.039 235.708 217.94 243.645 216.824L541.434 174.973C549.371 173.857 557.123 177.979 560.636 185.183L692.461 455.464C695.975 462.668 694.45 471.314 688.685 476.882L472.368 685.776C466.603 691.344 457.908 692.566 450.832 688.803L185.316 547.626C178.239 543.863 174.39 535.972 175.782 528.079L228.001 231.932Z" stroke="url(#paint54_linear_220_16095)" stroke-width="3"/>
<path opacity="0.565657" d="M228.278 230.093C229.807 222.225 236.228 216.237 244.183 215.261L541.995 178.694C549.95 177.717 557.629 181.974 561.016 189.238L687.822 461.173C691.209 468.437 689.534 477.056 683.672 482.522L464.231 687.154C458.369 692.62 449.655 693.69 442.645 689.805L180.217 544.338C173.207 540.453 169.497 532.495 171.026 524.628L228.278 230.093Z" stroke="url(#paint55_linear_220_16095)" stroke-width="3"/>
<path opacity="0.575758" d="M228.598 228.324C230.265 220.484 236.79 214.609 244.76 213.772L542.501 182.478C550.471 181.64 558.075 186.03 561.335 193.352L683.104 466.849C686.364 474.171 684.538 482.759 678.582 488.122L456.099 688.447C450.143 693.81 441.411 694.727 434.47 690.72L175.199 541.03C168.258 537.023 164.687 529.002 166.354 521.162L228.598 228.324Z" stroke="url(#paint56_linear_220_16095)" stroke-width="3"/>
<path opacity="0.585859" d="M228.964 226.628C230.767 218.819 237.393 213.059 245.377 212.36L542.954 186.326C550.938 185.627 558.464 190.149 561.595 197.527L678.312 472.493C681.443 479.871 679.468 488.426 673.419 493.684L447.978 689.657C441.929 694.915 433.183 695.681 426.313 691.553L170.266 537.704C163.396 533.576 159.965 525.494 161.768 517.685L228.964 226.628Z" stroke="url(#paint57_linear_220_16095)" stroke-width="3"/>
<path opacity="0.59596" d="M229.368 225.005C231.307 217.228 238.033 211.584 246.028 211.025L543.348 190.235C551.343 189.676 558.789 194.328 561.791 201.759L673.441 478.102C676.443 485.533 674.319 494.052 668.179 499.204L439.863 690.784C433.724 695.936 424.965 696.548 418.168 692.301L165.412 534.361C158.615 530.114 155.326 521.973 157.265 514.197L229.368 225.005Z" stroke="url(#paint58_linear_220_16095)" stroke-width="3"/>
<path opacity="0.606061" d="M229.815 223.455C231.889 215.713 238.712 210.188 246.716 209.768L543.686 194.205C551.69 193.785 559.054 198.567 561.926 206.05L668.496 483.676C671.369 491.158 669.096 499.639 662.868 504.683L431.762 691.828C425.533 696.872 416.765 697.332 410.043 692.967L160.642 531.003C153.92 526.638 150.773 518.441 152.848 510.7L229.815 223.455Z" stroke="url(#paint59_linear_220_16095)" stroke-width="3"/>
<path opacity="0.616162" d="M230.299 221.978C232.508 214.274 239.427 208.868 247.437 208.589L543.966 198.234C551.976 197.954 559.255 202.864 561.996 210.395L663.477 489.211C666.218 496.743 663.798 505.182 657.482 510.117L423.671 692.79C417.356 697.724 408.581 698.031 401.937 693.549L155.953 527.631C149.308 523.149 146.305 514.898 148.514 507.194L230.299 221.978Z" stroke="url(#paint60_linear_220_16095)" stroke-width="3"/>
<path opacity="0.626263" d="M230.818 220.576C233.162 212.912 240.174 207.628 248.187 207.488L544.185 202.322C552.198 202.182 559.39 207.218 561.999 214.796L658.382 494.709C660.991 502.287 658.424 510.684 652.023 515.507L415.593 693.67C409.192 698.493 400.413 698.647 393.848 694.05L151.344 524.247C144.779 519.65 141.921 511.348 144.264 503.683L230.818 220.576Z" stroke="url(#paint61_linear_220_16095)" stroke-width="3"/>
<path opacity="0.636364" d="M231.377 219.25C233.853 211.627 240.957 206.467 248.971 206.467L544.346 206.467C552.361 206.467 559.464 211.628 561.941 219.25L653.217 500.168C655.693 507.791 652.98 516.141 646.496 520.852L407.533 694.469C401.049 699.18 392.269 699.18 385.785 694.469L146.821 520.852C140.337 516.141 137.624 507.791 140.101 500.168L231.377 219.25Z" stroke="url(#paint62_linear_220_16095)" stroke-width="3"/>
<path opacity="0.646465" d="M231.968 217.998C234.577 210.42 241.769 205.384 249.783 205.524L544.445 210.667C552.459 210.807 559.471 216.091 561.814 223.755L647.978 505.586C650.321 513.25 647.463 521.552 640.898 526.149L399.487 695.186C392.922 699.783 384.143 699.63 377.743 694.806L142.379 517.447C135.978 512.624 133.411 504.227 136.02 496.649L231.968 217.998Z" stroke="url(#paint63_linear_220_16095)" stroke-width="3"/>
<path opacity="0.656566" d="M232.591 216.822C235.332 209.291 242.611 204.381 250.621 204.661L544.482 214.922C552.491 215.202 559.41 220.608 561.619 228.312L642.668 510.961C644.877 518.665 641.874 526.916 635.229 531.398L391.459 695.823C384.815 700.304 376.04 699.998 369.724 695.064L138.018 514.035C131.702 509.1 129.282 500.66 132.023 493.129L232.591 216.822Z" stroke="url(#paint64_linear_220_16095)" stroke-width="3"/>
<path opacity="0.666667" d="M233.246 215.721C236.118 208.239 243.482 203.457 251.485 203.877L544.456 219.23C552.459 219.65 559.283 225.175 561.357 232.917L637.287 516.293C639.362 524.034 636.215 532.231 629.494 536.596L383.451 696.378C376.729 700.743 367.961 700.284 361.733 695.24L133.74 510.615C127.511 505.571 125.238 497.09 128.111 489.608L233.246 215.721Z" stroke="url(#paint65_linear_220_16095)" stroke-width="3"/>
<path opacity="0.676768" d="M233.933 214.698C236.935 207.267 244.381 202.615 252.376 203.174L544.368 223.592C552.363 224.151 559.089 229.794 561.028 237.571L631.839 521.581C633.778 529.358 630.489 537.498 623.692 541.746L375.465 696.855C368.668 701.103 359.909 700.49 353.77 695.338L129.545 507.191C123.405 502.04 121.281 493.52 124.284 486.089L233.933 214.698Z" stroke="url(#paint66_linear_220_16095)" stroke-width="3"/>
<path opacity="0.686869" d="M234.647 213.752C237.778 206.374 245.304 201.852 253.289 202.55L544.214 228.003C552.198 228.702 558.825 234.462 560.628 242.271L626.322 526.823C628.125 534.633 624.694 542.715 617.824 546.843L367.5 697.253C360.63 701.381 351.883 700.615 345.834 695.357L125.431 503.764C119.382 498.506 117.407 489.951 120.539 482.573L234.647 213.752Z" stroke="url(#paint67_linear_220_16095)" stroke-width="3"/>
<path opacity="0.69697" d="M235.388 212.882C238.648 205.56 246.252 201.17 254.223 202.008L543.996 232.464C551.967 233.302 558.492 239.177 560.158 247.016L620.737 532.019C622.403 539.858 618.832 547.879 611.891 551.887L359.558 697.572C352.617 701.579 343.885 700.661 337.929 695.298L121.399 500.334C115.443 494.971 113.618 486.383 116.878 479.061L235.388 212.882Z" stroke="url(#paint68_linear_220_16095)" stroke-width="3"/>
<path opacity="0.707071" d="M236.155 212.091C239.542 204.828 247.221 200.571 255.176 201.548L543.711 236.975C551.666 237.952 558.087 243.94 559.617 251.807L615.085 537.168C616.614 545.036 612.904 552.993 605.894 556.879L351.64 697.814C344.63 701.7 335.916 700.63 330.054 695.164L117.448 496.905C111.587 491.439 109.911 482.821 113.299 475.557L236.155 212.091Z" stroke="url(#paint69_linear_220_16095)" stroke-width="3"/>
<path opacity="0.717172" d="M236.946 211.377C240.459 204.173 248.212 200.051 256.148 201.167L543.36 241.532C551.297 242.647 557.613 248.746 559.004 256.639L609.368 542.267C610.76 550.16 606.911 558.052 599.835 561.814L343.749 697.977C336.673 701.74 327.978 700.518 322.213 694.95L113.58 493.476C107.814 487.908 106.29 479.262 109.803 472.058L236.946 211.377Z" stroke="url(#paint70_linear_220_16095)" stroke-width="3"/>
<path opacity="0.727273" d="M237.76 210.742C241.398 203.6 249.221 199.614 257.137 200.868L542.942 246.135C550.858 247.389 557.066 253.597 558.32 261.513L603.587 547.318C604.841 555.234 600.855 563.057 593.713 566.695L335.886 698.065C328.745 701.704 320.073 700.33 314.405 694.663L109.792 490.05C104.125 484.382 102.751 475.711 106.39 468.569L237.76 210.742Z" stroke="url(#paint71_linear_220_16095)" stroke-width="3"/>
<path opacity="0.737374" d="M238.596 210.184C242.359 203.108 250.251 199.259 258.143 200.65L542.457 250.783C550.35 252.174 556.449 258.49 557.564 266.427L597.743 552.316C598.859 560.253 594.737 568.005 587.533 571.519L328.052 698.076C320.849 701.59 312.202 700.065 306.634 694.3L106.087 486.627C100.52 480.862 99.2976 472.167 103.06 465.091L238.596 210.184Z" stroke="url(#paint72_linear_220_16095)" stroke-width="3"/>
<path opacity="0.747475" d="M239.452 209.707C243.337 202.697 251.295 198.986 259.162 200.515L541.902 255.474C549.769 257.004 555.757 263.425 556.734 271.38L591.836 557.265C592.813 565.22 588.556 572.899 581.293 576.286L320.247 698.014C312.983 701.401 304.365 699.725 298.899 693.864L102.461 483.211C96.9955 477.349 95.9254 468.635 99.811 461.625L239.452 209.707Z" stroke="url(#paint73_linear_220_16095)" stroke-width="3"/>
<path opacity="0.757576" d="M240.325 209.306C244.333 202.365 252.354 198.793 260.193 200.46L541.278 260.206C549.117 261.873 554.992 268.397 555.83 276.368L585.868 562.158C586.706 570.129 582.315 577.733 574.994 580.992L312.473 697.874C305.152 701.134 296.564 699.308 291.201 693.352L98.9165 479.799C93.5536 473.843 92.6359 465.111 96.6432 458.17L240.325 209.306Z" stroke="url(#paint74_linear_220_16095)" stroke-width="3"/>
<path opacity="0.767677" d="M241.216 208.985C245.343 202.115 253.425 198.684 261.235 200.487L540.583 264.98C548.393 266.783 554.153 273.409 554.851 281.393L579.839 566.999C580.537 574.983 576.015 582.509 568.637 585.64L304.732 697.662C297.354 700.793 288.799 698.818 283.541 692.77L95.4513 476.397C90.1932 470.348 89.428 461.601 93.5558 454.732L241.216 208.985Z" stroke="url(#paint75_linear_220_16095)" stroke-width="3"/>
<path opacity="0.777778" d="M242.122 208.743C246.369 201.947 254.51 198.657 262.287 200.596L539.819 269.793C547.596 271.732 553.24 278.458 553.799 286.453L573.751 571.785C574.31 579.78 569.658 587.226 562.226 590.229L297.025 697.377C289.594 700.379 281.075 698.255 275.923 692.116L92.0669 473.005C86.9152 466.865 86.3027 458.107 90.5499 451.31L242.122 208.743Z" stroke="url(#paint76_linear_220_16095)" stroke-width="3"/>
<path opacity="0.787879" d="M243.043 208.581C247.409 201.859 255.605 198.713 263.347 200.787L538.985 274.644C546.727 276.719 552.252 283.542 552.671 291.546L567.606 576.516C568.026 584.52 563.244 591.883 555.761 594.756L289.353 697.02C281.871 699.892 273.39 697.62 268.346 691.391L88.7626 469.624C83.7188 463.395 83.2593 454.627 87.6244 447.905L243.043 208.581Z" stroke="url(#paint77_linear_220_16095)" stroke-width="3"/>
<path opacity="0.79798" d="M243.977 208.497C248.459 201.852 256.71 198.85 264.414 201.059L538.079 279.531C545.783 281.74 551.189 288.659 551.469 296.669L561.404 581.189C561.684 589.199 556.774 596.478 549.243 599.219L281.718 696.59C274.187 699.331 265.747 696.911 260.813 690.596L85.5374 466.254C80.6031 459.938 80.2967 451.163 84.7784 444.519L243.977 208.497Z" stroke="url(#paint78_linear_220_16095)" stroke-width="3"/>
<path opacity="0.808081" d="M244.922 208.493C249.519 201.928 257.821 199.069 265.485 201.413L537.101 284.454C544.765 286.797 550.049 293.809 550.189 301.823L555.146 585.806C555.286 593.819 550.25 601.011 542.672 603.621L274.12 696.091C266.542 698.7 258.145 696.133 253.322 689.732L82.3905 462.899C77.5672 456.498 77.414 447.719 82.011 441.154L244.922 208.493Z" stroke="url(#paint79_linear_220_16095)" stroke-width="3"/>
<path opacity="0.818182" d="M245.877 208.567C250.588 202.083 258.938 199.37 266.561 201.847L536.051 289.41C543.673 291.886 548.834 298.99 548.834 307.004L548.834 590.363C548.834 598.378 543.673 605.481 536.051 607.958L266.561 695.52C258.938 697.997 250.588 695.284 245.877 688.8L79.323 459.558C74.6121 453.074 74.6121 444.294 79.3231 437.81L245.877 208.567Z" stroke="url(#paint80_linear_220_16095)" stroke-width="3"/>
<path opacity="0.828283" d="M246.84 208.722C251.663 202.321 260.059 199.754 267.637 202.363L534.927 294.398C542.505 297.008 547.541 304.2 547.401 312.213L542.468 594.862C542.328 602.875 537.044 609.887 529.379 612.23L259.04 694.881C251.376 697.225 243.074 694.366 238.477 687.801L76.3322 456.234C71.7351 449.668 71.8883 440.89 76.7117 434.489L246.84 208.722Z" stroke="url(#paint81_linear_220_16095)" stroke-width="3"/>
<path opacity="0.838384" d="M247.809 208.955C252.743 202.639 261.183 200.219 268.715 202.96L533.73 299.418C541.262 302.159 546.171 309.438 545.892 317.448L536.049 599.3C535.769 607.309 530.364 614.228 522.66 616.437L251.561 694.174C243.857 696.383 235.606 693.38 231.125 686.735L73.419 452.927C68.9372 446.283 69.2436 437.508 74.1779 431.192L247.809 208.955Z" stroke="url(#paint82_linear_220_16095)" stroke-width="3"/>
<path opacity="0.848485" d="M248.786 209.268C253.83 203.039 262.311 200.767 269.793 203.639L532.461 304.468C539.944 307.34 544.726 314.704 544.306 322.707L529.581 603.678C529.162 611.682 523.636 618.505 515.895 620.579L244.126 693.4C236.384 695.474 228.187 692.328 223.822 685.606L70.5845 449.641C66.2194 442.919 66.6789 434.151 71.7227 427.923L248.786 209.268Z" stroke="url(#paint83_linear_220_16095)" stroke-width="3"/>
<path opacity="0.858586" d="M249.764 209.659C254.916 203.519 263.435 201.395 270.866 204.397L531.116 309.545C538.547 312.548 543.2 319.993 542.641 327.989L523.061 607.993C522.502 615.989 516.858 622.714 509.082 624.653L236.731 692.558C228.954 694.497 220.814 691.208 216.566 684.411L67.8241 446.374C63.577 439.577 64.1895 430.818 69.3412 424.679L249.764 209.659Z" stroke="url(#paint84_linear_220_16095)" stroke-width="3"/>
<path opacity="0.868687" d="M250.747 210.129C256.005 204.081 264.56 202.106 271.937 205.237L529.698 314.65C537.075 317.782 541.597 325.308 540.899 333.292L516.494 612.247C515.795 620.231 510.035 626.858 502.226 628.661L229.381 691.652C221.572 693.455 213.49 690.024 209.362 683.154L65.1408 443.129C61.0129 436.259 61.7782 427.513 67.0363 421.464L250.747 210.129Z" stroke="url(#paint85_linear_220_16095)" stroke-width="3"/>
<path opacity="0.878788" d="M251.731 210.679C257.094 204.723 265.682 202.898 273.004 206.158L528.206 319.781C535.528 323.041 539.918 330.645 539.08 338.615L509.88 616.438C509.042 624.409 503.167 630.934 495.327 632.6L222.078 690.681C214.239 692.348 206.218 688.776 202.211 681.836L62.5339 439.908C58.5265 432.967 59.4443 424.236 64.8071 418.279L251.731 210.679Z" stroke="url(#paint86_linear_220_16095)" stroke-width="3"/>
<path opacity="0.888889" d="M252.714 211.307C258.18 205.446 266.798 203.77 274.062 207.158L526.637 324.935C533.901 328.322 538.158 336.002 537.181 343.957L503.218 620.565C502.241 628.52 496.253 634.941 488.386 636.471L214.82 689.646C206.952 691.176 198.995 687.465 195.11 680.455L59.9999 436.711C56.1143 429.701 57.1843 420.987 62.6503 415.125L252.714 211.307Z" stroke="url(#paint87_linear_220_16095)" stroke-width="3"/>
<path opacity="0.89899" d="M253.695 212.014C259.263 206.249 267.909 204.724 275.113 208.237L524.994 330.113C532.198 333.626 536.32 341.378 535.204 349.315L496.512 624.628C495.396 632.564 489.297 638.88 481.404 640.272L207.61 688.549C199.717 689.941 191.825 686.092 188.063 679.016L57.5409 433.54C53.7782 426.463 55.0001 417.769 60.5676 412.004L253.695 212.014Z" stroke="url(#paint88_linear_220_16095)" stroke-width="3"/>
<path opacity="0.909091" d="M254.676 212.8C260.343 207.133 269.015 205.759 276.156 209.398L523.278 335.313C530.419 338.951 534.405 346.774 533.151 354.69L489.764 628.626C488.51 636.542 482.302 642.751 474.386 644.005L200.449 687.392C192.533 688.645 184.71 684.659 181.072 677.518L55.1572 430.397C51.5186 423.256 52.8921 414.584 58.5594 408.917L254.676 212.8Z" stroke="url(#paint89_linear_220_16095)" stroke-width="3"/>
<path opacity="0.919192" d="M255.648 213.662C261.413 208.095 270.108 206.873 277.185 210.635L521.481 340.53C528.558 344.293 532.407 352.184 531.015 360.077L482.97 632.557C481.578 640.45 475.262 646.549 467.325 647.664L193.335 686.171C185.398 687.287 177.646 683.165 174.132 675.961L52.8425 427.28C49.3291 420.076 50.8537 411.43 56.619 405.862L255.648 213.662Z" stroke="url(#paint90_linear_220_16095)" stroke-width="3"/>
<path opacity="0.929293" d="M256.618 214.603C262.48 209.137 271.194 208.067 278.204 211.953L519.613 345.768C526.623 349.654 530.333 357.611 528.804 365.478L476.138 636.423C474.608 644.29 468.187 650.278 460.232 651.255L186.274 684.893C178.319 685.869 170.64 681.613 167.253 674.349L50.6035 424.194C47.2163 416.93 48.8916 408.312 54.7532 402.846L256.618 214.603Z" stroke="url(#paint91_linear_220_16095)" stroke-width="3"/>
<path opacity="0.939394" d="M257.581 215.622C263.537 210.259 272.269 209.341 279.21 213.349L517.668 351.023C524.609 355.03 528.18 363.051 526.514 370.89L469.266 640.221C467.599 648.061 461.074 653.936 453.104 654.774L179.264 683.555C171.293 684.393 163.69 680.003 160.43 672.681L48.4355 421.138C45.1757 413.817 47.0011 405.228 52.9572 399.866L257.581 215.622Z" stroke="url(#paint92_linear_220_16095)" stroke-width="3"/>
<path opacity="0.949495" d="M258.532 216.719C264.581 211.461 273.327 210.695 280.197 214.823L515.644 356.294C522.514 360.422 525.945 368.504 524.142 376.313L462.352 643.954C460.549 651.763 453.923 657.523 445.939 658.222L172.304 682.162C164.319 682.86 156.794 678.338 153.662 670.961L46.3357 418.116C43.2042 410.738 45.1792 402.183 51.228 396.925L258.532 216.719Z" stroke="url(#paint93_linear_220_16095)" stroke-width="3"/>
<path opacity="0.959596" d="M259.476 217.891C265.616 212.739 274.375 212.126 281.171 216.374L513.548 361.578C520.344 365.825 523.633 373.966 521.695 381.743L455.405 647.616C453.466 655.393 446.74 661.037 438.745 661.596L165.399 680.71C157.404 681.269 149.958 676.616 146.956 669.185L44.309 415.125C41.3066 407.694 43.4307 399.174 49.5703 394.023L259.476 217.891Z" stroke="url(#paint94_linear_220_16095)" stroke-width="3"/>
<path opacity="0.969697" d="M260.409 219.14C266.637 214.096 275.405 213.637 282.127 218.002L511.374 366.877C518.095 371.242 521.242 379.438 519.168 387.18L448.421 651.211C446.346 658.953 439.523 664.478 431.519 664.898L158.548 679.204C150.545 679.623 143.181 674.841 140.309 667.359L42.3508 412.169C39.4786 404.687 41.751 396.206 47.9796 391.162L260.409 219.14Z" stroke="url(#paint95_linear_220_16095)" stroke-width="3"/>
<path opacity="0.979798" d="M261.328 220.464C267.643 215.53 276.418 215.223 283.062 219.705L509.122 372.185C515.767 376.666 518.77 384.917 516.561 392.621L441.401 654.736C439.191 662.44 432.273 667.846 424.263 668.125L151.751 677.642C143.741 677.921 136.462 673.012 133.721 665.48L40.4599 409.247C37.7188 401.716 40.1389 393.276 46.4545 388.341L261.328 220.464Z" stroke="url(#paint96_linear_220_16095)" stroke-width="3"/>
<path opacity="0.989899" d="M262.235 221.866C268.636 217.042 277.415 216.889 283.98 221.486L506.798 377.505C513.363 382.102 516.221 390.404 513.878 398.068L434.35 658.193C432.007 665.857 424.995 671.141 416.981 671.281L145.012 676.028C136.999 676.168 129.807 671.132 127.197 663.554L38.6395 406.363C36.0302 398.785 38.5972 390.389 44.9981 385.566L262.235 221.866Z" stroke="url(#paint97_linear_220_16095)" stroke-width="3"/>
<path d="M263.126 223.342C269.61 218.631 278.39 218.631 284.874 223.342L504.395 382.833C510.879 387.544 513.592 395.895 511.115 403.517L427.266 661.579C424.789 669.202 417.686 674.362 409.671 674.362H138.329C130.314 674.362 123.211 669.202 120.734 661.579L36.8848 403.517C34.4081 395.895 37.1213 387.544 43.6053 382.833L263.126 223.342Z" stroke="url(#paint98_linear_220_16095)" stroke-width="3"/>
<defs>
<linearGradient id="paint0_linear_220_16095" x1="633.811" y1="537.545" x2="582.295" y2="170.988" gradientUnits="userSpaceOnUse">
<stop stop-color="#DAEAF3"/>
<stop offset="1" stop-color="#E1ECF3"/>
</linearGradient>
<linearGradient id="paint1_linear_220_16095" x1="627.223" y1="538.776" x2="582.194" y2="172.047" gradientUnits="userSpaceOnUse">
<stop stop-color="#DAEAF3"/>
<stop offset="1" stop-color="#E1ECF3"/>
</linearGradient>
<linearGradient id="paint2_linear_220_16095" x1="620.638" y1="539.951" x2="582.087" y2="173.164" gradientUnits="userSpaceOnUse">
<stop stop-color="#DAEAF3"/>
<stop offset="1" stop-color="#E1ECF3"/>
</linearGradient>
<linearGradient id="paint3_linear_220_16095" x1="614.06" y1="541.072" x2="581.975" y2="174.34" gradientUnits="userSpaceOnUse">
<stop stop-color="#DAEAF3"/>
<stop offset="1" stop-color="#E1ECF3"/>
</linearGradient>
<linearGradient id="paint4_linear_220_16095" x1="607.487" y1="542.136" x2="581.854" y2="175.574" gradientUnits="userSpaceOnUse">
<stop stop-color="#DAEAF3"/>
<stop offset="1" stop-color="#E1ECF3"/>
</linearGradient>
<linearGradient id="paint5_linear_220_16095" x1="600.922" y1="543.143" x2="581.726" y2="176.865" gradientUnits="userSpaceOnUse">
<stop stop-color="#DAEAF3"/>
<stop offset="1" stop-color="#E1ECF3"/>
</linearGradient>
<linearGradient id="paint6_linear_220_16095" x1="594.366" y1="544.095" x2="581.589" y2="178.213" gradientUnits="userSpaceOnUse">
<stop stop-color="#DAEAF3"/>
<stop offset="1" stop-color="#E1ECF3"/>
</linearGradient>
<linearGradient id="paint7_linear_220_16095" x1="587.817" y1="544.994" x2="581.439" y2="179.619" gradientUnits="userSpaceOnUse">
<stop stop-color="#DAEAF3"/>
<stop offset="1" stop-color="#E1ECF3"/>
</linearGradient>
<linearGradient id="paint8_linear_220_16095" x1="581.282" y1="545.836" x2="581.282" y2="181.082" gradientUnits="userSpaceOnUse">
<stop stop-color="#DAEAF3"/>
<stop offset="1" stop-color="#E1ECF3"/>
</linearGradient>
<linearGradient id="paint9_linear_220_16095" x1="574.756" y1="546.624" x2="581.11" y2="182.6" gradientUnits="userSpaceOnUse">
<stop stop-color="#DAEAF3"/>
<stop offset="1" stop-color="#E1ECF3"/>
</linearGradient>
<linearGradient id="paint10_linear_220_16095" x1="568.242" y1="547.359" x2="580.925" y2="184.177" gradientUnits="userSpaceOnUse">
<stop stop-color="#DAEAF3"/>
<stop offset="1" stop-color="#E1ECF3"/>
</linearGradient>
<linearGradient id="paint11_linear_220_16095" x1="561.743" y1="548.038" x2="580.726" y2="185.807" gradientUnits="userSpaceOnUse">
<stop stop-color="#DAEAF3"/>
<stop offset="1" stop-color="#E1ECF3"/>
</linearGradient>
<linearGradient id="paint12_linear_220_16095" x1="555.257" y1="548.665" x2="580.512" y2="187.495" gradientUnits="userSpaceOnUse">
<stop stop-color="#DAEAF3"/>
<stop offset="1" stop-color="#E1ECF3"/>
</linearGradient>
<linearGradient id="paint13_linear_220_16095" x1="548.785" y1="549.239" x2="580.281" y2="189.236" gradientUnits="userSpaceOnUse">
<stop stop-color="#DAEAF3"/>
<stop offset="1" stop-color="#E1ECF3"/>
</linearGradient>
<linearGradient id="paint14_linear_220_16095" x1="542.333" y1="549.759" x2="580.037" y2="191.033" gradientUnits="userSpaceOnUse">
<stop stop-color="#DAEAF3"/>
<stop offset="1" stop-color="#E1ECF3"/>
</linearGradient>
<linearGradient id="paint15_linear_220_16095" x1="535.894" y1="550.227" x2="579.77" y2="192.884" gradientUnits="userSpaceOnUse">
<stop stop-color="#DAEAF3"/>
<stop offset="1" stop-color="#E1ECF3"/>
</linearGradient>
<linearGradient id="paint16_linear_220_16095" x1="529.475" y1="550.644" x2="579.487" y2="194.79" gradientUnits="userSpaceOnUse">
<stop stop-color="#DAEAF3"/>
<stop offset="1" stop-color="#E1ECF3"/>
</linearGradient>
<linearGradient id="paint17_linear_220_16095" x1="523.074" y1="551.008" x2="579.183" y2="196.748" gradientUnits="userSpaceOnUse">
<stop stop-color="#DAEAF3"/>
<stop offset="1" stop-color="#E1ECF3"/>
</linearGradient>
<linearGradient id="paint18_linear_220_16095" x1="516.694" y1="551.321" x2="578.86" y2="198.76" gradientUnits="userSpaceOnUse">
<stop stop-color="#DAEAF3"/>
<stop offset="1" stop-color="#E1ECF3"/>
</linearGradient>
<linearGradient id="paint19_linear_220_16095" x1="510.333" y1="551.582" x2="578.513" y2="200.823" gradientUnits="userSpaceOnUse">
<stop stop-color="#DAEAF3"/>
<stop offset="1" stop-color="#E1ECF3"/>
</linearGradient>
<linearGradient id="paint20_linear_220_16095" x1="503.993" y1="551.796" x2="578.145" y2="202.94" gradientUnits="userSpaceOnUse">
<stop stop-color="#DAEAF3"/>
<stop offset="1" stop-color="#E1ECF3"/>
</linearGradient>
<linearGradient id="paint21_linear_220_16095" x1="497.675" y1="551.957" x2="577.752" y2="205.107" gradientUnits="userSpaceOnUse">
<stop stop-color="#DAEAF3"/>
<stop offset="1" stop-color="#E1ECF3"/>
</linearGradient>
<linearGradient id="paint22_linear_220_16095" x1="491.381" y1="552.071" x2="577.336" y2="207.326" gradientUnits="userSpaceOnUse">
<stop stop-color="#DAEAF3"/>
<stop offset="1" stop-color="#E1ECF3"/>
</linearGradient>
<linearGradient id="paint23_linear_220_16095" x1="485.112" y1="552.135" x2="576.895" y2="209.596" gradientUnits="userSpaceOnUse">
<stop stop-color="#DAEAF3"/>
<stop offset="1" stop-color="#E1ECF3"/>
</linearGradient>
<linearGradient id="paint24_linear_220_16095" x1="478.866" y1="552.151" x2="576.427" y2="211.915" gradientUnits="userSpaceOnUse">
<stop stop-color="#DAEAF3"/>
<stop offset="1" stop-color="#E1ECF3"/>
</linearGradient>
<linearGradient id="paint25_linear_220_16095" x1="472.646" y1="552.118" x2="575.932" y2="214.283" gradientUnits="userSpaceOnUse">
<stop stop-color="#DAEAF3"/>
<stop offset="1" stop-color="#E1ECF3"/>
</linearGradient>
<linearGradient id="paint26_linear_220_16095" x1="466.452" y1="552.04" x2="575.411" y2="216.701" gradientUnits="userSpaceOnUse">
<stop stop-color="#DAEAF3"/>
<stop offset="1" stop-color="#E1ECF3"/>
</linearGradient>
<linearGradient id="paint27_linear_220_16095" x1="460.287" y1="551.914" x2="574.861" y2="219.167" gradientUnits="userSpaceOnUse">
<stop stop-color="#DAEAF3"/>
<stop offset="1" stop-color="#E1ECF3"/>
</linearGradient>
<linearGradient id="paint28_linear_220_16095" x1="454.147" y1="551.743" x2="574.28" y2="221.681" gradientUnits="userSpaceOnUse">
<stop stop-color="#DAEAF3"/>
<stop offset="1" stop-color="#E1ECF3"/>
</linearGradient>
<linearGradient id="paint29_linear_220_16095" x1="448.038" y1="551.525" x2="573.671" y2="224.24" gradientUnits="userSpaceOnUse">
<stop stop-color="#DAEAF3"/>
<stop offset="1" stop-color="#E1ECF3"/>
</linearGradient>
<linearGradient id="paint30_linear_220_16095" x1="441.957" y1="551.264" x2="573.03" y2="226.848" gradientUnits="userSpaceOnUse">
<stop stop-color="#DAEAF3"/>
<stop offset="1" stop-color="#E1ECF3"/>
</linearGradient>
<linearGradient id="paint31_linear_220_16095" x1="435.907" y1="550.957" x2="572.357" y2="229.499" gradientUnits="userSpaceOnUse">
<stop stop-color="#DAEAF3"/>
<stop offset="1" stop-color="#E1ECF3"/>
</linearGradient>
<linearGradient id="paint32_linear_220_16095" x1="429.888" y1="550.607" x2="571.653" y2="232.197" gradientUnits="userSpaceOnUse">
<stop stop-color="#DAEAF3"/>
<stop offset="1" stop-color="#E1ECF3"/>
</linearGradient>
<linearGradient id="paint33_linear_220_16095" x1="423.9" y1="550.214" x2="570.915" y2="234.939" gradientUnits="userSpaceOnUse">
<stop stop-color="#DAEAF3"/>
<stop offset="1" stop-color="#E1ECF3"/>
</linearGradient>
<linearGradient id="paint34_linear_220_16095" x1="417.943" y1="549.78" x2="570.142" y2="237.725" gradientUnits="userSpaceOnUse">
<stop stop-color="#DAEAF3"/>
<stop offset="1" stop-color="#E1ECF3"/>
</linearGradient>
<linearGradient id="paint35_linear_220_16095" x1="412.02" y1="549.302" x2="569.335" y2="240.554" gradientUnits="userSpaceOnUse">
<stop stop-color="#DAEAF3"/>
<stop offset="1" stop-color="#E1ECF3"/>
</linearGradient>
<linearGradient id="paint36_linear_220_16095" x1="406.131" y1="548.785" x2="568.494" y2="243.425" gradientUnits="userSpaceOnUse">
<stop stop-color="#DAEAF3"/>
<stop offset="1" stop-color="#E1ECF3"/>
</linearGradient>
<linearGradient id="paint37_linear_220_16095" x1="400.276" y1="548.226" x2="567.616" y2="246.337" gradientUnits="userSpaceOnUse">
<stop stop-color="#DAEAF3"/>
<stop offset="1" stop-color="#E1ECF3"/>
</linearGradient>
<linearGradient id="paint38_linear_220_16095" x1="394.457" y1="547.629" x2="566.702" y2="249.291" gradientUnits="userSpaceOnUse">
<stop stop-color="#DAEAF3"/>
<stop offset="1" stop-color="#E1ECF3"/>
</linearGradient>
<linearGradient id="paint39_linear_220_16095" x1="388.673" y1="546.991" x2="565.751" y2="252.284" gradientUnits="userSpaceOnUse">
<stop stop-color="#DAEAF3"/>
<stop offset="1" stop-color="#E1ECF3"/>
</linearGradient>
<linearGradient id="paint40_linear_220_16095" x1="382.924" y1="546.317" x2="564.761" y2="255.318" gradientUnits="userSpaceOnUse">
<stop stop-color="#DAEAF3"/>
<stop offset="1" stop-color="#E1ECF3"/>
</linearGradient>
<linearGradient id="paint41_linear_220_16095" x1="377.214" y1="545.604" x2="563.733" y2="258.39" gradientUnits="userSpaceOnUse">
<stop stop-color="#DAEAF3"/>
<stop offset="1" stop-color="#E1ECF3"/>
</linearGradient>
<linearGradient id="paint42_linear_220_16095" x1="371.541" y1="544.855" x2="562.667" y2="261.499" gradientUnits="userSpaceOnUse">
<stop stop-color="#DAEAF3"/>
<stop offset="1" stop-color="#E1ECF3"/>
</linearGradient>
<linearGradient id="paint43_linear_220_16095" x1="365.906" y1="544.069" x2="561.56" y2="264.646" gradientUnits="userSpaceOnUse">
<stop stop-color="#DAEAF3"/>
<stop offset="1" stop-color="#E1ECF3"/>
</linearGradient>
<linearGradient id="paint44_linear_220_16095" x1="360.308" y1="543.25" x2="560.412" y2="267.83" gradientUnits="userSpaceOnUse">
<stop stop-color="#DAEAF3"/>
<stop offset="1" stop-color="#E1ECF3"/>
</linearGradient>
<linearGradient id="paint45_linear_220_16095" x1="354.752" y1="542.395" x2="559.226" y2="271.049" gradientUnits="userSpaceOnUse">
<stop stop-color="#DAEAF3"/>
<stop offset="1" stop-color="#E1ECF3"/>
</linearGradient>
<linearGradient id="paint46_linear_220_16095" x1="349.231" y1="541.506" x2="557.994" y2="274.302" gradientUnits="userSpaceOnUse">
<stop stop-color="#DAEAF3"/>
<stop offset="1" stop-color="#E1ECF3"/>
</linearGradient>
<linearGradient id="paint47_linear_220_16095" x1="343.754" y1="540.584" x2="556.723" y2="277.589" gradientUnits="userSpaceOnUse">
<stop stop-color="#DAEAF3"/>
<stop offset="1" stop-color="#E1ECF3"/>
</linearGradient>
<linearGradient id="paint48_linear_220_16095" x1="338.317" y1="539.629" x2="555.41" y2="280.908" gradientUnits="userSpaceOnUse">
<stop stop-color="#DAEAF3"/>
<stop offset="1" stop-color="#E1ECF3"/>
</linearGradient>
<linearGradient id="paint49_linear_220_16095" x1="332.921" y1="538.645" x2="554.052" y2="284.262" gradientUnits="userSpaceOnUse">
<stop stop-color="#DAEAF3"/>
<stop offset="1" stop-color="#E1ECF3"/>
</linearGradient>
<linearGradient id="paint50_linear_220_16095" x1="327.568" y1="537.629" x2="552.653" y2="287.647" gradientUnits="userSpaceOnUse">
<stop stop-color="#DAEAF3"/>
<stop offset="1" stop-color="#E1ECF3"/>
</linearGradient>
<linearGradient id="paint51_linear_220_16095" x1="322.254" y1="536.583" x2="551.207" y2="291.061" gradientUnits="userSpaceOnUse">
<stop stop-color="#DAEAF3"/>
<stop offset="1" stop-color="#E1ECF3"/>
</linearGradient>
<linearGradient id="paint52_linear_220_16095" x1="316.984" y1="535.509" x2="549.718" y2="294.506" gradientUnits="userSpaceOnUse">
<stop stop-color="#DAEAF3"/>
<stop offset="1" stop-color="#E1ECF3"/>
</linearGradient>
<linearGradient id="paint53_linear_220_16095" x1="311.758" y1="534.407" x2="548.185" y2="297.98" gradientUnits="userSpaceOnUse">
<stop stop-color="#DAEAF3"/>
<stop offset="1" stop-color="#E1ECF3"/>
</linearGradient>
<linearGradient id="paint54_linear_220_16095" x1="306.575" y1="533.276" x2="546.607" y2="301.481" gradientUnits="userSpaceOnUse">
<stop stop-color="#DAEAF3"/>
<stop offset="1" stop-color="#E1ECF3"/>
</linearGradient>
<linearGradient id="paint55_linear_220_16095" x1="301.435" y1="532.12" x2="544.982" y2="305.01" gradientUnits="userSpaceOnUse">
<stop stop-color="#DAEAF3"/>
<stop offset="1" stop-color="#E1ECF3"/>
</linearGradient>
<linearGradient id="paint56_linear_220_16095" x1="296.339" y1="530.938" x2="543.31" y2="308.564" gradientUnits="userSpaceOnUse">
<stop stop-color="#DAEAF3"/>
<stop offset="1" stop-color="#E1ECF3"/>
</linearGradient>
<linearGradient id="paint57_linear_220_16095" x1="291.29" y1="529.731" x2="541.594" y2="312.145" gradientUnits="userSpaceOnUse">
<stop stop-color="#DAEAF3"/>
<stop offset="1" stop-color="#E1ECF3"/>
</linearGradient>
<linearGradient id="paint58_linear_220_16095" x1="286.283" y1="528.5" x2="539.829" y2="315.75" gradientUnits="userSpaceOnUse">
<stop stop-color="#DAEAF3"/>
<stop offset="1" stop-color="#E1ECF3"/>
</linearGradient>
<linearGradient id="paint59_linear_220_16095" x1="281.323" y1="527.247" x2="538.019" y2="319.379" gradientUnits="userSpaceOnUse">
<stop stop-color="#DAEAF3"/>
<stop offset="1" stop-color="#E1ECF3"/>
</linearGradient>
<linearGradient id="paint60_linear_220_16095" x1="276.409" y1="525.97" x2="536.161" y2="323.03" gradientUnits="userSpaceOnUse">
<stop stop-color="#DAEAF3"/>
<stop offset="1" stop-color="#E1ECF3"/>
</linearGradient>
<linearGradient id="paint61_linear_220_16095" x1="271.538" y1="524.673" x2="534.253" y2="326.704" gradientUnits="userSpaceOnUse">
<stop stop-color="#DAEAF3"/>
<stop offset="1" stop-color="#E1ECF3"/>
</linearGradient>
<linearGradient id="paint62_linear_220_16095" x1="266.716" y1="523.356" x2="532.3" y2="330.398" gradientUnits="userSpaceOnUse">
<stop stop-color="#DAEAF3"/>
<stop offset="1" stop-color="#E1ECF3"/>
</linearGradient>
<linearGradient id="paint63_linear_220_16095" x1="261.939" y1="522.018" x2="530.297" y2="334.113" gradientUnits="userSpaceOnUse">
<stop stop-color="#DAEAF3"/>
<stop offset="1" stop-color="#E1ECF3"/>
</linearGradient>
<linearGradient id="paint64_linear_220_16095" x1="257.209" y1="520.662" x2="528.244" y2="337.846" gradientUnits="userSpaceOnUse">
<stop stop-color="#DAEAF3"/>
<stop offset="1" stop-color="#E1ECF3"/>
</linearGradient>
<linearGradient id="paint65_linear_220_16095" x1="252.525" y1="519.287" x2="526.144" y2="341.597" gradientUnits="userSpaceOnUse">
<stop stop-color="#DAEAF3"/>
<stop offset="1" stop-color="#E1ECF3"/>
</linearGradient>
<linearGradient id="paint66_linear_220_16095" x1="247.891" y1="517.896" x2="523.996" y2="345.367" gradientUnits="userSpaceOnUse">
<stop stop-color="#DAEAF3"/>
<stop offset="1" stop-color="#E1ECF3"/>
</linearGradient>
<linearGradient id="paint67_linear_220_16095" x1="243.302" y1="516.488" x2="521.797" y2="349.152" gradientUnits="userSpaceOnUse">
<stop stop-color="#DAEAF3"/>
<stop offset="1" stop-color="#E1ECF3"/>
</linearGradient>
<linearGradient id="paint68_linear_220_16095" x1="238.761" y1="515.065" x2="519.549" y2="352.952" gradientUnits="userSpaceOnUse">
<stop stop-color="#DAEAF3"/>
<stop offset="1" stop-color="#E1ECF3"/>
</linearGradient>
<linearGradient id="paint69_linear_220_16095" x1="234.267" y1="513.629" x2="517.251" y2="356.769" gradientUnits="userSpaceOnUse">
<stop stop-color="#DAEAF3"/>
<stop offset="1" stop-color="#E1ECF3"/>
</linearGradient>
<linearGradient id="paint70_linear_220_16095" x1="229.821" y1="512.178" x2="514.903" y2="360.597" gradientUnits="userSpaceOnUse">
<stop stop-color="#DAEAF3"/>
<stop offset="1" stop-color="#E1ECF3"/>
</linearGradient>
<linearGradient id="paint71_linear_220_16095" x1="225.424" y1="510.715" x2="512.506" y2="364.439" gradientUnits="userSpaceOnUse">
<stop stop-color="#DAEAF3"/>
<stop offset="1" stop-color="#E1ECF3"/>
</linearGradient>
<linearGradient id="paint72_linear_220_16095" x1="221.075" y1="509.24" x2="510.059" y2="368.293" gradientUnits="userSpaceOnUse">
<stop stop-color="#DAEAF3"/>
<stop offset="1" stop-color="#E1ECF3"/>
</linearGradient>
<linearGradient id="paint73_linear_220_16095" x1="216.774" y1="507.755" x2="507.562" y2="372.159" gradientUnits="userSpaceOnUse">
<stop stop-color="#DAEAF3"/>
<stop offset="1" stop-color="#E1ECF3"/>
</linearGradient>
<linearGradient id="paint74_linear_220_16095" x1="212.52" y1="506.258" x2="505.013" y2="376.032" gradientUnits="userSpaceOnUse">
<stop stop-color="#DAEAF3"/>
<stop offset="1" stop-color="#E1ECF3"/>
</linearGradient>
<linearGradient id="paint75_linear_220_16095" x1="208.315" y1="504.754" x2="502.414" y2="379.916" gradientUnits="userSpaceOnUse">
<stop stop-color="#DAEAF3"/>
<stop offset="1" stop-color="#E1ECF3"/>
</linearGradient>
<linearGradient id="paint76_linear_220_16095" x1="204.159" y1="503.241" x2="499.766" y2="383.808" gradientUnits="userSpaceOnUse">
<stop stop-color="#DAEAF3"/>
<stop offset="1" stop-color="#E1ECF3"/>
</linearGradient>
<linearGradient id="paint77_linear_220_16095" x1="200.052" y1="501.722" x2="497.067" y2="387.708" gradientUnits="userSpaceOnUse">
<stop stop-color="#DAEAF3"/>
<stop offset="1" stop-color="#E1ECF3"/>
</linearGradient>
<linearGradient id="paint78_linear_220_16095" x1="195.993" y1="500.195" x2="494.318" y2="391.613" gradientUnits="userSpaceOnUse">
<stop stop-color="#DAEAF3"/>
<stop offset="1" stop-color="#E1ECF3"/>
</linearGradient>
<linearGradient id="paint79_linear_220_16095" x1="191.982" y1="498.663" x2="491.518" y2="395.524" gradientUnits="userSpaceOnUse">
<stop stop-color="#DAEAF3"/>
<stop offset="1" stop-color="#E1ECF3"/>
</linearGradient>
<linearGradient id="paint80_linear_220_16095" x1="188.02" y1="497.126" x2="488.669" y2="399.439" gradientUnits="userSpaceOnUse">
<stop stop-color="#DAEAF3"/>
<stop offset="1" stop-color="#E1ECF3"/>
</linearGradient>
<linearGradient id="paint81_linear_220_16095" x1="184.106" y1="495.585" x2="485.768" y2="403.358" gradientUnits="userSpaceOnUse">
<stop stop-color="#DAEAF3"/>
<stop offset="1" stop-color="#E1ECF3"/>
</linearGradient>
<linearGradient id="paint82_linear_220_16095" x1="180.24" y1="494.041" x2="482.816" y2="407.279" gradientUnits="userSpaceOnUse">
<stop stop-color="#DAEAF3"/>
<stop offset="1" stop-color="#E1ECF3"/>
</linearGradient>
<linearGradient id="paint83_linear_220_16095" x1="176.425" y1="492.496" x2="479.816" y2="411.203" gradientUnits="userSpaceOnUse">
<stop stop-color="#DAEAF3"/>
<stop offset="1" stop-color="#E1ECF3"/>
</linearGradient>
<linearGradient id="paint84_linear_220_16095" x1="172.655" y1="490.949" x2="476.764" y2="415.126" gradientUnits="userSpaceOnUse">
<stop stop-color="#DAEAF3"/>
<stop offset="1" stop-color="#E1ECF3"/>
</linearGradient>
<linearGradient id="paint85_linear_220_16095" x1="168.935" y1="489.402" x2="473.662" y2="419.05" gradientUnits="userSpaceOnUse">
<stop stop-color="#DAEAF3"/>
<stop offset="1" stop-color="#E1ECF3"/>
</linearGradient>
<linearGradient id="paint86_linear_220_16095" x1="165.263" y1="487.856" x2="470.512" y2="422.974" gradientUnits="userSpaceOnUse">
<stop stop-color="#DAEAF3"/>
<stop offset="1" stop-color="#E1ECF3"/>
</linearGradient>
<linearGradient id="paint87_linear_220_16095" x1="161.638" y1="486.311" x2="467.31" y2="426.895" gradientUnits="userSpaceOnUse">
<stop stop-color="#DAEAF3"/>
<stop offset="1" stop-color="#E1ECF3"/>
</linearGradient>
<linearGradient id="paint88_linear_220_16095" x1="158.062" y1="484.768" x2="464.058" y2="430.813" gradientUnits="userSpaceOnUse">
<stop stop-color="#DAEAF3"/>
<stop offset="1" stop-color="#E1ECF3"/>
</linearGradient>
<linearGradient id="paint89_linear_220_16095" x1="154.535" y1="483.23" x2="460.759" y2="434.729" gradientUnits="userSpaceOnUse">
<stop stop-color="#DAEAF3"/>
<stop offset="1" stop-color="#E1ECF3"/>
</linearGradient>
<linearGradient id="paint90_linear_220_16095" x1="151.052" y1="481.694" x2="457.407" y2="438.638" gradientUnits="userSpaceOnUse">
<stop stop-color="#DAEAF3"/>
<stop offset="1" stop-color="#E1ECF3"/>
</linearGradient>
<linearGradient id="paint91_linear_220_16095" x1="147.62" y1="480.163" x2="454.009" y2="442.543" gradientUnits="userSpaceOnUse">
<stop stop-color="#DAEAF3"/>
<stop offset="1" stop-color="#E1ECF3"/>
</linearGradient>
<linearGradient id="paint92_linear_220_16095" x1="144.234" y1="478.639" x2="450.562" y2="446.442" gradientUnits="userSpaceOnUse">
<stop stop-color="#DAEAF3"/>
<stop offset="1" stop-color="#E1ECF3"/>
</linearGradient>
<linearGradient id="paint93_linear_220_16095" x1="140.893" y1="477.121" x2="447.063" y2="450.335" gradientUnits="userSpaceOnUse">
<stop stop-color="#DAEAF3"/>
<stop offset="1" stop-color="#E1ECF3"/>
</linearGradient>
<linearGradient id="paint94_linear_220_16095" x1="137.601" y1="475.61" x2="443.518" y2="454.218" gradientUnits="userSpaceOnUse">
<stop stop-color="#DAEAF3"/>
<stop offset="1" stop-color="#E1ECF3"/>
</linearGradient>
<linearGradient id="paint95_linear_220_16095" x1="134.356" y1="474.108" x2="439.925" y2="458.093" gradientUnits="userSpaceOnUse">
<stop stop-color="#DAEAF3"/>
<stop offset="1" stop-color="#E1ECF3"/>
</linearGradient>
<linearGradient id="paint96_linear_220_16095" x1="131.155" y1="472.613" x2="436.282" y2="461.957" gradientUnits="userSpaceOnUse">
<stop stop-color="#DAEAF3"/>
<stop offset="1" stop-color="#E1ECF3"/>
</linearGradient>
<linearGradient id="paint97_linear_220_16095" x1="128.003" y1="471.129" x2="432.594" y2="465.812" gradientUnits="userSpaceOnUse">
<stop stop-color="#DAEAF3"/>
<stop offset="1" stop-color="#E1ECF3"/>
</linearGradient>
<linearGradient id="paint98_linear_220_16095" x1="124.896" y1="469.656" x2="428.858" y2="469.656" gradientUnits="userSpaceOnUse">
<stop stop-color="#DAEAF3"/>
<stop offset="1" stop-color="#E1ECF3"/>
</linearGradient>
</defs>
</svg>
