<svg width="926" height="866" viewBox="0 0 926 866" fill="none" xmlns="http://www.w3.org/2000/svg">
<g id="Looper BG">
<path id="Polygon 1_68" opacity="0.0144928" d="M1340.2 717.703C1350.41 720.053 1360.94 715.365 1366.02 706.208L1475.95 508.185C1478.95 502.77 1479.7 496.387 1478.02 490.424L1388.57 171.996C1387.26 167.306 1384.51 163.142 1380.73 160.079L1157.08 -20.802C1150.21 -26.3558 1140.81 -27.5905 1132.74 -23.9983L953.645 55.7404C945.577 59.3326 940.204 67.1451 939.737 75.9644L924.506 363.202C924.249 368.066 925.508 372.89 928.112 377.007L1104.9 656.551C1108.21 661.785 1113.45 665.502 1119.49 666.891L1340.2 717.703Z" stroke="url(#paint0_linear_316_20188)" stroke-width="3"/>
<path id="Polygon 1_67" opacity="0.0289855" d="M1304.41 725.953C1314.45 728.81 1325.18 724.692 1330.73 715.846L1450.29 525.453C1453.59 520.2 1454.68 513.856 1453.32 507.804L1381.49 188.119C1380.42 183.352 1377.89 179.038 1374.25 175.776L1162 -14.5815C1155.44 -20.4705 1146.13 -22.1868 1137.89 -19.0259L955.991 50.7988C947.757 53.9597 941.986 61.4655 941.047 70.2356L910.688 353.722C910.168 358.58 911.174 363.479 913.568 367.738L1074.1 653.373C1077.14 658.781 1082.19 662.767 1088.16 664.464L1304.41 725.953Z" stroke="url(#paint1_linear_316_20188)" stroke-width="3"/>
<path id="Polygon 1_66" opacity="0.0434783" d="M1268.61 733.055C1278.47 736.409 1289.36 732.869 1295.37 724.359L1424.07 542.058C1427.65 536.983 1429.08 530.696 1428.04 524.572L1373.71 204.593C1372.89 199.762 1370.58 195.308 1367.11 191.854L1166.63 -7.2885C1160.38 -13.4964 1151.18 -15.6879 1142.81 -12.9659L958.647 46.8713C950.269 49.5934 944.117 56.7719 942.71 65.4675L897.575 344.414C896.792 349.252 897.541 354.213 899.717 358.604L1043.85 649.403C1046.61 654.968 1051.46 659.216 1057.34 661.216L1268.61 733.055Z" stroke="url(#paint2_linear_316_20188)" stroke-width="3"/>
<path id="Polygon 1_65" opacity="0.057971" d="M1232.87 739.022C1242.53 742.86 1253.56 739.905 1260 731.754L1397.31 557.974C1401.17 553.092 1402.93 546.88 1402.22 540.7L1365.23 221.377C1364.66 216.494 1362.58 211.911 1359.28 208.274L1170.91 1.0511C1164.99 -5.45834 1155.93 -8.11793 1147.44 -5.84112L961.558 43.9647C953.061 46.2415 946.547 53.0734 944.677 61.6693L885.157 335.313C884.113 340.117 884.6 345.127 886.552 349.638L1014.18 644.674C1016.65 650.384 1021.29 654.881 1027.07 657.18L1232.87 739.022Z" stroke="url(#paint3_linear_316_20188)" stroke-width="3"/>
<path id="Polygon 1_64" opacity="0.0724638" d="M1197.26 743.867C1206.68 748.178 1217.81 745.812 1224.66 738.042L1370.06 573.179C1374.18 568.506 1376.28 562.387 1375.89 556.169L1356.02 238.431C1355.71 233.509 1353.87 228.809 1350.74 224.996L1174.77 10.4085C1169.2 3.61551 1160.31 0.496705 1151.71 2.32319L964.66 42.0827C956.068 43.9092 949.211 50.376 946.885 58.8474L873.412 326.455C872.107 331.21 872.33 336.256 874.05 340.877L985.135 639.226C987.309 645.065 991.713 649.802 997.379 652.395L1197.26 743.867Z" stroke="url(#paint4_linear_316_20188)" stroke-width="3"/>
<path id="Polygon 1_63" opacity="0.0869565" d="M1161.84 747.607C1171 752.376 1182.2 750.602 1189.45 743.235L1342.37 587.655C1346.74 583.204 1349.17 577.196 1349.11 570.956L1346.09 255.712C1346.04 250.766 1344.43 245.96 1341.5 241.98L1178.18 20.7515C1172.97 13.6937 1164.26 10.1255 1155.6 11.4978L967.907 41.2253C959.243 42.5977 952.064 48.682 949.289 57.0045L862.332 317.873C860.768 322.565 860.724 327.632 862.208 332.351L956.751 633.099C958.623 639.053 962.785 644.017 968.321 646.898L1161.84 747.607Z" stroke="url(#paint5_linear_316_20188)" stroke-width="3"/>
<path id="Polygon 1_62" opacity="0.101449" d="M1126.65 750.265C1135.53 755.476 1146.78 754.295 1154.38 747.35L1314.27 601.384C1318.88 597.17 1321.63 591.29 1321.9 585.046L1335.41 273.181C1335.63 268.223 1334.27 263.324 1331.53 259.186L1181.07 32.0461C1176.24 24.7427 1167.74 20.7363 1159.03 21.652L971.229 41.3903C962.517 42.306 955.037 47.9917 951.824 56.1414L851.885 309.599C850.065 314.216 849.753 319.29 850.994 324.095L929.052 626.336C930.615 632.387 934.524 637.567 939.915 640.73L1126.65 750.265Z" stroke="url(#paint6_linear_316_20188)" stroke-width="3"/>
<path id="Polygon 1_61" opacity="0.115942" d="M1091.76 751.863C1100.35 757.5 1111.6 756.911 1119.55 750.406L1285.8 614.352C1290.64 610.387 1293.71 604.654 1294.31 598.422L1323.99 290.795C1324.47 285.839 1323.36 280.859 1320.83 276.574L1183.41 44.2552C1178.95 36.7261 1170.69 32.2938 1161.95 32.7516L974.576 42.5715C965.84 43.0293 958.082 48.3015 954.44 56.2549L842.057 301.665C839.984 306.192 839.402 311.26 840.396 316.139L902.073 618.979C903.322 625.113 906.967 630.495 912.2 633.931L1091.76 751.863Z" stroke="url(#paint7_linear_316_20188)" stroke-width="3"/>
<path id="Polygon 1_60" opacity="0.130435" d="M1057.24 752.428C1065.5 758.475 1076.73 758.475 1084.99 752.428L1257.02 626.547C1262.08 622.844 1265.45 617.273 1266.38 611.073L1311.83 308.513C1312.57 303.573 1311.72 298.524 1309.4 294.101L1185.14 57.3393C1181.08 49.6049 1173.07 44.7601 1164.33 44.7601H977.899C969.164 44.7601 961.15 49.6049 957.091 57.3393L832.831 294.101C830.509 298.524 829.658 303.573 830.4 308.513L875.848 611.073C876.779 617.273 880.15 622.844 885.21 626.547L1057.24 752.428Z" stroke="url(#paint8_linear_316_20188)" stroke-width="3"/>
<path id="Polygon 1_59" opacity="0.144928" d="M1023.12 751.99C1031.04 758.428 1042.21 759.013 1050.76 753.439L1227.96 637.959C1233.23 634.531 1236.9 629.139 1238.16 622.986L1298.92 326.293C1299.92 321.382 1299.33 316.279 1297.23 311.728L1186.22 71.2566C1182.56 63.3378 1174.82 58.0951 1166.11 57.6386L981.131 47.9442C972.421 47.4877 964.175 51.8925 959.712 59.3858L824.169 286.936C821.604 291.242 820.483 296.256 820.97 301.245L850.388 602.664C850.998 608.915 854.084 614.661 858.958 618.621L1023.12 751.99Z" stroke="url(#paint9_linear_316_20188)" stroke-width="3"/>
<path id="Polygon 1_58" opacity="0.15942" d="M989.457 750.583C997.021 757.391 1008.11 758.557 1016.92 753.47L1198.68 648.583C1204.13 645.439 1208.09 640.242 1209.67 634.155L1285.26 344.094C1286.53 339.227 1286.21 334.082 1284.33 329.414L1186.61 85.9635C1183.37 77.8817 1175.92 72.2565 1167.26 71.3462L984.228 52.109C975.568 51.1987 967.113 55.1526 962.26 62.3832L816.057 280.196C813.254 284.372 811.865 289.338 812.094 294.362L825.725 593.8C826.011 600.084 828.804 605.991 833.48 610.199L989.457 750.583Z" stroke="url(#paint10_linear_316_20188)" stroke-width="3"/>
<path id="Polygon 1_57" opacity="0.173913" d="M956.305 748.24C963.493 755.399 974.465 757.137 983.514 752.55L1169.21 658.412C1174.83 655.563 1179.07 650.577 1180.98 644.573L1270.87 361.876C1272.4 357.066 1272.34 351.892 1270.7 347.118L1186.27 101.414C1183.45 93.1907 1176.31 87.1996 1167.73 85.8394L987.134 57.2366C978.546 55.8764 969.909 59.3693 964.681 66.3169L808.463 273.908C805.428 277.94 803.772 282.843 803.741 287.89L801.874 584.529C801.834 590.829 804.326 596.881 808.79 601.327L956.305 748.24Z" stroke="url(#paint11_linear_316_20188)" stroke-width="3"/>
<path id="Polygon 1_56" opacity="0.188406" d="M923.713 745C930.51 752.489 941.335 754.79 950.59 750.713L1139.6 667.445C1145.37 664.901 1149.88 660.141 1152.11 654.236L1255.74 379.597C1257.53 374.858 1257.74 369.669 1256.34 364.801L1185.18 117.561C1182.78 109.218 1175.97 102.879 1167.48 101.074L989.804 63.3071C981.313 61.5022 972.518 64.5258 966.931 71.1705L801.365 268.094C798.105 271.971 796.186 276.797 795.892 281.854L778.856 574.898C778.49 581.199 780.673 587.382 784.914 592.055L923.713 745Z" stroke="url(#paint12_linear_316_20188)" stroke-width="3"/>
<path id="Polygon 1_55" opacity="0.202899" d="M891.717 740.902C898.107 748.699 908.757 751.552 918.188 747.995L1109.89 675.683C1115.8 673.452 1120.57 668.932 1123.11 663.144L1239.88 397.218C1241.92 392.564 1242.4 387.373 1241.25 382.423L1183.29 134.355C1181.32 125.915 1174.86 119.245 1166.49 117.002L992.182 70.2972C983.81 68.054 974.883 70.6011 968.955 76.9243L794.725 262.778C791.249 266.486 789.069 271.222 788.512 276.274L756.677 564.959C755.984 571.242 757.852 577.54 761.858 582.429L891.717 740.902Z" stroke="url(#paint13_linear_316_20188)" stroke-width="3"/>
<path id="Polygon 1_54" opacity="0.217391" d="M860.362 735.988C866.33 744.07 876.776 747.465 886.355 744.434L1080.12 683.127C1086.16 681.217 1091.17 676.951 1094.02 671.297L1223.31 414.701C1225.6 410.145 1226.35 404.966 1225.44 399.946L1180.57 151.745C1179.03 143.23 1172.94 136.25 1164.71 133.576L994.222 78.1817C985.993 75.5078 976.96 77.5727 970.709 83.5566L788.518 257.98C784.833 261.508 782.396 266.139 781.575 271.174L735.35 554.759C734.331 561.009 735.878 567.405 739.639 572.499L860.362 735.988Z" stroke="url(#paint14_linear_316_20188)" stroke-width="3"/>
<path id="Polygon 1_53" opacity="0.231884" d="M829.684 730.302C835.219 738.647 845.434 742.568 855.131 740.07L1050.34 689.784C1056.48 688.202 1061.72 684.203 1064.87 678.698L1206.03 432.005C1208.57 427.561 1209.59 422.408 1208.94 417.33L1177.01 169.681C1175.9 161.113 1170.19 153.842 1162.12 150.746L995.881 86.9326C987.816 83.8368 978.703 85.4153 972.149 91.0431L782.712 253.718C778.827 257.054 776.138 261.567 775.054 266.571L714.883 544.35C713.54 550.549 714.76 557.028 718.266 562.314L829.684 730.302Z" stroke="url(#paint15_linear_316_20188)" stroke-width="3"/>
<path id="Polygon 1_52" opacity="0.246377" d="M799.73 723.89C804.82 732.474 814.776 736.907 824.56 734.946L1020.59 695.66C1026.82 694.412 1032.28 690.693 1035.72 685.353L1188.06 449.096C1190.85 444.776 1192.14 439.663 1191.74 434.539L1172.58 188.108C1171.91 179.511 1166.58 171.97 1158.71 168.462L997.122 96.52C989.243 93.0124 980.077 94.1016 973.24 99.3578L777.283 250.009C773.208 253.142 770.273 257.524 768.927 262.484L695.287 533.781C693.623 539.913 694.513 546.458 697.754 551.923L799.73 723.89Z" stroke="url(#paint16_linear_316_20188)" stroke-width="3"/>
<path id="Polygon 1_51" opacity="0.26087" d="M770.518 716.799C775.154 725.598 784.826 730.526 794.668 729.104L990.914 700.765C997.214 699.855 1002.88 696.429 1006.6 691.27L1169.42 465.935C1172.45 461.753 1174.01 456.693 1173.87 451.536L1167.25 206.975C1167.02 198.369 1162.1 190.58 1154.43 186.672L997.893 106.911C990.222 103.003 981.029 103.602 973.93 108.472L772.188 246.87C767.934 249.788 764.758 254.026 763.151 258.928L676.555 523.102C674.572 529.15 675.128 535.744 678.095 541.376L770.518 716.799Z" stroke="url(#paint17_linear_316_20188)" stroke-width="3"/>
<path id="Polygon 1_50" opacity="0.275362" d="M742.086 709.078C746.258 718.067 755.62 723.472 765.49 722.591L961.347 705.11C967.698 704.543 973.547 701.42 977.55 696.457L1150.13 482.487C1153.38 478.456 1155.21 473.464 1155.33 468.286L1161.02 226.226C1161.22 217.635 1156.72 209.619 1149.28 205.322L998.16 118.073C990.718 113.776 981.524 113.884 974.185 118.355L767.399 244.312C762.976 247.006 759.566 251.086 757.701 255.918L658.689 512.362C656.392 518.311 656.611 524.937 659.296 530.721L742.086 709.078Z" stroke="url(#paint18_linear_316_20188)" stroke-width="3"/>
<path id="Polygon 1_49" opacity="0.289855" d="M714.459 700.777C718.161 709.931 727.19 715.794 737.058 715.453L931.932 708.71C938.316 708.489 944.335 705.679 948.603 700.926L1130.21 498.72C1133.68 494.852 1135.77 489.941 1136.16 484.755L1153.87 245.806C1154.51 237.252 1150.43 229.032 1143.24 224.36L997.887 129.969C990.693 125.297 981.525 124.916 973.969 128.975L762.883 242.348C758.303 244.808 754.667 248.718 752.546 253.465L641.687 501.612C639.081 507.445 638.962 514.086 641.357 520.008L714.459 700.777Z" stroke="url(#paint19_linear_316_20188)" stroke-width="3"/>
<path id="Polygon 1_48" opacity="0.304348" d="M687.661 691.946C690.886 701.24 699.559 707.542 709.395 707.737L902.704 711.58C909.102 711.707 915.276 709.219 919.798 704.692L1109.67 514.6C1113.36 510.907 1115.71 506.09 1116.36 500.91L1145.79 265.661C1146.86 257.166 1143.22 248.764 1136.29 243.732L997.038 142.56C990.112 137.528 980.996 136.661 973.245 140.297L758.605 240.986C753.879 243.204 750.026 246.931 747.653 251.581L625.539 490.9C622.63 496.6 622.172 503.24 624.27 509.286L687.661 691.946Z" stroke="url(#paint20_linear_316_20188)" stroke-width="3"/>
<path id="Polygon 1_47" opacity="0.318841" d="M661.712 682.638C664.456 692.047 672.752 698.765 682.526 699.493L873.702 713.737C880.095 714.214 886.406 712.057 891.171 707.768L1088.54 530.097C1092.44 526.59 1095.05 521.881 1095.96 516.72L1136.78 285.736C1138.27 277.321 1135.07 268.762 1128.43 263.384L995.583 155.809C988.942 150.431 979.905 149.083 971.983 152.287L754.533 240.236C749.674 242.201 745.611 245.735 742.991 250.274L610.238 480.274C607.033 485.826 606.236 492.447 608.031 498.601L661.712 682.638Z" stroke="url(#paint21_linear_316_20188)" stroke-width="3"/>
<path id="Polygon 1_46" opacity="0.333333" d="M636.633 672.906C638.893 682.404 646.791 689.516 656.473 690.771L844.963 715.202C851.333 716.028 857.763 714.21 862.758 710.173L1066.86 545.179C1070.95 541.871 1073.81 537.284 1074.99 532.154L1126.83 305.975C1128.73 297.662 1125.98 288.969 1119.65 283.262L993.495 169.675C987.156 163.968 978.223 162.143 970.155 164.907L750.634 240.102C745.655 241.808 741.392 245.135 738.53 249.552L595.775 469.78C592.281 475.17 591.146 481.754 592.632 488.003L636.633 672.906Z" stroke="url(#paint22_linear_316_20188)" stroke-width="3"/>
<path id="Polygon 1_45" opacity="0.347826" d="M612.435 662.802C614.209 672.364 621.691 679.846 631.253 681.62L816.52 715.996C822.847 717.17 829.378 715.698 834.59 711.924L1044.64 559.821C1048.92 556.721 1052.03 552.269 1053.47 547.183L1115.94 326.325C1118.25 318.134 1115.96 309.331 1109.94 303.312L990.743 184.115C984.724 178.096 975.921 175.802 967.73 178.119L746.872 240.589C741.786 242.028 737.334 245.138 734.234 249.419L582.131 459.465C578.357 464.677 576.885 471.208 578.059 477.535L612.435 662.802Z" stroke="url(#paint23_linear_316_20188)" stroke-width="3"/>
<path id="Polygon 1_44" opacity="0.362319" d="M589.128 652.379C590.416 661.981 597.463 669.808 606.878 672.092L788.402 716.141C794.667 717.661 801.282 716.541 806.697 713.042L1021.91 573.994C1026.36 571.114 1029.71 566.809 1031.41 561.781L1104.11 346.73C1106.83 338.682 1104.99 329.793 1099.31 323.48L987.304 199.086C981.62 192.773 972.971 190.019 964.683 191.884L743.211 241.699C738.033 242.863 733.401 245.747 730.071 249.879L569.289 449.374C565.244 454.394 563.438 460.855 564.295 467.245L589.128 652.379Z" stroke="url(#paint24_linear_316_20188)" stroke-width="3"/>
<path id="Polygon 1_43" opacity="0.376812" d="M566.722 641.692C567.524 651.307 574.122 659.455 583.36 662.239L760.644 715.662C766.828 717.526 773.507 716.762 779.111 713.549L998.696 587.675C1003.32 585.024 1006.91 580.879 1008.87 575.922L1091.35 367.136C1094.46 359.252 1093.09 350.301 1087.75 343.713L983.156 214.545C977.821 207.957 969.352 204.753 960.992 206.16L739.62 243.431C734.363 244.316 729.564 246.962 726.009 250.935L557.231 439.55C552.924 444.364 550.788 450.738 551.325 457.175L566.722 641.692Z" stroke="url(#paint25_linear_316_20188)" stroke-width="3"/>
<path id="Polygon 1_42" opacity="0.391304" d="M545.222 630.794C545.541 640.398 551.675 648.84 560.71 652.111L733.275 714.586C739.36 716.789 746.084 716.385 751.862 713.469L975.041 600.841C979.821 598.429 983.634 594.456 985.848 589.582L1077.67 387.492C1081.17 379.79 1080.26 370.802 1075.29 363.958L978.284 230.448C973.312 223.604 965.045 219.961 956.638 220.909L736.066 245.786C730.745 246.386 725.79 248.785 722.018 252.585L545.937 430.037C541.378 434.631 538.916 440.901 539.131 447.369L545.222 630.794Z" stroke="url(#paint26_linear_316_20188)" stroke-width="3"/>
<path id="Polygon 1_41" opacity="0.405797" d="M524.634 619.738C524.473 629.306 530.129 638.015 538.934 641.759L706.325 712.939C712.292 715.476 719.043 715.435 724.979 712.825L950.973 613.47C955.896 611.306 959.928 607.518 962.395 602.739L1063.08 407.746C1066.96 400.245 1066.51 391.244 1061.91 384.165L972.672 246.748C968.075 239.669 960.034 235.599 951.607 236.086L732.517 248.758C727.148 249.069 722.048 251.212 718.068 254.829L535.383 420.873C530.584 425.235 527.801 431.385 527.692 437.868L524.634 619.738Z" stroke="url(#paint27_linear_316_20188)" stroke-width="3"/>
<path id="Polygon 1_40" opacity="0.42029" d="M504.947 608.577C504.311 618.084 509.478 627.033 518.029 631.236L679.813 710.749C685.644 713.615 692.401 713.939 698.479 711.644L926.517 625.544C931.571 623.636 935.814 620.044 938.53 615.374L1047.6 427.845C1051.83 420.565 1051.85 411.574 1047.64 404.28L966.301 263.4C962.089 256.106 954.297 251.624 945.874 251.651L728.935 252.344C723.532 252.361 718.3 254.239 714.12 257.662L525.537 412.099C520.51 416.215 517.412 422.229 516.978 428.712L504.947 608.577Z" stroke="url(#paint28_linear_316_20188)" stroke-width="3"/>
<path id="Polygon 1_39" opacity="0.434783" d="M486.162 597.364C485.057 606.786 489.726 615.948 497.998 620.592L653.766 708.048C659.443 711.235 666.187 711.925 672.391 709.952L901.711 637.045C906.884 635.401 911.328 632.016 914.288 627.467L1031.24 447.742C1035.82 440.699 1036.3 431.744 1032.48 424.256L959.163 280.359C955.348 272.872 947.825 267.991 939.433 267.559L725.289 256.536C719.869 256.257 714.519 257.863 710.148 261.081L516.374 403.751C511.132 407.611 507.725 413.473 506.967 419.939L486.162 597.364Z" stroke="url(#paint29_linear_316_20188)" stroke-width="3"/>
<path id="Polygon 1_38" opacity="0.449275" d="M468.275 586.149C466.709 595.462 470.87 604.809 478.84 609.877L628.211 704.866C633.716 708.366 640.428 709.421 646.74 707.778L876.594 647.959C881.871 646.585 886.507 643.419 889.706 639.003L1014.03 467.388C1018.95 460.599 1019.88 451.703 1016.47 444.044L951.256 297.579C947.845 289.919 940.613 284.657 932.276 283.769L721.554 261.326C716.131 260.749 710.676 262.075 706.124 265.078L507.868 395.866C502.423 399.458 498.716 405.151 497.634 411.584L468.275 586.149Z" stroke="url(#paint30_linear_316_20188)" stroke-width="3"/>
<path id="Polygon 1_37" opacity="0.463768" d="M451.271 574.984C449.252 584.166 452.899 593.668 460.544 599.14L603.163 701.233C608.478 705.037 615.137 706.457 621.542 705.149L851.193 658.271C856.562 657.175 861.379 654.238 864.811 649.966L995.982 486.737C1001.22 480.217 1002.6 471.404 999.603 463.595L942.567 315.012C939.57 307.203 932.647 301.577 924.391 300.237L717.691 266.704C712.282 265.827 706.737 266.867 702.014 269.645L499.982 388.475C494.348 391.788 490.348 397.299 488.944 403.683L451.271 574.984Z" stroke="url(#paint31_linear_316_20188)" stroke-width="3"/>
<path id="Polygon 1_36" opacity="0.478261" d="M435.141 563.918C432.679 572.946 435.807 582.574 443.106 588.431L578.644 697.183C583.753 701.282 590.34 703.063 596.819 702.096L825.551 667.971C830.997 667.159 835.985 664.46 839.644 660.345L977.131 505.744C982.676 499.509 984.499 490.801 981.92 482.866L933.101 332.615C930.522 324.679 923.929 318.706 915.778 316.921L713.677 272.659C708.298 271.481 702.676 272.229 697.793 274.773L492.686 381.61C486.877 384.636 482.595 389.949 480.871 396.268L435.141 563.918Z" stroke="url(#paint32_linear_316_20188)" stroke-width="3"/>
<path id="Polygon 1_35" opacity="0.492754" d="M419.867 552.999C416.972 561.851 419.578 571.578 426.512 577.797L554.668 692.748C559.554 697.131 566.05 699.27 572.584 698.649L799.698 677.05C805.207 676.526 810.354 674.075 814.233 670.129L957.5 524.367C963.335 518.431 965.594 509.851 963.44 501.812L922.853 350.34C920.699 342.3 914.452 336 906.432 333.776L709.478 279.176C704.145 277.698 698.462 278.149 693.429 280.449L485.943 375.301C479.974 378.03 475.418 383.131 473.378 389.37L419.867 552.999Z" stroke="url(#paint33_linear_316_20188)" stroke-width="3"/>
<path id="Polygon 1_34" opacity="0.507246" d="M405.428 542.274C402.113 550.93 404.195 560.726 410.744 567.284L531.246 687.963C535.894 692.618 542.279 695.111 548.851 694.838L773.67 685.501C779.227 685.27 784.522 683.076 788.613 679.309L937.118 542.564C943.225 536.94 945.912 528.511 944.186 520.39L911.825 368.143C910.099 360.023 904.216 353.415 896.349 350.762L705.064 286.242C699.794 284.464 694.065 284.613 688.894 286.663L479.714 369.575C473.599 371.998 468.78 376.873 466.428 383.016L405.428 542.274Z" stroke="url(#paint34_linear_316_20188)" stroke-width="3"/>
<path id="Polygon 1_33" opacity="0.521739" d="M391.804 531.789C388.082 540.227 389.639 550.063 395.788 556.939L508.394 682.861C512.787 687.775 519.042 690.617 525.633 690.695L747.503 693.318C753.093 693.384 758.524 691.455 762.819 687.878L916.018 560.296C922.381 554.997 925.486 546.74 924.19 538.562L900.024 385.981C898.728 377.802 893.224 370.909 885.535 367.836L700.41 293.839C695.219 291.764 689.458 291.608 684.162 293.398L473.962 364.455C467.718 366.565 462.647 371.202 459.987 377.232L391.804 531.789Z" stroke="url(#paint35_linear_316_20188)" stroke-width="3"/>
<path id="Polygon 1_32" opacity="0.536232" d="M378.975 521.587C374.86 529.789 375.895 539.637 381.626 546.804L486.122 677.477C490.247 682.636 496.353 685.821 502.945 686.251L721.237 700.499C726.845 700.865 732.398 699.209 736.89 695.832L894.237 577.528C900.838 572.565 904.349 564.502 903.486 556.289L887.46 403.809C886.596 395.596 881.485 388.439 873.997 384.956L695.492 301.952C690.396 299.583 684.62 299.118 679.21 300.642L468.651 359.964C462.293 361.755 456.982 366.139 454.02 372.043L378.975 521.587Z" stroke="url(#paint36_linear_316_20188)" stroke-width="3"/>
<path id="Polygon 1_31" opacity="0.550725" d="M366.921 511.711C362.427 519.658 362.942 529.488 368.242 536.922L464.445 671.846C468.288 677.236 474.226 680.755 480.8 681.538L694.912 707.042C700.523 707.711 706.186 706.335 710.865 703.168L871.816 594.226C878.636 589.609 882.542 581.759 882.111 573.535L874.148 421.585C873.717 413.361 869.012 405.962 861.746 402.084L690.289 310.561C685.305 307.901 679.529 307.125 674.019 308.376L463.745 356.122C457.29 357.588 451.752 361.708 448.493 367.47L366.921 511.711Z" stroke="url(#paint37_linear_316_20188)" stroke-width="3"/>
<path id="Polygon 1_30" opacity="0.565217" d="M355.599 502.2C350.743 509.874 350.743 519.66 355.599 527.334L443.356 666.001C446.903 671.607 452.655 675.452 459.192 676.587L668.552 712.95C674.149 713.922 679.909 712.834 684.765 709.887L848.779 610.356C855.8 606.096 860.088 598.479 860.088 590.266V439.268C860.088 431.055 855.8 423.438 848.779 419.177L684.765 319.647C679.909 316.7 674.149 315.612 668.552 316.584L459.192 352.946C452.655 354.081 446.903 357.927 443.356 363.533L355.599 502.2Z" stroke="url(#paint38_linear_316_20188)" stroke-width="3"/>
<path id="Polygon 1_29" opacity="0.57971" d="M344.989 493.092C339.787 500.477 339.278 510.19 343.679 518.078L422.866 659.978C426.106 665.784 431.654 669.946 438.134 671.432L642.2 718.224C647.768 719.501 653.61 718.706 658.634 715.988L825.174 625.891C832.377 621.994 837.031 614.629 837.46 606.452L845.302 456.816C845.731 448.638 841.871 440.827 835.115 436.199L678.906 329.188C674.193 325.959 668.466 324.558 662.795 325.246L454.956 350.451C448.356 351.252 442.403 354.811 438.574 360.246L344.989 493.092Z" stroke="url(#paint39_linear_316_20188)" stroke-width="3"/>
<path id="Polygon 1_28" opacity="0.594203" d="M335.055 484.424C329.525 491.503 328.514 501.116 332.452 509.19L402.975 653.811C405.896 659.8 411.222 664.268 417.628 666.103L615.889 722.871C621.411 724.452 627.322 723.956 632.504 721.475L801.038 640.803C808.403 637.278 813.41 630.183 814.263 622.063L829.805 474.192C830.659 466.072 827.236 458.091 820.766 453.111L672.686 339.162C668.134 335.659 662.455 333.944 656.725 334.343L450.994 348.649C444.346 349.112 438.207 352.375 434.105 357.626L335.055 484.424Z" stroke="url(#paint40_linear_316_20188)" stroke-width="3"/>
<path id="Polygon 1_27" opacity="0.608696" d="M325.77 476.228C319.93 482.988 318.427 492.474 321.893 500.708L383.69 647.534C386.28 653.69 391.368 658.453 397.682 660.632L589.658 726.896C595.12 728.781 601.085 728.588 606.413 726.354L776.42 655.069C783.927 651.921 789.27 645.113 790.544 637.073L813.623 491.358C814.896 483.318 811.918 475.192 805.752 469.878L666.094 349.547C661.716 345.775 656.103 343.749 650.326 343.854L447.269 347.551C440.591 347.672 434.28 350.63 429.914 355.684L325.77 476.228Z" stroke="url(#paint41_linear_316_20188)" stroke-width="3"/>
<path id="Polygon 1_26" opacity="0.623188" d="M317.09 468.537C310.959 474.963 308.975 484.297 311.962 492.661L364.999 641.182C367.251 647.486 372.084 652.531 378.286 655.05L563.535 730.31C568.919 732.497 574.924 732.612 580.388 730.631L751.354 668.666C758.983 665.901 764.646 659.396 766.333 651.459L796.767 508.277C798.454 500.339 795.927 492.093 790.082 486.464L659.1 360.318C654.914 356.287 649.382 353.949 643.574 353.758L443.729 347.163C437.039 346.942 430.572 349.585 425.951 354.428L317.09 468.537Z" stroke="url(#paint42_linear_316_20188)" stroke-width="3"/>
<path id="Polygon 1_25" opacity="0.637681" d="M308.982 461.378C302.58 467.459 300.127 476.615 302.631 485.082L346.904 634.787C348.807 641.221 353.37 646.535 359.442 649.389L537.555 733.122C542.847 735.61 548.875 736.035 554.463 734.316L725.886 681.577C733.617 679.199 739.582 673.011 741.675 665.198L779.264 524.915C781.358 517.102 779.286 508.762 773.78 502.836L651.693 371.452C647.713 367.168 642.279 364.523 636.453 364.031L440.336 347.489C433.65 346.925 427.042 349.246 422.177 353.867L308.982 461.378Z" stroke="url(#paint43_linear_316_20188)" stroke-width="3"/>
<path id="Polygon 1_24" opacity="0.652174" d="M301.416 454.779C294.763 460.503 291.854 469.457 293.872 477.998L329.407 628.382C330.954 634.927 335.23 640.496 341.155 643.679L511.76 735.346C516.942 738.13 522.98 738.869 528.681 737.418L700.07 693.785C707.883 691.796 714.131 685.941 716.622 678.273L761.147 541.24C763.638 533.572 762.025 525.163 756.874 518.962L643.864 382.921C640.105 378.396 634.785 375.446 628.956 374.652L437.053 348.533C430.389 347.626 423.656 349.618 418.558 354.004L301.416 454.779Z" stroke="url(#paint44_linear_316_20188)" stroke-width="3"/>
<path id="Polygon 1_23" opacity="0.666667" d="M294.337 448.764C287.453 454.121 284.103 462.849 285.634 471.436L312.485 622C313.668 628.636 317.645 634.445 323.403 637.949L486.165 736.995C491.222 740.072 497.253 741.128 503.054 739.951L673.935 705.277C681.809 703.679 688.321 698.169 691.201 690.668L742.426 557.221C745.305 549.72 744.153 541.267 739.37 534.811L635.583 394.702C632.06 389.945 626.871 386.694 621.054 385.597L433.824 350.294C427.2 349.045 420.358 350.701 415.038 354.841L294.337 448.764Z" stroke="url(#paint45_linear_316_20188)" stroke-width="3"/>
<path id="Polygon 1_22" opacity="0.681159" d="M287.72 443.354C280.627 448.335 276.851 456.815 277.896 465.419L296.144 615.671C296.959 622.379 300.622 628.412 306.197 632.229L460.816 738.086C465.732 741.451 471.742 742.824 477.631 741.927L647.541 716.042C655.457 714.836 662.213 709.683 665.47 702.368L723.145 572.828C726.402 565.513 725.71 557.044 721.31 550.355L626.855 406.767C623.581 401.79 618.539 398.242 612.749 396.841L430.621 352.769C424.053 351.179 417.119 352.494 411.589 356.377L287.72 443.354Z" stroke="url(#paint46_linear_316_20188)" stroke-width="3"/>
<path id="Polygon 1_21" opacity="0.695652" d="M281.512 438.567C274.231 443.165 270.047 451.376 270.608 459.969L280.363 609.427C280.804 616.186 284.14 622.426 289.516 626.547L435.732 738.637C440.491 742.285 446.464 743.976 452.428 743.364L620.923 726.073C628.859 725.259 635.841 720.473 639.463 713.365L703.321 588.035C706.943 580.927 706.711 572.466 702.705 565.567L617.655 419.088C614.644 413.903 609.765 410.065 604.017 408.359L427.39 355.952C420.897 354.026 413.888 354.995 408.16 358.61L281.512 438.567Z" stroke="url(#paint47_linear_316_20188)" stroke-width="3"/>
<path id="Polygon 1_20" opacity="0.710145" d="M275.679 434.421C268.231 438.628 263.657 446.55 263.738 455.104L265.135 603.297C265.2 610.086 268.197 616.516 273.356 620.931L410.947 738.666C415.533 742.59 421.454 744.599 427.481 744.277L594.133 735.365C602.07 734.941 609.255 730.532 613.229 723.649L682.991 602.817C686.966 595.934 687.191 587.507 683.59 580.421L607.982 431.64C605.247 426.259 600.547 422.137 594.856 420.127L424.098 359.837C417.696 357.577 410.629 358.196 404.717 361.535L275.679 434.421Z" stroke="url(#paint48_linear_316_20188)" stroke-width="3"/>
<path id="Polygon 1_19" opacity="0.724638" d="M270.176 430.928C262.583 434.739 257.638 442.353 257.245 450.84L250.447 597.309C250.131 604.108 252.779 610.71 257.705 615.406L386.487 738.194C390.886 742.388 396.737 744.714 402.814 744.686L567.215 743.916C575.133 743.879 582.501 739.856 586.814 733.215L662.186 617.151C666.499 610.51 667.177 602.144 663.99 594.895L597.826 444.394C595.38 438.831 590.875 434.432 585.255 432.119L420.702 364.413C414.408 361.823 407.3 362.09 401.217 365.143L270.176 430.928Z" stroke="url(#paint49_linear_316_20188)" stroke-width="3"/>
<path id="Polygon 1_18" opacity="0.73913" d="M264.958 428.098C257.242 431.511 251.948 438.798 251.086 447.191L236.279 591.49C235.583 598.278 237.871 605.033 242.549 610L362.376 737.244C366.571 741.699 372.338 744.341 378.451 744.61L540.212 751.726C548.092 752.073 555.62 748.443 560.256 742.062L640.935 631.017C645.572 624.636 646.697 616.354 643.933 608.967L587.178 457.322C585.033 451.591 580.738 446.923 575.205 444.31L417.16 369.668C410.99 366.754 403.859 366.666 397.619 369.425L264.958 428.098Z" stroke="url(#paint50_linear_316_20188)" stroke-width="3"/>
<path id="Polygon 1_17" opacity="0.753623" d="M259.987 425.942C252.17 428.953 246.546 435.897 245.226 444.169L222.621 585.868C221.543 592.623 223.462 599.512 227.876 604.737L338.641 735.838C342.618 740.546 348.285 743.502 354.421 744.072L513.173 758.8C520.995 759.525 528.662 756.294 533.606 750.189L619.277 644.395C624.221 638.29 625.787 630.118 623.451 622.617L576.038 470.397C574.206 464.514 570.135 459.585 564.704 456.674L413.438 375.587C407.409 372.356 400.272 371.911 393.889 374.369L259.987 425.942Z" stroke="url(#paint51_linear_316_20188)" stroke-width="3"/>
<path id="Polygon 1_16" opacity="0.768116" d="M255.214 424.463C247.318 427.071 241.387 433.657 239.62 441.782L209.448 580.467C207.99 587.167 209.532 594.17 213.669 599.639L315.301 734.002C319.046 738.952 324.596 742.22 330.742 743.092L486.137 765.142C493.882 766.241 501.667 763.413 506.902 757.599L597.239 657.27C602.474 651.456 604.472 643.418 602.57 635.83L564.398 483.591C562.888 477.57 559.058 472.391 553.744 469.185L409.493 382.154C403.622 378.612 396.496 377.81 389.985 379.961L255.214 424.463Z" stroke="url(#paint52_linear_316_20188)" stroke-width="3"/>
<path id="Polygon 1_15" opacity="0.782609" d="M250.602 423.666C242.648 425.869 236.434 432.084 234.23 440.037L196.748 575.31C194.912 581.935 196.069 589.031 199.915 594.73L292.382 731.761C295.88 736.944 301.299 740.52 307.44 741.696L459.153 770.761C466.803 772.227 474.683 769.806 480.191 764.298L574.862 669.626C580.371 664.118 582.791 656.239 581.326 648.588L552.261 496.876C551.085 490.734 547.509 485.315 542.326 481.818L405.295 389.35C399.596 385.505 392.499 384.347 385.875 386.183L250.602 423.666Z" stroke="url(#paint53_linear_316_20188)" stroke-width="3"/>
<path id="Polygon 1_14" opacity="0.797101" d="M246.108 423.549C238.119 425.35 231.644 431.18 229.017 438.937L184.499 570.42C182.289 576.948 183.056 584.117 186.596 590.03L269.904 729.142C273.141 734.547 278.413 738.426 284.536 739.908L432.263 775.669C439.8 777.493 447.753 775.482 453.516 770.292L552.181 681.454C557.945 676.264 560.777 668.566 559.75 660.879L539.627 510.224C538.793 503.979 535.486 498.33 530.449 494.546L400.807 397.154C395.297 393.014 388.247 391.502 381.524 393.018L246.108 423.549Z" stroke="url(#paint54_linear_316_20188)" stroke-width="3"/>
<path id="Polygon 1_13" opacity="0.811594" d="M241.683 424.111C233.68 425.511 226.969 430.946 223.935 438.483L172.675 565.817C170.094 572.227 170.466 579.448 173.69 585.559L247.878 726.172C250.841 731.787 255.95 735.965 262.042 737.754L405.502 779.878C412.909 782.054 420.913 780.452 426.912 775.593L529.225 692.742C535.225 687.883 538.456 680.388 537.868 672.691L526.491 523.607C526.008 517.276 522.983 511.411 518.107 507.345L395.991 405.543C390.684 401.118 383.698 399.254 376.892 400.445L241.683 424.111Z" stroke="url(#paint55_linear_316_20188)" stroke-width="3"/>
<path id="Polygon 1_12" opacity="0.826087" d="M237.294 425.346C229.298 426.35 222.375 431.38 218.949 438.674L161.26 561.522C158.316 567.792 158.288 575.043 161.184 581.336L226.329 722.88C229.005 728.693 233.935 733.164 239.982 735.259L378.919 783.406C386.179 785.922 394.211 784.73 400.427 780.213L506.037 703.483C512.253 698.967 515.869 691.697 515.72 684.015L512.863 536.999C512.739 530.601 510.01 524.53 505.308 520.189L390.823 414.493C385.733 409.794 378.829 407.58 371.955 408.443L237.294 425.346Z" stroke="url(#paint56_linear_316_20188)" stroke-width="3"/>
<path id="Polygon 1_11" opacity="0.84058" d="M232.896 427.249C224.929 427.86 217.818 432.478 214.019 439.508L150.23 557.551C146.928 563.662 146.498 570.92 149.056 577.377L205.269 719.295C207.644 725.293 212.381 730.051 218.369 732.452L352.55 786.27C359.647 789.117 367.684 788.332 374.097 784.168L482.65 713.673C489.062 709.509 493.048 702.485 493.334 694.844L498.745 550.374C498.987 543.927 496.567 537.664 492.054 533.054L385.269 423.978C380.411 419.015 373.605 416.456 366.68 416.987L232.896 427.249Z" stroke="url(#paint57_linear_316_20188)" stroke-width="3"/>
<path id="Polygon 1_10" opacity="0.855072" d="M228.45 429.808C220.531 430.033 213.259 434.232 209.105 440.977L139.559 553.921C135.908 559.851 135.075 567.095 137.284 573.699L184.708 715.448C186.772 721.617 191.301 726.654 197.216 729.361L326.431 788.491C333.349 791.656 341.371 791.277 347.96 787.473L459.097 723.308C465.686 719.504 470.025 712.746 470.742 705.172L484.142 563.704C484.756 557.228 482.657 550.787 478.347 545.916L379.301 433.971C374.687 428.755 367.997 425.855 361.036 426.052L228.45 429.808Z" stroke="url(#paint58_linear_316_20188)" stroke-width="3"/>
<path id="Polygon 1_9" opacity="0.869565" d="M223.916 433.012C216.066 432.857 208.657 436.632 204.168 443.074L129.224 550.648C125.233 556.377 123.996 563.584 125.848 570.316L164.66 711.369C166.401 717.694 170.706 723.003 176.534 726.014L300.599 790.09C307.323 793.563 315.309 793.585 322.052 790.149L435.415 732.388C442.159 728.952 446.835 722.479 447.977 714.997L469.062 576.964C470.052 570.479 468.287 563.875 464.193 558.749L372.892 444.441C368.535 438.985 361.977 435.75 354.996 435.611L223.916 433.012Z" stroke="url(#paint59_linear_316_20188)" stroke-width="3"/>
<path id="Polygon 1_8" opacity="0.884058" d="M219.254 436.847C211.492 436.319 203.972 439.667 199.17 445.789L119.197 547.743C114.876 553.252 113.237 560.399 114.724 567.24L145.132 707.088C146.538 713.554 150.605 719.128 156.333 722.44L275.086 791.094C281.603 794.861 289.53 795.279 296.406 792.217L411.637 740.913C418.514 737.852 423.507 731.681 425.068 724.318L453.509 590.128C454.882 583.655 453.461 576.903 449.596 571.532L366.016 455.358C361.927 449.675 355.518 446.111 348.534 445.636L219.254 436.847Z" stroke="url(#paint60_linear_316_20188)" stroke-width="3"/>
<path id="Polygon 1_7" opacity="0.898551" d="M214.431 441.296C206.776 440.405 199.17 443.324 194.077 449.109L109.456 545.22C104.818 550.488 102.777 557.554 103.893 564.484L126.133 702.638C127.194 709.229 131.008 715.058 136.624 718.669L249.928 791.528C256.224 795.576 264.072 796.383 271.06 793.701L387.799 748.889C394.787 746.206 400.079 740.355 402.049 733.134L437.499 603.174C439.255 596.733 438.19 589.849 434.568 584.241L358.652 466.691C354.844 460.794 348.6 456.909 341.628 456.098L214.431 441.296Z" stroke="url(#paint61_linear_316_20188)" stroke-width="3"/>
<path id="Polygon 1_6" opacity="0.913043" d="M209.412 446.34C201.881 445.096 194.216 447.587 188.855 453.019L99.9759 543.087C95.0325 548.096 92.5945 555.057 93.3324 562.057L107.669 698.049C108.376 704.749 111.924 710.824 117.412 714.731L225.154 791.42C231.217 795.735 238.966 796.924 246.044 794.624L363.935 756.319C371.013 754.019 376.583 748.503 378.951 741.448L421.04 616.076C423.184 609.689 422.484 602.689 419.117 596.854L350.781 478.406C347.264 472.31 341.2 468.111 334.256 466.964L209.412 446.34Z" stroke="url(#paint62_linear_316_20188)" stroke-width="3"/>
<path id="Polygon 1_5" opacity="0.927536" d="M204.163 451.959C196.775 450.373 189.075 452.436 183.469 457.504L90.7309 541.352C85.4964 546.085 82.6658 552.919 83.0212 559.967L89.7463 693.354C90.0888 700.145 93.3565 706.456 98.7054 710.655L200.796 790.8C206.614 795.368 214.244 796.929 221.389 795.015L340.079 763.212C347.224 761.297 353.051 756.13 355.806 749.265L404.146 628.812C406.679 622.501 406.354 615.402 403.255 609.349L342.385 490.47C339.169 484.189 333.301 479.686 326.401 478.204L204.163 451.959Z" stroke="url(#paint63_linear_316_20188)" stroke-width="3"/>
<path id="Polygon 1_4" opacity="0.942029" d="M198.655 458.131C191.426 456.214 183.716 457.853 177.892 462.544L81.6971 540.023C76.1866 544.461 72.9692 551.146 72.9383 558.222L72.3681 688.583C72.3381 695.449 75.312 701.984 80.5081 706.472L176.881 789.7C182.444 794.505 189.936 796.429 197.126 794.901L316.265 769.577C323.455 768.049 329.517 763.243 332.645 756.591L386.834 641.36C389.755 635.147 389.814 627.967 386.994 621.707L333.45 502.848C330.544 496.397 324.886 491.599 318.047 489.785L198.655 458.131Z" stroke="url(#paint64_linear_316_20188)" stroke-width="3"/>
<path id="Polygon 1_3" opacity="0.956522" d="M192.848 464.831C185.794 462.596 178.1 463.815 172.081 468.12L72.8394 539.104C67.069 543.232 63.472 549.745 63.0522 556.827L55.5258 683.769C55.1154 690.69 57.7823 697.44 62.8128 702.211L153.424 788.152C158.723 793.178 166.058 795.454 173.272 794.312L292.514 775.426C299.728 774.283 306.001 769.851 309.487 763.434L369.107 653.699C372.417 647.606 372.867 640.364 370.338 633.908L323.953 515.505C321.365 508.899 315.932 503.816 309.168 501.673L192.848 464.831Z" stroke="url(#paint65_linear_316_20188)" stroke-width="3"/>
<path id="Polygon 1_2" opacity="0.971014" d="M186.722 472.033C179.858 469.495 172.202 470.299 166.016 474.209L64.139 538.599C58.1258 542.4 54.1577 548.72 53.3474 555.787L39.2253 678.944C38.4275 685.901 40.7745 692.853 45.6268 697.903L130.456 786.189C135.482 791.421 142.643 794.037 149.858 793.279L268.865 780.771C276.08 780.012 282.54 775.964 286.369 769.802L350.989 665.808C354.685 659.859 355.536 652.572 353.309 645.932L313.889 528.403C311.627 521.659 306.432 516.302 299.76 513.835L186.722 472.033Z" stroke="url(#paint66_linear_316_20188)" stroke-width="3"/>
<path id="Polygon 1_1" opacity="0.985507" d="M180.249 479.711C173.589 476.883 165.997 477.281 159.669 480.79L55.5703 538.511C49.3324 541.969 45.003 548.074 43.8017 555.105L23.4637 674.137C22.272 681.112 24.2867 688.253 28.9484 693.577L107.997 783.848C112.743 789.268 119.712 792.212 126.906 791.835L245.346 785.628C252.54 785.251 259.163 781.595 263.317 775.708L332.496 677.668C336.576 671.887 337.833 664.574 335.919 657.762L303.25 541.508C301.32 534.641 296.376 529.022 289.811 526.235L180.249 479.711Z" stroke="url(#paint67_linear_316_20188)" stroke-width="3"/>
<path id="Polygon 1" d="M173.403 487.836C166.96 484.733 159.454 484.733 153.011 487.836L47.1043 538.838C40.6609 541.941 35.9812 547.809 34.3898 554.781L8.23312 669.381C6.64172 676.354 8.31192 683.671 12.7709 689.262L86.0603 781.164C90.5193 786.756 97.2817 790.012 104.433 790.012H221.98C229.132 790.012 235.895 786.756 240.354 781.164L313.643 689.262C318.102 683.671 319.772 676.354 318.181 669.381L292.024 554.781C290.433 547.809 285.753 541.941 279.309 538.838L173.403 487.836Z" stroke="url(#paint68_linear_316_20188)" stroke-width="3"/>
</g>
<defs>
<linearGradient id="paint0_linear_316_20188" x1="1358.2" y1="723.386" x2="1013.69" y2="-50.3968" gradientUnits="userSpaceOnUse">
<stop stop-color="#DAEAF3"/>
<stop offset="1" stop-color="#E1ECF3"/>
</linearGradient>
<linearGradient id="paint1_linear_316_20188" x1="1322.03" y1="732.524" x2="1021.17" y2="-51.2494" gradientUnits="userSpaceOnUse">
<stop stop-color="#DAEAF3"/>
<stop offset="1" stop-color="#E1ECF3"/>
</linearGradient>
<linearGradient id="paint2_linear_316_20188" x1="1285.82" y1="740.492" x2="1028.7" y2="-50.8435" gradientUnits="userSpaceOnUse">
<stop stop-color="#DAEAF3"/>
<stop offset="1" stop-color="#E1ECF3"/>
</linearGradient>
<linearGradient id="paint3_linear_316_20188" x1="1249.63" y1="747.298" x2="1036.21" y2="-49.1888" gradientUnits="userSpaceOnUse">
<stop stop-color="#DAEAF3"/>
<stop offset="1" stop-color="#E1ECF3"/>
</linearGradient>
<linearGradient id="paint4_linear_316_20188" x1="1213.51" y1="752.954" x2="1043.63" y2="-46.2979" gradientUnits="userSpaceOnUse">
<stop stop-color="#DAEAF3"/>
<stop offset="1" stop-color="#E1ECF3"/>
</linearGradient>
<linearGradient id="paint5_linear_316_20188" x1="1177.55" y1="757.476" x2="1050.9" y2="-42.1881" gradientUnits="userSpaceOnUse">
<stop stop-color="#DAEAF3"/>
<stop offset="1" stop-color="#E1ECF3"/>
</linearGradient>
<linearGradient id="paint6_linear_316_20188" x1="1141.79" y1="760.882" x2="1057.94" y2="-36.8792" gradientUnits="userSpaceOnUse">
<stop stop-color="#DAEAF3"/>
<stop offset="1" stop-color="#E1ECF3"/>
</linearGradient>
<linearGradient id="paint7_linear_316_20188" x1="1106.29" y1="763.196" x2="1064.7" y2="-30.3952" gradientUnits="userSpaceOnUse">
<stop stop-color="#DAEAF3"/>
<stop offset="1" stop-color="#E1ECF3"/>
</linearGradient>
<linearGradient id="paint8_linear_316_20188" x1="1071.12" y1="764.441" x2="1071.12" y2="-22.763" gradientUnits="userSpaceOnUse">
<stop stop-color="#DAEAF3"/>
<stop offset="1" stop-color="#E1ECF3"/>
</linearGradient>
<linearGradient id="paint9_linear_316_20188" x1="1036.32" y1="764.647" x2="1077.12" y2="-14.0131" gradientUnits="userSpaceOnUse">
<stop stop-color="#DAEAF3"/>
<stop offset="1" stop-color="#E1ECF3"/>
</linearGradient>
<linearGradient id="paint10_linear_316_20188" x1="1001.95" y1="763.844" x2="1082.67" y2="-4.17853" gradientUnits="userSpaceOnUse">
<stop stop-color="#DAEAF3"/>
<stop offset="1" stop-color="#E1ECF3"/>
</linearGradient>
<linearGradient id="paint11_linear_316_20188" x1="968.061" y1="762.065" x2="1087.7" y2="6.70402" gradientUnits="userSpaceOnUse">
<stop stop-color="#DAEAF3"/>
<stop offset="1" stop-color="#E1ECF3"/>
</linearGradient>
<linearGradient id="paint12_linear_316_20188" x1="934.709" y1="759.348" x2="1092.16" y2="18.596" gradientUnits="userSpaceOnUse">
<stop stop-color="#DAEAF3"/>
<stop offset="1" stop-color="#E1ECF3"/>
</linearGradient>
<linearGradient id="paint13_linear_316_20188" x1="901.93" y1="755.731" x2="1096" y2="31.4554" gradientUnits="userSpaceOnUse">
<stop stop-color="#DAEAF3"/>
<stop offset="1" stop-color="#E1ECF3"/>
</linearGradient>
<linearGradient id="paint14_linear_316_20188" x1="869.77" y1="751.255" x2="1099.17" y2="45.2384" gradientUnits="userSpaceOnUse">
<stop stop-color="#DAEAF3"/>
<stop offset="1" stop-color="#E1ECF3"/>
</linearGradient>
<linearGradient id="paint15_linear_316_20188" x1="838.271" y1="745.962" x2="1101.63" y2="59.8986" gradientUnits="userSpaceOnUse">
<stop stop-color="#DAEAF3"/>
<stop offset="1" stop-color="#E1ECF3"/>
</linearGradient>
<linearGradient id="paint16_linear_316_20188" x1="807.479" y1="739.899" x2="1103.34" y2="75.388" gradientUnits="userSpaceOnUse">
<stop stop-color="#DAEAF3"/>
<stop offset="1" stop-color="#E1ECF3"/>
</linearGradient>
<linearGradient id="paint17_linear_316_20188" x1="777.417" y1="733.111" x2="1104.25" y2="91.6559" gradientUnits="userSpaceOnUse">
<stop stop-color="#DAEAF3"/>
<stop offset="1" stop-color="#E1ECF3"/>
</linearGradient>
<linearGradient id="paint18_linear_316_20188" x1="748.123" y1="725.647" x2="1104.35" y2="108.651" gradientUnits="userSpaceOnUse">
<stop stop-color="#DAEAF3"/>
<stop offset="1" stop-color="#E1ECF3"/>
</linearGradient>
<linearGradient id="paint19_linear_316_20188" x1="719.627" y1="717.557" x2="1103.58" y2="126.319" gradientUnits="userSpaceOnUse">
<stop stop-color="#DAEAF3"/>
<stop offset="1" stop-color="#E1ECF3"/>
</linearGradient>
<linearGradient id="paint20_linear_316_20188" x1="691.953" y1="708.891" x2="1101.93" y2="144.606" gradientUnits="userSpaceOnUse">
<stop stop-color="#DAEAF3"/>
<stop offset="1" stop-color="#E1ECF3"/>
</linearGradient>
<linearGradient id="paint21_linear_316_20188" x1="665.126" y1="699.701" x2="1099.37" y2="163.456" gradientUnits="userSpaceOnUse">
<stop stop-color="#DAEAF3"/>
<stop offset="1" stop-color="#E1ECF3"/>
</linearGradient>
<linearGradient id="paint22_linear_316_20188" x1="639.168" y1="690.04" x2="1095.88" y2="182.812" gradientUnits="userSpaceOnUse">
<stop stop-color="#DAEAF3"/>
<stop offset="1" stop-color="#E1ECF3"/>
</linearGradient>
<linearGradient id="paint23_linear_316_20188" x1="614.093" y1="679.962" x2="1091.44" y2="202.617" gradientUnits="userSpaceOnUse">
<stop stop-color="#DAEAF3"/>
<stop offset="1" stop-color="#E1ECF3"/>
</linearGradient>
<linearGradient id="paint24_linear_316_20188" x1="589.913" y1="669.52" x2="1086.03" y2="222.814" gradientUnits="userSpaceOnUse">
<stop stop-color="#DAEAF3"/>
<stop offset="1" stop-color="#E1ECF3"/>
</linearGradient>
<linearGradient id="paint25_linear_316_20188" x1="566.641" y1="658.767" x2="1079.65" y2="243.343" gradientUnits="userSpaceOnUse">
<stop stop-color="#DAEAF3"/>
<stop offset="1" stop-color="#E1ECF3"/>
</linearGradient>
<linearGradient id="paint26_linear_316_20188" x1="544.285" y1="647.76" x2="1072.28" y2="264.148" gradientUnits="userSpaceOnUse">
<stop stop-color="#DAEAF3"/>
<stop offset="1" stop-color="#E1ECF3"/>
</linearGradient>
<linearGradient id="paint27_linear_316_20188" x1="522.851" y1="636.55" x2="1063.93" y2="285.169" gradientUnits="userSpaceOnUse">
<stop stop-color="#DAEAF3"/>
<stop offset="1" stop-color="#E1ECF3"/>
</linearGradient>
<linearGradient id="paint28_linear_316_20188" x1="502.332" y1="625.193" x2="1054.59" y2="306.349" gradientUnits="userSpaceOnUse">
<stop stop-color="#DAEAF3"/>
<stop offset="1" stop-color="#E1ECF3"/>
</linearGradient>
<linearGradient id="paint29_linear_316_20188" x1="482.732" y1="613.741" x2="1044.25" y2="327.631" gradientUnits="userSpaceOnUse">
<stop stop-color="#DAEAF3"/>
<stop offset="1" stop-color="#E1ECF3"/>
</linearGradient>
<linearGradient id="paint30_linear_316_20188" x1="464.047" y1="602.247" x2="1032.94" y2="348.958" gradientUnits="userSpaceOnUse">
<stop stop-color="#DAEAF3"/>
<stop offset="1" stop-color="#E1ECF3"/>
</linearGradient>
<linearGradient id="paint31_linear_316_20188" x1="446.265" y1="590.763" x2="1020.66" y2="370.274" gradientUnits="userSpaceOnUse">
<stop stop-color="#DAEAF3"/>
<stop offset="1" stop-color="#E1ECF3"/>
</linearGradient>
<linearGradient id="paint32_linear_316_20188" x1="429.38" y1="579.34" x2="1007.42" y2="391.525" gradientUnits="userSpaceOnUse">
<stop stop-color="#DAEAF3"/>
<stop offset="1" stop-color="#E1ECF3"/>
</linearGradient>
<linearGradient id="paint33_linear_316_20188" x1="413.374" y1="568.028" x2="993.228" y2="412.656" gradientUnits="userSpaceOnUse">
<stop stop-color="#DAEAF3"/>
<stop offset="1" stop-color="#E1ECF3"/>
</linearGradient>
<linearGradient id="paint34_linear_316_20188" x1="398.229" y1="556.874" x2="978.107" y2="433.617" gradientUnits="userSpaceOnUse">
<stop stop-color="#DAEAF3"/>
<stop offset="1" stop-color="#E1ECF3"/>
</linearGradient>
<linearGradient id="paint35_linear_316_20188" x1="383.928" y1="545.927" x2="962.078" y2="454.357" gradientUnits="userSpaceOnUse">
<stop stop-color="#DAEAF3"/>
<stop offset="1" stop-color="#E1ECF3"/>
</linearGradient>
<linearGradient id="paint36_linear_316_20188" x1="370.451" y1="535.231" x2="945.166" y2="474.826" gradientUnits="userSpaceOnUse">
<stop stop-color="#DAEAF3"/>
<stop offset="1" stop-color="#E1ECF3"/>
</linearGradient>
<linearGradient id="paint37_linear_316_20188" x1="357.778" y1="524.83" x2="927.402" y2="494.978" gradientUnits="userSpaceOnUse">
<stop stop-color="#DAEAF3"/>
<stop offset="1" stop-color="#E1ECF3"/>
</linearGradient>
<linearGradient id="paint38_linear_316_20188" x1="345.871" y1="514.767" x2="908.801" y2="514.767" gradientUnits="userSpaceOnUse">
<stop stop-color="#DAEAF3"/>
<stop offset="1" stop-color="#E1ECF3"/>
</linearGradient>
<linearGradient id="paint39_linear_316_20188" x1="334.709" y1="505.08" x2="889.401" y2="534.151" gradientUnits="userSpaceOnUse">
<stop stop-color="#DAEAF3"/>
<stop offset="1" stop-color="#E1ECF3"/>
</linearGradient>
<linearGradient id="paint40_linear_316_20188" x1="324.257" y1="495.809" x2="869.234" y2="553.088" gradientUnits="userSpaceOnUse">
<stop stop-color="#DAEAF3"/>
<stop offset="1" stop-color="#E1ECF3"/>
</linearGradient>
<linearGradient id="paint41_linear_316_20188" x1="314.491" y1="486.988" x2="848.339" y2="571.542" gradientUnits="userSpaceOnUse">
<stop stop-color="#DAEAF3"/>
<stop offset="1" stop-color="#E1ECF3"/>
</linearGradient>
<linearGradient id="paint42_linear_316_20188" x1="305.367" y1="478.652" x2="826.745" y2="589.474" gradientUnits="userSpaceOnUse">
<stop stop-color="#DAEAF3"/>
<stop offset="1" stop-color="#E1ECF3"/>
</linearGradient>
<linearGradient id="paint43_linear_316_20188" x1="296.852" y1="470.831" x2="804.495" y2="606.853" gradientUnits="userSpaceOnUse">
<stop stop-color="#DAEAF3"/>
<stop offset="1" stop-color="#E1ECF3"/>
</linearGradient>
<linearGradient id="paint44_linear_316_20188" x1="288.917" y1="463.553" x2="781.636" y2="623.647" gradientUnits="userSpaceOnUse">
<stop stop-color="#DAEAF3"/>
<stop offset="1" stop-color="#E1ECF3"/>
</linearGradient>
<linearGradient id="paint45_linear_316_20188" x1="281.508" y1="456.846" x2="758.193" y2="639.828" gradientUnits="userSpaceOnUse">
<stop stop-color="#DAEAF3"/>
<stop offset="1" stop-color="#E1ECF3"/>
</linearGradient>
<linearGradient id="paint46_linear_316_20188" x1="274.601" y1="450.733" x2="734.227" y2="655.371" gradientUnits="userSpaceOnUse">
<stop stop-color="#DAEAF3"/>
<stop offset="1" stop-color="#E1ECF3"/>
</linearGradient>
<linearGradient id="paint47_linear_316_20188" x1="268.143" y1="445.234" x2="709.768" y2="670.253" gradientUnits="userSpaceOnUse">
<stop stop-color="#DAEAF3"/>
<stop offset="1" stop-color="#E1ECF3"/>
</linearGradient>
<linearGradient id="paint48_linear_316_20188" x1="262.098" y1="440.369" x2="684.867" y2="684.455" gradientUnits="userSpaceOnUse">
<stop stop-color="#DAEAF3"/>
<stop offset="1" stop-color="#E1ECF3"/>
</linearGradient>
<linearGradient id="paint49_linear_316_20188" x1="256.425" y1="436.152" x2="659.57" y2="697.958" gradientUnits="userSpaceOnUse">
<stop stop-color="#DAEAF3"/>
<stop offset="1" stop-color="#E1ECF3"/>
</linearGradient>
<linearGradient id="paint50_linear_316_20188" x1="251.076" y1="432.598" x2="633.919" y2="710.75" gradientUnits="userSpaceOnUse">
<stop stop-color="#DAEAF3"/>
<stop offset="1" stop-color="#E1ECF3"/>
</linearGradient>
<linearGradient id="paint51_linear_316_20188" x1="246.013" y1="429.716" x2="607.964" y2="722.819" gradientUnits="userSpaceOnUse">
<stop stop-color="#DAEAF3"/>
<stop offset="1" stop-color="#E1ECF3"/>
</linearGradient>
<linearGradient id="paint52_linear_316_20188" x1="241.189" y1="427.515" x2="581.748" y2="734.156" gradientUnits="userSpaceOnUse">
<stop stop-color="#DAEAF3"/>
<stop offset="1" stop-color="#E1ECF3"/>
</linearGradient>
<linearGradient id="paint53_linear_316_20188" x1="236.564" y1="425.999" x2="555.322" y2="744.757" gradientUnits="userSpaceOnUse">
<stop stop-color="#DAEAF3"/>
<stop offset="1" stop-color="#E1ECF3"/>
</linearGradient>
<linearGradient id="paint54_linear_316_20188" x1="232.095" y1="425.17" x2="528.732" y2="754.619" gradientUnits="userSpaceOnUse">
<stop stop-color="#DAEAF3"/>
<stop offset="1" stop-color="#E1ECF3"/>
</linearGradient>
<linearGradient id="paint55_linear_316_20188" x1="227.734" y1="425.029" x2="502.017" y2="763.741" gradientUnits="userSpaceOnUse">
<stop stop-color="#DAEAF3"/>
<stop offset="1" stop-color="#E1ECF3"/>
</linearGradient>
<linearGradient id="paint56_linear_316_20188" x1="223.445" y1="425.573" x2="475.231" y2="772.128" gradientUnits="userSpaceOnUse">
<stop stop-color="#DAEAF3"/>
<stop offset="1" stop-color="#E1ECF3"/>
</linearGradient>
<linearGradient id="paint57_linear_316_20188" x1="219.184" y1="426.796" x2="448.416" y2="779.784" gradientUnits="userSpaceOnUse">
<stop stop-color="#DAEAF3"/>
<stop offset="1" stop-color="#E1ECF3"/>
</linearGradient>
<linearGradient id="paint58_linear_316_20188" x1="214.908" y1="428.691" x2="421.615" y2="786.718" gradientUnits="userSpaceOnUse">
<stop stop-color="#DAEAF3"/>
<stop offset="1" stop-color="#E1ECF3"/>
</linearGradient>
<linearGradient id="paint59_linear_316_20188" x1="210.58" y1="431.248" x2="394.871" y2="792.94" gradientUnits="userSpaceOnUse">
<stop stop-color="#DAEAF3"/>
<stop offset="1" stop-color="#E1ECF3"/>
</linearGradient>
<linearGradient id="paint60_linear_316_20188" x1="206.156" y1="434.453" x2="368.225" y2="798.466" gradientUnits="userSpaceOnUse">
<stop stop-color="#DAEAF3"/>
<stop offset="1" stop-color="#E1ECF3"/>
</linearGradient>
<linearGradient id="paint61_linear_316_20188" x1="201.602" y1="438.293" x2="341.719" y2="803.309" gradientUnits="userSpaceOnUse">
<stop stop-color="#DAEAF3"/>
<stop offset="1" stop-color="#E1ECF3"/>
</linearGradient>
<linearGradient id="paint62_linear_316_20188" x1="196.881" y1="442.75" x2="315.392" y2="807.489" gradientUnits="userSpaceOnUse">
<stop stop-color="#DAEAF3"/>
<stop offset="1" stop-color="#E1ECF3"/>
</linearGradient>
<linearGradient id="paint63_linear_316_20188" x1="191.96" y1="447.805" x2="289.285" y2="811.026" gradientUnits="userSpaceOnUse">
<stop stop-color="#DAEAF3"/>
<stop offset="1" stop-color="#E1ECF3"/>
</linearGradient>
<linearGradient id="paint64_linear_316_20188" x1="186.807" y1="453.437" x2="263.434" y2="813.942" gradientUnits="userSpaceOnUse">
<stop stop-color="#DAEAF3"/>
<stop offset="1" stop-color="#E1ECF3"/>
</linearGradient>
<linearGradient id="paint65_linear_316_20188" x1="181.38" y1="459.625" x2="237.865" y2="816.261" gradientUnits="userSpaceOnUse">
<stop stop-color="#DAEAF3"/>
<stop offset="1" stop-color="#E1ECF3"/>
</linearGradient>
<linearGradient id="paint66_linear_316_20188" x1="175.656" y1="466.342" x2="212.618" y2="818.011" gradientUnits="userSpaceOnUse">
<stop stop-color="#DAEAF3"/>
<stop offset="1" stop-color="#E1ECF3"/>
</linearGradient>
<linearGradient id="paint67_linear_316_20188" x1="169.609" y1="473.563" x2="187.724" y2="819.219" gradientUnits="userSpaceOnUse">
<stop stop-color="#DAEAF3"/>
<stop offset="1" stop-color="#E1ECF3"/>
</linearGradient>
<linearGradient id="paint68_linear_316_20188" x1="163.207" y1="481.261" x2="163.207" y2="819.916" gradientUnits="userSpaceOnUse">
<stop stop-color="#DAEAF3"/>
<stop offset="1" stop-color="#E1ECF3"/>
</linearGradient>
</defs>
</svg>
