<svg width="418" height="427" viewBox="0 0 418 427" fill="none" xmlns="http://www.w3.org/2000/svg">
<g id="Looper-3">
<path id="Ellipse 24_28" opacity="0.0344828" d="M54.067 99.7434C55.9533 97.4953 58.8263 96.0627 62.7033 95.4812C66.5886 94.8985 71.4191 95.1824 77.1007 96.318C88.4628 98.589 103.021 104.222 119.8 112.759C153.345 129.823 195.567 158.385 238.496 194.407C281.425 230.429 316.884 267.049 339.515 297.121C350.835 312.163 358.911 325.522 363.12 336.317C365.225 341.715 366.344 346.423 366.444 350.35C366.545 354.269 365.633 357.348 363.747 359.596C361.86 361.844 358.987 363.276 355.11 363.858C351.225 364.44 346.395 364.157 340.713 363.021C329.351 360.75 314.793 355.116 298.013 346.58C264.469 329.515 222.247 300.954 179.318 264.932C136.389 228.91 100.929 192.289 78.2989 162.218C66.9787 147.176 58.9029 133.817 54.6934 123.022C52.5885 117.624 51.47 112.916 51.3692 108.989C51.2687 105.07 52.1806 101.991 54.067 99.7434Z" stroke="#6E8CA2" stroke-width="2"/>
<path id="Ellipse 24_27" opacity="0.0689655" d="M65.977 85.1214C68.0521 83.0463 71.039 81.8696 74.9519 81.6282C78.8733 81.3863 83.6606 82.0902 89.2216 83.7166C100.343 86.9693 114.354 93.8501 130.326 103.816C162.255 123.74 201.827 155.873 241.453 195.499C281.079 235.125 313.212 274.697 333.136 306.626C343.102 322.598 349.983 336.61 353.236 347.731C354.862 353.292 355.566 358.079 355.324 362C355.083 365.913 353.906 368.9 351.831 370.975C349.756 373.05 346.769 374.227 342.856 374.468C338.934 374.71 334.147 374.006 328.586 372.38C317.465 369.127 303.454 362.247 287.482 352.28C255.552 332.357 215.981 300.224 176.354 260.598C136.728 220.972 104.595 181.4 84.6717 149.47C74.7056 133.499 67.8248 119.487 64.5722 108.366C62.9457 102.805 62.2418 98.0177 62.4837 94.0964C62.7251 90.1834 63.9019 87.1965 65.977 85.1214Z" stroke="#6E8CA2" stroke-width="2"/>
<path id="Ellipse 24_26" opacity="0.103448" d="M78.9789 71.5864C81.2269 69.7 84.305 68.7881 88.2241 68.8886C92.1516 68.9894 96.8594 70.1079 102.257 72.2128C113.053 76.4223 126.411 84.4981 141.454 95.8183C171.525 118.449 208.146 153.909 244.167 196.838C280.189 239.767 308.751 281.988 325.816 315.533C334.352 332.312 339.985 346.87 342.256 358.232C343.392 363.914 343.676 368.744 343.093 372.63C342.512 376.507 341.079 379.38 338.831 381.266C336.583 383.152 333.505 384.064 329.586 383.964C325.658 383.863 320.951 382.745 315.552 380.64C304.757 376.43 291.399 368.354 276.356 357.034C246.285 334.404 209.664 298.944 173.642 256.015C137.621 213.086 109.059 170.864 91.9941 137.32C83.4579 120.54 77.8245 105.982 75.5535 94.6201C74.4179 88.9385 74.134 84.108 74.7167 80.2227C75.2982 76.3457 76.7308 73.4727 78.9789 71.5864Z" stroke="#6E8CA2" stroke-width="2"/>
<path id="Ellipse 24_25" opacity="0.137931" d="M92.9664 59.23C95.3703 57.5467 98.5162 56.9065 102.412 57.3483C106.315 57.791 110.908 59.3155 116.102 61.8829C126.489 67.0172 139.093 76.2266 153.091 88.8148C181.076 113.98 214.467 152.496 246.61 198.402C278.753 244.307 303.526 288.857 317.603 323.761C324.644 341.221 328.987 356.215 330.259 367.731C330.895 373.49 330.757 378.327 329.838 382.147C328.921 385.958 327.243 388.696 324.839 390.379C322.436 392.062 319.29 392.702 315.394 392.261C311.49 391.818 306.898 390.293 301.704 387.726C291.317 382.592 278.713 373.382 264.714 360.794C236.73 335.629 203.339 297.112 171.196 251.207C139.053 205.302 114.279 160.752 100.203 125.848C93.1618 108.388 88.8187 93.3943 87.5466 81.8775C86.9105 76.1186 87.0486 71.2817 87.9678 67.462C88.885 63.6504 90.5625 60.9132 92.9664 59.23Z" stroke="#6E8CA2" stroke-width="2"/>
<path id="Ellipse 24_24" opacity="0.172414" d="M107.84 48.1339C110.381 46.6666 113.571 46.303 117.413 47.0826C121.264 47.8639 125.706 49.7828 130.656 52.7931C140.556 58.8132 152.31 69.0861 165.158 82.8464C190.843 110.355 220.749 151.635 248.769 200.167C276.789 248.699 297.585 295.239 308.566 331.237C314.059 349.244 317.079 364.559 317.342 376.143C317.474 381.935 316.915 386.742 315.666 390.467C314.42 394.184 312.511 396.764 309.969 398.232C307.428 399.699 304.238 400.063 300.396 399.283C296.546 398.502 292.103 396.583 287.153 393.573C277.253 387.552 265.499 377.28 252.651 363.519C226.967 336.011 197.06 294.731 169.04 246.199C141.02 197.667 120.224 151.127 109.243 115.129C103.75 97.1218 100.73 81.8067 100.467 70.2229C100.335 64.4304 100.894 59.6241 102.143 55.899C103.389 52.1818 105.299 49.6012 107.84 48.1339Z" stroke="#6E8CA2" stroke-width="2"/>
<path id="Ellipse 24_23" opacity="0.206897" d="M123.481 38.3698C126.14 37.1296 129.35 37.0454 133.109 38.1569C136.877 39.2707 141.135 41.5695 145.804 44.9998C155.142 51.8599 165.955 63.118 177.555 77.9457C200.745 107.588 226.94 151.318 250.623 202.107C274.307 252.896 290.968 301.072 298.769 337.89C302.671 356.307 304.345 371.827 303.598 383.39C303.224 389.172 302.248 393.911 300.68 397.513C299.115 401.108 296.987 403.512 294.328 404.752C291.668 405.992 288.459 406.077 284.699 404.965C280.932 403.851 276.674 401.552 272.004 398.122C262.667 391.262 251.853 380.004 240.254 365.176C217.064 335.534 190.869 291.804 167.185 241.015C143.502 190.226 126.841 142.05 119.04 105.232C115.137 86.8149 113.464 71.2949 114.211 59.7321C114.584 53.9502 115.56 49.2109 117.129 45.6088C118.694 42.0144 120.821 39.61 123.481 38.3698Z" stroke="#6E8CA2" stroke-width="2"/>
<path id="Ellipse 24_22" opacity="0.241379" d="M139.769 29.9994C142.526 28.9957 145.731 29.1916 149.379 30.6265C153.035 32.0645 157.077 34.7256 161.429 38.5498C170.134 46.1976 179.924 58.3554 190.188 74.1376C210.706 105.688 232.99 151.535 252.157 204.195C271.324 256.855 283.722 306.299 288.285 343.657C290.567 362.344 290.882 377.951 289.13 389.405C288.254 395.132 286.869 399.768 284.992 403.22C283.12 406.664 280.791 408.874 278.033 409.878C275.276 410.882 272.071 410.686 268.423 409.251C264.767 407.813 260.725 405.152 256.373 401.327C247.668 393.68 237.877 381.522 227.614 365.74C207.096 334.189 184.812 288.343 165.645 235.683C146.478 183.022 134.08 133.578 129.517 96.2201C127.234 77.5329 126.92 61.9261 128.672 50.4725C129.548 44.7452 130.933 40.1089 132.81 36.6572C134.682 33.2129 137.011 31.0031 139.769 29.9994Z" stroke="#6E8CA2" stroke-width="2"/>
<path id="Ellipse 24_21" opacity="0.275862" d="M156.588 23.0762C159.422 22.3167 162.597 22.7911 166.107 24.5385C169.624 26.2896 173.418 29.2929 177.42 33.4819C185.425 41.8593 194.119 54.824 202.968 71.4408C220.658 104.66 238.862 152.274 253.366 206.404C267.87 260.534 275.912 310.871 277.202 348.485C277.847 367.299 276.8 382.874 274.056 394.132C272.684 399.761 270.9 404.259 268.73 407.534C266.565 410.802 264.052 412.8 261.217 413.56C258.383 414.319 255.208 413.845 251.698 412.097C248.181 410.346 244.387 407.343 240.385 403.154C232.38 394.777 223.686 381.812 214.837 365.195C197.147 331.976 178.943 284.362 164.439 230.232C149.935 176.102 141.893 125.765 140.603 88.1514C139.958 69.3364 141.005 53.7616 143.749 42.5042C145.121 36.8751 146.905 32.3772 149.075 29.1021C151.24 25.8341 153.753 23.8358 156.588 23.0762Z" stroke="#6E8CA2" stroke-width="2"/>
<path id="Ellipse 24_20" opacity="0.310345" d="M173.804 17.6378C176.694 17.1282 179.816 17.8775 183.16 19.9241C186.511 21.9752 190.029 25.2976 193.651 29.8196C200.895 38.8627 208.426 52.5359 215.793 69.8606C230.52 104.495 244.505 153.514 254.236 208.703C263.968 263.891 267.592 314.737 265.598 352.32C264.601 371.12 262.201 386.544 258.486 397.519C256.629 403.008 254.46 407.333 252.012 410.406C249.57 413.473 246.893 415.245 244.003 415.754C241.113 416.264 237.991 415.515 234.648 413.468C231.297 411.417 227.779 408.095 224.156 403.573C216.912 394.53 209.381 380.856 202.014 363.532C187.287 328.897 173.302 279.878 163.571 224.689C153.84 169.501 150.216 118.655 152.209 81.0722C153.206 62.2726 155.607 46.8483 159.321 35.8729C161.178 30.3847 163.348 26.0594 165.795 22.986C168.237 19.9192 170.914 18.1474 173.804 17.6378Z" stroke="#6E8CA2" stroke-width="2"/>
<path id="Ellipse 24_19" opacity="0.344828" d="M191.282 13.7145C194.206 13.4588 197.25 14.4773 200.403 16.8076C203.562 19.1428 206.777 22.7593 209.992 27.5797C216.42 37.2198 222.731 51.4973 228.56 69.3982C240.212 105.184 249.872 155.236 254.756 211.063C259.64 266.889 258.819 317.858 253.557 355.124C250.926 373.765 247.19 388.921 242.533 399.531C240.205 404.836 237.667 408.956 234.961 411.805C232.261 414.647 229.439 416.179 226.516 416.434C223.592 416.69 220.548 415.672 217.395 413.341C214.236 411.006 211.021 407.39 207.806 402.569C201.378 392.929 195.067 378.652 189.238 360.751C177.586 324.965 167.927 274.913 163.042 219.086C158.158 163.26 158.979 112.291 164.241 75.0254C166.873 56.3843 170.608 41.2278 175.265 30.6179C177.593 25.3125 180.131 21.1928 182.837 18.3443C185.537 15.502 188.359 13.9703 191.282 13.7145Z" stroke="#6E8CA2" stroke-width="2"/>
<path id="Ellipse 24_18" opacity="0.37931" d="M208.903 11.323C211.838 11.323 214.782 12.603 217.719 15.1991C220.663 17.8009 223.551 21.6837 226.333 26.766C231.896 36.9297 236.939 51.7029 241.185 70.0437C249.675 106.709 254.935 157.412 254.935 213.452C254.935 269.492 249.675 320.195 241.185 356.86C236.939 375.201 231.896 389.974 226.333 400.138C223.551 405.22 220.663 409.103 217.719 411.705C214.782 414.301 211.838 415.581 208.903 415.581C205.968 415.581 203.024 414.301 200.087 411.705C197.143 409.103 194.255 405.22 191.473 400.138C185.909 389.974 180.867 375.201 176.621 356.86C168.131 320.195 162.871 269.492 162.871 213.452C162.871 157.412 168.131 106.709 176.621 70.0437C180.867 51.7029 185.909 36.9297 191.473 26.766C194.255 21.6837 197.143 17.8009 200.087 15.1991C203.024 12.603 205.968 11.323 208.903 11.323Z" stroke="#6E8CA2" stroke-width="2"/>
<path id="Ellipse 24_17" opacity="0.413793" d="M226.517 10.4699C229.441 10.7257 232.262 12.2574 234.962 15.0997C237.668 17.9481 240.206 22.0679 242.535 27.3733C247.191 37.9832 250.927 53.1397 253.559 71.7808C258.82 109.047 259.641 160.015 254.757 215.842C249.873 271.668 240.214 321.72 228.561 357.506C222.732 375.407 216.422 389.685 209.993 399.325C206.779 404.145 203.564 407.762 200.404 410.097C197.252 412.427 194.207 413.446 191.284 413.19C188.36 412.934 185.539 411.402 182.839 408.56C180.133 405.712 177.595 401.592 175.266 396.286C170.61 385.677 166.874 370.52 164.242 351.879C158.981 314.613 158.16 263.645 163.044 207.818C167.928 151.991 177.587 101.94 189.24 66.1536C195.069 48.2527 201.379 33.9752 207.808 24.3351C211.022 19.5147 214.237 15.8982 217.397 13.5629C220.549 11.2327 223.594 10.2142 226.517 10.4699Z" stroke="#6E8CA2" stroke-width="2"/>
<path id="Ellipse 24_16" opacity="0.448276" d="M244.002 11.1497C246.892 11.6593 249.569 13.4311 252.012 16.4979C254.459 19.5713 256.628 23.8966 258.486 29.3848C262.2 40.3601 264.6 55.7845 265.597 74.584C267.591 112.167 263.967 163.013 254.235 218.201C244.504 273.39 230.52 322.409 215.792 357.043C208.425 374.368 200.894 388.041 193.65 397.084C190.028 401.606 186.51 404.929 183.159 406.98C179.815 409.027 176.694 409.776 173.804 409.266C170.913 408.757 168.236 406.985 165.794 403.918C163.347 400.845 161.178 396.519 159.32 391.031C155.606 380.056 153.206 364.631 152.208 345.832C150.215 308.249 153.839 257.403 163.57 202.215C173.302 147.026 187.286 98.0069 202.014 63.3725C209.38 46.0478 216.911 32.3746 224.156 23.3315C227.778 18.8095 231.296 15.487 234.647 13.436C237.99 11.3894 241.112 10.6401 244.002 11.1497Z" stroke="#6E8CA2" stroke-width="2"/>
<path id="Ellipse 24_15" opacity="0.482759" d="M261.216 13.3451C264.051 14.1046 266.563 16.103 268.729 19.371C270.899 22.646 272.683 27.1439 274.055 32.7731C276.799 44.0304 277.846 59.6053 277.201 78.4202C275.911 116.034 267.869 166.37 253.365 220.501C238.861 274.631 220.657 322.245 202.967 355.464C194.118 372.081 185.424 385.045 177.419 393.423C173.417 397.612 169.623 400.615 166.106 402.366C162.596 404.114 159.421 404.588 156.587 403.829C153.752 403.069 151.239 401.071 149.074 397.803C146.904 394.528 145.12 390.03 143.748 384.401C141.004 373.143 139.957 357.568 140.602 338.753C141.892 301.14 149.934 250.803 164.438 196.673C178.942 142.543 197.146 94.9286 214.836 61.7096C223.685 45.0929 232.379 32.1281 240.383 23.7508C244.386 19.5617 248.18 16.5585 251.697 14.8073C255.207 13.0599 258.382 12.5855 261.216 13.3451Z" stroke="#6E8CA2" stroke-width="2"/>
<path id="Ellipse 24_14" opacity="0.517241" d="M278.04 17.0255C280.798 18.0292 283.127 20.239 284.999 23.6833C286.876 27.135 288.261 31.7713 289.137 37.4986C290.889 48.9522 290.575 64.559 288.292 83.2461C283.729 120.604 271.331 170.048 252.164 222.709C232.997 275.369 210.713 321.215 190.195 352.766C179.932 368.548 170.141 380.706 161.436 388.354C157.084 392.178 153.042 394.839 149.386 396.277C145.738 397.712 142.533 397.908 139.776 396.904C137.018 395.9 134.689 393.691 132.817 390.246C130.94 386.795 129.555 382.158 128.679 376.431C126.927 364.977 127.242 349.37 129.524 330.683C134.087 293.325 146.485 243.881 165.652 191.221C184.819 138.561 207.103 92.7145 227.621 61.1637C237.885 45.3814 247.675 33.2237 256.38 25.5759C260.732 21.7517 264.774 19.0905 268.43 17.6526C272.078 16.2177 275.283 16.0218 278.04 17.0255Z" stroke="#6E8CA2" stroke-width="2"/>
<path id="Ellipse 24_13" opacity="0.551724" d="M294.325 22.1521C296.984 23.3923 299.112 25.7966 300.677 29.391C302.245 32.9931 303.221 37.7325 303.595 43.5144C304.342 55.0771 302.668 70.5971 298.766 89.0142C290.964 125.832 274.304 174.008 250.62 224.797C226.937 275.586 200.741 319.316 177.552 348.959C165.952 363.786 155.139 375.044 145.801 381.904C141.132 385.335 136.874 387.634 133.106 388.747C129.347 389.859 126.137 389.775 123.478 388.534C120.818 387.294 118.691 384.89 117.125 381.295C115.557 377.693 114.581 372.954 114.207 367.172C113.46 355.609 115.134 340.089 119.036 321.672C126.838 284.854 143.499 236.679 167.182 185.889C190.866 135.1 217.061 91.3705 240.25 61.728C251.85 46.9003 262.664 35.6422 272.001 28.7821C276.671 25.3518 280.929 23.053 284.696 21.9391C288.456 20.8277 291.665 20.9118 294.325 22.1521Z" stroke="#6E8CA2" stroke-width="2"/>
<path id="Ellipse 24_12" opacity="0.586207" d="M309.973 28.6725C312.515 30.1398 314.424 32.7204 315.67 36.4375C316.919 40.1626 317.478 44.969 317.346 50.7614C317.083 62.3453 314.063 77.6604 308.57 95.6673C297.589 131.665 276.793 178.205 248.773 226.737C220.754 275.269 190.847 316.549 165.162 344.058C152.314 357.818 140.56 368.091 130.66 374.111C125.71 377.121 121.268 379.04 117.417 379.822C113.575 380.601 110.386 380.238 107.844 378.77C105.303 377.303 103.393 374.722 102.147 371.005C100.898 367.28 100.339 362.474 100.471 356.681C100.735 345.098 103.754 329.782 109.247 311.776C120.228 275.778 141.024 229.237 169.044 180.705C197.064 132.174 226.971 90.8935 252.656 63.3849C265.504 49.6246 277.257 39.3518 287.157 33.3317C292.108 30.3213 296.55 28.4024 300.4 27.6211C304.242 26.8416 307.432 27.2052 309.973 28.6725Z" stroke="#6E8CA2" stroke-width="2"/>
<path id="Ellipse 24_11" opacity="0.62069" d="M324.84 36.5256C327.244 38.2088 328.921 40.946 329.839 44.7576C330.758 48.5773 330.896 53.4142 330.26 59.1731C328.988 70.6899 324.645 85.6835 317.603 103.143C303.527 138.047 278.754 182.598 246.611 228.503C214.468 274.408 181.077 312.924 153.092 338.09C139.094 350.678 126.49 359.887 116.102 365.022C110.908 367.589 106.316 369.113 102.412 369.556C98.5168 369.998 95.3709 369.358 92.967 367.675C90.5631 365.991 88.8856 363.254 87.9684 359.442C87.0492 355.623 86.9111 350.786 87.5472 345.027C88.8193 333.51 93.1624 318.517 100.204 301.057C114.28 266.153 139.053 221.602 171.196 175.697C203.34 129.792 236.73 91.2757 264.715 66.1104C278.713 53.5222 291.317 44.3128 301.705 39.1785C306.899 36.6111 311.491 35.0866 315.395 34.6439C319.29 34.2021 322.436 34.8423 324.84 36.5256Z" stroke="#6E8CA2" stroke-width="2"/>
<path id="Ellipse 24_10" opacity="0.655172" d="M338.832 45.6378C341.08 47.5242 342.513 50.3972 343.094 54.2742C343.677 58.1595 343.393 62.99 342.257 68.6715C339.986 80.0337 334.353 94.5917 325.817 111.371C308.752 144.916 280.19 187.137 244.168 230.066C208.147 272.995 171.526 308.455 141.455 331.086C126.412 342.406 113.054 350.482 102.258 354.691C96.8604 356.796 92.1526 357.915 88.2252 358.015C84.3061 358.116 81.2279 357.204 78.9799 355.318C76.7319 353.431 75.2992 350.558 74.7177 346.681C74.135 342.796 74.4189 337.965 75.5545 332.284C77.8255 320.922 83.459 306.364 91.9951 289.584C109.06 256.04 137.622 213.818 173.644 170.889C209.665 127.96 246.286 92.5004 276.357 69.8698C291.4 58.5496 304.758 50.4738 315.553 46.2643C320.952 44.1593 325.659 43.0409 329.587 42.9401C333.506 42.8396 336.584 43.7515 338.832 45.6378Z" stroke="#6E8CA2" stroke-width="2"/>
<path id="Ellipse 24_9" opacity="0.689655" d="M351.829 55.9292C353.904 58.0043 355.081 60.9913 355.322 64.9042C355.564 68.8255 354.86 73.6129 353.234 79.1738C349.981 90.2948 343.101 104.306 333.134 120.278C313.211 152.208 281.078 191.779 241.452 231.406C201.826 271.032 162.254 303.165 130.324 323.088C114.353 333.054 100.341 339.935 89.22 343.188C83.659 344.814 78.8717 345.518 74.9504 345.276C71.0374 345.035 68.0505 343.858 65.9754 341.783C63.9003 339.708 62.7236 336.721 62.4822 332.808C62.2403 328.887 62.9441 324.099 64.5706 318.538C67.8232 307.417 74.704 293.406 84.6701 277.434C104.594 245.505 136.727 205.933 176.353 166.307C215.979 126.681 255.551 94.5475 287.48 74.624C303.452 64.6579 317.464 57.7771 328.585 54.5244C334.146 52.898 338.933 52.1941 342.854 52.436C346.767 52.6774 349.754 53.8542 351.829 55.9292Z" stroke="#6E8CA2" stroke-width="2"/>
<path id="Ellipse 24_8" opacity="0.724138" d="M363.744 67.3083C365.63 69.5563 366.542 72.6344 366.441 76.5535C366.341 80.481 365.222 85.1888 363.117 90.5868C358.908 101.382 350.832 114.741 339.512 129.783C316.881 159.854 281.422 196.475 238.493 232.497C195.564 268.519 153.342 297.08 119.797 314.145C103.018 322.681 88.4598 328.315 77.0977 330.586C71.4161 331.721 66.5856 332.005 62.7003 331.423C58.8233 330.841 55.9503 329.408 54.064 327.16C52.1776 324.912 51.2657 321.834 51.3662 317.915C51.467 313.988 52.5855 309.28 54.6904 303.882C58.8999 293.087 66.9757 279.728 78.2959 264.686C100.926 234.614 136.386 197.994 179.315 161.972C222.244 125.95 264.466 97.3884 298.01 80.3235C314.79 71.7873 329.348 66.1539 340.71 63.8829C346.392 62.7473 351.222 62.4634 355.107 63.0461C358.984 63.6276 361.857 65.0602 363.744 67.3083Z" stroke="#6E8CA2" stroke-width="2"/>
<path id="Ellipse 24_7" opacity="0.758621" d="M374.484 79.6758C376.167 82.0797 376.807 85.2256 376.365 89.121C375.923 93.0247 374.398 97.6171 371.831 102.811C366.696 113.198 357.487 125.802 344.899 139.801C319.733 167.785 281.217 201.176 235.312 233.319C189.407 265.463 144.856 290.236 109.952 304.312C92.4926 311.353 77.4989 315.697 65.9821 316.969C60.2232 317.605 55.3864 317.467 51.5666 316.547C47.755 315.63 45.0178 313.953 43.3346 311.549C41.6514 309.145 41.0112 305.999 41.4529 302.104C41.8956 298.2 43.4201 293.607 45.9875 288.413C51.1219 278.026 60.3312 265.422 72.9194 251.424C98.0847 223.439 136.601 190.048 182.506 157.905C228.411 125.762 272.962 100.989 307.866 86.9124C325.326 79.8712 340.319 75.528 351.836 74.2559C357.595 73.6198 362.432 73.758 366.252 74.6771C370.063 75.5943 372.8 77.2719 374.484 79.6758Z" stroke="#6E8CA2" stroke-width="2"/>
<path id="Ellipse 24_6" opacity="0.793103" d="M383.949 92.926C385.416 95.4675 385.779 98.6572 385 102.499C384.219 106.35 382.3 110.792 379.289 115.742C373.269 125.642 362.996 137.396 349.236 150.244C321.728 175.929 280.447 205.835 231.916 233.855C183.384 261.875 136.844 282.671 100.846 293.652C82.8386 299.145 67.5236 302.165 55.9397 302.428C50.1472 302.56 45.3408 302.001 41.6157 300.752C37.8986 299.506 35.318 297.597 33.8507 295.055C32.3834 292.514 32.0198 289.324 32.7994 285.482C33.5807 281.632 35.4996 277.19 38.5099 272.239C44.53 262.339 54.8029 250.585 68.5632 237.737C96.0718 212.053 137.352 182.146 185.884 154.126C234.416 126.106 280.956 105.31 316.954 94.3291C334.961 88.8363 350.276 85.8164 361.86 85.553C367.652 85.4212 372.458 85.9804 376.184 87.2289C379.901 88.4749 382.481 90.3846 383.949 92.926Z" stroke="#6E8CA2" stroke-width="2"/>
<path id="Ellipse 24_5" opacity="0.827586" d="M392.095 106.945C393.335 109.605 393.419 112.814 392.308 116.574C391.194 120.341 388.895 124.599 385.465 129.268C378.605 138.606 367.347 149.419 352.519 161.019C322.876 184.209 279.147 210.404 228.358 234.088C177.568 257.771 129.393 274.432 92.5747 282.233C74.1576 286.136 58.6376 287.809 47.0748 287.062C41.2929 286.689 36.5536 285.713 32.9515 284.144C29.3571 282.579 26.9527 280.452 25.7125 277.792C24.4723 275.132 24.3881 271.923 25.4996 268.164C26.6134 264.396 28.9122 260.138 32.3426 255.469C39.2026 246.131 50.4607 235.318 65.2885 223.718C94.9309 200.528 138.66 174.333 189.45 150.65C240.239 126.966 288.415 110.305 325.233 102.504C343.65 98.6014 359.17 96.9278 370.733 97.6749C376.514 98.0485 381.254 99.0245 384.856 100.593C388.45 102.158 390.855 104.285 392.095 106.945Z" stroke="#6E8CA2" stroke-width="2"/>
<path id="Ellipse 24_4" opacity="0.862069" d="M398.845 121.615C399.849 124.372 399.653 127.577 398.218 131.225C396.78 134.881 394.119 138.923 390.295 143.275C382.647 151.98 370.489 161.77 354.707 172.034C323.156 192.552 277.31 214.836 224.65 234.003C171.99 253.17 122.545 265.568 85.1876 270.131C66.5005 272.413 50.8937 272.728 39.44 270.976C33.7127 270.1 29.0764 268.715 25.6247 266.838C22.1804 264.966 19.9706 262.637 18.967 259.879C17.9633 257.122 18.1591 253.917 19.594 250.269C21.032 246.613 23.6931 242.571 27.5174 238.219C35.1652 229.514 47.3229 219.723 63.1052 209.46C94.656 188.942 140.502 166.658 193.162 147.491C245.823 128.324 295.267 115.926 332.625 111.363C351.312 109.08 366.919 108.766 378.372 110.518C384.1 111.394 388.736 112.779 392.188 114.656C395.632 116.528 397.842 118.857 398.845 121.615Z" stroke="#6E8CA2" stroke-width="2"/>
<path id="Ellipse 24_3" opacity="0.896552" d="M404.146 136.81C404.905 139.645 404.431 142.82 402.683 146.33C400.932 149.846 397.929 153.64 393.74 157.643C385.363 165.648 372.398 174.342 355.781 183.191C322.562 200.881 274.948 219.084 220.818 233.589C166.687 248.093 116.351 256.135 78.7372 257.424C59.9223 258.07 44.3475 257.023 33.0901 254.279C27.4609 252.907 22.9631 251.123 19.688 248.953C16.42 246.787 14.4216 244.275 13.6621 241.44C12.9026 238.606 13.3769 235.43 15.1244 231.921C16.8755 228.404 19.8788 224.61 24.0678 220.607C32.4452 212.603 45.4099 203.909 62.0267 195.06C95.2457 177.37 142.86 159.166 196.99 144.662C251.12 130.158 301.457 122.116 339.07 120.826C357.885 120.181 373.46 121.228 384.718 123.971C390.347 125.343 394.845 127.128 398.12 129.298C401.388 131.463 403.386 133.976 404.146 136.81Z" stroke="#6E8CA2" stroke-width="2"/>
<path id="Ellipse 24_2" opacity="0.931035" d="M407.964 152.404C408.473 155.294 407.724 158.416 405.677 161.759C403.626 165.11 400.304 168.628 395.782 172.251C386.739 179.495 373.066 187.026 355.741 194.393C321.107 209.12 272.087 223.105 216.899 232.836C161.71 242.567 110.864 246.191 73.2815 244.198C54.482 243.201 39.0576 240.8 28.0822 237.086C22.594 235.229 18.2688 233.059 15.1953 230.612C12.1285 228.17 10.3567 225.493 9.84712 222.603C9.33753 219.713 10.0868 216.591 12.1335 213.247C14.1845 209.896 17.507 206.378 22.0289 202.756C31.0721 195.512 44.7452 187.981 62.07 180.614C96.7043 165.887 145.724 151.902 200.912 142.171C256.101 132.44 306.947 128.815 344.529 130.809C363.329 131.806 378.753 134.206 389.729 137.921C395.217 139.778 399.542 141.947 402.616 144.395C405.682 146.837 407.454 149.514 407.964 152.404Z" stroke="#6E8CA2" stroke-width="2"/>
<path id="Ellipse 24_1" opacity="0.965517" d="M410.264 168.265C410.52 171.189 409.502 174.233 407.171 177.386C404.836 180.545 401.22 183.76 396.399 186.975C386.759 193.403 372.482 199.714 354.581 205.543C318.795 217.195 268.743 226.855 212.916 231.739C157.09 236.623 106.121 235.802 68.8554 230.54C50.2143 227.909 35.0578 224.173 24.4479 219.516C19.1425 217.188 15.0227 214.65 12.1743 211.944C9.332 209.244 7.80028 206.422 7.54451 203.499C7.28874 200.575 8.30726 197.531 10.6375 194.378C12.9728 191.219 16.5892 188.004 21.4097 184.789C31.0498 178.361 45.3273 172.05 63.2282 166.221C99.0143 154.569 149.066 144.91 204.893 140.025C260.719 135.141 311.688 135.962 348.954 141.224C367.595 143.856 382.751 147.591 393.361 152.248C398.666 154.576 402.786 157.115 405.635 159.82C408.477 162.521 410.009 165.342 410.264 168.265Z" stroke="#6E8CA2" stroke-width="2"/>
<path id="Ellipse 24" d="M411.032 184.26C411.032 187.195 409.752 190.139 407.155 193.076C404.554 196.02 400.671 198.908 395.589 201.69C385.425 207.253 370.652 212.296 352.311 216.542C315.645 225.032 264.942 230.292 208.903 230.292C152.863 230.292 102.16 225.032 65.4941 216.542C47.1534 212.296 32.3802 207.253 22.2165 201.69C17.1342 198.908 13.2513 196.02 10.6496 193.076C8.05342 190.139 6.77344 187.195 6.77344 184.26C6.77344 181.325 8.05342 178.381 10.6496 175.444C13.2513 172.5 17.1342 169.612 22.2165 166.83C32.3802 161.266 47.1534 156.224 65.4941 151.978C102.16 143.488 152.863 138.228 208.903 138.228C264.942 138.228 315.645 143.488 352.311 151.978C370.652 156.224 385.425 161.266 395.589 166.83C400.671 169.612 404.554 172.5 407.155 175.444C409.752 178.381 411.032 181.325 411.032 184.26Z" stroke="#6E8CA2" stroke-width="2"/>
</g>
</svg>
