<svg width="280" height="280" viewBox="0 0 280 280" fill="none" xmlns="http://www.w3.org/2000/svg">
<g id="Looper-1" clip-path="url(#clip0_316_20356)">
<path id="Vector 83 copy_18" opacity="0.0526316" d="M258.245 224.104C252.337 231.964 233.454 245.117 205.188 234.848C169.855 222.011 156.189 187.985 124.654 170.342C101.379 157.321 38.8371 137.774 2.87451 159.373" stroke="#6E8CA2" stroke-width="2"/>
<path id="Vector 83 copy_17" opacity="0.105263" d="M264.073 207.626C259.019 216.06 241.615 231.115 212.43 223.857C175.949 214.784 158.802 182.373 125.595 168.123C101.086 157.606 36.8436 144.704 3.33574 169.944" stroke="#6E8CA2" stroke-width="2"/>
<path id="Vector 83 copy_16" opacity="0.157895" d="M268.474 190.926C264.329 199.842 248.594 216.634 218.81 212.466C181.58 207.256 161.139 176.815 126.625 166.114C101.151 158.216 35.9118 152.1 5.22576 180.704" stroke="#6E8CA2" stroke-width="2"/>
<path id="Vector 83 copy_15" opacity="0.210526" d="M271.438 174.153C268.248 183.454 254.354 201.798 224.297 200.767C186.727 199.477 163.216 171.339 127.772 164.305C101.612 159.113 36.0912 159.85 8.56321 191.505" stroke="#6E8CA2" stroke-width="2"/>
<path id="Vector 83 copy_14" opacity="0.263158" d="M272.96 157.46C270.76 167.043 258.859 186.739 228.86 188.855C191.36 191.5 165.037 165.974 129.052 162.683C102.493 160.254 37.4077 167.835 13.3393 202.194" stroke="#6E8CA2" stroke-width="2"/>
<path id="Vector 83 copy_13" opacity="0.315789" d="M273.056 140.995C271.869 150.756 262.093 171.588 232.479 176.828C195.461 183.378 166.614 160.743 130.482 161.232C103.814 161.592 39.8784 175.936 19.5334 212.622" stroke="#6E8CA2" stroke-width="2"/>
<path id="Vector 83 copy_12" opacity="0.368421" d="M271.763 124.907C271.603 134.738 264.058 156.478 235.154 164.785C199.024 175.168 167.969 155.673 132.086 159.936C105.602 163.082 43.5154 184.03 27.1167 222.642" stroke="#6E8CA2" stroke-width="2"/>
<path id="Vector 83 copy_11" opacity="0.421053" d="M269.123 109.339C269.992 119.133 264.761 141.543 236.883 152.825C202.036 166.928 169.113 150.786 133.873 158.776C107.863 164.673 48.3059 191.996 36.0331 232.111" stroke="#6E8CA2" stroke-width="2"/>
<path id="Vector 83 copy_10" opacity="0.473684" d="M265.2 94.4284C267.088 104.078 264.227 126.912 237.682 141.046C204.5 158.715 170.07 146.102 135.858 157.732C110.607 166.316 54.2321 199.715 46.2197 240.892" stroke="#6E8CA2" stroke-width="2"/>
<path id="Vector 83 copy_9" opacity="0.526316" d="M260.071 80.3064C262.957 89.7061 262.499 112.714 237.577 129.545C206.423 150.585 170.864 141.641 138.054 156.783C113.839 167.959 61.2642 207.068 57.5999 248.858" stroke="#6E8CA2" stroke-width="2"/>
<path id="Vector 83 copy_8" opacity="0.578947" d="M253.82 67.0941C257.673 76.1406 259.623 99.0699 236.596 118.415C207.813 142.596 171.513 137.417 140.467 155.906C117.552 169.552 69.3532 213.942 70.0772 255.886" stroke="#6E8CA2" stroke-width="2"/>
<path id="Vector 83 copy_7" opacity="0.631579" d="M246.555 54.9045C251.332 63.4987 255.668 86.0986 234.789 107.744C208.691 134.802 172.049 133.446 143.105 155.079C121.742 171.045 78.4476 220.23 83.552 261.869" stroke="#6E8CA2" stroke-width="2"/>
<path id="Vector 83 copy_6" opacity="0.684211" d="M238.381 43.8377C244.03 51.8854 250.705 73.9083 232.203 97.6179C209.077 127.255 172.493 129.737 145.969 154.277C126.392 172.389 88.476 225.83 97.9048 266.706" stroke="#6E8CA2" stroke-width="2"/>
<path id="Vector 83 copy_5" opacity="0.736842" d="M229.428 33.982C235.888 41.3951 244.827 62.5997 228.905 88.1134C209.003 120.005 172.88 126.298 149.066 153.476C131.49 173.535 99.3673 230.646 113.017 270.314" stroke="#6E8CA2" stroke-width="2"/>
<path id="Vector 83 copy_4" opacity="0.789474" d="M219.821 25.4134C227.021 32.1107 238.128 52.2647 224.96 79.3028C208.501 113.1 173.233 123.134 152.39 152.653C137.007 174.439 111.03 234.595 128.752 272.619" stroke="#6E8CA2" stroke-width="2"/>
<path id="Vector 83 copy_3" opacity="0.842105" d="M209.704 18.1918C217.564 24.0998 230.717 42.9824 220.448 71.2488C207.611 106.582 173.586 120.247 155.943 151.782C142.921 175.058 123.375 237.599 144.974 273.562" stroke="#6E8CA2" stroke-width="2"/>
<path id="Vector 83 copy_2" opacity="0.894737" d="M199.212 12.3644C207.647 17.4184 222.702 34.8227 215.443 64.0077C206.371 100.489 173.96 117.636 159.71 150.843C149.192 175.352 136.29 239.594 161.53 273.102" stroke="#6E8CA2" stroke-width="2"/>
<path id="Vector 83 copy_1" opacity="0.947368" d="M188.499 7.96205C197.415 12.1067 214.207 27.8421 210.039 57.6258C204.829 94.8556 174.388 115.297 163.687 149.811C155.789 175.285 149.673 240.524 178.277 271.21" stroke="#6E8CA2" stroke-width="2"/>
<path id="Vector 83 copy" d="M177.716 5C187.017 8.18994 205.361 22.0839 204.329 52.1402C203.04 89.7105 174.902 113.222 167.868 148.665C162.676 174.825 163.412 240.346 195.067 267.874" stroke="#6E8CA2" stroke-width="2"/>
</g>
<defs>
<clipPath id="clip0_316_20356">
<rect width="280" height="280" fill="white" transform="matrix(-1 0 0 1 280 0)"/>
</clipPath>
</defs>
</svg>
