<svg width="280" height="280" viewBox="0 0 280 280" fill="none" xmlns="http://www.w3.org/2000/svg">
<g id="Looper-3">
<path id="Ellipse 24_28" opacity="0.0344828" d="M39.3793 65.6414C40.5474 64.2492 42.3446 63.3379 44.8312 62.965C47.326 62.5908 50.4512 62.7705 54.1557 63.511C61.5636 64.9916 71.08 68.6708 82.0732 74.2634C104.045 85.441 131.716 104.158 159.859 127.772C188.001 151.387 211.239 175.387 226.062 195.084C233.478 204.939 238.754 213.672 241.499 220.71C242.871 224.23 243.591 227.277 243.656 229.799C243.72 232.312 243.135 234.24 241.967 235.632C240.799 237.025 239.001 237.936 236.515 238.309C234.02 238.683 230.895 238.503 227.19 237.763C219.782 236.282 210.266 232.603 199.273 227.01C177.301 215.833 149.63 197.116 121.487 173.501C93.3447 149.887 70.1072 125.887 55.284 106.189C47.8675 96.3344 42.5917 87.6015 39.8471 80.5632C38.4747 77.0436 37.755 73.9971 37.6903 71.4752C37.6258 68.9617 38.2111 67.0335 39.3793 65.6414Z" stroke="#6E8CA2" stroke-width="2"/>
<path id="Ellipse 24_27" opacity="0.0689655" d="M47.173 56.0733C48.458 54.7883 50.3278 54.0371 52.8374 53.8823C55.3553 53.727 58.453 54.1784 62.0788 55.2389C69.3295 57.3595 78.489 61.8542 88.953 68.3836C109.867 81.4336 135.801 102.491 161.779 128.468C187.756 154.446 208.813 180.38 221.864 201.294C228.393 211.758 232.888 220.918 235.008 228.168C236.069 231.794 236.52 234.892 236.365 237.41C236.21 239.919 235.459 241.789 234.174 243.074C232.889 244.359 231.019 245.11 228.509 245.265C225.991 245.42 222.894 244.969 219.268 243.909C212.017 241.788 202.858 237.293 192.394 230.764C171.48 217.714 145.545 196.657 119.568 170.679C93.5905 144.702 72.5333 118.767 59.4832 97.8533C52.9538 87.3894 48.4592 78.2299 46.3385 70.9792C45.278 67.3534 44.8266 64.2557 44.9819 61.7377C45.1367 59.2281 45.8879 57.3583 47.173 56.0733Z" stroke="#6E8CA2" stroke-width="2"/>
<path id="Ellipse 24_26" opacity="0.103448" d="M55.6765 47.2163C57.0686 46.0482 58.9968 45.4628 61.5103 45.5273C64.0322 45.592 67.0788 46.3117 70.5984 47.6842C77.6366 50.4287 86.3695 55.7046 96.2246 63.1211C115.922 77.9443 139.922 101.182 163.537 129.324C187.151 157.467 205.868 185.138 217.045 207.11C222.638 218.103 226.317 227.619 227.798 235.027C228.538 238.732 228.718 241.857 228.344 244.352C227.971 246.838 227.06 248.636 225.667 249.804C224.275 250.972 222.347 251.557 219.834 251.493C217.312 251.428 214.265 250.708 210.746 249.336C203.707 246.591 194.974 241.315 185.119 233.899C165.422 219.076 141.422 195.838 117.807 167.696C94.193 139.553 75.4761 111.882 64.2985 89.9103C58.706 78.9171 55.0267 69.4007 53.5461 61.9928C52.8057 58.2883 52.6259 55.163 53.0001 52.6682C53.373 50.1817 54.2843 48.3845 55.6765 47.2163Z" stroke="#6E8CA2" stroke-width="2"/>
<path id="Ellipse 24_25" opacity="0.137931" d="M64.83 39.1299C66.3187 38.0875 68.2905 37.6724 70.7889 37.9558C73.2955 38.24 76.2678 39.2225 79.6544 40.8965C86.4266 44.244 94.6665 50.2609 103.838 58.5081C122.168 74.9916 144.052 100.232 165.123 130.326C186.195 160.42 202.429 189.617 211.649 212.479C216.262 223.918 219.098 233.719 219.928 241.228C220.342 244.982 220.249 248.111 219.659 250.564C219.071 253.009 218.006 254.72 216.518 255.762C215.029 256.804 213.057 257.22 210.559 256.936C208.052 256.652 205.08 255.669 201.693 253.995C194.921 250.648 186.681 244.631 177.51 236.384C159.18 219.9 137.296 194.66 116.224 164.566C95.1523 134.472 78.9184 105.275 69.6982 82.4128C65.0851 70.974 62.2493 61.1732 61.4199 53.6644C61.0051 49.9095 61.0985 46.7805 61.6887 44.3278C62.2769 41.8832 63.3414 40.1722 64.83 39.1299Z" stroke="#6E8CA2" stroke-width="2"/>
<path id="Ellipse 24_24" opacity="0.172414" d="M74.5594 31.8684C76.1333 30.9598 78.1338 30.7181 80.5979 31.2181C83.0703 31.7198 85.9456 32.9576 89.1734 34.9204C95.6282 38.8454 103.312 45.5575 111.73 54.5727C128.554 72.591 148.154 99.6431 166.523 131.459C184.892 163.274 198.519 193.775 205.712 217.354C209.31 229.152 211.281 239.162 211.453 246.715C211.539 250.491 211.173 253.6 210.371 255.992C209.572 258.376 208.363 259.988 206.789 260.897C205.215 261.805 203.215 262.047 200.751 261.547C198.278 261.045 195.403 259.808 192.175 257.845C185.72 253.92 178.036 247.208 169.619 238.192C152.795 220.174 133.194 193.122 114.825 161.306C96.4567 129.491 82.8292 98.99 75.6368 75.411C72.0381 63.6136 70.0673 53.603 69.8955 46.0505C69.8096 42.2737 70.1753 39.1647 70.977 36.7728C71.7761 34.3888 72.9856 32.7771 74.5594 31.8684Z" stroke="#6E8CA2" stroke-width="2"/>
<path id="Ellipse 24_23" opacity="0.206897" d="M84.791 25.4782C86.4381 24.7101 88.452 24.6438 90.8632 25.3566C93.2824 26.0718 96.0389 27.5555 99.0834 29.7922C105.171 34.2648 112.241 41.6211 119.841 51.3356C135.03 70.7517 152.199 99.4091 167.725 132.705C183.251 166 194.168 197.573 199.278 221.689C201.835 233.755 202.926 243.899 202.438 251.438C202.195 255.208 201.56 258.273 200.552 260.586C199.549 262.891 198.203 264.391 196.556 265.159C194.909 265.928 192.895 265.994 190.484 265.281C188.065 264.566 185.308 263.082 182.264 260.845C176.176 256.373 169.106 249.017 161.506 239.302C146.317 219.886 129.149 191.229 113.623 157.933C98.0966 124.637 87.1793 93.065 82.0692 68.9489C79.5125 56.8828 78.4217 46.7385 78.9088 39.1997C79.1524 35.4298 79.7876 32.3646 80.7948 30.0516C81.7986 27.7463 83.144 26.2462 84.791 25.4782Z" stroke="#6E8CA2" stroke-width="2"/>
<path id="Ellipse 24_22" opacity="0.241379" d="M95.4488 19.9996C97.1565 19.378 99.1686 19.4874 101.508 20.4077C103.856 21.3311 106.473 23.0494 109.311 25.5428C114.986 30.5291 121.388 38.4736 128.112 48.8135C141.551 69.4795 156.156 99.5242 168.721 134.046C181.286 168.568 189.411 200.972 192.399 225.442C193.895 237.685 194.097 247.886 192.955 255.353C192.384 259.087 191.484 262.086 190.279 264.302C189.078 266.511 187.607 267.888 185.899 268.51C184.191 269.131 182.179 269.022 179.839 268.102C177.492 267.178 174.875 265.46 172.037 262.967C166.362 257.98 159.96 250.036 153.236 239.696C139.797 219.03 125.191 188.985 112.626 154.463C100.061 119.941 91.9374 87.5374 88.9486 63.0677C87.4533 50.8247 87.2507 40.6238 88.393 33.1562C88.9642 29.4219 89.8642 26.4237 91.0691 24.2073C92.27 21.9983 93.7411 20.6211 95.4488 19.9996Z" stroke="#6E8CA2" stroke-width="2"/>
<path id="Ellipse 24_21" opacity="0.275862" d="M106.45 15.468C108.205 14.9976 110.2 15.282 112.451 16.4027C114.709 17.5272 117.166 19.467 119.776 22.1983C124.995 27.6602 130.68 36.1324 136.477 47.019C148.064 68.7777 159.996 99.981 169.504 135.467C179.012 170.953 184.281 203.941 185.126 228.578C185.549 240.905 184.861 251.085 183.073 258.424C182.178 262.095 181.02 265.003 179.627 267.106C178.238 269.202 176.652 270.446 174.897 270.916C173.142 271.386 171.147 271.102 168.896 269.981C166.638 268.857 164.181 266.917 161.571 264.186C156.352 258.724 150.667 250.251 144.87 239.365C133.283 217.606 121.351 186.403 111.843 150.917C102.335 115.431 97.0656 82.4428 96.2209 57.8057C95.7983 45.4789 96.4856 35.2993 98.2744 27.9597C99.1689 24.2893 100.327 21.381 101.72 19.278C103.109 17.1821 104.695 15.9384 106.45 15.468Z" stroke="#6E8CA2" stroke-width="2"/>
<path id="Ellipse 24_20" opacity="0.310345" d="M117.712 11.9074C119.502 11.5918 121.464 12.049 123.609 13.3616C125.761 14.6786 128.039 16.8251 130.401 19.7735C135.124 25.6695 140.049 34.605 144.875 45.9554C154.522 68.6412 163.688 100.766 170.068 136.945C176.447 173.125 178.821 206.447 177.515 231.064C176.862 243.38 175.29 253.461 172.868 260.617C171.657 264.196 170.25 266.992 168.679 268.965C167.112 270.932 165.425 272.033 163.635 272.349C161.845 272.664 159.883 272.207 157.738 270.895C155.587 269.578 153.308 267.431 150.946 264.483C146.223 258.587 141.298 249.651 136.472 238.301C126.825 215.615 117.659 183.491 111.279 147.311C104.9 111.132 102.526 77.8094 103.832 53.1925C104.485 40.8758 106.057 30.7948 108.479 23.639C109.69 20.0606 111.097 17.2642 112.668 15.2907C114.235 13.3238 115.922 12.223 117.712 11.9074Z" stroke="#6E8CA2" stroke-width="2"/>
<path id="Ellipse 24_19" opacity="0.344828" d="M129.149 9.33787C130.959 9.17948 132.874 9.80593 134.896 11.3005C136.925 12.8 139.008 15.137 141.104 18.28C145.295 24.5652 149.422 33.8958 153.241 45.6238C160.874 69.0639 167.205 101.865 170.407 138.463C173.609 175.061 173.07 208.463 169.623 232.872C167.899 245.085 165.454 254.991 162.418 261.908C160.9 265.368 159.255 268.031 157.517 269.86C155.785 271.683 154.008 272.632 152.198 272.791C150.387 272.949 148.472 272.323 146.45 270.828C144.421 269.329 142.339 266.992 140.243 263.849C136.052 257.563 131.924 248.233 128.105 236.505C120.473 213.065 114.141 180.263 110.939 143.666C107.737 107.068 108.277 73.6656 111.723 49.2561C113.447 37.0432 115.892 27.1376 118.928 20.2201C120.446 16.7609 122.092 14.0977 123.829 12.2687C125.561 10.4458 127.338 9.49626 129.149 9.33787Z" stroke="#6E8CA2" stroke-width="2"/>
<path id="Ellipse 24_18" opacity="0.37931" d="M140.674 7.77066C142.491 7.77066 144.344 8.56165 146.228 10.2267C148.119 11.8973 149.99 14.407 151.804 17.7207C155.431 24.3472 158.73 34.0022 161.512 46.0183C167.073 70.0345 170.521 103.263 170.521 140C170.521 176.738 167.073 209.966 161.512 233.982C158.73 245.998 155.431 255.653 151.804 262.28C149.99 265.593 148.119 268.103 146.228 269.774C144.344 271.439 142.491 272.23 140.674 272.23C138.856 272.23 137.003 271.439 135.119 269.774C133.229 268.103 131.358 265.593 129.544 262.28C125.916 255.653 122.618 245.998 119.835 233.982C114.275 209.966 110.826 176.738 110.826 140C110.826 103.263 114.275 70.0345 119.835 46.0183C122.618 34.0022 125.916 24.3472 129.544 17.7207C131.358 14.407 133.229 11.8973 135.119 10.2267C137.003 8.56165 138.856 7.77066 140.674 7.77066Z" stroke="#6E8CA2" stroke-width="2"/>
<path id="Ellipse 24_17" opacity="0.413793" d="M152.198 7.20983C154.009 7.36822 155.786 8.31772 157.518 10.1407C159.255 11.9697 160.901 14.6328 162.419 18.092C165.455 25.0095 167.9 34.9152 169.624 47.1281C173.07 71.5375 173.61 104.94 170.408 141.538C167.206 178.135 160.874 210.936 153.242 234.377C149.423 246.105 145.296 255.435 141.104 261.72C139.008 264.863 136.926 267.2 134.897 268.7C132.875 270.194 130.96 270.821 129.149 270.663C127.339 270.504 125.562 269.555 123.83 267.732C122.092 265.903 120.447 263.24 118.929 259.78C115.893 252.863 113.448 242.957 111.724 230.744C108.278 206.335 107.738 172.933 110.94 136.335C114.142 99.737 120.473 66.9359 128.106 43.4957C131.925 31.7678 136.052 22.4371 140.244 16.1519C142.339 13.0089 144.422 10.6719 146.451 9.17242C148.473 7.67789 150.388 7.05144 152.198 7.20983Z" stroke="#6E8CA2" stroke-width="2"/>
<path id="Ellipse 24_16" opacity="0.448276" d="M163.636 7.65165C165.425 7.96722 167.113 9.06802 168.679 11.0349C170.251 13.0084 171.658 15.8048 172.869 19.3832C175.29 26.539 176.862 36.62 177.516 48.9367C178.821 73.5537 176.448 106.876 170.068 143.055C163.689 179.235 154.523 211.359 144.876 234.045C140.05 245.395 135.125 254.331 130.402 260.227C128.04 263.175 125.761 265.322 123.609 266.639C121.465 267.951 119.502 268.409 117.713 268.093C115.923 267.777 114.235 266.677 112.669 264.71C111.097 262.736 109.691 259.94 108.48 256.361C106.058 249.206 104.486 239.125 103.833 226.808C102.527 202.191 104.901 168.869 111.28 132.689C117.659 96.5099 126.826 64.3854 136.472 41.6997C141.299 30.3492 146.224 21.4138 150.947 15.5178C153.309 12.5694 155.587 10.4228 157.739 9.10584C159.883 7.79322 161.846 7.33608 163.636 7.65165Z" stroke="#6E8CA2" stroke-width="2"/>
<path id="Ellipse 24_15" opacity="0.482759" d="M174.897 9.08528C176.652 9.55564 178.238 10.7993 179.627 12.8953C181.02 14.9982 182.178 17.9066 183.072 21.5769C184.861 28.9166 185.549 39.0962 185.126 51.423C184.281 76.0601 179.012 109.049 169.504 144.534C159.995 180.02 148.064 211.223 136.477 232.982C130.68 243.869 124.995 252.341 119.776 257.803C117.166 260.534 114.709 262.474 112.451 263.598C110.2 264.719 108.205 265.004 106.45 264.533C104.694 264.063 103.109 262.819 101.72 260.723C100.327 258.62 99.1687 255.712 98.2742 252.041C96.4854 244.702 95.7981 234.522 96.2208 222.195C97.0655 197.558 102.334 164.57 111.843 129.084C121.351 93.5983 133.282 62.395 144.869 40.6363C150.667 29.7497 156.352 21.2775 161.571 15.8156C164.181 13.0843 166.638 11.1445 168.896 10.02C171.147 8.89929 173.141 8.61493 174.897 9.08528Z" stroke="#6E8CA2" stroke-width="2"/>
<path id="Ellipse 24_14" opacity="0.517241" d="M185.899 11.4902C187.606 12.1118 189.077 13.4889 190.278 15.6979C191.483 17.9143 192.383 20.9126 192.954 24.6469C194.097 32.1145 193.894 42.3153 192.399 54.5583C189.41 79.028 181.286 111.432 168.721 145.954C156.156 180.476 141.551 210.521 128.111 231.187C121.387 241.526 114.985 249.471 109.31 254.457C106.472 256.951 103.856 258.669 101.508 259.592C99.1682 260.513 97.1561 260.622 95.4484 260C93.7407 259.379 92.2697 258.002 91.0688 255.793C89.8638 253.576 88.9639 250.578 88.3926 246.844C87.2503 239.376 87.4529 229.175 88.9482 216.932C91.937 192.463 100.061 160.059 112.626 125.537C125.191 91.0148 139.796 60.9701 153.236 40.3041C159.96 29.9642 166.362 22.0197 172.037 17.0334C174.875 14.54 177.491 12.8217 179.839 11.8983C182.179 10.9781 184.191 10.8686 185.899 11.4902Z" stroke="#6E8CA2" stroke-width="2"/>
<path id="Ellipse 24_13" opacity="0.551724" d="M196.555 14.8412C198.202 15.6092 199.548 17.1093 200.552 19.4146C201.559 21.7276 202.194 24.7929 202.438 28.5627C202.925 36.1015 201.834 46.2458 199.277 58.3119C194.167 82.4281 183.25 114 167.724 147.296C152.198 180.592 135.03 209.249 119.84 228.665C112.24 238.38 105.171 245.736 99.0825 250.209C96.038 252.445 93.2816 253.929 90.8623 254.644C88.4512 255.357 86.4372 255.291 84.7902 254.523C83.1431 253.754 81.7977 252.254 80.7939 249.949C79.7868 247.636 79.1515 244.571 78.9079 240.801C78.4208 233.262 79.5117 223.118 82.0684 211.052C87.1784 186.936 98.0957 155.363 113.622 122.068C129.148 88.7722 146.316 60.1147 161.505 40.6987C169.105 30.9842 176.175 23.6279 182.263 19.1552C185.308 16.9186 188.064 15.4349 190.483 14.7196C192.894 14.0068 194.908 14.0732 196.555 14.8412Z" stroke="#6E8CA2" stroke-width="2"/>
<path id="Ellipse 24_12" opacity="0.586207" d="M206.788 19.1037C208.362 20.0124 209.571 21.624 210.37 24.008C211.172 26.4 211.538 29.5089 211.452 33.2857C211.28 40.8382 209.309 50.8489 205.711 62.6462C198.518 86.2252 184.891 116.726 166.522 148.542C148.153 180.357 128.553 207.409 111.729 225.428C103.311 234.443 95.6272 241.155 89.1725 245.08C85.9446 247.043 83.0693 248.281 80.597 248.782C78.1329 249.282 76.1324 249.041 74.5585 248.132C72.9847 247.223 71.7752 245.612 70.9761 243.228C70.1744 240.836 69.8087 237.727 69.8946 233.95C70.0664 226.397 72.0372 216.387 75.6358 204.589C82.8283 181.01 96.4558 150.51 114.825 118.694C133.193 86.8784 152.794 59.8263 169.618 41.8079C178.035 32.7928 185.719 26.0806 192.174 22.1556C195.402 20.1928 198.277 18.955 200.75 18.4534C203.214 17.9534 205.214 18.195 206.788 19.1037Z" stroke="#6E8CA2" stroke-width="2"/>
<path id="Ellipse 24_11" opacity="0.62069" d="M216.518 24.2384C218.007 25.2808 219.071 26.9917 219.66 29.4363C220.25 31.889 220.343 35.0181 219.928 38.773C219.099 46.2817 216.263 56.0826 211.65 67.5214C202.43 90.3838 186.196 119.581 165.124 149.674C144.052 179.768 122.168 205.009 103.838 221.492C94.6672 229.74 86.4273 235.756 79.655 239.104C76.2684 240.778 73.2962 241.76 70.7895 242.045C68.2912 242.328 66.3194 241.913 64.8307 240.871C63.342 239.828 62.2776 238.117 61.6893 235.673C61.0991 233.22 61.0058 230.091 61.4206 226.336C62.2499 218.827 65.0858 209.026 69.6989 197.588C78.919 174.725 95.1529 145.528 116.225 115.435C137.297 85.341 159.18 60.1002 177.511 43.6167C186.682 35.3694 194.922 29.3526 201.694 26.005C205.08 24.3311 208.053 23.3486 210.559 23.0643C213.058 22.781 215.03 23.1961 216.518 24.2384Z" stroke="#6E8CA2" stroke-width="2"/>
<path id="Ellipse 24_10" opacity="0.655172" d="M225.671 30.1967C227.063 31.3648 227.974 33.162 228.347 35.6486C228.721 38.1434 228.541 41.2686 227.801 44.9731C226.32 52.381 222.641 61.8974 217.049 72.8906C205.871 94.8624 187.154 122.533 163.54 150.676C139.925 178.819 115.925 202.056 96.2278 216.879C86.3727 224.296 77.6398 229.572 70.6015 232.316C67.0819 233.689 64.0354 234.408 61.5135 234.473C58.9999 234.538 57.0718 233.952 55.6796 232.784C54.2875 231.616 53.3762 229.819 53.0033 227.332C52.6291 224.837 52.8088 221.712 53.5492 218.008C55.0299 210.6 58.7091 201.083 64.3017 190.09C75.4793 168.118 94.1961 140.447 117.811 112.305C141.425 84.1621 165.425 60.9246 185.123 46.1014C194.978 38.6849 203.71 33.4091 210.749 30.6645C214.268 29.2921 217.315 28.5724 219.837 28.5077C222.35 28.4432 224.279 29.0285 225.671 30.1967Z" stroke="#6E8CA2" stroke-width="2"/>
<path id="Ellipse 24_9" opacity="0.689655" d="M234.177 36.9264C235.462 38.2114 236.213 40.0812 236.368 42.5908C236.523 45.1087 236.072 48.2064 235.011 51.8323C232.89 59.0829 228.396 68.2424 221.866 78.7064C208.816 99.6204 187.759 125.555 161.782 151.532C135.804 177.51 109.87 198.567 88.9559 211.617C78.4919 218.146 69.3325 222.641 62.0818 224.762C58.4559 225.822 55.3582 226.274 52.8403 226.118C50.3307 225.963 48.4609 225.212 47.1759 223.927C45.8908 222.642 45.1397 220.772 44.9848 218.263C44.8295 215.745 45.281 212.647 46.3414 209.021C48.4621 201.771 52.9567 192.611 59.4861 182.147C72.5362 161.233 93.5935 135.299 119.571 109.321C145.548 83.344 171.483 62.2867 192.397 49.2366C202.861 42.7072 212.02 38.2126 219.271 36.0919C222.897 35.0315 225.994 34.58 228.512 34.7353C231.022 34.8902 232.892 35.6413 234.177 36.9264Z" stroke="#6E8CA2" stroke-width="2"/>
<path id="Ellipse 24_8" opacity="0.724138" d="M241.969 44.3679C243.137 45.76 243.722 47.6882 243.658 50.2017C243.593 52.7236 242.874 55.7702 241.501 59.2898C238.757 66.328 233.481 75.0609 226.064 84.916C211.241 104.613 188.004 128.613 159.861 152.228C131.718 175.842 104.047 194.559 82.0755 205.737C71.0823 211.329 61.5659 215.009 54.158 216.489C50.4535 217.23 47.3283 217.409 44.8335 217.035C42.347 216.662 40.5497 215.751 39.3816 214.359C38.2134 212.967 37.6281 211.039 37.6926 208.525C37.7573 206.003 38.477 202.957 39.8495 199.437C42.594 192.399 47.8698 183.666 55.2863 173.811C70.1095 154.114 93.347 130.113 121.49 106.499C149.632 82.8844 177.303 64.1675 199.275 52.9899C210.268 47.3974 219.785 43.7181 227.193 42.2375C230.897 41.4971 234.022 41.3173 236.517 41.6915C239.004 42.0644 240.801 42.9757 241.969 44.3679Z" stroke="#6E8CA2" stroke-width="2"/>
<path id="Ellipse 24_7" opacity="0.758621" d="M248.989 52.4555C250.031 53.9442 250.446 55.916 250.163 58.4143C249.878 60.921 248.896 63.8932 247.222 67.2798C243.874 74.0521 237.858 82.292 229.61 91.4632C213.127 109.793 187.886 131.677 157.792 152.749C127.699 173.821 98.5017 190.055 75.6393 199.275C64.2005 203.888 54.3997 206.724 46.8909 207.553C43.136 207.968 40.0069 207.875 37.5542 207.284C35.1097 206.696 33.3987 205.632 32.3563 204.143C31.314 202.654 30.8989 200.683 31.1822 198.184C31.4665 195.678 32.449 192.705 34.123 189.319C37.4705 182.546 43.4873 174.307 51.7346 165.135C68.2181 146.805 93.4589 124.921 123.553 103.85C153.646 82.7778 182.843 66.5438 205.706 57.3237C217.144 52.7106 226.945 49.8748 234.454 49.0454C238.209 48.6306 241.338 48.724 243.791 49.3142C246.235 49.9024 247.946 50.9669 248.989 52.4555Z" stroke="#6E8CA2" stroke-width="2"/>
<path id="Ellipse 24_6" opacity="0.793103" d="M255.189 61.121C256.098 62.6948 256.339 64.6953 255.839 67.1595C255.338 69.6318 254.1 72.5071 252.137 75.7349C248.212 82.1897 241.5 89.8738 232.485 98.2913C214.467 115.115 187.415 134.716 155.599 153.084C123.783 171.453 93.2824 185.081 69.7034 192.273C57.9061 195.872 47.8954 197.843 40.3429 198.014C36.5661 198.1 33.4572 197.735 31.0652 196.933C28.6812 196.134 27.0696 194.924 26.1609 193.351C25.2522 191.777 25.0106 189.776 25.5106 187.312C26.0122 184.84 27.25 181.964 29.2128 178.737C33.1378 172.282 39.85 164.598 48.8651 156.18C66.8835 139.356 93.9356 119.756 125.751 101.387C157.567 83.0182 188.068 69.3907 211.647 62.1983C223.444 58.5997 233.455 56.6288 241.007 56.457C244.784 56.3711 247.893 56.7368 250.285 57.5385C252.669 58.3376 254.281 59.5471 255.189 61.121Z" stroke="#6E8CA2" stroke-width="2"/>
<path id="Ellipse 24_5" opacity="0.827586" d="M260.515 70.2893C261.283 71.9363 261.349 73.9503 260.637 76.3615C259.921 78.7807 258.438 81.5372 256.201 84.5816C251.728 90.6698 244.372 97.7396 234.658 105.339C215.241 120.529 186.584 137.697 153.288 153.223C119.993 168.749 88.4205 179.666 64.3044 184.776C52.2383 187.333 42.094 188.424 34.5552 187.937C30.7853 187.693 27.7201 187.058 25.4071 186.051C23.1018 185.047 21.6017 183.702 20.8337 182.055C20.0656 180.407 19.9993 178.394 20.7121 175.982C21.4273 173.563 22.911 170.807 25.1477 167.762C29.6203 161.674 36.9766 154.604 46.6911 147.005C66.1072 131.815 94.7647 114.647 128.06 99.1208C161.356 83.5949 192.928 72.6776 217.044 67.5675C229.11 65.0108 239.255 63.92 246.793 64.4071C250.563 64.6507 253.629 65.2859 255.942 66.2931C258.247 67.2969 259.747 68.6423 260.515 70.2893Z" stroke="#6E8CA2" stroke-width="2"/>
<path id="Ellipse 24_4" opacity="0.862069" d="M264.928 79.8831C265.55 81.5908 265.44 83.6029 264.52 85.9428C263.597 88.2904 261.878 90.9071 259.385 93.7451C254.399 99.4202 246.454 105.822 236.114 112.546C215.448 125.985 185.404 140.591 150.881 153.156C116.359 165.721 83.9557 173.845 59.486 176.834C47.243 178.329 37.0422 178.531 29.5746 177.389C25.8403 176.818 22.842 175.918 20.6256 174.713C18.4166 173.512 17.0395 172.041 16.4179 170.333C15.7964 168.626 15.9058 166.614 16.8261 164.274C17.7494 161.926 19.4677 159.309 21.9612 156.471C26.9474 150.796 34.8919 144.395 45.2318 137.67C65.8978 124.231 95.9425 109.626 130.465 97.0607C164.987 84.4957 197.39 76.3717 221.86 73.383C234.103 71.8876 244.304 71.685 251.771 72.8273C255.506 73.3986 258.504 74.2986 260.72 75.5035C262.929 76.7044 264.307 78.1754 264.928 79.8831Z" stroke="#6E8CA2" stroke-width="2"/>
<path id="Ellipse 24_3" opacity="0.896552" d="M268.398 89.8211C268.868 91.5764 268.584 93.5713 267.463 95.8221C266.339 98.0804 264.399 100.537 261.667 103.147C256.206 108.366 247.733 114.051 236.847 119.849C215.088 131.436 183.885 143.367 148.399 152.875C112.913 162.383 79.9246 167.652 55.2876 168.497C42.9608 168.92 32.7811 168.232 25.4415 166.444C21.7712 165.549 18.8628 164.391 16.7599 162.998C14.6639 161.609 13.4202 160.023 12.9499 158.268C12.4795 156.513 12.7639 154.518 13.8846 152.267C15.009 150.009 16.9488 147.552 19.6802 144.942C25.1421 139.723 33.6143 134.038 44.5009 128.241C66.2596 116.654 97.4629 104.722 132.949 95.214C168.434 85.7057 201.423 80.4367 226.06 79.592C238.387 79.1694 248.566 79.8567 255.906 81.6455C259.576 82.54 262.485 83.6979 264.588 85.0914C266.684 86.4802 267.927 88.0657 268.398 89.8211Z" stroke="#6E8CA2" stroke-width="2"/>
<path id="Ellipse 24_2" opacity="0.931035" d="M270.896 100.019C271.212 101.809 270.754 103.772 269.442 105.916C268.125 108.068 265.978 110.346 263.03 112.708C257.134 117.431 248.199 122.356 236.848 127.183C214.162 136.829 182.038 145.996 145.858 152.375C109.679 158.754 76.3567 161.128 51.7398 159.822C39.4231 159.169 29.3421 157.597 22.1863 155.176C18.6079 153.965 15.8115 152.558 13.838 150.986C11.8711 149.42 10.7703 147.732 10.4547 145.942C10.1391 144.153 10.5963 142.19 11.9089 140.046C13.2259 137.894 15.3724 135.615 18.3208 133.254C24.2168 128.53 33.1523 123.605 44.5027 118.779C67.1885 109.132 99.313 99.9662 135.492 93.5868C171.672 87.2074 204.994 84.8336 229.611 86.1394C241.928 86.7927 252.009 88.3646 259.165 90.7863C262.743 91.9973 265.539 93.4043 267.513 94.9757C269.48 96.542 270.58 98.2298 270.896 100.019Z" stroke="#6E8CA2" stroke-width="2"/>
<path id="Ellipse 24_1" opacity="0.965517" d="M272.399 110.393C272.558 112.203 271.931 114.118 270.437 116.14C268.937 118.169 266.6 120.252 263.457 122.348C257.172 126.539 247.841 130.666 236.113 134.485C212.673 142.118 179.872 148.449 143.274 151.651C106.676 154.853 73.2742 154.314 48.8647 150.867C36.6518 149.143 26.7462 146.699 19.8287 143.662C16.3694 142.144 13.7063 140.499 11.8773 138.761C10.0544 137.03 9.10484 135.252 8.94646 133.442C8.78807 131.631 9.41453 129.716 10.909 127.694C12.4086 125.666 14.7455 123.583 17.8886 121.487C24.1737 117.296 33.5044 113.168 45.2323 109.349C68.6725 101.717 101.474 95.3852 138.071 92.1833C174.669 88.9814 208.071 89.5209 232.481 92.9672C244.694 94.6915 254.599 97.1361 261.517 100.172C264.976 101.69 267.639 103.336 269.468 105.073C271.291 106.805 272.241 108.582 272.399 110.393Z" stroke="#6E8CA2" stroke-width="2"/>
<path id="Ellipse 24" d="M272.904 120.854C272.904 122.671 272.113 124.524 270.448 126.408C268.778 128.299 266.268 130.17 262.954 131.984C256.328 135.611 246.673 138.91 234.657 141.692C210.641 147.253 177.412 150.701 140.675 150.701C103.937 150.701 70.7091 147.253 46.6929 141.692C34.6768 138.91 25.0219 135.611 18.3953 131.984C15.0816 130.17 12.572 128.299 10.9014 126.408C9.23631 124.524 8.44531 122.671 8.44531 120.854C8.44531 119.036 9.23631 117.183 10.9014 115.299C12.572 113.409 15.0816 111.538 18.3953 109.724C25.0219 106.096 34.6768 102.798 46.6929 100.015C70.7091 94.4547 103.937 91.0061 140.675 91.0061C177.412 91.0061 210.641 94.4547 234.657 100.015C246.673 102.798 256.328 106.096 262.954 109.724C266.268 111.538 268.778 113.409 270.448 115.299C272.113 117.183 272.904 119.036 272.904 120.854Z" stroke="#6E8CA2" stroke-width="2"/>
</g>
</svg>
