<svg width="280" height="280" viewBox="0 0 280 280" fill="none" xmlns="http://www.w3.org/2000/svg">
<g id="Looper-2">
<path id="Star 3_28" opacity="0.0344828" d="M10.5912 149.522C-11.7122 140.543 -8.28734 107.957 15.3955 103.812L50.9697 97.5853C64.737 95.1756 74.1087 82.2765 72.1461 68.4384L67.075 32.6812C63.699 8.87653 93.6315 -4.45027 109.063 13.987L132.242 41.6818C141.213 52.3998 157.07 54.0664 168.073 45.4477L196.504 23.1774C215.431 8.35137 241.939 27.6103 233.687 50.1928L221.292 84.1143C216.496 97.242 222.981 111.808 235.946 117.027L269.448 130.514C291.752 139.493 288.327 172.078 264.644 176.224L229.07 182.45C215.303 184.86 205.931 197.759 207.893 211.597L212.965 247.354C216.341 271.159 186.408 284.486 170.977 266.049L147.797 238.354C138.827 227.636 122.97 225.969 111.967 234.588L83.536 256.858C64.6086 271.684 38.101 252.425 46.3525 229.843L58.7472 195.921C63.5439 182.794 57.0589 168.228 44.0934 163.008L10.5912 149.522Z" stroke="#E1ECF3" stroke-width="2"/>
<path id="Star 3_27" opacity="0.0689655" d="M12.842 143.142C-8.96093 133.008 -3.83534 100.647 20.032 97.7465L54.0834 93.6089C67.958 91.923 77.992 79.5321 76.7563 65.6102L73.7238 31.4425C71.5982 7.49381 102.187 -4.24818 116.632 14.9714L137.241 42.3921C145.639 53.5649 161.387 56.0591 172.825 48.0281L200.899 28.318C220.577 14.5029 246.04 35.1227 236.618 57.2424L223.175 88.8007C217.698 101.659 223.412 116.544 236.087 122.435L267.193 136.893C288.996 147.026 283.87 179.388 260.003 182.288L225.952 186.426C212.077 188.112 202.043 200.503 203.279 214.425L206.311 248.592C208.437 272.541 177.848 284.283 163.402 265.063L142.793 237.643C134.396 226.47 118.648 223.976 107.209 232.007L79.1357 251.717C59.4583 265.532 33.9949 244.912 43.4169 222.792L56.8594 191.234C62.3367 178.375 56.6228 163.49 43.9483 157.6L12.842 143.142Z" stroke="#E1ECF3" stroke-width="2"/>
<path id="Star 3_26" opacity="0.103448" d="M15.4004 137.024C-5.8423 125.763 0.96998 93.7137 24.9564 92.0667L57.3689 89.8411C71.3127 88.8837 81.9814 77.0349 81.4761 63.0674L80.3014 30.5998C79.4322 6.57263 110.594 -3.55237 124.013 16.3969L142.147 43.3542C149.948 54.9511 165.544 58.2661 177.387 50.8448L204.918 33.5937C225.291 20.8273 249.641 42.7515 239.074 64.3479L224.795 93.5308C218.652 106.085 223.579 121.249 235.928 127.795L264.633 143.012C285.876 154.272 279.064 186.322 255.077 187.969L222.665 190.194C208.721 191.152 198.052 203 198.558 216.968L199.732 249.436C200.601 273.463 169.44 283.588 156.02 263.638L137.887 236.681C130.086 225.084 114.49 221.769 102.646 229.191L75.1158 246.442C54.7423 259.208 30.393 237.284 40.9598 215.687L55.2387 186.505C61.3814 173.95 56.4544 158.786 44.1055 152.24L15.4004 137.024Z" stroke="#E1ECF3" stroke-width="2"/>
<path id="Star 3_25" opacity="0.137931" d="M18.2467 131.18C-2.37762 118.823 6.10262 87.1745 30.1423 86.7851L60.8141 86.2882C74.7889 86.0618 86.0631 74.7877 86.2894 60.8128L86.7863 30.1411C87.1757 6.10144 118.824 -2.37887 131.182 18.2454L146.948 44.5595C154.131 56.5488 169.532 60.6755 181.748 53.8841L208.559 38.9786C229.572 27.296 252.741 50.4645 241.058 71.4782L226.153 98.2891C219.361 110.505 223.488 125.906 235.477 133.089L261.791 148.855C282.416 161.212 273.935 192.861 249.896 193.251L219.224 193.747C205.249 193.974 193.975 205.248 193.749 219.223L193.252 249.894C192.862 273.934 161.214 282.414 148.856 261.79L133.09 235.476C125.907 223.487 110.506 219.36 98.2903 226.151L71.4794 241.057C50.4657 252.74 27.2972 229.571 38.9798 208.557L53.8853 181.746C60.6767 169.531 56.5501 154.13 44.5607 146.947L18.2467 131.18Z" stroke="#E1ECF3" stroke-width="2"/>
<path id="Star 3_24" opacity="0.172414" d="M21.353 125.624C1.40373 112.205 11.5287 81.0432 35.5559 81.9125L64.3997 82.956C78.3672 83.4613 90.216 72.7926 91.1734 58.8488L93.1506 30.0539C94.7976 6.06757 126.847 -0.744718 138.108 20.498L151.626 45.9993C158.172 58.3482 173.336 63.2751 185.89 57.1324L211.816 44.4473C233.412 33.8804 255.336 58.2297 242.57 78.6032L227.244 103.061C219.823 114.905 223.138 130.5 234.735 138.301L258.683 154.411C278.633 167.831 268.508 198.992 244.481 198.123L215.637 197.079C201.669 196.574 189.821 207.243 188.863 221.187L186.886 249.981C185.239 273.968 153.19 280.78 141.929 259.537L128.411 234.036C121.864 221.687 106.701 216.76 94.1464 222.903L68.2207 235.588C46.6243 246.155 24.7001 221.806 37.4665 201.432L52.7921 176.974C60.2135 165.131 56.8985 149.535 45.3015 141.734L21.353 125.624Z" stroke="#E1ECF3" stroke-width="2"/>
<path id="Star 3_23" opacity="0.206897" d="M24.7006 120.367C5.48097 105.922 17.223 75.3331 41.1717 77.4587L68.1155 79.8501C82.0374 81.0857 94.4283 71.0517 96.1141 57.1772L99.3769 30.3251C102.277 6.45779 134.639 1.33211 144.772 23.1351L156.173 47.6648C162.064 60.3393 176.949 66.0531 189.808 60.5759L214.694 49.9755C236.814 40.5534 257.434 66.0168 243.618 85.6942L228.076 107.832C220.045 119.271 222.539 135.019 233.712 143.416L255.335 159.668C274.555 174.113 262.812 204.702 238.864 202.577L211.92 200.185C197.998 198.95 185.607 208.984 183.921 222.858L180.658 249.711C177.758 273.578 145.397 278.703 135.263 256.9L123.862 232.371C117.971 219.696 103.086 213.982 90.2274 219.46L65.3414 230.06C43.2216 239.482 22.6018 214.019 36.417 194.341L51.9598 172.203C59.9909 160.764 57.4967 145.016 46.3239 136.619L24.7006 120.367Z" stroke="#E1ECF3" stroke-width="2"/>
<path id="Star 3_22" opacity="0.241379" d="M28.2687 115.419C9.83147 99.9873 23.1583 70.0547 46.9629 73.4307L71.9495 76.9744C85.7876 78.9369 98.6867 69.5652 101.096 55.7979L105.447 30.9393C109.593 7.25646 142.178 3.83156 151.157 26.135L160.581 49.5458C165.801 62.5112 180.367 68.9963 193.494 64.1995L217.198 55.5383C239.781 47.2868 259.04 73.7945 244.213 92.7219L228.651 112.589C220.033 123.592 221.699 139.449 232.417 148.419L251.77 164.617C270.207 180.048 256.88 209.981 233.076 206.605L208.089 203.061C194.251 201.098 181.352 210.47 178.942 224.237L174.591 249.096C170.446 272.779 137.86 276.204 128.882 253.9L119.457 230.49C114.238 217.524 99.6721 211.039 86.5444 215.836L62.8407 224.497C40.2581 232.748 20.9992 206.241 35.8252 187.313L51.3874 167.446C60.0061 156.443 58.3394 140.587 47.6214 131.616L28.2687 115.419Z" stroke="#E1ECF3" stroke-width="2"/>
<path id="Star 3_21" opacity="0.275862" d="M32.0315 110.787C14.4271 94.412 29.3022 65.2179 52.8975 69.8352L75.885 74.3334C89.6015 77.0176 102.973 68.3338 106.1 54.7114L111.341 31.8817C116.72 8.44826 149.44 6.73345 157.239 29.4762L164.837 51.6331C169.371 64.854 183.577 72.0925 196.938 67.9893L219.33 61.1128C242.313 54.0545 260.158 81.5338 244.362 99.6593L228.972 117.318C219.79 127.855 220.624 143.777 230.858 153.296L248.009 169.249C265.613 185.625 250.738 214.819 227.143 210.201L204.155 205.703C190.439 203.019 177.067 211.703 173.94 225.325L168.7 248.155C163.321 271.588 130.6 273.303 122.801 250.56L115.203 228.403C110.669 215.182 96.4631 207.944 83.1023 212.047L60.7109 218.924C37.7275 225.982 19.8823 198.503 35.6786 180.377L51.0679 162.719C60.2507 152.182 59.4162 136.26 49.1824 126.74L32.0315 110.787Z" stroke="#E1ECF3" stroke-width="2"/>
<path id="Star 3_20" opacity="0.310345" d="M35.9634 106.477C19.2401 89.2034 35.6227 60.8279 58.9441 66.6737L79.906 71.9281C93.4632 75.3264 107.271 67.3543 111.107 53.9143L117.037 33.1335C123.635 10.0137 156.401 10.0137 162.999 33.1335L168.929 53.9143C172.765 67.3543 186.573 75.3263 200.13 71.9281L221.092 66.6737C244.413 60.8279 260.796 89.2034 244.073 106.477L229.041 122.004C219.32 132.046 219.32 147.99 229.041 158.031L244.073 173.558C260.796 190.832 244.413 219.207 221.092 213.361L200.13 208.107C186.573 204.709 172.765 212.681 168.929 226.121L162.999 246.902C156.401 270.021 123.635 270.021 117.037 246.902L111.107 226.121C107.271 212.681 93.4632 204.709 79.906 208.107L58.944 213.362C35.6227 219.207 19.2401 190.832 35.9634 173.558L50.9948 158.031C60.7164 147.99 60.7164 132.046 50.9948 122.004L35.9634 106.477Z" stroke="#E1ECF3" stroke-width="2"/>
<path id="Star 3_19" opacity="0.344828" d="M40.0474 102.497C24.2511 84.3712 42.0963 56.8919 65.0797 63.9502L84.0047 69.7622C97.3655 73.8653 111.572 66.6269 116.106 53.406L122.527 34.6792C130.326 11.9364 163.047 13.6512 168.426 37.0846L172.855 56.3801C175.982 70.0024 189.354 78.6862 203.07 76.0021L222.499 72.2002C246.094 67.583 260.97 96.7771 243.365 113.152L228.869 126.636C218.636 136.155 217.801 152.077 226.984 162.614L239.991 177.539C255.787 195.664 237.942 223.144 214.958 216.085L196.033 210.273C182.673 206.17 168.466 213.409 163.933 226.63L157.511 245.356C149.712 268.099 116.991 266.384 111.612 242.951L107.183 223.655C104.056 210.033 90.6844 201.349 76.9679 204.033L57.5391 207.835C33.9437 212.453 19.0686 183.258 36.673 166.883L51.1688 153.4C61.4026 143.881 62.2371 127.958 53.0543 117.422L40.0474 102.497Z" stroke="#E1ECF3" stroke-width="2"/>
<path id="Star 3_18" opacity="0.37931" d="M44.255 98.8474C29.429 79.92 48.6879 53.4124 71.2705 61.6639L88.1624 67.8361C101.29 72.6329 115.856 66.1478 121.075 53.1824L127.791 36.4992C136.77 14.1958 169.356 17.6206 173.501 41.3035L176.602 59.0184C179.011 72.7858 191.91 82.1575 205.749 80.1949L223.555 77.6696C247.359 74.2936 260.686 104.226 242.249 119.657L228.458 131.2C217.74 140.171 216.073 156.027 224.692 167.03L235.782 181.188C250.608 200.116 231.349 226.623 208.766 218.372L191.874 212.2C178.747 207.403 164.181 213.888 158.961 226.853L152.245 243.537C143.267 265.84 110.681 262.415 106.536 238.732L103.435 221.017C101.025 207.25 88.1264 197.878 74.2882 199.841L56.4821 202.366C32.6774 205.742 19.3506 175.81 37.7879 160.378L51.5792 148.836C62.2972 139.865 63.9638 124.008 55.3451 113.005L44.255 98.8474Z" stroke="#E1ECF3" stroke-width="2"/>
<path id="Star 3_17" opacity="0.413793" d="M48.5647 95.5319C34.7495 75.8544 55.3694 50.391 77.4891 59.8131L92.3668 66.1504C105.225 71.6276 120.111 65.9138 126.001 53.2392L132.817 38.5746C142.951 16.7717 175.313 21.8973 178.213 45.7645L180.163 61.8176C181.849 75.6922 194.24 85.7262 208.162 84.4905L224.27 83.0609C248.219 80.9354 259.961 111.524 240.741 125.97L227.814 135.685C216.641 144.083 214.147 159.831 222.178 171.269L231.47 184.504C245.285 204.182 224.665 229.645 202.546 220.223L187.668 213.886C174.809 208.409 159.924 214.122 154.033 226.797L147.217 241.462C137.084 263.265 104.722 258.139 101.822 234.272L99.8713 218.219C98.1854 204.344 85.7945 194.31 71.8726 195.546L55.7648 196.975C31.8161 199.101 20.074 168.512 39.2936 154.067L52.2207 144.351C63.3935 135.953 65.8877 120.206 57.8567 108.767L48.5647 95.5319Z" stroke="#E1ECF3" stroke-width="2"/>
<path id="Star 3_16" opacity="0.448276" d="M52.9527 92.5495C40.1863 72.1761 62.1105 47.8267 83.7068 58.3936L96.6039 64.7039C109.158 70.8467 124.322 65.9197 130.868 53.5708L137.593 40.8849C148.854 19.6422 180.903 26.4544 182.55 50.4408L183.534 64.7652C184.491 78.709 196.34 89.3777 210.307 88.8724L224.656 88.3532C248.683 87.484 258.808 118.646 238.859 132.065L226.945 140.079C215.348 147.88 212.034 163.476 219.455 175.319L227.079 187.486C239.845 207.86 217.921 232.209 196.325 221.642L183.428 215.332C170.873 209.189 155.709 214.116 149.163 226.465L142.438 239.151C131.178 260.394 99.1285 253.581 97.4814 229.595L96.4979 215.271C95.5404 201.327 83.6917 190.658 69.7241 191.163L55.3754 191.683C31.3483 192.552 21.2233 161.39 41.1726 147.971L53.086 139.957C64.683 132.156 67.998 116.56 60.5766 104.716L52.9527 92.5495Z" stroke="#E1ECF3" stroke-width="2"/>
<path id="Star 3_15" opacity="0.482759" d="M57.4021 89.9004C45.7195 68.8867 68.888 45.7182 89.9017 57.4008L100.866 63.4965C113.082 70.2879 128.483 66.1613 135.666 54.1719L142.114 43.4106C154.471 22.7863 186.12 31.2666 186.509 55.3063L186.712 67.8497C186.939 81.8245 198.213 93.0987 212.188 93.3251L224.731 93.5282C248.771 93.9177 257.251 125.566 236.627 137.924L225.866 144.371C213.876 151.555 209.75 166.955 216.541 179.171L222.637 190.136C234.319 211.149 211.151 234.318 190.137 222.635L179.172 216.54C166.957 209.748 151.556 213.875 144.373 225.864L137.925 236.626C125.568 257.25 93.9189 248.77 93.5295 224.73L93.3263 212.186C93.1 198.212 81.8258 186.937 67.851 186.711L55.3075 186.508C31.2678 186.118 22.7876 154.47 43.4119 142.113L54.1732 135.665C66.1626 128.481 70.2892 113.081 63.4978 100.865L57.4021 89.9004Z" stroke="#E1ECF3" stroke-width="2"/>
<path id="Star 3_14" opacity="0.517241" d="M61.8805 87.5811C51.3137 65.9847 75.663 44.0606 96.0365 56.8269L105.131 62.5255C116.974 69.9468 132.57 66.6319 140.371 55.0349L146.361 46.1301C159.781 26.1808 190.942 36.3059 190.073 60.333L189.685 71.0579C189.18 85.0254 199.848 96.8742 213.792 97.8317L224.499 98.5669C248.485 100.214 255.298 132.263 234.055 143.524L224.573 148.55C212.224 155.096 207.297 170.26 213.439 182.815L218.156 192.455C228.723 214.051 204.374 235.975 184 223.209L174.906 217.51C163.063 210.089 147.467 213.404 139.666 225.001L133.676 233.906C120.256 253.855 89.0946 243.73 89.9639 219.703L90.3519 208.978C90.8572 195.01 80.1885 183.161 66.2447 182.204L55.5379 181.469C31.5515 179.822 24.7393 147.773 45.982 136.512L55.4642 131.485C67.813 124.939 72.74 109.775 66.5973 97.221L61.8805 87.5811Z" stroke="#E1ECF3" stroke-width="2"/>
<path id="Star 3_13" opacity="0.551724" d="M66.3719 85.5882C56.9498 63.4685 82.4131 42.8486 102.091 56.6638L109.39 61.7886C120.829 69.8197 136.577 67.3254 144.974 56.1527L150.333 49.023C164.778 29.8034 195.367 41.5454 193.241 65.4941L192.453 74.378C191.217 88.2999 201.251 100.691 215.126 102.377L223.979 103.453C247.847 106.353 252.972 138.715 231.169 148.848L223.081 152.607C210.407 158.498 204.693 173.383 210.17 186.242L213.666 194.447C223.088 216.567 197.624 237.187 177.947 223.372L170.647 218.247C159.208 210.216 143.461 212.71 135.063 223.883L129.705 231.013C115.26 250.232 84.6705 238.49 86.7961 214.542L87.5845 205.658C88.8202 191.736 78.7862 179.345 64.9116 177.659L56.0579 176.583C32.1906 173.683 27.065 141.321 48.8679 131.188L56.9559 127.428C69.6305 121.538 75.3443 106.652 69.867 93.7937L66.3719 85.5882Z" stroke="#E1ECF3" stroke-width="2"/>
<path id="Star 3_12" opacity="0.586207" d="M70.8522 83.9161C62.6007 61.3336 89.1083 42.0747 108.036 56.9007L113.63 61.2825C124.633 69.9012 140.489 68.2346 149.46 57.5166L154.021 52.0675C169.452 33.6302 199.384 46.957 196.008 70.7617L195.011 77.7971C193.048 91.6353 202.42 104.534 216.187 106.944L223.187 108.169C246.869 112.314 250.294 144.9 227.991 153.879L221.399 156.532C208.434 161.752 201.949 176.318 206.745 189.445L209.184 196.119C217.436 218.702 190.928 237.961 172.001 223.135L166.407 218.753C155.404 210.134 139.547 211.801 130.576 222.519L126.016 227.968C110.584 246.405 80.6518 233.079 84.0278 209.274L85.0256 202.238C86.9881 188.4 77.6164 175.501 63.8491 173.092L56.8496 171.866C33.1668 167.721 29.742 135.135 52.0454 126.157L58.6372 123.503C71.6027 118.284 78.0877 103.718 73.2909 90.5904L70.8522 83.9161Z" stroke="#E1ECF3" stroke-width="2"/>
<path id="Star 3_11" opacity="0.62069" d="M75.302 82.5582C68.2437 59.5747 95.7229 41.7295 113.848 57.5258L117.839 61.0031C128.375 70.1859 144.298 69.3514 153.817 59.1176L157.422 55.2422C173.797 37.6378 202.991 52.5129 198.373 76.1082L197.357 81.3024C194.673 95.0189 203.357 108.391 216.979 111.518L222.138 112.702C245.571 118.081 247.286 150.801 224.543 158.6L219.537 160.317C206.316 164.851 199.077 179.057 203.18 192.418L204.734 197.478C211.793 220.461 184.313 238.306 166.188 222.51L162.198 219.033C151.661 209.85 135.739 210.684 126.219 220.918L122.615 224.793C106.24 242.398 77.0454 227.523 81.6627 203.927L82.6791 198.733C85.3632 185.017 76.6794 171.645 63.0571 168.518L57.8985 167.334C34.4651 161.955 32.7503 129.234 55.493 121.435L60.4996 119.719C73.7205 115.185 80.9589 100.978 76.8558 87.6177L75.302 82.5582Z" stroke="#E1ECF3" stroke-width="2"/>
<path id="Star 3_10" opacity="0.655172" d="M79.7018 81.5061C73.856 58.1847 102.232 41.8021 119.505 58.5254L122.006 60.9457C132.047 70.6673 147.991 70.6673 158.033 60.9457L160.533 58.5254C177.807 41.8021 206.183 58.1847 200.337 81.506L199.491 84.8813C196.093 98.4385 204.065 112.247 217.505 116.082L220.851 117.037C243.97 123.635 243.97 156.4 220.851 162.998L217.505 163.953C204.065 167.789 196.093 181.597 199.491 195.154L200.337 198.529C206.183 221.851 177.807 238.233 160.533 221.51L158.033 219.09C147.991 209.368 132.047 209.368 122.006 219.09L119.505 221.51C102.232 238.233 73.856 221.851 79.7017 198.529L80.5478 195.154C83.9461 181.597 75.974 167.789 62.534 163.953L59.1879 162.998C36.0681 156.4 36.0681 123.635 59.1879 117.037L62.534 116.082C75.974 112.247 83.9461 98.4385 80.5478 84.8813L79.7018 81.5061Z" stroke="#E1ECF3" stroke-width="2"/>
<path id="Star 3_9" opacity="0.689655" d="M84.0283 80.7458C79.4111 57.1505 108.605 42.2754 124.98 59.8798L126.115 61.1001C135.635 71.334 151.557 72.1684 162.094 62.9857L163.35 61.8907C181.476 46.0944 208.955 63.9396 201.896 86.923L201.407 88.5162C197.304 101.877 204.542 116.083 217.763 120.617L219.34 121.158C242.083 128.957 240.368 161.677 216.934 167.056L215.31 167.429C201.688 170.556 193.004 183.928 195.688 197.644L196.008 199.28C200.625 222.875 171.431 237.75 155.056 220.146L153.921 218.926C144.402 208.692 128.48 207.857 117.943 217.04L116.686 218.135C98.5608 233.931 71.0816 216.086 78.1399 193.103L78.6292 191.509C82.7324 178.149 75.4939 163.942 62.273 159.409L60.6965 158.868C37.9537 151.069 39.6685 118.349 63.102 112.97L64.7264 112.597C78.3487 109.47 87.0325 96.0979 84.3484 82.3814L84.0283 80.7458Z" stroke="#E1ECF3" stroke-width="2"/>
<path id="Star 3_8" opacity="0.724138" d="M88.2501 80.1634C84.8787 56.3914 114.77 43.0828 130.18 61.4948C139.14 72.1993 154.976 73.8638 165.965 65.256C184.867 50.4503 211.338 69.6828 203.098 92.2344C198.307 105.346 204.784 119.893 217.733 125.106C240.006 134.072 236.586 166.613 212.935 170.753C199.186 173.159 189.826 186.042 191.786 199.863C195.157 223.635 165.266 236.943 149.855 218.531C140.896 207.827 125.06 206.162 114.071 214.77C95.1691 229.576 68.6977 210.343 76.9379 187.792C81.7287 174.681 75.2518 160.133 62.3027 154.92C40.0299 145.954 43.4501 113.413 67.1004 109.273C80.8504 106.867 90.2102 93.9841 88.2501 80.1634Z" stroke="#E1ECF3" stroke-width="2"/>
<path id="Star 3_7" opacity="0.758621" d="M92.2628 78.5533C90.1762 55.0437 120.204 43.5169 134.385 62.3842C142.64 73.3679 158.121 75.8199 169.367 67.9248C188.683 54.3629 213.68 74.6047 204.431 96.3189C199.046 108.96 204.663 123.593 217.123 129.384C238.526 139.332 233.495 171.101 210.065 173.948C196.425 175.605 186.561 187.786 187.776 201.473C189.862 224.982 159.834 236.509 145.654 217.642C137.399 206.658 121.917 204.206 110.672 212.101C91.3553 225.663 66.3587 205.421 75.6081 183.707C80.9926 171.066 75.3755 156.433 62.9154 150.642C41.5121 140.694 46.5438 108.925 69.9735 106.078C83.6133 104.421 93.4775 92.2396 92.2628 78.5533Z" stroke="#E1ECF3" stroke-width="2"/>
<path id="Star 3_6" opacity="0.793103" d="M96.2965 77.1962C95.4579 54.0171 125.52 44.2495 138.465 63.4946C146.012 74.7139 161.1 77.9209 172.558 70.7412C192.212 58.4255 215.702 79.5758 205.508 100.41C199.566 112.555 204.332 127.225 216.279 133.558C236.772 144.421 230.2 175.339 207.06 176.928C193.57 177.854 183.249 189.317 183.738 202.83C184.577 226.009 154.515 235.776 141.569 216.531C134.022 205.312 118.935 202.105 107.477 209.285C87.8224 221.6 64.3326 200.45 74.5265 179.616C80.4691 167.471 75.7026 152.801 63.756 146.468C43.2631 135.605 49.8349 104.687 72.9746 103.098C86.4642 102.172 96.7853 90.7087 96.2965 77.1962Z" stroke="#E1ECF3" stroke-width="2"/>
<path id="Star 3_5" opacity="0.827586" d="M100.342 76.0902C100.711 53.3069 130.706 45.2698 142.417 64.8162C149.254 76.2273 163.912 80.155 175.539 73.6911C195.454 62.6191 217.412 84.5768 206.34 104.492C199.876 116.119 203.803 130.777 215.215 137.614C234.761 149.325 226.724 179.32 203.941 179.689C190.64 179.904 179.909 190.635 179.694 203.936C179.325 226.719 149.33 234.756 137.619 215.21C130.782 203.799 116.124 199.871 104.497 206.335C84.5816 217.407 62.6239 195.449 73.696 175.534C80.1598 163.907 76.2322 149.249 64.821 142.412C45.2746 130.701 53.3117 100.706 76.095 100.337C89.3959 100.121 100.126 89.391 100.342 76.0902Z" stroke="#E1ECF3" stroke-width="2"/>
<path id="Star 3_4" opacity="0.862069" d="M104.38 75.2323C105.913 52.9064 135.744 46.5657 146.225 66.3379C152.353 77.8979 166.548 82.5102 178.3 76.7599C198.402 66.9245 218.808 89.5882 206.925 108.551C199.978 119.638 203.081 134.238 213.938 141.54C232.506 154.031 223.082 183.035 200.718 182.226C187.643 181.753 176.551 191.74 175.655 204.793C174.122 227.119 144.291 233.46 133.81 213.688C127.682 202.128 113.487 197.516 101.734 203.266C81.633 213.101 61.2266 190.437 73.1092 171.474C80.0564 160.387 76.9532 145.788 66.0971 138.485C47.5288 125.995 56.9529 96.9904 79.3167 97.7995C92.392 98.2725 103.484 88.2854 104.38 75.2323Z" stroke="#E1ECF3" stroke-width="2"/>
<path id="Star 3_3" opacity="0.896552" d="M108.4 74.619C111.05 52.8088 140.622 48.125 149.882 68.0488C155.305 79.7152 169.006 84.9746 180.842 79.933C201.055 71.323 219.898 94.5917 207.273 112.573C199.881 123.102 202.177 137.597 212.461 145.327C230.024 158.527 219.294 186.48 197.41 184.537C184.595 183.4 173.19 192.636 171.638 205.407C168.988 227.217 139.415 231.901 130.155 211.977C124.733 200.311 111.031 195.051 99.1954 200.093C78.9822 208.703 60.1397 185.434 72.764 167.453C80.1563 156.924 77.8605 142.428 67.5763 134.699C50.0133 121.499 60.7432 93.5462 82.6278 95.4886C95.4424 96.6259 106.848 87.3901 108.4 74.619Z" stroke="#E1ECF3" stroke-width="2"/>
<path id="Star 3_2" opacity="0.931035" d="M112.383 74.2456C116.1 53.0058 145.325 49.9342 153.377 69.9369C158.1 81.6682 171.279 87.536 183.157 83.1958C203.41 75.7955 220.682 99.5687 207.386 116.544C199.587 126.499 201.095 140.847 210.793 148.963C227.329 162.803 215.376 189.647 194.027 186.62C181.506 184.844 169.835 193.324 167.655 205.78C163.937 227.02 134.713 230.092 126.661 210.089C121.938 198.358 108.759 192.49 96.8807 196.83C76.6276 204.231 59.3554 180.457 72.652 163.482C80.4503 153.527 78.9424 139.18 69.2446 131.063C52.7092 117.223 64.6613 90.3785 86.0104 93.4063C98.5313 95.1821 110.202 86.7024 112.383 74.2456Z" stroke="#E1ECF3" stroke-width="2"/>
<path id="Star 3_1" opacity="0.965517" d="M116.317 74.1066C121.05 53.488 149.84 51.9792 156.702 71.9901C160.733 83.7456 173.365 90.1817 185.245 86.5333C205.467 80.3229 221.169 104.501 207.27 120.45C199.105 129.818 199.847 143.976 208.947 152.44C224.436 166.848 211.348 192.535 190.587 188.473C178.391 186.086 166.501 193.807 163.721 205.92C158.988 226.538 130.198 228.047 123.336 208.036C119.305 196.281 106.673 189.845 94.7932 193.493C74.5706 199.703 58.8689 175.525 72.7678 159.577C80.9327 150.208 80.1907 136.051 71.0912 127.586C55.6015 113.178 68.6898 87.4911 89.4508 91.5537C101.647 93.9403 113.537 86.219 116.317 74.1066Z" stroke="#E1ECF3" stroke-width="2"/>
<path id="Star 3" d="M120.187 74.1957C125.881 54.2453 154.155 54.2453 159.848 74.1957C163.199 85.9356 175.26 92.8992 187.102 89.9308C207.227 84.8863 221.363 109.372 206.933 124.278C198.441 133.05 198.441 146.977 206.933 155.748C221.363 170.654 207.227 195.14 187.102 190.095C175.26 187.127 163.199 194.091 159.848 205.831C154.155 225.781 125.881 225.781 120.187 205.831C116.837 194.091 104.776 187.127 92.9334 190.095C72.809 195.14 58.6722 170.654 73.103 155.748C81.5948 146.977 81.5948 133.05 73.103 124.278C58.6722 109.372 72.809 84.8863 92.9334 89.9308C104.776 92.8992 116.837 85.9356 120.187 74.1957Z" stroke="#E1ECF3" stroke-width="2"/>
</g>
</svg>
