<svg width="280" height="280" viewBox="0 0 280 280" fill="none" xmlns="http://www.w3.org/2000/svg">
<g clip-path="url(#clip0_220_16486)">
<path opacity="0.0526316" d="M21.7552 223.103C27.6632 230.963 46.5458 244.116 74.8122 233.847C110.145 221.011 123.811 186.985 155.346 169.342C178.621 156.32 241.163 136.774 277.125 158.373" stroke="#6E8CA2" stroke-width="3"/>
<path opacity="0.105263" d="M15.9268 206.625C20.9808 215.06 38.3851 230.115 67.5701 222.856C104.051 213.784 121.198 181.373 154.405 167.123C178.914 156.605 243.156 143.703 276.664 168.943" stroke="#6E8CA2" stroke-width="3"/>
<path opacity="0.157895" d="M11.5243 189.926C15.669 198.842 31.4043 215.634 61.1881 211.466C98.4178 206.256 118.859 175.815 153.373 165.114C178.847 157.216 244.086 151.1 274.772 179.704" stroke="#6E8CA2" stroke-width="3"/>
<path opacity="0.210526" d="M8.5625 173.153C11.7524 182.454 25.6464 200.799 55.7027 199.767C93.273 198.477 116.784 170.34 152.228 163.305C178.388 158.113 243.909 158.85 271.437 190.505" stroke="#6E8CA2" stroke-width="3"/>
<path opacity="0.263158" d="M7.04014 156.459C9.24038 166.043 21.1407 185.739 51.1402 187.855C88.6395 190.499 114.963 164.973 150.948 161.682C177.507 159.253 242.592 166.835 266.661 201.194" stroke="#6E8CA2" stroke-width="3"/>
<path opacity="0.315789" d="M6.94234 139.995C8.12877 149.756 17.9051 170.588 47.5191 175.828C84.5366 182.378 113.384 159.743 149.516 160.232C176.184 160.592 240.12 174.936 260.465 211.622" stroke="#6E8CA2" stroke-width="3"/>
<path opacity="0.368421" d="M8.23694 123.907C8.39656 133.738 15.9418 155.478 44.8459 163.785C80.9759 174.168 112.031 154.673 147.914 158.935C174.398 162.082 236.485 183.029 252.883 221.642" stroke="#6E8CA2" stroke-width="3"/>
<path opacity="0.421053" d="M10.8768 108.339C10.0079 118.133 15.2394 140.542 43.1168 151.825C77.9636 165.928 110.887 149.786 146.127 157.776C172.137 163.673 231.694 190.996 243.967 231.111" stroke="#6E8CA2" stroke-width="3"/>
<path opacity="0.473684" d="M14.7984 93.4285C12.9104 103.078 15.7708 125.912 42.3161 140.047C75.4978 157.715 109.928 145.102 144.14 156.732C169.391 165.316 225.766 198.715 233.778 239.893" stroke="#6E8CA2" stroke-width="3"/>
<path opacity="0.526316" d="M19.9293 79.3065C17.043 88.7062 17.501 111.714 42.4234 128.546C73.5765 149.586 109.136 140.641 141.946 155.783C166.161 166.96 218.736 206.068 222.4 247.858" stroke="#6E8CA2" stroke-width="3"/>
<path opacity="0.578947" d="M26.1777 66.0941C22.3246 75.1406 20.3752 98.0699 43.4017 117.415C72.1848 141.596 108.485 136.417 139.531 154.906C162.446 168.552 210.645 212.942 209.921 254.886" stroke="#6E8CA2" stroke-width="3"/>
<path opacity="0.631579" d="M33.4455 53.9044C28.6679 62.4986 24.3324 85.0984 45.2107 106.744C71.3085 133.802 107.951 132.446 136.895 154.079C158.258 170.045 201.552 219.23 196.448 260.868" stroke="#6E8CA2" stroke-width="3"/>
<path opacity="0.684211" d="M41.6173 42.8378C35.9676 50.8855 29.2935 72.9084 47.7948 96.618C70.9214 126.255 107.505 128.737 134.029 153.277C153.606 171.389 191.522 224.83 182.093 265.707" stroke="#6E8CA2" stroke-width="3"/>
<path opacity="0.736842" d="M50.5705 32.9819C44.1105 40.395 35.1709 61.5996 51.0926 87.1133C70.9946 119.005 107.118 125.298 130.932 152.476C148.508 172.535 180.631 229.646 166.981 269.313" stroke="#6E8CA2" stroke-width="3"/>
<path opacity="0.789474" d="M60.177 24.4132C52.9775 31.1104 41.8704 51.2644 55.0379 78.3026C71.4973 112.1 106.765 122.134 127.608 151.652C142.991 173.439 168.968 233.595 151.246 271.618" stroke="#6E8CA2" stroke-width="3"/>
<path opacity="0.842105" d="M70.298 17.1918C62.4379 23.0998 49.285 41.9824 59.5541 70.2488C72.3905 105.582 106.416 119.247 124.059 150.782C137.081 174.058 156.627 236.599 135.028 272.562" stroke="#6E8CA2" stroke-width="3"/>
<path opacity="0.894737" d="M80.7877 11.3643C72.3531 16.4183 57.2985 33.8226 64.5567 63.0076C73.6294 99.4888 106.04 116.636 120.29 149.843C130.808 174.352 143.71 238.594 118.47 272.102" stroke="#6E8CA2" stroke-width="3"/>
<path opacity="0.947368" d="M91.4995 6.96181C82.5828 11.1065 65.7914 26.8418 69.9592 56.6256C75.169 93.8553 105.61 114.296 116.311 148.811C124.209 174.285 130.325 239.524 101.721 270.21" stroke="#6E8CA2" stroke-width="3"/>
<path d="M102.284 4C92.9831 7.18994 74.6389 21.0839 75.6707 51.1402C76.9603 88.7105 105.098 112.221 112.132 147.665C117.324 173.825 116.588 239.346 84.9327 266.874" stroke="#6E8CA2" stroke-width="3"/>
</g>
<defs>
<clipPath id="clip0_220_16486">
<rect width="280" height="280" fill="white"/>
</clipPath>
</defs>
</svg>
