<svg width="689" height="689" viewBox="0 0 689 689" fill="none" xmlns="http://www.w3.org/2000/svg">
<g id="LooperGroup">
<path id="Ellipse 3_99" d="M323.429 215.056C410.02 201.341 490.702 203.52 551.14 218.112C581.36 225.408 606.493 235.801 624.772 248.842C643.049 261.881 654.441 277.541 657.266 295.378C660.091 313.214 654.096 331.628 640.743 349.677C627.388 367.728 606.697 385.379 580.21 401.657C527.239 434.211 451.18 461.215 364.589 474.93C277.998 488.644 197.316 486.465 136.878 471.874C106.658 464.577 81.5245 454.184 63.2454 441.143C44.9683 428.104 33.5766 412.444 30.7516 394.608C27.9267 376.771 33.9215 358.357 47.2748 340.309C60.6294 322.258 81.3212 304.606 107.808 288.329C160.778 255.775 236.838 228.77 323.429 215.056Z" stroke="url(#paint0_linear_272_20694)"/>
<path id="Ellipse 3_98" d="M325.699 214.716C412.516 202.515 493.148 206.102 553.322 221.746C583.41 229.568 608.358 240.399 626.407 253.757C644.454 267.113 655.57 282.969 658.084 300.852C660.597 318.735 654.282 337.042 640.615 354.855C626.948 372.67 605.951 389.957 579.185 405.77C525.654 437.395 449.135 463.068 362.317 475.269C275.5 487.47 194.869 483.884 134.695 468.239C104.607 460.417 79.6582 449.586 61.6095 436.229C43.5627 422.872 32.4461 407.016 29.9328 389.133C27.4195 371.25 33.7349 352.944 47.4011 335.131C61.0687 317.315 82.0654 300.028 108.832 284.215C162.363 252.59 238.882 226.918 325.699 214.716Z" stroke="url(#paint1_linear_272_20694)"/>
<path id="Ellipse 3_97" d="M327.978 214.417C414.995 203.732 495.552 208.726 555.444 225.418C585.391 233.764 610.146 245.029 627.959 258.699C645.77 272.368 656.608 288.416 658.809 306.34C661.01 324.264 654.376 342.458 640.401 360.03C626.425 377.604 605.129 394.522 578.091 409.866C524.016 440.551 447.061 464.884 360.044 475.569C273.027 486.253 192.47 481.26 132.579 464.568C102.632 456.221 77.8759 444.957 60.0631 431.286C42.2522 417.617 31.414 401.569 29.2132 383.645C27.0124 365.721 33.6462 347.528 47.6212 329.956C61.5977 312.382 82.8929 295.463 109.931 280.12C164.006 249.435 240.961 225.101 327.978 214.417Z" stroke="url(#paint2_linear_272_20694)"/>
<path id="Ellipse 3_96" d="M330.257 214.157C417.448 204.993 497.905 211.391 557.496 229.126C587.293 237.994 611.848 249.689 629.42 263.668C646.989 277.646 657.546 293.881 659.433 311.84C661.321 329.8 654.371 347.875 640.091 365.2C625.81 382.528 604.223 399.072 576.921 413.941C522.319 443.678 444.95 466.665 357.76 475.829C270.57 484.993 190.113 478.594 130.522 460.859C100.725 451.992 76.1695 440.297 58.598 426.318C41.0283 412.34 30.4718 396.105 28.5842 378.145C26.6966 360.186 33.647 342.111 47.9265 324.785C62.2075 307.458 83.7948 290.914 111.097 276.045C165.699 246.308 243.067 223.321 330.257 214.157Z" stroke="url(#paint3_linear_272_20694)"/>
<path id="Ellipse 3_95" d="M332.542 213.937C419.879 206.296 500.212 214.097 559.485 232.87C589.123 242.256 613.47 254.377 630.795 268.661C648.118 282.944 658.389 299.36 659.963 317.35C661.537 335.34 654.272 353.291 639.693 370.364C625.111 387.44 603.239 403.605 575.681 417.995C520.569 446.775 442.811 468.408 355.474 476.049C268.137 483.69 187.804 475.888 128.531 457.116C98.8938 447.729 74.5464 435.608 57.2215 421.324C39.8985 407.042 29.627 390.625 28.0531 372.635C26.4791 354.645 33.7439 336.694 48.3236 319.621C62.9049 302.546 84.7776 286.38 112.335 271.99C167.448 243.211 245.205 221.578 332.542 213.937Z" stroke="url(#paint4_linear_272_20694)"/>
<path id="Ellipse 3_94" d="M334.832 213.757C422.289 207.641 502.473 216.844 561.409 236.647C590.878 246.549 615.011 259.094 632.084 273.678C649.155 288.261 659.138 304.854 660.398 322.869C661.658 340.883 654.081 358.705 639.205 375.521C624.328 392.339 602.177 408.12 574.372 422.028C518.766 449.841 440.642 470.113 353.185 476.229C265.728 482.345 185.544 473.142 126.608 453.338C97.1384 443.436 73.0062 430.892 55.9333 416.307C38.8622 401.725 28.8787 385.131 27.619 367.117C26.3593 349.102 33.9363 331.281 48.8117 314.464C63.6888 297.646 85.8403 281.865 113.645 267.958C169.251 240.145 247.375 219.872 334.832 213.757Z" stroke="url(#paint5_linear_272_20694)"/>
<path id="Ellipse 3_93" d="M337.124 213.616C424.674 209.028 504.686 219.628 563.267 240.458C592.559 250.873 616.469 263.836 633.285 278.716C650.099 293.594 659.791 310.359 660.736 328.393C661.681 346.427 653.794 364.114 638.628 380.668C623.459 397.224 601.036 412.616 572.993 426.036C516.91 452.874 438.444 471.78 350.894 476.369C263.343 480.957 183.332 470.356 124.75 449.527C95.4582 439.112 71.5486 426.148 54.7328 411.269C37.9188 396.39 28.2265 379.625 27.2814 361.591C26.3362 343.557 34.2231 325.871 49.3898 309.317C64.5581 292.761 86.9816 277.369 115.024 263.949C171.108 237.11 249.573 218.204 337.124 213.616Z" stroke="url(#paint6_linear_272_20694)"/>
<path id="Ellipse 3_92" d="M339.417 213.516C427.034 210.456 506.849 222.452 565.058 244.3C594.163 255.225 617.843 268.604 634.397 283.775C650.949 298.944 660.347 315.876 660.977 333.924C661.607 351.971 653.413 369.517 637.96 385.804C622.505 402.093 599.816 417.092 571.543 430.02C515 455.876 436.217 473.409 348.599 476.469C260.982 479.529 181.168 467.533 122.959 445.685C93.853 434.76 70.1733 421.381 53.6197 406.21C37.0679 391.041 27.6697 374.109 27.0394 356.061C26.4092 338.014 34.6035 320.468 50.0568 304.181C65.5117 287.892 88.2005 272.893 116.473 259.965C173.016 234.109 251.8 216.576 339.417 213.516Z" stroke="url(#paint7_linear_272_20694)"/>
<path id="Ellipse 3_91" d="M341.712 213.456C429.369 211.926 508.962 225.312 566.781 248.173C595.692 259.604 619.135 273.394 635.421 288.852C651.705 304.308 660.807 321.401 661.122 339.457C661.437 357.513 652.938 374.913 637.203 390.928C621.466 406.945 598.519 421.545 570.025 433.978C513.039 458.843 433.961 474.999 346.304 476.529C258.647 478.059 179.054 464.672 121.235 441.811C92.3243 430.38 68.8817 416.59 52.5955 401.132C36.311 385.676 27.2096 368.583 26.8944 350.527C26.5793 332.472 35.0785 315.071 50.8137 299.056C66.5506 283.04 89.4977 268.44 117.992 256.007C174.978 231.142 254.055 214.986 341.712 213.456Z" stroke="url(#paint8_linear_272_20694)"/>
<path id="Ellipse 3_90" d="M344.008 213.436C431.678 213.436 511.026 228.209 568.437 252.076C597.143 264.01 620.342 278.207 636.356 293.947C652.368 309.684 661.17 326.934 661.17 344.992C661.17 363.051 652.368 380.3 636.356 396.038C620.342 411.778 597.143 425.975 568.437 437.909C511.026 461.776 431.678 476.549 344.008 476.549C256.337 476.549 176.99 461.776 119.579 437.909C90.872 425.975 67.6737 411.778 51.6596 396.038C35.6474 380.3 26.8457 363.051 26.8457 344.992C26.8457 326.934 35.6474 309.684 51.6596 293.947C67.6737 278.207 90.872 264.01 119.579 252.076C176.99 228.209 256.337 213.436 344.008 213.436Z" stroke="url(#paint9_linear_272_20694)"/>
<path id="Ellipse 3_89" d="M346.302 213.456C433.959 214.986 513.037 231.142 570.023 256.007C598.517 268.44 621.464 283.04 637.201 299.057C652.936 315.072 661.435 332.472 661.12 350.528C660.805 368.584 651.703 385.677 635.419 401.133C619.133 416.591 595.69 430.381 566.779 441.812C508.961 464.673 429.367 478.059 341.71 476.529C254.053 474.999 174.976 458.843 117.99 433.978C89.4957 421.545 66.5487 406.945 50.8118 390.929C35.0766 374.914 26.5774 357.513 26.8925 339.458C27.2077 321.402 36.309 304.309 52.5936 288.853C68.8798 273.395 92.3224 259.605 121.233 248.174C179.052 225.313 258.645 211.926 346.302 213.456Z" stroke="url(#paint10_linear_272_20694)"/>
<path id="Ellipse 3_88" d="M348.598 213.516C436.215 216.576 514.999 234.109 571.542 259.965C599.815 272.894 622.503 287.892 637.958 304.181C653.412 320.468 661.606 338.014 660.976 356.061C660.345 374.109 650.947 391.041 634.395 406.21C617.842 421.381 594.162 434.76 565.057 445.685C506.847 467.533 427.033 479.529 339.416 476.469C251.798 473.409 173.015 455.876 116.472 430.02C88.1992 417.092 65.5104 402.093 50.0554 385.805C34.6022 369.517 26.4079 351.971 27.0381 333.924C27.6683 315.876 37.0666 298.945 53.6184 283.775C70.172 268.604 93.8517 255.225 122.957 244.3C181.166 222.452 260.981 210.456 348.598 213.516Z" stroke="url(#paint11_linear_272_20694)"/>
<path id="Ellipse 3_87" d="M350.892 213.616C438.443 218.204 516.908 237.11 572.991 263.949C601.034 277.369 623.458 292.761 638.626 309.317C653.793 325.871 661.68 343.557 660.734 361.591C659.789 379.625 650.097 396.39 633.283 411.268C616.467 426.148 592.558 439.112 563.266 449.527C504.684 470.356 424.672 480.957 337.122 476.369C249.572 471.78 171.106 452.874 115.023 426.036C86.98 412.616 64.5565 397.224 49.3882 380.668C34.2215 364.113 26.3347 346.427 27.2798 328.393C28.2249 310.359 37.9172 293.594 54.7312 278.716C71.547 263.836 95.4566 250.872 124.749 240.457C183.33 219.628 263.342 209.027 350.892 213.616Z" stroke="url(#paint12_linear_272_20694)"/>
<path id="Ellipse 3_86" d="M353.185 213.756C440.642 219.872 518.766 240.144 574.372 267.958C602.176 281.865 624.328 297.646 639.205 314.464C654.08 331.281 661.657 349.102 660.398 367.116C659.138 385.131 649.155 401.724 632.083 416.307C615.01 430.891 590.878 443.436 561.409 453.338C502.473 473.142 422.288 482.344 334.831 476.229C247.374 470.113 169.251 449.84 113.644 422.027C85.8401 408.12 63.6886 392.339 48.8115 375.521C33.936 358.704 26.3591 340.883 27.6188 322.868C28.8785 304.854 38.862 288.26 55.9331 273.678C73.006 259.094 97.1382 246.549 126.607 236.647C185.544 216.843 265.728 207.641 353.185 213.756Z" stroke="url(#paint13_linear_272_20694)"/>
<path id="Ellipse 3_85" d="M355.476 213.937C442.812 221.578 520.57 243.211 575.683 271.99C603.24 286.38 625.113 302.546 639.694 319.621C654.274 336.695 661.539 354.645 659.965 372.635C658.391 390.625 648.119 407.042 630.796 421.324C613.471 435.608 589.124 447.73 559.486 457.116C500.214 475.888 419.881 483.69 332.544 476.049C245.207 468.408 167.449 446.775 112.336 417.995C84.779 403.605 62.9063 387.44 48.325 370.365C33.7453 353.291 26.4806 335.34 28.0545 317.35C29.6284 299.36 39.8999 282.944 57.2229 268.661C74.5478 254.377 98.8953 242.256 128.533 232.87C187.806 214.098 268.139 206.296 355.476 213.937Z" stroke="url(#paint14_linear_272_20694)"/>
<path id="Ellipse 3_84" d="M357.76 214.156C444.95 223.32 522.319 246.307 576.921 276.044C604.223 290.913 625.81 307.457 640.091 324.785C654.371 342.11 661.321 360.185 659.433 378.145C657.546 396.104 646.989 412.339 629.42 426.317C611.848 440.296 587.293 451.991 557.496 460.859C497.905 478.594 417.448 484.992 330.257 475.828C243.067 466.664 165.699 443.677 111.097 413.94C83.7947 399.071 62.2075 382.527 47.9264 365.2C33.6469 347.874 26.6965 329.799 28.5841 311.84C30.4718 293.88 41.0283 277.645 58.5979 263.667C76.1694 249.688 100.725 237.993 130.522 229.125C190.113 211.391 270.57 204.992 357.76 214.156Z" stroke="url(#paint15_linear_272_20694)"/>
<path id="Ellipse 3_83" d="M360.04 214.417C447.057 225.101 524.012 249.435 578.087 280.12C605.125 295.463 626.42 312.382 640.397 329.956C654.372 347.528 661.006 365.721 658.805 383.645C656.604 401.569 645.766 417.617 627.955 431.286C610.142 444.957 585.387 456.221 555.44 464.568C495.548 481.26 414.991 486.253 327.974 475.569C240.957 464.884 164.002 440.551 109.927 409.866C82.8888 394.522 61.5936 377.604 47.6171 360.03C33.6422 342.458 27.0083 324.264 29.2091 306.34C31.4099 288.416 42.2481 272.368 60.059 258.699C77.8718 245.029 102.627 233.764 132.574 225.418C192.466 208.726 273.023 203.732 360.04 214.417Z" stroke="url(#paint16_linear_272_20694)"/>
<path id="Ellipse 3_82" d="M362.315 214.716C449.132 226.917 525.652 252.59 579.182 284.215C605.949 300.027 626.945 317.315 640.613 335.13C654.279 352.943 660.595 371.25 658.081 389.133C655.568 407.016 644.451 422.872 626.405 436.228C608.356 449.586 583.408 460.416 553.319 468.239C493.145 483.883 412.514 487.47 325.697 475.269C238.879 463.067 162.36 437.394 108.83 405.77C82.0631 389.957 61.0664 372.669 47.3988 354.854C33.7326 337.041 27.4172 318.735 29.9305 300.852C32.4438 282.969 43.5604 267.112 61.6072 253.756C79.6559 240.399 104.604 229.568 134.692 221.746C194.866 206.101 275.498 202.514 362.315 214.716Z" stroke="url(#paint17_linear_272_20694)"/>
<path id="Ellipse 3_81" d="M364.589 215.055C451.18 228.77 527.239 255.775 580.21 288.328C606.697 304.606 627.388 322.258 640.743 340.308C654.096 358.357 660.091 376.771 657.266 394.608C654.441 412.444 643.049 428.104 624.772 441.143C606.493 454.184 581.36 464.577 551.14 471.873C490.702 486.465 410.02 488.644 323.429 474.929C236.838 461.215 160.778 434.21 107.808 401.657C81.3212 385.379 60.6294 367.727 47.2748 349.676C33.9216 331.628 27.9267 313.214 30.7517 295.377C33.5767 277.541 44.9683 261.881 63.2454 248.842C81.5245 235.801 106.658 225.408 136.878 218.112C197.316 203.52 277.998 201.341 364.589 215.055Z" stroke="url(#paint18_linear_272_20694)"/>
<path id="Ellipse 3_80" d="M366.852 215.435C453.191 230.658 528.767 258.986 581.162 292.459C607.36 309.197 627.741 327.207 640.778 345.488C653.815 363.767 659.487 382.283 656.351 400.067C653.215 417.851 641.552 433.31 623.05 446.029C604.546 458.748 579.235 468.702 548.892 475.469C488.209 489.004 407.502 489.774 321.163 474.551C234.824 459.327 159.248 430.999 106.853 397.526C80.6552 380.788 60.2746 362.778 47.237 344.497C34.2008 326.218 28.5282 307.702 31.664 289.918C34.7999 272.134 46.4631 256.675 64.965 243.957C83.4689 231.237 108.78 221.284 139.123 214.516C199.806 200.981 280.514 200.211 366.852 215.435Z" stroke="url(#paint19_linear_272_20694)"/>
<path id="Ellipse 3_79" d="M369.112 215.854C455.172 232.582 530.242 262.224 582.045 296.607C607.947 313.799 628.01 332.162 640.726 350.668C653.442 369.172 658.79 387.784 655.344 405.51C651.899 423.237 639.967 438.49 621.246 450.884C602.523 463.278 577.042 472.788 546.586 479.026C485.676 491.499 404.967 490.861 318.907 474.133C232.848 457.404 157.777 427.762 105.975 393.379C80.0725 376.187 60.0093 357.824 47.2928 339.318C34.5776 320.814 29.229 302.203 32.6747 284.476C36.1205 266.749 48.0518 251.496 66.7728 239.103C85.4958 226.708 110.977 217.198 141.433 210.961C202.344 198.487 283.052 199.125 369.112 215.854Z" stroke="url(#paint20_linear_272_20694)"/>
<path id="Ellipse 3_78" d="M371.361 216.311C457.115 234.538 531.657 265.486 582.852 300.768C608.45 318.409 628.189 337.12 640.581 355.845C652.971 374.568 657.994 393.27 654.24 410.934C650.485 428.598 638.29 443.641 619.355 455.705C600.419 467.771 574.775 476.835 544.215 482.54C483.096 493.948 402.411 491.902 316.656 473.674C230.902 455.447 156.36 424.499 105.165 389.217C79.5672 371.576 59.8275 352.865 47.4359 334.14C35.0456 315.417 30.0226 296.715 33.7772 279.051C37.5318 261.387 49.7275 246.344 68.6619 234.28C87.5984 222.213 113.242 213.15 143.802 207.445C204.921 196.036 285.606 198.083 371.361 216.311Z" stroke="url(#paint21_linear_272_20694)"/>
<path id="Ellipse 3_77" d="M373.602 216.808C459.025 236.529 533.016 268.773 583.586 304.943C608.873 323.028 628.283 342.08 640.346 361.019C652.408 379.955 657.103 398.743 653.041 416.338C648.979 433.934 636.522 448.761 617.38 460.494C598.236 472.228 572.439 480.843 541.783 486.013C480.475 496.353 399.838 492.899 314.414 473.177C228.991 453.456 155 421.211 104.429 385.042C79.1429 366.956 59.7328 347.904 47.6699 328.966C35.6082 310.029 30.9124 291.242 34.9747 273.646C39.037 256.051 51.4934 241.223 70.6355 229.491C89.7797 217.757 115.577 209.142 146.233 203.972C207.541 193.632 288.178 197.086 373.602 216.808Z" stroke="url(#paint22_linear_272_20694)"/>
<path id="Ellipse 3_76" d="M375.834 217.344C460.9 238.553 534.317 272.084 584.249 309.13C609.215 327.654 628.29 347.042 640.021 366.188C651.75 385.332 656.117 404.199 651.748 421.721C647.38 439.243 634.666 453.851 615.322 465.247C595.976 476.645 570.032 484.809 539.291 489.443C477.812 498.712 397.247 493.851 312.181 472.641C227.115 451.432 153.698 417.901 103.766 380.855C78.7995 362.331 59.7249 342.943 47.9943 323.797C36.265 304.653 31.8978 285.786 36.2665 268.264C40.6353 250.742 53.3485 236.134 72.6925 224.738C92.0386 213.34 117.982 205.176 148.723 200.542C210.203 191.273 290.768 196.134 375.834 217.344Z" stroke="url(#paint23_linear_272_20694)"/>
<path id="Ellipse 3_75" d="M378.056 217.918C462.74 240.609 535.56 275.416 584.837 313.328C609.477 332.285 628.211 352.003 639.605 371.351C650.999 390.697 655.036 409.636 650.362 427.08C645.688 444.523 632.722 458.907 613.182 469.964C593.64 481.022 567.557 488.732 536.74 492.829C475.108 501.023 394.641 494.757 309.958 472.066C225.274 449.375 152.454 414.568 103.177 376.656C78.5368 357.699 59.8034 337.981 48.4088 318.633C37.0153 299.287 32.9781 280.348 37.652 262.905C42.3259 245.461 55.2921 231.078 74.832 220.02C94.3741 208.962 120.457 201.252 151.274 197.155C212.906 188.961 293.373 195.227 378.056 217.918Z" stroke="url(#paint24_linear_272_20694)"/>
<path id="Ellipse 3_74" d="M380.272 218.532C464.546 242.697 536.748 278.77 585.356 317.537C609.661 336.921 628.048 356.962 639.103 376.506C650.157 396.048 653.863 415.055 648.886 432.414C643.908 449.773 630.693 463.928 610.963 474.643C591.231 485.359 565.018 492.612 534.134 496.171C472.368 503.288 392.022 495.618 307.748 471.453C223.474 447.288 151.272 411.215 102.664 372.449C78.3585 353.064 59.9721 333.023 48.9168 313.479C37.8628 293.937 34.1567 274.93 39.1343 257.571C44.1119 240.212 57.3272 226.057 77.0571 215.342C96.7892 204.626 123.002 197.373 153.886 193.814C215.652 186.697 295.998 194.367 380.272 218.532Z" stroke="url(#paint25_linear_272_20694)"/>
<path id="Ellipse 3_73" d="M382.47 219.184C466.31 244.817 537.871 282.144 585.795 321.753C609.759 341.558 627.792 361.918 638.505 381.651C649.216 401.383 652.59 420.452 647.31 437.722C642.03 454.991 628.57 468.914 608.656 479.282C588.74 489.652 562.404 496.446 531.463 499.466C469.583 505.504 389.383 496.433 305.543 470.801C221.703 445.168 150.142 407.841 102.218 368.232C78.2546 348.427 60.2208 328.067 49.5084 308.334C38.797 288.602 35.4232 269.533 40.703 252.263C45.9828 234.994 59.4431 221.071 79.3571 210.703C99.2731 200.333 125.609 193.539 156.55 190.519C218.431 184.481 298.63 193.552 382.47 219.184Z" stroke="url(#paint26_linear_272_20694)"/>
<path id="Ellipse 3_72" d="M384.661 219.875C468.041 246.967 538.94 285.537 586.166 325.976C609.78 346.197 627.455 366.868 637.822 386.786C648.187 406.701 651.228 425.826 645.647 443.001C640.067 460.176 626.366 473.861 606.274 483.881C586.18 493.901 559.73 500.235 528.74 502.714C466.764 507.671 386.735 497.202 303.355 470.111C219.975 443.019 149.077 404.449 101.851 364.009C78.2368 343.789 60.5611 323.117 50.1947 303.2C39.8293 283.284 36.7888 264.159 42.3692 246.984C47.9496 229.809 61.6509 216.124 81.7427 206.105C101.837 196.084 128.287 189.75 159.276 187.272C221.253 182.314 301.282 192.783 384.661 219.875Z" stroke="url(#paint27_linear_272_20694)"/>
<path id="Ellipse 3_71" d="M386.838 220.603C469.732 249.146 539.946 288.948 586.459 330.205C609.717 350.835 627.029 371.811 637.046 391.907C647.063 412 649.769 431.176 643.89 448.25C638.01 465.325 624.072 478.769 603.809 488.436C583.543 498.105 556.986 503.976 525.958 505.914C463.905 509.789 384.07 497.924 301.176 469.382C218.282 440.839 148.068 401.037 101.555 359.78C78.2971 339.15 60.9848 318.174 50.9676 298.078C40.9514 277.985 38.2451 258.809 44.1244 241.735C50.0037 224.66 63.9417 211.216 84.2053 201.548C104.471 191.88 131.028 186.009 162.056 184.071C224.109 180.196 303.943 192.06 386.838 220.603Z" stroke="url(#paint28_linear_272_20694)"/>
<path id="Ellipse 3_70" d="M389.002 221.37C471.385 251.355 540.894 292.376 586.68 334.439C609.574 355.472 626.518 376.747 636.183 397.015C645.847 417.28 648.218 436.499 642.041 453.469C635.865 470.438 621.695 483.637 601.265 492.949C580.834 502.263 554.179 507.669 523.122 509.065C461.01 511.857 381.395 498.601 299.012 468.616C216.628 438.631 147.119 397.61 101.333 355.547C78.4392 334.514 61.4956 313.239 51.8306 292.972C42.1666 272.706 39.7954 253.487 45.9718 236.517C52.1482 219.548 66.3187 206.349 86.748 197.037C107.179 187.724 133.835 182.317 164.892 180.921C227.003 178.129 306.618 191.385 389.002 221.37Z" stroke="url(#paint29_linear_272_20694)"/>
<path id="Ellipse 3_69" d="M391.153 222.174C473 253.592 541.783 295.82 586.828 338.676C609.351 360.104 625.921 381.672 635.231 402.105C644.54 422.536 646.575 441.794 640.103 458.653C633.632 475.513 619.233 488.462 598.644 497.416C578.053 506.371 551.308 511.312 520.231 512.166C458.08 513.873 378.709 499.23 296.861 467.811C215.014 436.393 146.231 394.165 101.186 351.309C78.6629 329.881 62.0933 308.313 52.7834 287.88C43.4746 267.449 41.4392 248.191 47.9108 231.332C54.3824 214.473 68.7811 201.523 89.3698 192.569C109.961 183.614 136.706 178.673 167.783 177.819C229.934 176.112 309.305 190.756 391.153 222.174Z" stroke="url(#paint30_linear_272_20694)"/>
<path id="Ellipse 3_68" d="M393.29 223.016C474.577 255.858 542.612 299.28 586.902 342.915C609.048 364.733 625.239 386.587 634.191 407.18C643.142 427.77 644.841 447.06 638.076 463.804C631.311 480.548 616.688 493.244 595.947 501.837C575.202 510.432 548.375 514.905 517.288 515.216C455.117 515.838 376.013 499.812 294.726 466.97C213.439 434.128 145.404 390.706 101.114 347.071C78.9682 325.253 62.7775 303.399 53.8257 282.806C44.8748 262.216 43.1758 242.926 49.9407 226.182C56.7056 209.438 71.328 196.742 92.0699 188.149C112.814 179.554 139.642 175.081 170.728 174.77C232.9 174.148 312.003 190.174 393.29 223.016Z" stroke="url(#paint31_linear_272_20694)"/>
<path id="Ellipse 3_67" d="M395.411 223.894C476.113 258.15 543.38 302.752 586.901 347.154C608.663 369.356 624.47 391.489 633.061 412.234C641.651 432.978 643.013 452.295 635.957 468.918C628.901 485.541 614.059 497.98 593.171 506.21C572.28 514.441 545.378 518.446 514.291 518.214C452.118 517.751 373.306 500.347 292.605 466.091C211.904 431.836 144.636 387.233 101.115 342.831C79.353 320.63 63.5461 298.497 54.9551 277.751C46.3649 257.008 45.0028 237.691 52.0589 221.068C59.115 204.445 73.9568 192.006 94.8454 183.775C115.736 175.544 142.638 171.54 173.725 171.771C235.898 172.234 314.71 189.639 395.411 223.894Z" stroke="url(#paint32_linear_272_20694)"/>
<path id="Ellipse 3_66" d="M397.518 224.81C477.609 260.469 544.087 306.238 586.827 351.393C608.198 373.971 623.616 396.377 631.844 417.269C640.071 438.159 641.096 457.497 633.751 473.994C626.405 490.492 611.349 502.67 590.32 510.534C569.288 518.399 542.321 521.934 511.242 521.16C449.087 519.612 370.591 500.835 290.5 465.176C210.409 429.517 143.93 383.747 101.19 338.593C79.819 316.015 64.4009 293.609 56.1732 272.717C47.9464 251.827 46.9216 232.489 54.2667 215.991C61.6118 199.494 76.6685 187.316 97.6976 179.451C118.729 171.586 145.696 168.052 176.775 168.826C238.93 170.374 317.426 189.151 397.518 224.81Z" stroke="url(#paint33_linear_272_20694)"/>
<path id="Ellipse 3_65" d="M399.608 225.761C479.065 262.812 544.734 309.735 586.68 355.629C607.654 378.577 622.678 401.248 630.54 422.28C638.401 443.311 639.088 462.664 631.456 479.031C623.824 495.397 608.558 507.311 587.394 514.807C566.229 522.304 539.204 525.367 508.144 524.051C446.025 521.418 367.868 501.274 288.412 464.223C208.955 427.172 143.286 380.249 101.34 334.355C80.3663 311.408 65.3415 288.736 57.4797 267.704C49.6187 246.673 48.9316 227.32 56.5635 210.954C64.1954 194.587 79.4623 182.673 100.625 175.177C121.791 167.68 148.816 164.617 179.876 165.933C241.995 168.566 320.152 188.71 399.608 225.761Z" stroke="url(#paint34_linear_272_20694)"/>
<path id="Ellipse 3_64" d="M401.679 226.75C480.476 265.183 545.317 313.245 586.455 359.863C607.025 383.173 621.652 406.103 629.146 427.27C636.639 448.434 636.988 467.796 629.071 484.027C621.155 500.258 605.683 511.904 584.392 519.029C563.099 526.156 536.024 528.747 504.992 526.889C442.928 523.173 365.135 501.667 286.337 463.235C207.54 424.803 142.699 376.741 101.561 330.122C80.9907 306.812 66.3639 283.882 58.8703 262.716C51.3776 241.551 51.0283 222.189 58.9447 205.958C66.8611 189.727 82.3336 178.082 103.624 170.956C124.917 163.83 151.992 161.239 183.024 163.097C245.088 166.813 322.881 188.318 401.679 226.75Z" stroke="url(#paint35_linear_272_20694)"/>
<path id="Ellipse 3_63" d="M403.732 227.775C481.848 267.577 545.839 316.763 586.158 364.093C606.318 387.758 620.542 410.94 627.665 432.234C634.788 453.526 634.799 472.891 626.6 488.982C618.402 505.072 602.729 516.445 581.317 523.198C559.903 529.952 532.787 532.07 501.792 529.671C439.803 524.872 362.397 502.013 284.282 462.211C206.167 422.409 142.175 373.223 101.856 325.894C81.6961 302.228 67.4717 279.046 60.3487 257.752C53.2264 236.46 53.2152 217.095 61.4136 201.005C69.612 184.914 85.2854 173.541 106.697 166.788C128.111 160.034 155.227 157.916 186.222 160.315C248.211 165.114 325.617 187.974 403.732 227.775Z" stroke="url(#paint36_linear_272_20694)"/>
<path id="Ellipse 3_62" d="M405.769 228.835C483.178 269.994 546.301 320.289 585.788 368.315C605.532 392.329 619.349 415.755 626.1 437.171C632.849 458.584 632.522 477.946 624.044 493.891C615.566 509.836 599.697 520.934 578.17 527.312C556.642 533.691 529.494 535.336 498.544 532.396C436.649 526.516 359.653 502.309 282.245 461.15C204.836 419.991 141.713 369.696 102.226 321.67C82.4824 297.656 68.6647 274.229 61.9144 252.814C55.1649 231.401 55.4916 212.039 63.9696 196.094C72.4476 180.149 88.3171 169.051 109.844 162.673C131.372 156.293 158.521 154.649 189.47 157.589C251.365 163.469 328.361 187.676 405.769 228.835Z" stroke="url(#paint37_linear_272_20694)"/>
<path id="Ellipse 3_61" d="M407.79 229.931C484.468 272.434 546.705 323.824 585.347 372.531C604.669 396.886 618.076 420.55 624.451 442.08C630.826 463.608 630.161 482.961 621.406 498.756C612.651 514.55 596.591 525.37 574.956 531.371C553.319 537.374 526.146 538.544 495.253 535.064C433.47 528.105 356.909 502.558 280.23 460.055C203.552 417.551 141.315 366.161 102.673 317.454C83.3514 293.099 69.9447 269.435 63.5692 247.905C57.1944 226.378 57.8589 207.024 66.6139 191.229C75.3689 175.435 91.4297 164.615 113.064 158.614C134.701 152.611 161.874 151.441 192.767 154.921C254.55 161.88 331.112 187.427 407.79 229.931Z" stroke="url(#paint38_linear_272_20694)"/>
<path id="Ellipse 3_60" d="M409.785 231.061C485.71 274.896 547.04 327.364 584.826 376.739C603.72 401.427 616.712 425.322 622.71 446.96C628.709 468.595 627.706 487.934 618.677 503.573C609.648 519.213 593.401 529.75 571.665 535.373C549.926 540.997 522.737 541.693 491.91 537.675C430.257 529.639 354.153 502.759 278.228 458.924C202.303 415.089 140.973 362.621 103.187 313.246C84.2934 288.558 71.3017 264.663 65.3029 243.025C59.3048 221.39 60.307 202.051 69.3363 186.411C78.3657 170.772 94.6128 160.235 116.349 154.611C138.087 148.988 165.276 148.292 196.104 152.31C257.756 160.346 333.86 187.226 409.785 231.061Z" stroke="url(#paint39_linear_272_20694)"/>
<path id="Ellipse 3_59" d="M411.764 232.227C486.912 277.381 547.317 330.911 584.236 380.938C602.696 405.952 615.268 430.069 620.889 451.809C626.508 473.545 625.169 492.864 615.868 508.343C606.567 523.823 590.138 534.075 568.307 539.318C546.474 544.562 519.277 544.783 488.525 540.227C427.021 531.116 351.398 502.913 276.25 457.759C201.102 412.605 140.697 359.075 103.778 309.048C85.318 284.034 72.7453 259.917 67.1251 238.177C61.5054 216.441 62.845 197.122 72.1459 181.642C81.4468 166.163 97.8754 155.911 119.706 150.668C141.539 145.424 168.736 145.203 199.489 149.759C260.992 158.87 336.615 187.073 411.764 232.227Z" stroke="url(#paint40_linear_272_20694)"/>
<path id="Ellipse 3_58" d="M413.723 233.426C488.072 279.884 547.534 334.461 583.574 385.124C601.594 410.457 613.744 434.79 618.984 456.624C624.224 478.456 622.547 497.748 612.977 513.063C603.408 528.377 586.803 538.341 564.884 543.202C542.963 548.064 515.766 547.811 485.097 542.719C423.762 532.536 348.643 503.017 274.294 456.559C199.945 410.1 140.484 355.524 104.444 304.861C86.4232 279.528 74.2733 255.195 69.0334 233.361C63.7939 211.529 65.4705 192.237 75.0401 176.922C84.6097 161.607 101.215 151.643 123.134 146.782C145.055 141.92 172.252 142.174 202.92 147.265C264.255 157.449 339.374 186.968 413.723 233.426Z" stroke="url(#paint41_linear_272_20694)"/>
<path id="Ellipse 3_57" d="M415.658 234.66C489.185 282.409 547.685 338.014 582.835 389.299C600.411 414.942 612.134 439.484 616.992 461.406C621.85 483.326 619.837 502.586 610.001 517.731C600.166 532.877 583.39 542.549 561.389 547.027C539.386 551.506 512.198 550.778 481.623 545.152C420.475 533.9 345.883 503.074 272.356 455.325C198.829 407.576 140.329 351.971 105.179 300.686C87.6031 275.043 75.8798 250.501 71.0216 228.579C66.164 206.659 68.177 187.399 78.0125 172.254C87.8479 157.108 104.624 147.436 126.625 142.958C148.628 138.479 175.816 139.207 206.391 144.833C267.539 156.086 342.131 186.911 415.658 234.66Z" stroke="url(#paint42_linear_272_20694)"/>
<path id="Ellipse 3_56" d="M417.573 235.927C490.255 284.952 547.776 341.57 582.026 393.46C599.151 419.407 610.445 444.149 614.919 466.153C619.394 488.154 617.045 507.376 606.947 522.347C596.848 537.319 579.906 546.697 557.831 550.79C535.753 554.884 508.582 553.682 478.109 547.523C417.167 535.205 343.124 503.083 270.442 454.058C197.76 405.033 140.239 348.415 105.989 296.525C88.8635 270.579 77.5703 245.836 73.0955 223.832C68.6212 201.831 70.97 182.609 81.0683 167.638C91.1665 152.667 108.109 143.288 130.184 139.195C152.262 135.101 179.433 136.303 209.906 142.462C270.848 154.78 344.891 186.902 417.573 235.927Z" stroke="url(#paint43_linear_272_20694)"/>
<path id="Ellipse 3_55" d="M419.463 237.227C491.278 287.513 547.802 345.127 581.141 397.607C597.811 423.848 608.671 448.784 612.761 470.862C616.851 492.938 614.167 512.116 603.809 526.909C593.451 541.702 576.347 550.783 554.204 554.491C532.058 558.198 504.912 556.522 474.552 549.832C413.834 536.453 340.363 503.043 268.547 452.757C196.732 402.471 140.208 344.858 106.869 292.378C90.1986 266.137 79.3388 241.201 75.2488 219.123C71.1591 197.047 73.843 177.868 84.201 163.076C94.559 148.283 111.663 139.201 133.806 135.494C155.952 131.786 183.098 133.463 213.458 140.152C274.176 153.532 347.647 186.942 419.463 237.227Z" stroke="url(#paint44_linear_272_20694)"/>
<path id="Ellipse 3_54" d="M421.333 238.561C492.26 290.092 547.769 348.684 580.187 401.738C596.397 428.266 606.82 453.387 610.524 475.533C614.228 497.677 611.21 516.806 600.595 531.416C589.98 546.025 572.721 554.807 550.516 558.127C528.309 561.448 501.196 559.298 470.958 552.08C410.483 537.643 337.605 502.956 266.678 451.424C195.752 399.893 140.242 341.301 107.824 288.247C91.614 261.719 81.1912 236.598 77.487 214.452C73.7833 192.308 76.8015 173.179 87.4161 158.569C98.0307 143.96 115.29 135.178 137.495 131.858C159.702 128.537 186.815 130.687 217.054 137.905C277.529 152.342 350.406 187.03 421.333 238.561Z" stroke="url(#paint45_linear_272_20694)"/>
<path id="Ellipse 3_53" d="M423.181 239.927C493.197 292.688 547.676 352.24 579.163 405.851C594.907 432.658 604.89 457.958 608.207 480.165C611.524 502.371 608.173 521.443 597.305 535.866C586.437 550.288 569.026 558.767 546.767 561.699C524.506 564.632 497.434 562.009 467.326 554.264C407.112 538.774 334.852 502.82 264.835 450.059C194.818 397.297 140.339 337.746 108.852 284.134C93.108 257.328 83.1251 232.028 79.808 209.82C76.4913 187.615 79.8429 168.542 90.7109 154.12C101.579 139.698 118.989 131.219 141.248 128.286C163.51 125.354 190.581 127.976 220.689 135.722C280.903 151.212 353.164 187.166 423.181 239.927Z" stroke="url(#paint46_linear_272_20694)"/>
<path id="Ellipse 3_52" d="M425.002 241.325C494.088 295.3 547.519 355.793 578.066 409.946C593.34 437.023 602.879 462.493 605.808 484.755C608.737 507.015 605.053 526.027 593.935 540.257C582.817 554.487 565.262 562.661 542.955 565.205C520.645 567.748 493.624 564.654 463.655 556.384C403.721 539.845 332.099 502.636 263.014 448.661C193.928 394.685 140.497 334.192 109.95 280.039C94.6765 252.962 85.1367 227.492 82.2077 205.23C79.279 182.97 82.963 163.959 94.081 149.728C105.199 135.498 122.755 127.324 145.062 124.781C167.371 122.237 194.392 125.331 224.361 133.601C284.295 150.14 355.917 187.349 425.002 241.325Z" stroke="url(#paint47_linear_272_20694)"/>
<path id="Ellipse 3_51" d="M426.798 242.753C494.931 297.926 547.298 359.342 576.895 414.02C591.694 441.36 600.788 466.993 603.328 489.303C605.868 511.61 601.853 530.554 590.488 544.589C579.123 558.623 561.428 566.489 539.08 568.643C516.729 570.797 489.766 567.231 459.947 558.44C400.31 540.857 329.348 502.404 261.216 447.231C193.083 392.058 140.716 330.642 111.119 275.964C96.3195 248.624 87.2257 222.991 84.6856 200.682C82.1459 178.374 86.1611 159.43 97.5258 145.396C108.89 131.361 126.586 123.495 148.934 121.341C171.284 119.188 198.248 122.753 228.067 131.545C287.704 149.127 358.665 187.581 426.798 242.753Z" stroke="url(#paint48_linear_272_20694)"/>
<path id="Ellipse 3_50" d="M428.572 244.215C495.731 300.568 547.019 362.889 575.657 418.075C589.977 445.669 598.622 471.457 600.772 493.807C602.922 516.156 598.577 535.027 586.969 548.861C575.361 562.695 557.531 570.251 535.149 572.014C512.764 573.778 485.867 569.742 456.206 560.431C396.885 541.811 326.605 502.125 259.446 445.771C192.286 389.418 140.999 327.097 112.361 271.911C98.041 244.317 89.3959 218.529 87.2456 196.179C85.0956 173.83 89.4408 154.959 101.049 141.125C112.657 127.292 130.487 119.735 152.869 117.972C175.253 116.208 202.15 120.244 231.812 129.555C291.132 148.175 361.412 187.861 428.572 244.215Z" stroke="url(#paint49_linear_272_20694)"/>
<path id="Ellipse 3_49" d="M430.315 245.706C496.481 303.223 546.673 366.429 574.344 422.107C588.18 449.947 596.374 475.881 598.133 498.266C599.893 520.648 595.219 539.441 583.372 553.07C571.524 566.699 553.565 573.943 531.155 575.315C508.743 576.688 481.921 572.183 452.427 562.357C393.44 542.704 323.863 501.797 257.698 444.28C191.532 386.763 141.34 323.557 113.669 267.879C99.8331 240.039 91.6394 214.105 89.8795 191.72C88.1198 169.338 92.7937 150.545 104.641 136.916C116.489 123.287 134.448 116.043 156.858 114.671C179.27 113.298 206.092 117.803 235.586 127.629C294.573 147.282 364.15 188.189 430.315 245.706Z" stroke="url(#paint50_linear_272_20694)"/>
<path id="Ellipse 3_48" d="M432.035 247.227C497.187 305.89 546.268 369.963 572.963 426.115C586.311 454.192 594.051 480.265 595.42 502.678C596.788 525.087 591.787 543.796 579.704 557.216C567.62 570.636 549.537 577.565 527.107 578.546C504.674 579.528 477.935 574.556 448.616 564.216C389.982 543.536 321.13 501.422 255.978 442.759C190.826 384.096 141.745 320.023 115.05 263.871C101.702 235.794 93.9619 209.721 92.593 187.308C91.2242 164.899 96.2254 146.19 108.309 132.77C120.393 119.35 138.475 112.421 160.906 111.439C183.338 110.458 210.078 115.43 239.396 125.77C298.031 146.449 366.883 188.564 432.035 247.227Z" stroke="url(#paint51_linear_272_20694)"/>
<path id="Ellipse 3_47" d="M433.728 248.778C497.846 308.569 545.802 373.489 571.513 430.098C584.369 458.404 591.652 484.608 592.63 507.041C593.607 529.471 588.28 548.089 575.964 561.297C563.648 574.504 545.447 581.116 523.003 581.706C500.557 582.296 473.908 576.858 444.775 566.008C386.51 544.308 318.404 500.998 254.285 441.207C190.167 381.416 142.212 316.496 116.501 259.887C103.645 231.581 96.3614 205.377 95.3838 182.944C94.4063 160.514 99.7332 141.896 112.049 128.689C124.365 115.481 142.566 108.869 165.01 108.279C187.456 107.69 214.105 113.127 243.239 123.978C301.504 145.677 369.61 188.987 433.728 248.778Z" stroke="url(#paint52_linear_272_20694)"/>
<path id="Ellipse 3_46" d="M435.394 250.358C498.459 311.259 545.274 377.006 569.993 434.055C582.353 462.581 589.178 488.909 589.764 511.355C590.35 533.799 584.699 552.321 572.154 565.312C559.61 578.302 541.296 584.596 518.845 584.794C496.392 584.991 469.842 579.089 440.902 567.732C383.025 545.019 315.685 500.527 252.62 439.626C189.555 378.725 142.74 312.979 118.021 255.929C105.661 227.404 98.8357 201.076 98.2498 178.63C97.6639 156.186 103.315 137.663 115.86 124.673C128.404 111.683 146.718 105.389 169.169 105.191C191.622 104.993 218.172 110.895 247.111 122.252C304.989 144.965 372.329 189.457 435.394 250.358Z" stroke="url(#paint53_linear_272_20694)"/>
<path id="Ellipse 3_45" d="M437.032 251.968C499.024 313.961 544.685 380.514 568.404 437.986C580.264 466.723 586.629 493.166 586.823 515.619C587.017 538.07 581.044 556.491 568.274 569.26C555.505 582.03 537.084 588.003 514.633 587.809C492.18 587.615 465.738 581.25 437 569.39C379.528 545.67 312.975 500.01 250.982 438.017C188.99 376.025 143.329 309.471 119.61 251.999C107.75 223.262 101.385 196.819 101.191 174.366C100.997 151.916 106.97 133.495 119.74 120.725C132.509 107.956 150.93 101.983 173.38 102.177C195.834 102.371 222.276 108.735 251.014 120.596C308.486 144.315 375.039 189.976 437.032 251.968Z" stroke="url(#paint54_linear_272_20694)"/>
<path id="Ellipse 3_44" d="M438.642 253.605C499.543 316.67 544.035 384.011 566.748 441.888C578.105 470.828 584.007 497.377 583.809 519.831C583.611 542.281 577.317 560.595 564.327 573.14C551.337 585.684 532.815 591.335 510.371 590.749C487.924 590.163 461.597 583.338 433.071 570.978C376.022 546.259 310.275 499.444 249.374 436.379C188.473 373.314 143.981 305.974 121.268 248.097C109.911 219.157 104.009 192.607 104.207 170.154C104.404 147.704 110.698 129.39 123.689 116.845C136.679 104.301 155.201 98.6495 177.645 99.2354C200.091 99.8213 226.419 106.647 254.945 119.006C311.994 143.725 377.741 190.541 438.642 253.605Z" stroke="url(#paint55_linear_272_20694)"/>
<path id="Ellipse 3_43" d="M440.223 255.271C500.014 319.39 543.324 387.496 565.023 445.761C575.873 474.894 581.311 501.543 580.722 523.989C580.132 546.433 573.52 564.634 560.312 576.95C547.105 589.266 528.487 594.593 506.057 593.616C483.624 592.638 457.419 585.355 429.114 572.499C372.505 546.788 307.585 498.832 247.794 434.714C188.003 370.596 144.693 302.49 122.993 244.225C112.143 215.091 106.705 188.442 107.295 165.996C107.884 143.552 114.497 125.351 127.704 113.035C140.912 100.719 159.53 95.3923 181.96 96.3698C204.393 97.3474 230.597 104.631 258.903 117.487C315.512 143.198 380.432 191.153 440.223 255.271Z" stroke="url(#paint56_linear_272_20694)"/>
<path id="Ellipse 3_42" d="M441.773 256.964C500.436 322.116 542.551 390.968 563.23 449.602C573.57 478.921 578.542 505.66 577.561 528.093C576.579 550.523 569.65 568.606 556.23 580.69C542.81 592.773 524.102 597.774 501.692 596.406C479.28 595.037 453.206 587.297 425.129 573.949C368.977 547.254 304.905 498.173 246.241 433.021C187.578 367.869 145.464 299.017 124.784 240.382C114.444 211.064 109.472 184.324 110.454 161.892C111.435 139.462 118.364 121.379 131.784 109.295C145.204 97.2115 163.913 92.2103 186.322 93.5791C208.735 94.948 234.808 102.688 262.885 116.036C319.037 142.731 383.11 191.812 441.773 256.964Z" stroke="url(#paint57_linear_272_20694)"/>
<path id="Ellipse 3_41" d="M443.296 258.684C500.813 324.849 541.72 394.426 561.373 453.413C571.199 482.907 575.704 509.729 574.331 532.141C572.959 554.551 565.715 572.51 552.086 584.358C538.457 596.205 519.664 600.879 497.282 599.12C474.897 597.36 448.962 589.166 421.123 575.33C365.445 547.659 302.239 497.467 244.722 431.302C187.205 365.136 146.298 295.559 126.645 236.573C116.819 207.078 112.314 180.256 113.687 157.844C115.059 135.434 122.303 117.475 135.932 105.627C149.561 93.7798 168.354 89.1059 190.736 90.8656C213.121 92.6255 239.055 100.819 266.895 114.655C322.573 142.326 385.779 192.518 443.296 258.684Z" stroke="url(#paint58_linear_272_20694)"/>
<path id="Ellipse 3_40" d="M444.787 260.429C501.14 327.589 540.827 397.869 559.447 457.189C568.758 486.851 572.793 513.748 571.03 536.132C569.266 558.515 561.71 576.345 547.877 587.952C534.043 599.56 515.171 603.906 492.823 601.756C470.472 599.605 444.685 590.96 417.091 576.64C361.905 548.002 299.584 496.715 243.23 429.555C186.877 362.396 147.191 292.116 128.57 232.795C119.26 203.134 115.224 176.237 116.988 153.852C118.751 131.47 126.307 113.64 140.141 102.032C153.975 90.4242 172.846 86.079 195.194 88.229C217.545 90.3793 243.333 99.0244 270.927 113.344C326.113 141.982 388.433 193.27 444.787 260.429Z" stroke="url(#paint59_linear_272_20694)"/>
<path id="Ellipse 3_39" d="M446.248 262.201C501.421 330.334 539.874 401.296 557.457 460.932C566.248 490.752 569.814 517.715 567.66 540.065C565.506 562.413 557.64 580.109 543.606 591.474C529.572 602.838 510.627 606.853 488.32 604.314C466.01 601.774 440.377 592.68 413.037 577.881C358.359 548.284 296.943 495.916 241.77 427.784C186.598 359.651 148.144 288.689 130.562 229.052C121.77 199.233 118.205 172.27 120.359 149.919C122.512 127.571 130.378 109.876 144.413 98.5111C158.447 87.1465 177.391 83.1313 199.699 85.671C222.008 88.2111 247.641 97.3049 274.981 112.104C329.659 141.701 391.075 194.068 446.248 262.201Z" stroke="url(#paint60_linear_272_20694)"/>
<path id="Ellipse 3_38" d="M447.675 263.998C501.651 333.083 538.86 404.705 555.399 464.64C563.669 494.608 566.763 521.629 564.219 543.939C561.676 566.246 553.502 583.801 539.272 594.919C525.041 606.037 506.03 609.721 483.77 606.793C461.508 603.864 436.038 594.324 408.961 579.05C354.808 548.503 294.315 495.072 240.339 425.987C186.364 356.901 149.155 285.279 132.616 225.345C124.346 195.377 121.252 168.355 123.795 146.046C126.339 123.739 134.513 106.183 148.743 95.0652C162.973 83.9472 181.985 80.2632 204.245 83.1919C226.507 86.1209 251.977 95.6607 279.054 110.935C333.207 141.482 393.7 194.913 447.675 263.998Z" stroke="url(#paint61_linear_272_20694)"/>
<path id="Ellipse 3_37" d="M449.074 265.82C501.835 335.837 537.789 408.098 553.279 468.311C561.025 498.42 563.647 525.491 560.715 547.752C557.782 570.012 549.303 587.422 534.881 598.29C520.459 609.158 501.386 612.509 479.181 609.193C456.973 605.876 431.673 595.893 404.866 580.149C351.255 548.661 291.704 494.183 238.942 424.166C186.181 354.149 150.227 281.888 134.737 221.675C126.992 191.566 124.369 164.495 127.302 142.234C130.234 119.974 138.713 102.564 153.135 91.6961C167.557 80.8282 186.63 77.4766 208.836 80.7933C231.043 84.1104 256.343 94.0932 283.15 109.837C336.761 141.325 396.312 195.803 449.074 265.82Z" stroke="url(#paint62_linear_272_20694)"/>
<path id="Ellipse 3_36" d="M450.442 267.666C501.973 338.593 536.66 411.47 551.097 471.945C558.316 502.184 560.466 529.297 557.145 551.504C553.825 573.708 545.043 590.968 530.433 601.583C515.824 612.197 496.695 615.215 474.551 611.512C452.405 607.808 427.283 597.385 400.755 581.175C347.701 548.757 289.11 493.247 237.579 422.32C186.047 351.393 151.36 278.516 136.923 218.041C129.704 187.802 127.555 160.69 130.875 138.483C134.196 116.278 142.977 99.0183 157.587 88.4037C172.197 77.7891 191.325 74.7708 213.469 78.4746C235.616 82.1787 260.737 92.6016 287.265 108.811C340.319 141.229 398.91 196.739 450.442 267.666Z" stroke="url(#paint63_linear_272_20694)"/>
<path id="Ellipse 3_35" d="M451.776 269.535C502.061 341.351 535.471 414.822 548.851 475.54C555.541 505.9 557.217 533.046 553.509 555.192C549.802 577.335 540.72 594.439 525.927 604.797C511.135 615.155 491.956 617.839 469.88 613.749C447.802 609.659 422.866 598.799 396.625 582.129C344.145 548.79 286.532 492.266 236.246 420.451C185.96 348.635 152.55 275.164 139.171 214.446C132.481 184.086 130.805 156.94 134.512 134.794C138.22 112.651 147.301 95.5469 162.094 85.1889C176.887 74.8309 196.065 72.147 218.141 76.2366C240.219 80.3267 265.155 91.1864 291.396 107.857C343.876 141.196 401.49 197.72 451.776 269.535Z" stroke="url(#paint64_linear_272_20694)"/>
<path id="Ellipse 3_34" d="M453.074 271.427C502.099 344.109 534.222 418.152 546.539 479.094C552.698 509.567 553.9 536.738 549.807 558.816C545.713 580.891 536.335 597.833 521.364 607.932C506.392 618.03 487.17 620.379 465.169 615.904C443.165 611.43 418.423 600.136 392.477 583.011C340.586 548.761 283.968 491.24 234.943 418.558C185.919 345.876 153.796 271.833 141.478 210.891C135.319 180.418 134.117 153.247 138.211 131.169C142.304 109.094 151.683 92.1515 166.654 82.0533C181.625 71.955 200.848 69.6062 222.849 74.0805C244.852 78.5553 269.595 89.8485 295.541 106.974C347.431 141.224 404.049 198.745 453.074 271.427Z" stroke="url(#paint65_linear_272_20694)"/>
<path id="Ellipse 3_33" d="M454.34 273.342C502.089 346.868 532.914 421.461 544.166 482.609C549.793 513.184 550.521 540.372 546.042 562.375C541.564 584.375 531.891 601.152 516.746 610.987C501.601 620.822 482.341 622.835 460.421 617.978C438.499 613.12 413.957 601.396 388.314 583.82C337.029 548.67 281.423 490.17 233.675 416.643C185.926 343.117 155.1 268.524 143.848 207.376C138.222 176.801 137.494 149.613 141.973 127.61C146.45 105.61 156.123 88.8335 171.268 78.9981C186.414 69.1626 205.674 67.1497 227.594 72.0073C249.516 76.8654 274.058 88.5887 299.701 106.165C350.985 141.315 406.591 199.815 454.34 273.342Z" stroke="url(#paint66_linear_272_20694)"/>
<path id="Ellipse 3_32" d="M455.574 275.278C502.032 349.627 531.551 424.747 541.734 486.081C546.826 516.75 547.079 543.947 542.217 565.868C537.356 587.787 527.392 604.392 512.078 613.962C496.763 623.531 477.47 625.208 455.639 619.968C433.805 614.728 409.472 602.578 384.139 584.558C333.476 548.518 278.899 489.056 232.441 414.707C185.983 340.358 156.464 265.239 146.28 203.904C141.189 173.236 140.935 146.039 145.797 124.118C150.658 102.199 160.622 85.5939 175.937 76.0242C191.252 66.4546 210.544 64.7781 232.376 70.0175C254.21 75.2575 278.543 87.4074 303.876 105.428C354.539 141.468 409.115 200.93 455.574 275.278Z" stroke="url(#paint67_linear_272_20694)"/>
<path id="Ellipse 3_31" d="M456.776 277.236C501.929 352.384 530.133 428.007 539.244 489.51C543.8 520.263 543.578 547.46 538.335 569.293C533.092 591.124 522.839 607.553 507.36 616.853C491.881 626.154 472.562 627.494 450.825 621.874C429.086 616.254 404.969 603.681 379.954 585.221C329.928 548.303 276.397 487.898 231.244 412.749C186.09 337.601 157.886 261.978 148.775 200.475C144.219 169.722 144.441 142.525 149.685 120.692C154.928 98.8611 165.18 82.4325 180.659 73.1317C196.138 63.8308 215.457 62.4912 237.194 68.1108C258.933 73.7311 283.051 86.3038 308.065 104.764C358.092 141.683 411.622 202.088 456.776 277.236Z" stroke="url(#paint68_linear_272_20694)"/>
<path id="Ellipse 3_30" d="M457.939 279.215C501.775 355.14 528.654 431.243 536.69 492.896C540.709 523.724 540.013 550.913 534.389 572.651C528.766 594.387 518.228 610.634 502.589 619.664C486.95 628.693 467.61 629.695 445.975 623.697C424.337 617.698 400.443 604.707 375.754 585.813C326.38 548.027 273.912 486.697 230.077 410.772C186.241 334.847 159.362 258.743 151.325 197.09C147.307 166.263 148.003 139.074 153.627 117.335C159.25 95.5993 169.788 79.3522 185.427 70.3229C201.066 61.2936 220.405 60.2914 242.041 66.2895C263.679 72.2883 287.573 85.28 312.261 104.174C361.636 141.96 414.104 203.29 457.939 279.215Z" stroke="url(#paint69_linear_272_20694)"/>
<path id="Ellipse 3_29" d="M459.069 281.213C501.572 357.891 527.12 434.452 534.079 496.236C537.559 527.129 536.388 554.302 530.386 575.938C524.384 597.573 513.565 613.634 497.77 622.389C481.976 631.144 462.622 631.808 441.094 625.433C419.565 619.058 395.9 605.651 371.546 586.329C322.838 547.687 271.448 485.451 228.945 408.772C186.441 332.094 160.894 255.533 153.935 193.749C150.455 162.856 151.626 135.683 157.628 114.047C163.63 92.4121 174.449 76.3514 190.244 67.5964C206.038 58.8414 225.392 58.1768 246.919 64.5516C268.449 70.9271 292.113 84.3339 316.468 103.656C365.176 142.298 416.565 204.534 459.069 281.213Z" stroke="url(#paint70_linear_272_20694)"/>
<path id="Ellipse 3_28" d="M460.165 283.23C501.324 360.639 525.531 437.634 531.411 499.53C534.351 530.479 532.707 557.627 526.328 579.156C519.949 600.682 508.851 616.552 492.906 625.03C476.962 633.508 457.599 633.834 436.186 627.085C414.771 620.335 391.344 606.517 367.33 586.773C319.305 547.287 269.009 484.163 227.85 406.754C186.691 329.346 162.484 252.351 156.604 190.455C153.664 159.506 155.309 132.358 161.688 110.829C168.066 89.3024 179.164 73.4329 195.109 64.9549C211.054 56.4769 230.416 56.1502 251.829 62.8997C273.245 69.65 296.671 83.4677 320.685 103.212C368.711 142.698 419.007 205.822 460.165 283.23Z" stroke="url(#paint71_linear_272_20694)"/>
<path id="Ellipse 3_27" d="M461.226 285.268C501.027 363.383 523.887 440.789 528.686 502.778C531.085 533.773 528.967 560.889 522.213 582.303C515.46 603.715 504.087 619.388 487.996 627.587C471.906 635.785 452.541 635.774 431.249 628.652C409.955 621.529 386.773 607.304 363.107 587.144C315.778 546.826 266.592 482.834 226.79 404.719C186.988 326.604 164.129 249.198 159.33 187.209C156.93 156.213 159.049 129.098 165.802 107.683C172.555 86.2716 183.929 70.5982 200.019 62.3998C216.11 54.2013 235.475 54.2126 256.767 61.3348C278.061 68.4578 301.243 82.6823 324.908 102.842C372.238 143.161 421.424 207.153 461.226 285.268Z" stroke="url(#paint72_linear_272_20694)"/>
<path id="Ellipse 3_26" d="M462.25 287.322C500.683 366.12 522.188 443.913 525.904 505.976C527.762 537.009 525.171 564.083 518.045 585.376C510.919 606.667 499.274 622.139 483.043 630.056C466.812 637.972 447.45 637.623 426.285 630.13C405.119 622.637 382.189 608.01 358.879 587.44C312.26 546.302 264.198 481.461 225.766 402.663C187.334 323.865 165.828 246.072 162.112 184.009C160.254 152.976 162.845 125.902 169.971 104.609C177.097 83.3181 188.742 67.8456 204.973 59.9292C221.204 52.0128 240.566 52.3621 261.731 59.8548C282.897 67.3484 305.827 81.9752 329.138 102.545C375.756 143.683 423.818 208.524 462.25 287.322Z" stroke="url(#paint73_linear_272_20694)"/>
<path id="Ellipse 3_25" d="M463.239 289.394C500.29 368.851 520.434 447.007 523.067 509.126C524.383 540.186 521.32 567.211 513.823 588.377C506.327 609.54 494.413 624.807 478.046 632.439C461.68 640.071 442.327 639.384 421.296 631.523C400.264 623.661 377.593 608.636 354.645 587.662C308.751 545.717 261.828 480.047 224.777 400.591C187.726 321.134 167.582 242.977 164.949 180.859C163.633 149.798 166.696 122.773 174.193 101.608C181.689 80.4447 193.603 65.1778 209.97 57.5459C226.336 49.914 245.689 50.6011 266.72 58.4621C287.752 66.3239 310.423 81.3487 333.371 102.322C379.265 144.268 426.188 209.938 463.239 289.394Z" stroke="url(#paint74_linear_272_20694)"/>
<path id="Ellipse 3_24" d="M464.192 291.484C499.85 371.575 518.628 450.071 520.176 512.226C520.95 543.305 517.415 570.272 509.55 591.304C501.686 612.333 489.507 627.389 473.01 634.734C456.513 642.08 437.175 641.055 416.285 632.828C395.392 624.6 372.987 609.182 350.409 587.811C305.254 545.071 259.484 478.592 223.826 398.501C188.167 318.41 169.39 239.914 167.842 177.759C167.068 146.68 170.602 119.713 178.467 98.6815C186.332 77.6524 198.51 62.5957 215.007 55.2506C231.505 47.9055 250.843 48.9303 271.733 57.1571C292.625 65.3847 315.03 80.8029 337.608 102.174C382.763 144.914 428.533 211.393 464.192 291.484Z" stroke="url(#paint75_linear_272_20694)"/>
<path id="Ellipse 3_23" d="M465.108 293.589C499.363 374.291 516.768 453.103 517.231 515.275C517.462 546.363 513.458 573.264 505.227 594.155C496.996 615.044 484.557 629.886 467.934 636.942C451.311 643.998 431.994 642.636 411.251 634.046C390.505 625.455 368.372 609.648 346.171 587.886C301.769 544.364 257.166 477.097 222.911 396.396C188.655 315.695 171.251 236.883 170.788 174.71C170.556 143.622 174.561 116.721 182.792 95.83C191.022 74.9414 203.461 60.0996 220.084 53.0435C236.707 45.9874 256.024 47.3495 276.768 55.9397C297.513 64.5307 319.646 80.3376 341.848 102.099C386.25 145.621 430.852 212.888 465.108 293.589Z" stroke="url(#paint76_linear_272_20694)"/>
<path id="Ellipse 3_22" d="M465.985 295.711C498.827 376.998 514.853 456.102 514.231 518.273C513.92 549.36 509.446 576.187 500.852 596.931C492.258 617.673 479.562 632.296 462.818 639.06C446.075 645.825 426.784 644.126 406.194 635.175C385.602 626.224 363.748 610.033 341.929 587.887C298.294 543.597 254.872 475.562 222.03 394.275C189.188 312.988 173.162 233.884 173.784 171.713C174.095 140.626 178.569 113.799 187.163 93.0546C195.757 72.3128 208.453 57.6903 225.196 50.9255C241.94 44.1606 261.231 45.8596 281.821 54.8104C302.413 63.7622 324.267 79.953 346.085 102.099C389.721 146.389 433.143 214.424 465.985 295.711Z" stroke="url(#paint77_linear_272_20694)"/>
<path id="Ellipse 3_21" d="M466.825 297.847C498.243 379.694 512.887 459.066 511.179 521.217C510.326 552.294 505.385 579.039 496.43 599.63C487.476 620.219 474.526 634.617 457.667 641.089C440.808 647.56 421.55 645.525 401.119 636.216C380.686 626.906 359.118 610.337 337.689 587.813C294.834 542.769 252.606 473.986 221.188 392.138C189.769 310.291 175.126 230.919 176.833 168.768C177.687 137.692 182.628 110.946 191.583 90.3553C200.537 69.7666 213.486 55.3679 230.346 48.8963C247.205 42.4247 266.463 44.4601 286.893 53.7689C307.326 63.0788 328.894 79.6484 350.323 102.172C393.179 147.217 435.407 215.999 466.825 297.847Z" stroke="url(#paint78_linear_272_20694)"/>
<path id="Ellipse 3_20" d="M467.63 299.998C497.615 382.382 510.871 461.996 508.079 524.108C506.683 555.165 501.277 581.82 491.963 602.252C482.651 622.681 469.452 636.852 452.483 643.028C435.513 649.204 416.294 646.833 396.029 637.169C375.761 627.504 354.486 610.561 333.453 587.667C291.39 541.881 250.369 472.372 220.384 389.988C190.399 307.605 177.143 227.99 179.935 165.878C181.331 134.821 186.738 108.166 196.051 87.7345C205.363 67.3052 218.562 53.1348 235.531 46.9583C252.501 40.7819 271.72 43.1532 291.985 52.8171C312.253 62.4821 333.528 79.4257 354.561 102.32C396.624 148.105 437.645 217.615 467.63 299.998Z" stroke="url(#paint79_linear_272_20694)"/>
<path id="Ellipse 3_19" d="M468.395 302.162C496.937 385.056 508.802 464.891 504.927 526.944C502.989 557.972 497.118 584.529 487.449 604.795C477.782 625.058 464.338 638.996 447.263 644.876C430.188 650.755 411.013 648.049 390.92 638.032C370.824 628.015 349.848 610.703 329.218 587.445C287.96 540.932 248.159 470.718 219.616 387.824C191.073 304.93 179.209 225.095 183.084 163.042C185.022 132.014 190.893 105.457 200.561 85.1914C210.229 64.9277 223.673 50.9897 240.747 45.1104C257.822 39.2311 276.997 41.9374 297.091 51.9536C317.187 61.9708 338.163 79.2831 358.793 102.541C400.05 149.054 439.852 219.268 468.395 302.162Z" stroke="url(#paint80_linear_272_20694)"/>
<path id="Ellipse 3_18" d="M469.126 304.34C496.218 387.72 506.687 467.749 501.729 529.725C499.251 560.715 492.917 587.165 482.896 607.259C472.877 627.351 459.191 641.052 442.017 646.632C424.842 652.213 405.717 649.172 385.801 638.807C365.884 628.44 345.212 610.765 324.992 587.151C284.552 539.925 245.982 469.026 218.89 385.647C191.799 302.267 181.33 222.238 186.287 160.261C188.766 129.272 195.1 102.822 205.12 82.7278C215.14 62.6359 228.825 48.9347 246 43.3543C263.175 37.7739 282.3 40.8144 302.215 51.1797C322.133 61.5462 342.804 79.2219 363.025 102.836C403.464 150.062 442.034 220.96 469.126 304.34Z" stroke="url(#paint81_linear_272_20694)"/>
<path id="Ellipse 3_17" d="M469.818 306.529C495.45 390.369 504.521 470.569 498.483 532.449C495.463 563.391 488.669 589.726 478.299 609.642C467.931 629.556 454.008 643.017 436.739 648.296C419.469 653.576 400.4 650.202 380.668 639.491C360.935 628.779 340.575 610.745 320.77 586.782C281.161 538.857 243.834 467.296 218.201 383.456C192.569 299.617 183.498 219.417 189.536 157.536C192.556 126.595 199.35 100.259 209.72 80.3434C220.088 60.4294 234.011 46.9692 251.28 41.6893C268.55 36.4095 287.619 39.7833 307.35 50.4947C327.084 61.2071 347.444 79.2409 367.249 103.204C406.858 151.129 444.185 222.69 469.818 306.529Z" stroke="url(#paint82_linear_272_20694)"/>
<path id="Ellipse 3_16" d="M470.469 308.731C494.634 393.005 502.304 473.351 495.186 535.117C491.628 566.001 484.375 592.214 473.659 611.946C462.944 631.676 448.789 644.891 431.43 649.868C414.071 654.846 395.064 651.14 375.522 640.086C355.978 629.031 335.936 610.644 316.552 586.339C277.786 537.73 241.713 465.529 217.548 381.255C193.383 296.98 185.713 216.635 192.83 154.869C196.389 123.985 203.642 97.7719 214.358 78.0398C225.072 58.3099 239.228 45.0946 256.587 40.117C273.946 35.1394 292.953 38.8455 312.495 49.8996C332.039 60.9548 352.08 79.3412 371.464 103.646C410.231 152.255 446.303 224.456 470.469 308.731Z" stroke="url(#paint83_linear_272_20694)"/>
<path id="Ellipse 3_15" d="M471.082 310.944C493.773 395.627 500.04 476.094 491.845 537.726C487.748 568.543 480.039 594.626 468.98 614.168C457.923 633.708 443.539 646.674 426.096 651.348C408.653 656.022 389.713 651.985 370.367 640.591C351.019 629.196 331.301 610.463 312.344 585.823C274.432 536.546 239.625 463.726 216.934 379.042C194.244 294.359 187.977 213.892 196.171 152.26C200.269 121.442 207.978 95.36 219.037 75.818C230.094 56.278 244.477 43.3118 261.921 38.6379C279.364 33.964 298.304 38.0013 317.65 49.3947C336.997 60.7894 356.715 79.5227 375.672 104.163C413.585 153.44 448.391 226.26 471.082 310.944Z" stroke="url(#paint84_linear_272_20694)"/>
<path id="Ellipse 3_14" d="M471.656 313.167C492.865 398.233 497.726 478.797 488.458 540.277C483.823 571.018 475.66 596.962 464.262 616.308C452.865 635.652 438.257 648.365 420.735 652.734C403.213 657.103 384.347 652.736 365.203 641.006C346.057 629.276 326.669 610.201 308.145 585.234C271.098 535.302 237.567 461.886 216.358 376.819C195.149 291.753 190.287 211.189 199.556 149.709C204.191 118.968 212.354 93.0241 223.752 73.6781C235.149 54.3341 249.756 41.6209 267.278 37.2521C284.801 32.8833 303.667 37.2505 322.811 48.9799C341.957 60.7105 361.345 79.7851 379.869 104.752C416.916 154.684 450.446 228.1 471.656 313.167Z" stroke="url(#paint85_linear_272_20694)"/>
<path id="Ellipse 3_13" d="M472.192 315.399C491.914 400.823 495.368 481.46 485.028 542.768C479.858 573.424 471.243 599.221 459.509 618.365C447.776 637.508 432.949 649.964 415.353 654.026C397.758 658.089 378.97 653.393 360.034 641.331C341.095 629.268 322.043 609.858 303.958 584.572C267.788 534.001 235.544 460.01 215.823 374.587C196.101 289.163 192.647 208.526 202.987 147.218C208.157 116.562 216.772 90.7648 228.506 71.6206C240.238 52.4785 255.066 40.0222 272.661 35.9599C290.257 31.8975 309.044 36.5934 327.981 48.655C346.919 60.718 365.971 80.128 384.057 105.414C420.226 155.985 452.471 229.976 472.192 315.399Z" stroke="url(#paint86_linear_272_20694)"/>
<path id="Ellipse 3_12" d="M472.689 317.641C490.917 403.395 492.964 484.08 481.555 545.199C475.85 575.76 466.787 601.403 454.72 620.339C442.656 639.274 427.613 651.469 409.949 655.224C392.285 658.979 373.583 653.956 354.86 641.565C336.135 629.174 317.424 609.434 299.783 583.836C264.501 532.641 233.553 458.1 215.326 372.345C197.098 286.59 195.051 205.905 206.46 144.786C212.165 114.226 221.229 88.5827 233.295 69.6462C245.359 50.7117 260.402 38.5161 278.066 34.7615C295.73 31.0069 314.432 36.0298 333.155 48.4201C351.88 60.8118 370.591 80.5514 388.232 106.15C423.514 157.344 454.462 231.886 472.689 317.641Z" stroke="url(#paint87_linear_272_20694)"/>
<path id="Ellipse 3_11" d="M473.146 319.891C489.875 405.95 490.513 486.659 478.039 547.569C471.802 578.026 462.292 603.507 449.897 622.23C437.504 640.951 422.251 652.882 404.524 656.328C386.797 659.773 368.186 654.425 349.682 641.71C331.176 628.993 312.813 608.93 295.621 583.028C261.238 531.225 231.596 456.155 214.867 370.095C198.139 284.035 197.501 203.327 209.974 142.416C216.211 111.96 225.722 86.479 238.116 67.756C250.51 49.035 265.763 37.1037 283.489 33.658C301.216 30.2122 319.828 35.5608 338.332 48.276C356.838 60.9925 375.201 81.0557 392.393 106.958C426.776 158.76 456.418 233.831 473.146 319.891Z" stroke="url(#paint88_linear_272_20694)"/>
<path id="Ellipse 3_10" d="M473.567 322.148C488.791 408.487 488.02 489.194 474.485 549.878C467.718 580.221 457.764 605.532 445.045 624.036C432.327 642.538 416.868 654.201 399.083 657.337C381.299 660.472 362.783 654.8 344.504 641.764C326.223 628.726 308.213 608.346 291.476 582.147C258.002 529.753 229.675 454.176 214.451 367.838C199.227 281.499 199.997 200.792 213.532 140.108C220.3 109.765 230.253 84.4542 242.973 65.9504C255.691 47.4485 271.15 35.7852 288.934 32.6494C306.718 29.5135 325.234 35.1861 343.513 48.2223C361.795 61.2599 379.805 81.6405 396.542 107.839C430.015 160.233 458.343 235.81 473.567 322.148Z" stroke="url(#paint89_linear_272_20694)"/>
<path id="Ellipse 3_9" d="M473.946 324.413C487.661 411.004 485.482 491.685 470.89 552.123C463.594 582.343 453.2 607.477 440.16 625.756C427.12 644.033 411.46 655.425 393.624 658.25C375.788 661.075 357.374 655.08 339.325 641.727C321.274 628.372 303.622 607.68 287.345 581.194C254.791 528.223 227.787 452.164 214.072 365.573C200.357 278.981 202.536 198.3 217.128 137.862C224.424 107.642 234.818 82.5081 247.858 64.2291C260.897 45.952 276.558 34.5603 294.394 31.7353C312.23 28.9103 330.644 34.9052 348.693 48.2584C366.744 61.6131 384.395 82.3049 400.673 108.791C433.227 161.762 460.231 237.821 473.946 324.413Z" stroke="url(#paint90_linear_272_20694)"/>
<path id="Ellipse 3_8" d="M474.283 326.683C486.485 413.501 482.898 494.132 467.254 554.306C459.431 584.394 448.601 609.343 435.243 627.391C421.887 645.438 406.03 656.555 388.147 659.068C370.264 661.581 351.958 655.266 334.145 641.6C316.33 627.932 299.042 606.935 283.229 580.169C251.605 526.638 225.932 450.119 213.731 363.302C201.529 276.484 205.116 195.853 220.76 135.679C228.583 105.591 239.413 80.6425 252.771 62.5938C266.127 44.5471 281.984 33.4305 299.866 30.9172C317.749 28.4039 336.056 34.7192 353.869 48.3854C371.684 62.0531 388.972 83.0498 404.785 109.816C436.409 163.347 462.082 239.866 474.283 326.683Z" stroke="url(#paint91_linear_272_20694)"/>
<path id="Ellipse 3_7" d="M474.584 328.96C485.269 415.977 480.275 496.533 463.583 556.425C455.237 586.372 443.972 611.128 430.302 628.941C416.633 646.751 400.585 657.59 382.661 659.79C364.737 661.991 346.543 655.357 328.971 641.382C311.397 627.406 294.479 606.111 279.135 579.072C248.45 524.998 224.117 448.042 213.432 361.025C202.748 274.008 207.741 193.452 224.433 133.56C232.78 103.613 244.044 78.8573 257.715 61.0445C271.384 43.2336 287.432 32.3954 305.356 30.1946C323.28 27.9938 341.473 34.6277 359.045 48.6027C376.619 62.5792 393.538 83.8744 408.881 110.913C439.566 164.987 463.9 241.943 474.584 328.96Z" stroke="url(#paint92_linear_272_20694)"/>
<path id="Ellipse 3_6" d="M474.843 331.241C484.007 418.431 477.608 498.888 459.873 558.479C451.006 588.276 439.311 612.832 425.332 630.403C411.354 647.973 395.119 658.529 377.159 660.417C359.199 662.304 341.125 655.354 323.799 641.074C306.472 626.793 289.928 605.206 275.058 577.904C245.321 523.302 222.335 445.934 213.171 358.744C204.007 271.553 210.405 191.096 228.14 131.505C237.008 101.708 248.702 77.1529 262.682 59.5814C276.66 42.0117 292.895 31.4552 310.854 29.5676C328.814 27.68 346.889 34.6303 364.214 48.9099C381.541 63.1909 398.086 84.7782 412.955 112.08C442.692 166.682 465.679 244.05 474.843 331.241Z" stroke="url(#paint93_linear_272_20694)"/>
<path id="Ellipse 3_5" d="M475.064 333.527C482.705 420.864 474.903 501.197 456.131 560.47C446.745 590.108 434.623 614.455 420.339 631.78C406.057 649.103 389.64 659.375 371.65 660.948C353.66 662.522 335.71 655.258 318.636 640.678C301.561 626.097 285.395 604.224 271.005 576.667C242.226 521.554 220.593 443.796 212.952 356.459C205.311 269.122 213.113 188.789 231.885 129.516C241.271 99.8789 253.392 75.5315 267.676 58.2066C281.959 40.8836 298.375 30.6121 316.365 29.0382C334.355 27.4642 352.306 34.729 369.38 49.3087C386.455 63.89 402.62 85.7627 417.01 113.32C445.79 168.433 467.423 246.19 475.064 333.527Z" stroke="url(#paint94_linear_272_20694)"/>
<path id="Ellipse 3_4" d="M475.245 335.816C481.361 423.273 472.158 503.458 452.355 562.394C442.452 591.863 429.908 615.996 415.324 633.068C400.741 650.14 384.148 660.123 366.133 661.383C348.119 662.642 330.297 655.066 313.481 640.19C296.663 625.313 280.882 603.161 266.974 575.357C239.161 519.751 218.889 441.627 212.773 354.17C206.657 266.713 215.86 186.529 235.664 127.592C245.566 98.1233 258.11 73.9911 272.695 56.9181C287.277 39.847 303.87 29.8636 321.885 28.6039C339.9 27.3442 357.721 34.9211 374.537 49.7966C391.356 64.6737 407.137 86.8252 421.044 114.629C448.857 170.236 469.13 248.359 475.245 335.816Z" stroke="url(#paint95_linear_272_20694)"/>
<path id="Ellipse 3_3" d="M475.385 338.107C479.973 425.658 469.373 505.67 448.543 564.251C438.128 593.543 425.165 617.453 410.285 634.268C395.407 651.083 378.641 660.775 360.608 661.72C342.574 662.665 324.887 654.778 308.333 639.612C291.777 624.443 276.385 602.02 262.965 573.977C236.127 517.894 217.221 439.428 212.632 351.878C208.044 264.327 218.645 184.316 239.474 125.734C249.889 96.4421 262.853 72.5325 277.732 55.7167C292.611 38.9027 309.376 29.2104 327.41 28.2652C345.444 27.3201 363.13 35.207 379.684 50.3736C396.24 65.542 411.632 87.9655 425.052 116.008C451.891 172.092 470.797 250.557 475.385 338.107Z" stroke="url(#paint96_linear_272_20694)"/>
<path id="Ellipse 3_2" d="M475.484 340.401C478.544 428.018 466.549 507.833 444.7 566.042C433.775 595.148 420.396 618.827 405.225 635.381C390.056 651.933 373.124 661.331 355.077 661.961C337.029 662.591 319.483 654.397 303.196 638.944C286.907 623.489 271.909 600.8 258.98 572.527C233.125 515.984 215.591 437.201 212.531 349.584C209.472 261.966 221.467 182.152 243.315 123.943C254.24 94.8371 267.619 71.1574 282.79 54.6038C297.96 38.0521 314.891 28.6538 332.939 28.0236C350.987 27.3933 368.533 35.5876 384.82 51.0409C401.109 66.4959 416.107 89.1846 429.035 117.457C454.891 174.001 472.425 252.784 475.484 340.401Z" stroke="url(#paint97_linear_272_20694)"/>
<path id="Ellipse 3_1" d="M475.545 342.696C477.075 430.353 463.688 509.946 440.827 567.765C429.396 596.676 415.606 620.118 400.148 636.405C384.692 652.689 367.599 661.791 349.543 662.106C331.488 662.421 314.087 653.922 298.072 638.186C282.056 622.45 267.456 599.503 255.023 571.009C230.158 514.023 214.002 434.945 212.472 347.288C210.942 259.631 224.328 180.038 247.189 122.219C258.62 93.3082 272.41 69.8656 287.868 53.5794C303.324 37.2948 320.417 28.1935 338.473 27.8783C356.529 27.5632 373.929 36.0624 389.944 51.7976C405.961 67.5345 420.561 90.4815 432.994 118.976C457.859 175.961 474.015 255.039 475.545 342.696Z" stroke="url(#paint98_linear_272_20694)"/>
<path id="Ellipse 3" d="M475.566 344.992C475.566 432.663 460.793 512.01 436.926 569.421C424.992 598.128 410.795 621.326 395.056 637.34C379.318 653.353 362.068 662.154 344.01 662.154C325.951 662.154 308.702 653.353 292.964 637.34C277.224 621.326 263.027 598.128 251.093 569.421C227.227 512.01 212.453 432.663 212.453 344.992C212.453 257.322 227.227 177.974 251.093 120.563C263.027 91.8566 277.224 68.6583 292.964 52.6443C308.702 36.632 325.951 27.8303 344.01 27.8303C362.068 27.8303 379.318 36.632 395.056 52.6443C410.795 68.6583 424.992 91.8566 436.926 120.563C460.793 177.974 475.566 257.322 475.566 344.992Z" stroke="url(#paint99_linear_272_20694)"/>
</g>
<defs>
<linearGradient id="paint0_linear_272_20694" x1="356.712" y1="420.995" x2="332.14" y2="265.848" gradientUnits="userSpaceOnUse">
<stop stop-color="#DAEAF3"/>
<stop offset="1" stop-color="#E1ECF3"/>
</linearGradient>
<linearGradient id="paint1_linear_272_20694" x1="355.383" y1="421.205" x2="333.522" y2="265.653" gradientUnits="userSpaceOnUse">
<stop stop-color="#DAEAF3"/>
<stop offset="1" stop-color="#E1ECF3"/>
</linearGradient>
<linearGradient id="paint2_linear_272_20694" x1="354.054" y1="421.392" x2="334.911" y2="265.482" gradientUnits="userSpaceOnUse">
<stop stop-color="#DAEAF3"/>
<stop offset="1" stop-color="#E1ECF3"/>
</linearGradient>
<linearGradient id="paint3_linear_272_20694" x1="352.717" y1="421.556" x2="336.298" y2="265.336" gradientUnits="userSpaceOnUse">
<stop stop-color="#DAEAF3"/>
<stop offset="1" stop-color="#E1ECF3"/>
</linearGradient>
<linearGradient id="paint4_linear_272_20694" x1="351.379" y1="421.696" x2="337.689" y2="265.213" gradientUnits="userSpaceOnUse">
<stop stop-color="#DAEAF3"/>
<stop offset="1" stop-color="#E1ECF3"/>
</linearGradient>
<linearGradient id="paint5_linear_272_20694" x1="350.04" y1="421.813" x2="339.082" y2="265.115" gradientUnits="userSpaceOnUse">
<stop stop-color="#DAEAF3"/>
<stop offset="1" stop-color="#E1ECF3"/>
</linearGradient>
<linearGradient id="paint6_linear_272_20694" x1="348.698" y1="421.906" x2="340.477" y2="265.041" gradientUnits="userSpaceOnUse">
<stop stop-color="#DAEAF3"/>
<stop offset="1" stop-color="#E1ECF3"/>
</linearGradient>
<linearGradient id="paint7_linear_272_20694" x1="347.355" y1="421.976" x2="341.873" y2="264.991" gradientUnits="userSpaceOnUse">
<stop stop-color="#DAEAF3"/>
<stop offset="1" stop-color="#E1ECF3"/>
</linearGradient>
<linearGradient id="paint8_linear_272_20694" x1="346.01" y1="422.023" x2="343.269" y2="264.966" gradientUnits="userSpaceOnUse">
<stop stop-color="#DAEAF3"/>
<stop offset="1" stop-color="#E1ECF3"/>
</linearGradient>
<linearGradient id="paint9_linear_272_20694" x1="344.665" y1="422.046" x2="344.665" y2="264.966" gradientUnits="userSpaceOnUse">
<stop stop-color="#DAEAF3"/>
<stop offset="1" stop-color="#E1ECF3"/>
</linearGradient>
<linearGradient id="paint10_linear_272_20694" x1="343.319" y1="422.046" x2="346.06" y2="264.99" gradientUnits="userSpaceOnUse">
<stop stop-color="#DAEAF3"/>
<stop offset="1" stop-color="#E1ECF3"/>
</linearGradient>
<linearGradient id="paint11_linear_272_20694" x1="341.975" y1="422.022" x2="347.457" y2="265.037" gradientUnits="userSpaceOnUse">
<stop stop-color="#DAEAF3"/>
<stop offset="1" stop-color="#E1ECF3"/>
</linearGradient>
<linearGradient id="paint12_linear_272_20694" x1="340.631" y1="421.975" x2="348.852" y2="265.109" gradientUnits="userSpaceOnUse">
<stop stop-color="#DAEAF3"/>
<stop offset="1" stop-color="#E1ECF3"/>
</linearGradient>
<linearGradient id="paint13_linear_272_20694" x1="339.289" y1="421.904" x2="350.247" y2="265.206" gradientUnits="userSpaceOnUse">
<stop stop-color="#DAEAF3"/>
<stop offset="1" stop-color="#E1ECF3"/>
</linearGradient>
<linearGradient id="paint14_linear_272_20694" x1="337.949" y1="421.811" x2="351.64" y2="265.328" gradientUnits="userSpaceOnUse">
<stop stop-color="#DAEAF3"/>
<stop offset="1" stop-color="#E1ECF3"/>
</linearGradient>
<linearGradient id="paint15_linear_272_20694" x1="336.608" y1="421.692" x2="353.028" y2="265.472" gradientUnits="userSpaceOnUse">
<stop stop-color="#DAEAF3"/>
<stop offset="1" stop-color="#E1ECF3"/>
</linearGradient>
<linearGradient id="paint16_linear_272_20694" x1="335.269" y1="421.552" x2="354.413" y2="265.643" gradientUnits="userSpaceOnUse">
<stop stop-color="#DAEAF3"/>
<stop offset="1" stop-color="#E1ECF3"/>
</linearGradient>
<linearGradient id="paint17_linear_272_20694" x1="333.933" y1="421.388" x2="355.795" y2="265.836" gradientUnits="userSpaceOnUse">
<stop stop-color="#DAEAF3"/>
<stop offset="1" stop-color="#E1ECF3"/>
</linearGradient>
<linearGradient id="paint18_linear_272_20694" x1="332.605" y1="421.2" x2="357.177" y2="266.054" gradientUnits="userSpaceOnUse">
<stop stop-color="#DAEAF3"/>
<stop offset="1" stop-color="#E1ECF3"/>
</linearGradient>
<linearGradient id="paint19_linear_272_20694" x1="331.275" y1="420.99" x2="358.552" y2="266.296" gradientUnits="userSpaceOnUse">
<stop stop-color="#DAEAF3"/>
<stop offset="1" stop-color="#E1ECF3"/>
</linearGradient>
<linearGradient id="paint20_linear_272_20694" x1="329.953" y1="420.757" x2="359.925" y2="266.562" gradientUnits="userSpaceOnUse">
<stop stop-color="#DAEAF3"/>
<stop offset="1" stop-color="#E1ECF3"/>
</linearGradient>
<linearGradient id="paint21_linear_272_20694" x1="328.631" y1="420.499" x2="361.29" y2="266.851" gradientUnits="userSpaceOnUse">
<stop stop-color="#DAEAF3"/>
<stop offset="1" stop-color="#E1ECF3"/>
</linearGradient>
<linearGradient id="paint22_linear_272_20694" x1="327.315" y1="420.219" x2="362.651" y2="267.165" gradientUnits="userSpaceOnUse">
<stop stop-color="#DAEAF3"/>
<stop offset="1" stop-color="#E1ECF3"/>
</linearGradient>
<linearGradient id="paint23_linear_272_20694" x1="326.005" y1="419.916" x2="364.006" y2="267.502" gradientUnits="userSpaceOnUse">
<stop stop-color="#DAEAF3"/>
<stop offset="1" stop-color="#E1ECF3"/>
</linearGradient>
<linearGradient id="paint24_linear_272_20694" x1="324.699" y1="419.59" x2="365.355" y2="267.862" gradientUnits="userSpaceOnUse">
<stop stop-color="#DAEAF3"/>
<stop offset="1" stop-color="#E1ECF3"/>
</linearGradient>
<linearGradient id="paint25_linear_272_20694" x1="323.403" y1="419.243" x2="366.701" y2="268.247" gradientUnits="userSpaceOnUse">
<stop stop-color="#DAEAF3"/>
<stop offset="1" stop-color="#E1ECF3"/>
</linearGradient>
<linearGradient id="paint26_linear_272_20694" x1="322.107" y1="418.872" x2="368.033" y2="268.655" gradientUnits="userSpaceOnUse">
<stop stop-color="#DAEAF3"/>
<stop offset="1" stop-color="#E1ECF3"/>
</linearGradient>
<linearGradient id="paint27_linear_272_20694" x1="320.823" y1="418.478" x2="369.363" y2="269.086" gradientUnits="userSpaceOnUse">
<stop stop-color="#DAEAF3"/>
<stop offset="1" stop-color="#E1ECF3"/>
</linearGradient>
<linearGradient id="paint28_linear_272_20694" x1="319.543" y1="418.062" x2="370.683" y2="269.54" gradientUnits="userSpaceOnUse">
<stop stop-color="#DAEAF3"/>
<stop offset="1" stop-color="#E1ECF3"/>
</linearGradient>
<linearGradient id="paint29_linear_272_20694" x1="318.271" y1="417.625" x2="371.995" y2="270.017" gradientUnits="userSpaceOnUse">
<stop stop-color="#DAEAF3"/>
<stop offset="1" stop-color="#E1ECF3"/>
</linearGradient>
<linearGradient id="paint30_linear_272_20694" x1="317.007" y1="417.164" x2="373.3" y2="270.517" gradientUnits="userSpaceOnUse">
<stop stop-color="#DAEAF3"/>
<stop offset="1" stop-color="#E1ECF3"/>
</linearGradient>
<linearGradient id="paint31_linear_272_20694" x1="315.753" y1="416.682" x2="374.597" y2="271.04" gradientUnits="userSpaceOnUse">
<stop stop-color="#DAEAF3"/>
<stop offset="1" stop-color="#E1ECF3"/>
</linearGradient>
<linearGradient id="paint32_linear_272_20694" x1="314.506" y1="416.178" x2="375.882" y2="271.585" gradientUnits="userSpaceOnUse">
<stop stop-color="#DAEAF3"/>
<stop offset="1" stop-color="#E1ECF3"/>
</linearGradient>
<linearGradient id="paint33_linear_272_20694" x1="313.269" y1="415.652" x2="377.159" y2="272.152" gradientUnits="userSpaceOnUse">
<stop stop-color="#DAEAF3"/>
<stop offset="1" stop-color="#E1ECF3"/>
</linearGradient>
<linearGradient id="paint34_linear_272_20694" x1="312.042" y1="415.104" x2="378.427" y2="272.741" gradientUnits="userSpaceOnUse">
<stop stop-color="#DAEAF3"/>
<stop offset="1" stop-color="#E1ECF3"/>
</linearGradient>
<linearGradient id="paint35_linear_272_20694" x1="310.821" y1="414.536" x2="379.681" y2="273.353" gradientUnits="userSpaceOnUse">
<stop stop-color="#DAEAF3"/>
<stop offset="1" stop-color="#E1ECF3"/>
</linearGradient>
<linearGradient id="paint36_linear_272_20694" x1="309.611" y1="413.947" x2="380.924" y2="273.987" gradientUnits="userSpaceOnUse">
<stop stop-color="#DAEAF3"/>
<stop offset="1" stop-color="#E1ECF3"/>
</linearGradient>
<linearGradient id="paint37_linear_272_20694" x1="308.413" y1="413.336" x2="382.158" y2="274.642" gradientUnits="userSpaceOnUse">
<stop stop-color="#DAEAF3"/>
<stop offset="1" stop-color="#E1ECF3"/>
</linearGradient>
<linearGradient id="paint38_linear_272_20694" x1="307.229" y1="412.704" x2="383.383" y2="275.318" gradientUnits="userSpaceOnUse">
<stop stop-color="#DAEAF3"/>
<stop offset="1" stop-color="#E1ECF3"/>
</linearGradient>
<linearGradient id="paint39_linear_272_20694" x1="306.049" y1="412.052" x2="384.59" y2="276.016" gradientUnits="userSpaceOnUse">
<stop stop-color="#DAEAF3"/>
<stop offset="1" stop-color="#E1ECF3"/>
</linearGradient>
<linearGradient id="paint40_linear_272_20694" x1="304.885" y1="411.38" x2="385.787" y2="276.735" gradientUnits="userSpaceOnUse">
<stop stop-color="#DAEAF3"/>
<stop offset="1" stop-color="#E1ECF3"/>
</linearGradient>
<linearGradient id="paint41_linear_272_20694" x1="303.734" y1="410.686" x2="386.974" y2="277.474" gradientUnits="userSpaceOnUse">
<stop stop-color="#DAEAF3"/>
<stop offset="1" stop-color="#E1ECF3"/>
</linearGradient>
<linearGradient id="paint42_linear_272_20694" x1="302.592" y1="409.973" x2="388.144" y2="278.235" gradientUnits="userSpaceOnUse">
<stop stop-color="#DAEAF3"/>
<stop offset="1" stop-color="#E1ECF3"/>
</linearGradient>
<linearGradient id="paint43_linear_272_20694" x1="301.465" y1="409.241" x2="389.303" y2="279.015" gradientUnits="userSpaceOnUse">
<stop stop-color="#DAEAF3"/>
<stop offset="1" stop-color="#E1ECF3"/>
</linearGradient>
<linearGradient id="paint44_linear_272_20694" x1="300.348" y1="408.488" x2="390.445" y2="279.815" gradientUnits="userSpaceOnUse">
<stop stop-color="#DAEAF3"/>
<stop offset="1" stop-color="#E1ECF3"/>
</linearGradient>
<linearGradient id="paint45_linear_272_20694" x1="299.247" y1="407.717" x2="391.576" y2="280.636" gradientUnits="userSpaceOnUse">
<stop stop-color="#DAEAF3"/>
<stop offset="1" stop-color="#E1ECF3"/>
</linearGradient>
<linearGradient id="paint46_linear_272_20694" x1="298.161" y1="406.926" x2="392.694" y2="281.476" gradientUnits="userSpaceOnUse">
<stop stop-color="#DAEAF3"/>
<stop offset="1" stop-color="#E1ECF3"/>
</linearGradient>
<linearGradient id="paint47_linear_272_20694" x1="297.087" y1="406.117" x2="393.796" y2="282.336" gradientUnits="userSpaceOnUse">
<stop stop-color="#DAEAF3"/>
<stop offset="1" stop-color="#E1ECF3"/>
</linearGradient>
<linearGradient id="paint48_linear_272_20694" x1="296.027" y1="405.288" x2="394.881" y2="283.213" gradientUnits="userSpaceOnUse">
<stop stop-color="#DAEAF3"/>
<stop offset="1" stop-color="#E1ECF3"/>
</linearGradient>
<linearGradient id="paint49_linear_272_20694" x1="294.984" y1="404.442" x2="395.953" y2="284.112" gradientUnits="userSpaceOnUse">
<stop stop-color="#DAEAF3"/>
<stop offset="1" stop-color="#E1ECF3"/>
</linearGradient>
<linearGradient id="paint50_linear_272_20694" x1="293.951" y1="403.578" x2="397.005" y2="285.028" gradientUnits="userSpaceOnUse">
<stop stop-color="#DAEAF3"/>
<stop offset="1" stop-color="#E1ECF3"/>
</linearGradient>
<linearGradient id="paint51_linear_272_20694" x1="292.936" y1="402.695" x2="398.043" y2="285.961" gradientUnits="userSpaceOnUse">
<stop stop-color="#DAEAF3"/>
<stop offset="1" stop-color="#E1ECF3"/>
</linearGradient>
<linearGradient id="paint52_linear_272_20694" x1="291.937" y1="401.795" x2="399.066" y2="286.913" gradientUnits="userSpaceOnUse">
<stop stop-color="#DAEAF3"/>
<stop offset="1" stop-color="#E1ECF3"/>
</linearGradient>
<linearGradient id="paint53_linear_272_20694" x1="290.954" y1="400.877" x2="400.071" y2="287.883" gradientUnits="userSpaceOnUse">
<stop stop-color="#DAEAF3"/>
<stop offset="1" stop-color="#E1ECF3"/>
</linearGradient>
<linearGradient id="paint54_linear_272_20694" x1="289.987" y1="399.943" x2="401.06" y2="288.87" gradientUnits="userSpaceOnUse">
<stop stop-color="#DAEAF3"/>
<stop offset="1" stop-color="#E1ECF3"/>
</linearGradient>
<linearGradient id="paint55_linear_272_20694" x1="289.037" y1="398.991" x2="402.031" y2="289.874" gradientUnits="userSpaceOnUse">
<stop stop-color="#DAEAF3"/>
<stop offset="1" stop-color="#E1ECF3"/>
</linearGradient>
<linearGradient id="paint56_linear_272_20694" x1="288.103" y1="398.024" x2="402.985" y2="290.896" gradientUnits="userSpaceOnUse">
<stop stop-color="#DAEAF3"/>
<stop offset="1" stop-color="#E1ECF3"/>
</linearGradient>
<linearGradient id="paint57_linear_272_20694" x1="287.185" y1="397.04" x2="403.919" y2="291.933" gradientUnits="userSpaceOnUse">
<stop stop-color="#DAEAF3"/>
<stop offset="1" stop-color="#E1ECF3"/>
</linearGradient>
<linearGradient id="paint58_linear_272_20694" x1="286.287" y1="396.041" x2="404.837" y2="292.987" gradientUnits="userSpaceOnUse">
<stop stop-color="#DAEAF3"/>
<stop offset="1" stop-color="#E1ECF3"/>
</linearGradient>
<linearGradient id="paint59_linear_272_20694" x1="285.405" y1="395.025" x2="405.736" y2="294.056" gradientUnits="userSpaceOnUse">
<stop stop-color="#DAEAF3"/>
<stop offset="1" stop-color="#E1ECF3"/>
</linearGradient>
<linearGradient id="paint60_linear_272_20694" x1="284.541" y1="393.995" x2="406.616" y2="295.141" gradientUnits="userSpaceOnUse">
<stop stop-color="#DAEAF3"/>
<stop offset="1" stop-color="#E1ECF3"/>
</linearGradient>
<linearGradient id="paint61_linear_272_20694" x1="283.693" y1="392.95" x2="407.474" y2="296.241" gradientUnits="userSpaceOnUse">
<stop stop-color="#DAEAF3"/>
<stop offset="1" stop-color="#E1ECF3"/>
</linearGradient>
<linearGradient id="paint62_linear_272_20694" x1="282.866" y1="391.89" x2="408.316" y2="297.357" gradientUnits="userSpaceOnUse">
<stop stop-color="#DAEAF3"/>
<stop offset="1" stop-color="#E1ECF3"/>
</linearGradient>
<linearGradient id="paint63_linear_272_20694" x1="282.059" y1="390.816" x2="409.14" y2="298.487" gradientUnits="userSpaceOnUse">
<stop stop-color="#DAEAF3"/>
<stop offset="1" stop-color="#E1ECF3"/>
</linearGradient>
<linearGradient id="paint64_linear_272_20694" x1="281.269" y1="389.728" x2="409.942" y2="299.63" gradientUnits="userSpaceOnUse">
<stop stop-color="#DAEAF3"/>
<stop offset="1" stop-color="#E1ECF3"/>
</linearGradient>
<linearGradient id="paint65_linear_272_20694" x1="280.496" y1="388.626" x2="410.722" y2="300.787" gradientUnits="userSpaceOnUse">
<stop stop-color="#DAEAF3"/>
<stop offset="1" stop-color="#E1ECF3"/>
</linearGradient>
<linearGradient id="paint66_linear_272_20694" x1="279.743" y1="387.511" x2="411.482" y2="301.958" gradientUnits="userSpaceOnUse">
<stop stop-color="#DAEAF3"/>
<stop offset="1" stop-color="#E1ECF3"/>
</linearGradient>
<linearGradient id="paint67_linear_272_20694" x1="279.011" y1="386.383" x2="412.222" y2="303.143" gradientUnits="userSpaceOnUse">
<stop stop-color="#DAEAF3"/>
<stop offset="1" stop-color="#E1ECF3"/>
</linearGradient>
<linearGradient id="paint68_linear_272_20694" x1="278.301" y1="385.242" x2="412.945" y2="304.339" gradientUnits="userSpaceOnUse">
<stop stop-color="#DAEAF3"/>
<stop offset="1" stop-color="#E1ECF3"/>
</linearGradient>
<linearGradient id="paint69_linear_272_20694" x1="277.606" y1="384.09" x2="413.642" y2="305.549" gradientUnits="userSpaceOnUse">
<stop stop-color="#DAEAF3"/>
<stop offset="1" stop-color="#E1ECF3"/>
</linearGradient>
<linearGradient id="paint70_linear_272_20694" x1="276.933" y1="382.924" x2="414.319" y2="306.77" gradientUnits="userSpaceOnUse">
<stop stop-color="#DAEAF3"/>
<stop offset="1" stop-color="#E1ECF3"/>
</linearGradient>
<linearGradient id="paint71_linear_272_20694" x1="276.282" y1="381.748" x2="414.976" y2="308.003" gradientUnits="userSpaceOnUse">
<stop stop-color="#DAEAF3"/>
<stop offset="1" stop-color="#E1ECF3"/>
</linearGradient>
<linearGradient id="paint72_linear_272_20694" x1="275.651" y1="380.561" x2="415.611" y2="309.248" gradientUnits="userSpaceOnUse">
<stop stop-color="#DAEAF3"/>
<stop offset="1" stop-color="#E1ECF3"/>
</linearGradient>
<linearGradient id="paint73_linear_272_20694" x1="275.041" y1="379.362" x2="416.224" y2="310.502" gradientUnits="userSpaceOnUse">
<stop stop-color="#DAEAF3"/>
<stop offset="1" stop-color="#E1ECF3"/>
</linearGradient>
<linearGradient id="paint74_linear_272_20694" x1="274.452" y1="378.153" x2="416.815" y2="311.768" gradientUnits="userSpaceOnUse">
<stop stop-color="#DAEAF3"/>
<stop offset="1" stop-color="#E1ECF3"/>
</linearGradient>
<linearGradient id="paint75_linear_272_20694" x1="273.884" y1="376.934" x2="417.384" y2="313.043" gradientUnits="userSpaceOnUse">
<stop stop-color="#DAEAF3"/>
<stop offset="1" stop-color="#E1ECF3"/>
</linearGradient>
<linearGradient id="paint76_linear_272_20694" x1="273.338" y1="375.705" x2="417.931" y2="314.329" gradientUnits="userSpaceOnUse">
<stop stop-color="#DAEAF3"/>
<stop offset="1" stop-color="#E1ECF3"/>
</linearGradient>
<linearGradient id="paint77_linear_272_20694" x1="272.811" y1="374.468" x2="418.453" y2="315.624" gradientUnits="userSpaceOnUse">
<stop stop-color="#DAEAF3"/>
<stop offset="1" stop-color="#E1ECF3"/>
</linearGradient>
<linearGradient id="paint78_linear_272_20694" x1="272.306" y1="373.22" x2="418.953" y2="316.928" gradientUnits="userSpaceOnUse">
<stop stop-color="#DAEAF3"/>
<stop offset="1" stop-color="#E1ECF3"/>
</linearGradient>
<linearGradient id="paint79_linear_272_20694" x1="271.825" y1="371.965" x2="419.433" y2="318.24" gradientUnits="userSpaceOnUse">
<stop stop-color="#DAEAF3"/>
<stop offset="1" stop-color="#E1ECF3"/>
</linearGradient>
<linearGradient id="paint80_linear_272_20694" x1="271.364" y1="370.701" x2="419.886" y2="319.561" gradientUnits="userSpaceOnUse">
<stop stop-color="#DAEAF3"/>
<stop offset="1" stop-color="#E1ECF3"/>
</linearGradient>
<linearGradient id="paint81_linear_272_20694" x1="270.929" y1="369.43" x2="420.322" y2="320.889" gradientUnits="userSpaceOnUse">
<stop stop-color="#DAEAF3"/>
<stop offset="1" stop-color="#E1ECF3"/>
</linearGradient>
<linearGradient id="paint82_linear_272_20694" x1="270.515" y1="368.15" x2="420.732" y2="322.224" gradientUnits="userSpaceOnUse">
<stop stop-color="#DAEAF3"/>
<stop offset="1" stop-color="#E1ECF3"/>
</linearGradient>
<linearGradient id="paint83_linear_272_20694" x1="270.121" y1="366.864" x2="421.116" y2="323.567" gradientUnits="userSpaceOnUse">
<stop stop-color="#DAEAF3"/>
<stop offset="1" stop-color="#E1ECF3"/>
</linearGradient>
<linearGradient id="paint84_linear_272_20694" x1="269.75" y1="365.571" x2="421.479" y2="324.916" gradientUnits="userSpaceOnUse">
<stop stop-color="#DAEAF3"/>
<stop offset="1" stop-color="#E1ECF3"/>
</linearGradient>
<linearGradient id="paint85_linear_272_20694" x1="269.401" y1="364.272" x2="421.816" y2="326.271" gradientUnits="userSpaceOnUse">
<stop stop-color="#DAEAF3"/>
<stop offset="1" stop-color="#E1ECF3"/>
</linearGradient>
<linearGradient id="paint86_linear_272_20694" x1="269.077" y1="362.967" x2="422.131" y2="327.632" gradientUnits="userSpaceOnUse">
<stop stop-color="#DAEAF3"/>
<stop offset="1" stop-color="#E1ECF3"/>
</linearGradient>
<linearGradient id="paint87_linear_272_20694" x1="268.774" y1="361.656" x2="422.422" y2="328.998" gradientUnits="userSpaceOnUse">
<stop stop-color="#DAEAF3"/>
<stop offset="1" stop-color="#E1ECF3"/>
</linearGradient>
<linearGradient id="paint88_linear_272_20694" x1="268.494" y1="360.341" x2="422.689" y2="330.369" gradientUnits="userSpaceOnUse">
<stop stop-color="#DAEAF3"/>
<stop offset="1" stop-color="#E1ECF3"/>
</linearGradient>
<linearGradient id="paint89_linear_272_20694" x1="268.24" y1="359.021" x2="422.934" y2="331.744" gradientUnits="userSpaceOnUse">
<stop stop-color="#DAEAF3"/>
<stop offset="1" stop-color="#E1ECF3"/>
</linearGradient>
<linearGradient id="paint90_linear_272_20694" x1="268.007" y1="357.696" x2="423.153" y2="333.123" gradientUnits="userSpaceOnUse">
<stop stop-color="#DAEAF3"/>
<stop offset="1" stop-color="#E1ECF3"/>
</linearGradient>
<linearGradient id="paint91_linear_272_20694" x1="267.795" y1="356.368" x2="423.346" y2="334.506" gradientUnits="userSpaceOnUse">
<stop stop-color="#DAEAF3"/>
<stop offset="1" stop-color="#E1ECF3"/>
</linearGradient>
<linearGradient id="paint92_linear_272_20694" x1="267.609" y1="355.036" x2="423.519" y2="335.892" gradientUnits="userSpaceOnUse">
<stop stop-color="#DAEAF3"/>
<stop offset="1" stop-color="#E1ECF3"/>
</linearGradient>
<linearGradient id="paint93_linear_272_20694" x1="267.444" y1="353.701" x2="423.664" y2="337.281" gradientUnits="userSpaceOnUse">
<stop stop-color="#DAEAF3"/>
<stop offset="1" stop-color="#E1ECF3"/>
</linearGradient>
<linearGradient id="paint94_linear_272_20694" x1="267.305" y1="352.364" x2="423.787" y2="338.674" gradientUnits="userSpaceOnUse">
<stop stop-color="#DAEAF3"/>
<stop offset="1" stop-color="#E1ECF3"/>
</linearGradient>
<linearGradient id="paint95_linear_272_20694" x1="267.189" y1="351.024" x2="423.887" y2="340.067" gradientUnits="userSpaceOnUse">
<stop stop-color="#DAEAF3"/>
<stop offset="1" stop-color="#E1ECF3"/>
</linearGradient>
<linearGradient id="paint96_linear_272_20694" x1="267.095" y1="349.682" x2="423.96" y2="341.461" gradientUnits="userSpaceOnUse">
<stop stop-color="#DAEAF3"/>
<stop offset="1" stop-color="#E1ECF3"/>
</linearGradient>
<linearGradient id="paint97_linear_272_20694" x1="267.024" y1="348.339" x2="424.009" y2="342.857" gradientUnits="userSpaceOnUse">
<stop stop-color="#DAEAF3"/>
<stop offset="1" stop-color="#E1ECF3"/>
</linearGradient>
<linearGradient id="paint98_linear_272_20694" x1="266.978" y1="346.994" x2="424.034" y2="344.253" gradientUnits="userSpaceOnUse">
<stop stop-color="#DAEAF3"/>
<stop offset="1" stop-color="#E1ECF3"/>
</linearGradient>
<linearGradient id="paint99_linear_272_20694" x1="266.956" y1="345.65" x2="424.037" y2="345.65" gradientUnits="userSpaceOnUse">
<stop stop-color="#DAEAF3"/>
<stop offset="1" stop-color="#E1ECF3"/>
</linearGradient>
</defs>
</svg>
