<svg width="504" height="504" viewBox="0 0 504 504" fill="none" xmlns="http://www.w3.org/2000/svg">
<g id="Looper-2" clip-path="url(#clip0_316_20116)">
<path id="Star 3_28" opacity="0.0344828" d="M61.0459 215.864L157.091 199.053C166.987 197.32 173.724 188.048 172.313 178.101L158.622 81.5616C156.275 65.01 177.087 55.7437 187.817 68.5634L250.398 143.335C256.846 151.04 268.245 152.238 276.154 146.042L352.914 85.9157C366.074 75.607 384.505 88.998 378.768 104.7L345.304 196.283C341.856 205.719 346.518 216.19 355.838 219.942L446.289 256.354C461.797 262.597 459.415 285.255 442.948 288.137L346.903 304.948C337.007 306.68 330.27 315.952 331.681 325.9L345.372 422.439C347.72 438.99 326.907 448.257 316.178 435.437L253.596 360.665C247.148 352.961 235.749 351.763 227.84 357.958L151.08 418.085C137.92 428.393 119.489 415.002 125.226 399.301L158.69 307.718C162.138 298.281 157.476 287.811 148.156 284.059L57.7054 247.646C42.1976 241.403 44.579 218.746 61.0459 215.864Z" stroke="#E1ECF3" stroke-width="2"/>
<path id="Star 3_27" opacity="0.0689655" d="M66.2776 206.407L160.919 194.907C170.893 193.695 178.106 184.788 177.217 174.78L168.789 79.8161C167.311 63.1643 188.58 55 198.624 68.3636L255.904 144.576C261.94 152.607 273.26 154.4 281.483 148.627L359.51 93.8455C373.192 84.2397 390.897 98.5769 384.346 113.957L346.984 201.669C343.047 210.912 347.154 221.612 356.265 225.847L442.721 266.03C457.881 273.076 454.317 295.577 437.722 297.594L343.08 309.094C333.107 310.306 325.894 319.213 326.782 329.22L335.211 424.185C336.688 440.836 315.42 449.001 305.376 435.637L248.096 359.425C242.059 351.394 230.739 349.601 222.516 355.374L144.489 410.155C130.807 419.761 113.102 405.424 119.654 390.044L157.015 302.332C160.952 293.088 156.845 282.388 147.734 278.154L61.2783 237.971C46.1185 230.925 49.6824 208.423 66.2776 206.407Z" stroke="#E1ECF3" stroke-width="2"/>
<path id="Star 3_26" opacity="0.103448" d="M71.9665 197.397L164.918 191.014C174.941 190.326 182.61 181.809 182.247 171.768L178.878 78.659C178.274 61.9527 199.941 54.9127 209.272 68.7837L261.275 146.091C266.883 154.427 278.093 156.81 286.607 151.475L365.558 102.003C379.724 93.1266 396.654 108.371 389.307 123.387L348.358 207.076C343.943 216.101 347.485 227.001 356.361 231.707L438.681 275.344C453.451 283.174 448.714 305.458 432.036 306.603L339.085 312.986C329.062 313.674 321.393 322.192 321.756 332.232L325.124 425.341C325.729 442.047 304.062 449.088 294.731 435.217L242.728 357.91C237.12 349.573 225.909 347.19 217.396 352.525L138.445 401.997C124.279 410.874 107.349 395.629 114.696 380.613L155.644 296.924C160.06 287.899 156.518 276.999 147.641 272.293L65.3221 228.656C50.5518 220.826 55.2884 198.542 71.9665 197.397Z" stroke="#E1ECF3" stroke-width="2"/>
<path id="Star 3_25" opacity="0.137931" d="M78.0775 188.855L169.068 187.381C179.114 187.219 187.218 179.114 187.381 169.069L188.855 78.078C189.126 61.3629 211.131 55.4665 219.723 69.8068L266.495 147.87C271.659 156.488 282.73 159.455 291.511 154.573L371.048 110.354C385.659 102.231 401.768 118.34 393.645 132.951L349.426 212.489C344.545 221.27 347.511 232.341 356.129 237.504L434.193 284.276C448.533 292.868 442.637 314.874 425.921 315.145L334.931 316.619C324.885 316.781 316.781 324.886 316.618 334.931L315.144 425.922C314.873 442.637 292.868 448.534 284.276 434.193L237.504 356.13C232.34 347.512 221.269 344.545 212.488 349.427L132.951 393.646C118.34 401.769 102.23 385.66 110.354 371.049L154.572 291.511C159.454 282.73 156.488 271.659 147.869 266.496L69.8062 219.724C55.4659 211.132 61.3624 189.126 78.0775 188.855Z" stroke="#E1ECF3" stroke-width="2"/>
<path id="Star 3_24" opacity="0.172414" d="M84.582 180.802L173.359 184.014C183.399 184.377 191.917 176.708 192.605 166.685L198.691 78.0581C199.836 61.3801 222.12 56.6435 229.95 71.4138L271.557 149.903C276.262 158.78 287.163 162.321 296.187 157.906L375.983 118.863C390.999 111.516 406.243 128.446 397.367 142.612L350.197 217.889C344.862 226.403 347.245 237.614 355.581 243.221L429.291 292.805C443.162 302.135 436.122 323.803 419.416 323.198L330.639 319.986C320.598 319.623 312.081 327.292 311.393 337.316L305.307 425.942C304.162 442.62 281.878 447.357 274.048 432.586L232.441 354.097C227.735 345.22 216.835 341.679 207.81 346.094L128.015 385.137C112.999 392.485 97.7544 375.554 106.631 361.388L153.801 286.111C159.136 277.597 156.753 266.386 148.417 260.779L74.7065 211.195C60.8356 201.865 67.8756 180.198 84.582 180.802Z" stroke="#E1ECF3" stroke-width="2"/>
<path id="Star 3_23" opacity="0.206897" d="M91.4504 173.254L177.779 180.916C187.786 181.804 196.693 174.591 197.905 164.618L208.359 78.5829C210.376 61.9877 232.877 58.4238 239.923 73.5837L276.452 152.177C280.687 161.288 291.387 165.395 300.63 161.458L380.365 127.494C395.745 120.943 410.083 138.648 400.477 152.33L350.677 223.261C344.904 231.484 346.697 242.804 354.729 248.841L424.01 300.912C437.374 310.955 429.209 332.224 412.557 330.746L326.229 323.084C316.221 322.196 307.314 329.409 306.102 339.383L295.648 425.417C293.632 442.013 271.13 445.577 264.084 430.417L227.556 351.823C223.321 342.712 212.621 338.605 203.378 342.542L123.642 376.506C108.262 383.057 93.925 365.352 103.531 351.67L153.33 280.739C159.104 272.516 157.311 261.196 149.279 255.16L79.9978 203.089C66.6342 193.045 74.7986 171.776 91.4504 173.254Z" stroke="#E1ECF3" stroke-width="2"/>
<path id="Star 3_22" opacity="0.241379" d="M98.636 166.226L182.299 178.091C192.246 179.502 201.519 172.765 203.251 162.869L217.82 79.6338C220.702 63.1669 243.359 60.7855 249.602 76.2934L281.158 154.68C284.91 164 295.38 168.662 304.817 165.214L384.185 136.213C399.887 130.476 413.278 148.907 402.969 162.068L350.862 228.589C344.667 236.499 345.865 247.897 353.569 254.345L418.368 308.58C431.188 319.309 421.921 340.122 405.37 337.774L321.707 325.909C311.759 324.498 302.487 331.235 300.755 341.132L286.186 424.366C283.304 440.833 260.647 443.215 254.404 427.707L222.848 349.32C219.096 340 208.625 335.338 199.189 338.786L119.821 367.787C104.119 373.524 90.728 355.093 101.037 341.933L153.144 275.411C159.339 267.502 158.141 256.103 150.437 249.655L85.6377 195.42C72.818 184.691 82.0844 163.878 98.636 166.226Z" stroke="#E1ECF3" stroke-width="2"/>
<path id="Star 3_21" opacity="0.275862" d="M106.107 159.731L186.907 175.543C196.767 177.472 206.379 171.23 208.627 161.438L227.047 81.192C230.787 64.8985 253.538 63.7062 258.961 79.5195L285.668 157.4C288.927 166.904 299.139 172.107 308.743 169.158L387.448 144.987C403.429 140.079 415.837 159.186 404.853 171.789L350.76 233.858C344.159 241.432 344.759 252.878 352.116 259.721L412.4 315.796C424.641 327.182 414.298 347.481 397.892 344.27L317.092 328.459C307.232 326.529 297.62 332.772 295.372 342.564L276.952 422.81C273.212 439.103 250.461 440.295 245.038 424.482L218.331 346.601C215.072 337.098 204.86 331.894 195.256 334.844L116.551 359.015C100.57 363.922 88.1622 344.816 99.1455 332.213L153.239 270.143C159.839 262.569 159.24 251.124 151.883 244.281L91.5984 188.206C79.3579 176.82 89.7007 156.521 106.107 159.731Z" stroke="#E1ECF3" stroke-width="2"/>
<path id="Star 3_20" opacity="0.310345" d="M113.834 153.779L191.593 173.27C201.339 175.713 211.264 169.982 214.022 160.321L236.021 83.2339C240.609 67.1584 263.391 67.1584 267.979 83.2339L289.978 160.321C292.736 169.982 302.661 175.713 312.407 173.27L390.166 153.779C406.382 149.714 417.773 169.444 406.145 181.455L350.385 239.051C343.397 246.269 343.397 257.731 350.385 264.949L406.145 322.545C417.773 334.556 406.382 354.286 390.166 350.221L312.407 330.73C302.661 328.287 292.736 334.017 289.978 343.679L267.979 420.766C263.391 436.841 240.609 436.841 236.021 420.766L214.022 343.679C211.264 334.017 201.339 328.287 191.593 330.73L113.834 350.221C97.618 354.286 86.227 334.556 97.8549 322.545L153.615 264.949C160.603 257.731 160.603 246.269 153.615 239.051L97.8549 181.455C86.227 169.444 97.618 149.714 113.834 153.779Z" stroke="#E1ECF3" stroke-width="2"/>
<path id="Star 3_19" opacity="0.344828" d="M121.778 148.379L196.339 171.277C205.943 174.226 216.155 169.023 219.414 159.519L244.715 85.7395C250.138 69.9262 272.889 71.1185 276.629 87.412L294.079 163.432C296.327 173.225 305.939 179.467 315.799 177.538L392.345 162.559C408.751 159.348 419.094 179.647 406.853 191.033L349.743 244.156C342.386 250.999 341.786 262.444 348.387 270.018L399.632 328.82C410.616 341.423 398.208 360.529 382.227 355.621L307.666 332.724C298.062 329.774 287.85 334.977 284.591 344.481L259.29 418.261C253.867 434.074 231.116 432.882 227.376 416.589L209.926 340.568C207.678 330.776 198.066 324.533 188.206 326.463L111.66 341.442C95.2541 344.652 84.9112 324.353 97.1518 312.967L154.262 259.845C161.619 253.002 162.219 241.556 155.618 233.982L104.373 175.181C93.3895 162.578 105.797 143.471 121.778 148.379Z" stroke="#E1ECF3" stroke-width="2"/>
<path id="Star 3_18" opacity="0.37931" d="M129.897 143.536L201.122 169.561C210.558 173.009 221.029 168.348 224.781 159.028L253.099 88.6836C259.342 73.1757 281.999 75.5571 284.881 92.024L297.955 166.719C299.688 176.615 308.96 183.352 318.907 181.941L393.986 171.293C410.538 168.946 419.804 189.758 406.985 200.488L348.834 249.158C341.13 255.606 339.932 267.005 346.127 274.914L392.888 334.61C403.196 347.771 389.805 366.202 374.104 360.464L302.879 334.439C293.442 330.991 282.972 335.653 279.22 344.973L250.902 415.317C244.659 430.825 222.002 428.444 219.119 411.977L206.046 337.282C204.313 327.386 195.041 320.649 185.093 322.06L110.015 332.707C93.463 335.055 84.1967 314.242 97.0164 303.513L155.167 254.843C162.871 248.395 164.069 236.996 157.874 229.087L111.113 169.391C100.804 156.23 114.195 137.799 129.897 143.536Z" stroke="#E1ECF3" stroke-width="2"/>
<path id="Star 3_17" opacity="0.413793" d="M138.159 139.255L205.929 168.122C215.173 172.059 225.873 167.952 230.107 158.841L261.155 92.0409C268.201 76.881 290.702 80.4449 292.719 97.0401L301.604 170.165C302.816 180.139 311.723 187.351 321.731 186.463L395.105 179.951C411.757 178.473 419.921 199.742 406.558 209.786L347.672 254.043C339.641 260.079 337.848 271.4 343.621 279.622L385.948 339.91C395.554 353.592 381.216 371.297 365.836 364.746L298.066 335.878C288.822 331.941 278.122 336.048 273.888 345.159L242.84 411.96C235.794 427.119 213.293 423.556 211.276 406.96L202.391 333.836C201.179 323.862 192.272 316.649 182.264 317.537L108.89 324.05C92.2383 325.527 84.0739 304.259 97.4376 294.215L156.323 249.957C164.354 243.921 166.147 232.601 160.374 224.378L118.047 164.09C108.441 150.408 122.779 132.703 138.159 139.255Z" stroke="#E1ECF3" stroke-width="2"/>
<path id="Star 3_16" opacity="0.448276" d="M146.533 135.535L210.753 166.958C219.777 171.373 230.678 167.831 235.383 158.955L268.869 95.786C276.699 81.0157 298.983 85.7523 300.128 102.43L305.026 173.758C305.714 183.781 314.232 191.45 324.272 191.087L395.72 188.502C412.427 187.898 419.467 209.565 405.596 218.895L346.273 258.8C337.937 264.408 335.554 275.619 340.889 284.133L378.852 344.716C387.728 358.882 372.484 375.813 357.468 368.465L293.248 337.043C284.223 332.628 273.323 336.169 268.617 345.046L235.132 408.215C227.302 422.985 205.018 418.248 203.873 401.57L198.975 330.243C198.287 320.22 189.769 312.551 179.729 312.914L108.28 315.499C91.574 316.103 84.534 294.436 98.405 285.106L157.727 245.2C166.064 239.593 168.447 228.382 163.112 219.868L125.149 159.285C116.272 145.119 131.517 128.188 146.533 135.535Z" stroke="#E1ECF3" stroke-width="2"/>
<path id="Star 3_15" opacity="0.482759" d="M154.977 132.377L215.57 166.064C224.351 170.946 235.422 167.98 240.586 159.361L276.218 99.8912C284.81 85.5509 306.815 91.4473 307.086 108.162L308.209 177.481C308.372 187.527 316.476 195.631 326.522 195.794L395.84 196.917C412.555 197.187 418.452 219.193 404.112 227.785L344.641 263.417C336.023 268.581 333.057 279.651 337.938 288.433L371.625 349.026C379.748 363.637 363.639 379.746 349.028 371.623L288.435 337.936C279.654 333.054 268.583 336.021 263.419 344.639L227.787 404.109C219.195 418.45 197.19 412.553 196.919 395.838L195.796 326.52C195.633 316.474 187.529 308.37 177.483 308.207L108.165 307.084C91.4496 306.813 85.5532 284.807 99.8935 276.215L159.364 240.584C167.982 235.42 170.949 224.349 166.067 215.568L132.38 154.975C124.257 140.364 140.366 124.254 154.977 132.377Z" stroke="#E1ECF3" stroke-width="2"/>
<path id="Star 3_14" opacity="0.517241" d="M163.452 129.778L220.363 165.439C228.876 170.774 240.087 168.391 245.695 160.055L283.18 104.329C292.511 90.4583 314.178 97.4984 313.574 114.205L311.146 181.321C310.782 191.361 318.451 199.879 328.475 200.567L395.477 205.168C412.155 206.313 416.892 228.597 402.121 236.427L342.783 267.882C333.906 272.588 330.364 283.488 334.78 292.513L364.297 352.839C371.644 367.855 354.714 383.099 340.548 374.223L283.638 338.562C275.124 333.227 263.913 335.61 258.305 343.946L220.82 399.672C211.489 413.543 189.822 406.503 190.426 389.796L192.855 322.68C193.218 312.64 185.549 304.122 175.525 303.434L108.523 298.833C91.845 297.688 87.1083 275.404 101.879 267.574L161.217 236.119C170.094 231.413 173.636 220.513 169.22 211.488L139.703 151.162C132.356 136.146 149.286 120.902 163.452 129.778Z" stroke="#E1ECF3" stroke-width="2"/>
<path id="Star 3_13" opacity="0.551724" d="M171.933 127.731L225.125 165.077C233.348 170.85 244.668 169.057 250.704 161.025L289.753 109.071C299.797 95.707 321.066 103.871 319.588 120.523L313.842 185.261C312.954 195.269 320.166 204.176 330.14 205.388L394.658 213.228C411.253 215.244 414.817 237.746 399.657 244.792L340.72 272.185C331.609 276.419 327.501 287.119 331.439 296.363L356.908 356.157C363.46 371.537 345.755 385.874 332.073 376.268L278.881 338.923C270.658 333.15 259.338 334.943 253.301 342.975L214.253 394.929C204.209 408.293 182.94 400.128 184.418 383.477L190.164 318.739C191.052 308.731 183.839 299.824 173.866 298.612L109.348 290.772C92.7524 288.756 89.1885 266.254 104.348 259.208L163.286 231.815C172.397 227.581 176.504 216.88 172.567 207.637L147.097 147.843C140.546 132.463 158.251 118.126 171.933 127.731Z" stroke="#E1ECF3" stroke-width="2"/>
<path id="Star 3_12" opacity="0.586207" d="M180.374 126.231L229.832 164.972C237.742 171.168 249.14 169.97 255.589 162.265L295.911 114.088C306.641 101.268 327.453 110.534 325.106 127.086L316.284 189.289C314.873 199.236 321.61 208.509 331.507 210.241L393.391 221.073C409.858 223.955 412.239 246.612 396.732 252.855L338.452 276.317C329.131 280.068 324.47 290.539 327.918 299.976L349.479 358.985C355.217 374.687 336.786 388.078 323.625 377.769L274.167 339.028C266.258 332.832 254.859 334.03 248.411 341.735L208.088 389.913C197.358 402.732 176.546 393.466 178.893 376.914L187.715 314.712C189.126 304.764 182.389 295.492 172.493 293.76L110.608 282.928C94.1412 280.046 91.7598 257.388 107.268 251.145L165.548 227.684C174.868 223.932 179.53 213.461 176.081 204.025L154.52 145.015C148.782 129.313 167.214 115.922 180.374 126.231Z" stroke="#E1ECF3" stroke-width="2"/>
<path id="Star 3_11" opacity="0.62069" d="M188.751 125.267L234.48 165.12C242.055 171.721 253.5 171.121 260.343 163.764L301.656 119.35C313.041 107.109 333.34 117.452 330.13 133.858L318.481 193.387C316.552 203.247 322.794 212.859 332.586 215.107L391.707 228.678C408 232.418 409.192 255.169 393.379 260.592L336.001 280.268C326.498 283.527 321.294 293.739 324.244 303.343L342.051 361.328C346.959 377.309 327.852 389.717 315.249 378.733L269.521 338.881C261.946 332.28 250.501 332.88 243.658 340.236L202.345 384.65C190.959 396.891 170.66 386.548 173.871 370.142L185.52 310.613C187.449 300.753 181.207 291.141 171.414 288.893L112.294 275.323C96.0008 271.582 94.8085 248.832 110.622 243.409L168 223.733C177.503 220.474 182.707 210.262 179.757 200.657L161.95 142.672C157.042 126.692 176.149 114.284 188.751 125.267Z" stroke="#E1ECF3" stroke-width="2"/>
<path id="Star 3_10" opacity="0.655172" d="M197.029 124.828L239.052 165.511C246.271 172.5 257.732 172.5 264.95 165.511L306.974 124.828C318.985 113.2 338.714 124.591 334.65 140.807L320.428 197.542C317.986 207.287 323.716 217.213 333.377 219.97L389.622 236.021C405.698 240.609 405.698 263.391 389.622 267.979L333.377 284.03C323.716 286.788 317.986 296.713 320.428 306.459L334.65 363.194C338.714 379.409 318.985 390.8 306.974 379.173L264.95 338.489C257.732 331.501 246.271 331.501 239.052 338.489L197.029 379.172C185.018 390.8 165.288 379.409 169.353 363.194L183.574 306.459C186.017 296.713 180.287 286.788 170.625 284.03L114.381 267.979C98.3053 263.391 98.3053 240.609 114.381 236.021L170.625 219.97C180.287 217.213 186.017 207.287 183.574 197.542L169.353 140.807C165.288 124.591 185.018 113.2 197.029 124.828Z" stroke="#E1ECF3" stroke-width="2"/>
<path id="Star 3_9" opacity="0.689655" d="M205.169 124.888L243.529 166.128C250.372 173.485 261.818 174.085 269.392 167.484L311.853 130.479C324.456 119.496 343.562 131.904 338.655 147.885L322.12 201.725C319.17 211.33 324.374 221.542 333.877 224.801L387.154 243.071C402.968 248.494 401.775 271.244 385.482 274.985L330.587 287.586C320.795 289.833 314.552 299.446 316.482 309.306L327.298 364.58C330.509 380.986 310.21 391.329 298.824 379.088L260.464 337.848C253.621 330.492 242.175 329.892 234.601 336.493L192.14 373.497C179.537 384.481 160.431 372.073 165.338 356.092L181.873 302.251C184.823 292.647 179.619 282.435 170.116 279.176L116.838 260.906C101.025 255.483 102.217 232.732 118.511 228.992L173.406 216.391C183.198 214.143 189.441 204.531 187.511 194.671L176.695 139.397C173.484 122.991 193.783 112.648 205.169 124.888Z" stroke="#E1ECF3" stroke-width="2"/>
<path id="Star 3_8" opacity="0.724138" d="M213.156 125.457L247.914 166.986C254.362 174.691 265.761 175.889 273.67 169.693L316.303 136.298C329.464 125.99 347.895 139.381 342.157 155.082L323.571 205.948C320.123 215.385 324.785 225.856 334.105 229.607L384.342 249.831C399.85 256.074 397.469 278.731 381.002 281.614L327.658 290.951C317.761 292.683 311.024 301.955 312.435 311.903L320.039 365.521C322.387 382.073 301.574 391.339 290.845 378.52L256.087 336.991C249.638 329.286 238.24 328.088 230.33 334.284L187.697 367.678C174.537 377.987 156.106 364.596 161.843 348.894L180.429 298.028C183.877 288.592 179.216 278.121 169.896 274.369L119.658 254.145C104.15 247.902 106.532 225.245 122.999 222.363L176.343 213.026C186.239 211.294 192.976 202.021 191.565 192.074L183.961 138.455C181.614 121.904 202.426 112.637 213.156 125.457Z" stroke="#E1ECF3" stroke-width="2"/>
<path id="Star 3_6" opacity="0.793103" d="M228.521 128.014L256.328 169.352C261.936 177.688 273.147 180.071 281.66 174.736L323.877 148.283C338.043 139.406 354.973 154.65 347.626 169.666L325.73 214.417C321.314 223.442 324.856 234.342 333.733 239.048L377.751 262.381C392.521 270.211 387.785 292.495 371.107 293.641L321.403 297.053C311.38 297.742 303.711 306.259 304.074 316.3L305.875 366.087C306.48 382.794 284.813 389.834 275.482 375.963L247.675 334.625C242.067 326.288 230.856 323.905 222.343 329.24L180.126 355.694C165.96 364.571 149.03 349.326 156.377 334.31L178.273 289.56C182.688 280.535 179.147 269.635 170.27 264.929L126.252 241.595C111.482 233.765 116.218 211.481 132.896 210.336L182.599 206.923C192.623 206.235 200.292 197.717 199.929 187.677L198.127 137.889C197.523 121.183 219.19 114.143 228.521 128.014Z" stroke="#E1ECF3" stroke-width="2"/>
<path id="Star 3_5" opacity="0.827586" d="M235.848 129.964L260.34 170.841C265.503 179.459 276.574 182.426 285.355 177.544L327.004 154.389C341.615 146.266 357.725 162.375 349.602 176.986L326.447 218.635C321.565 227.416 324.531 238.487 333.15 243.651L374.027 268.143C388.367 276.735 382.471 298.74 365.756 299.011L318.109 299.783C308.064 299.946 299.959 308.05 299.796 318.096L299.025 365.742C298.754 382.457 276.748 388.354 268.156 374.013L243.664 333.136C238.501 324.518 227.43 321.551 218.649 326.433L177 349.588C162.389 357.711 146.279 341.602 154.402 326.991L177.557 285.342C182.439 276.561 179.473 265.49 170.854 260.326L129.977 235.835C115.637 227.243 121.533 205.237 138.248 204.966L185.895 204.194C195.94 204.031 204.045 195.927 204.208 185.881L204.979 138.235C205.25 121.52 227.256 115.623 235.848 129.964Z" stroke="#E1ECF3" stroke-width="2"/>
<path id="Star 3_4" opacity="0.862069" d="M242.904 132.332L264.208 172.52C268.913 181.397 279.814 184.939 288.838 180.523L329.695 160.532C344.711 153.185 359.955 170.115 351.079 184.281L326.927 222.825C321.592 231.338 323.975 242.549 332.311 248.157L370.052 273.545C383.923 282.875 376.883 304.542 360.177 303.938L314.721 302.293C304.681 301.93 296.164 309.599 295.475 319.623L292.359 365.001C291.214 381.679 268.93 386.416 261.1 371.645L239.797 331.458C235.091 322.581 224.191 319.039 215.166 323.455L174.309 343.445C159.293 350.793 144.049 333.862 152.926 319.696L177.077 281.153C182.412 272.639 180.029 261.428 171.693 255.821L133.952 230.433C120.081 221.102 127.121 199.435 143.827 200.04L189.283 201.684C199.323 202.047 207.841 194.378 208.529 184.355L211.645 138.977C212.79 122.299 235.074 117.562 242.904 132.332Z" stroke="#E1ECF3" stroke-width="2"/>
<path id="Star 3_3" opacity="0.896552" d="M249.661 135.096L267.919 174.378C272.153 183.489 282.853 187.596 292.097 183.659L331.95 166.683C347.33 160.132 361.667 177.837 352.061 191.519L327.17 226.971C321.397 235.194 323.19 246.514 331.222 252.551L365.85 278.577C379.213 288.62 371.049 309.889 354.397 308.411L311.249 304.582C301.241 303.694 292.334 310.906 291.122 320.88L285.897 363.882C283.881 380.477 261.379 384.041 254.333 368.881L236.076 329.599C231.841 320.488 221.141 316.38 211.898 320.318L172.045 337.293C156.665 343.845 142.327 326.14 151.933 312.458L176.824 277.005C182.597 268.782 180.804 257.462 172.772 251.426L138.145 225.4C124.781 215.356 132.945 194.087 149.597 195.565L192.745 199.395C202.753 200.283 211.66 193.07 212.872 183.096L218.097 140.095C220.114 123.5 242.615 119.936 249.661 135.096Z" stroke="#E1ECF3" stroke-width="2"/>
<path id="Star 3_2" opacity="0.931035" d="M256.108 138.231L271.476 176.405C275.228 185.725 285.698 190.386 295.135 186.938L333.786 172.816C349.488 167.078 362.879 185.509 352.57 198.67L327.194 231.065C320.999 238.974 322.197 250.373 329.902 256.821L361.458 283.232C374.277 293.962 365.011 314.774 348.459 312.427L307.717 306.649C297.769 305.238 288.497 311.975 286.765 321.871L279.67 362.405C276.788 378.872 254.131 381.254 247.888 365.746L232.52 327.573C228.768 318.252 218.298 313.591 208.861 317.039L170.21 331.162C154.509 336.899 141.118 318.468 151.426 305.307L176.802 272.912C182.997 265.003 181.799 253.605 174.094 247.156L142.538 220.745C129.719 210.015 138.985 189.203 155.537 191.55L196.279 197.329C206.227 198.739 215.499 192.003 217.231 182.106L224.326 141.572C227.208 125.105 249.866 122.724 256.108 138.231Z" stroke="#E1ECF3" stroke-width="2"/>
<path id="Star 3_1" opacity="0.965517" d="M262.222 141.713L274.867 178.588C278.126 188.091 288.338 193.295 297.942 190.345L335.207 178.901C351.188 173.993 363.596 193.1 352.613 205.703L327.001 235.091C320.4 242.665 321 254.111 328.356 260.954L356.9 287.504C369.14 298.89 358.798 319.189 342.391 315.979L304.134 308.492C294.274 306.563 284.662 312.805 282.414 322.597L273.693 360.592C269.953 376.885 247.202 378.078 241.779 362.264L229.134 325.39C225.875 315.886 215.663 310.683 206.058 313.632L168.793 325.076C152.813 329.984 140.405 310.877 151.388 298.275L177 268.886C183.601 261.312 183.001 249.866 175.645 243.023L147.101 216.473C134.86 205.087 145.203 184.788 161.609 187.999L199.867 195.485C209.727 197.415 219.339 191.172 221.587 181.38L230.308 143.385C234.048 127.092 256.799 125.899 262.222 141.713Z" stroke="#E1ECF3" stroke-width="2"/>
<path id="Star 3" d="M267.978 145.513L278.082 180.915C280.839 190.576 290.764 196.307 300.51 193.864L336.22 184.913C352.436 180.848 363.827 200.578 352.199 212.589L326.592 239.039C319.604 246.258 319.604 257.719 326.592 264.937L352.199 291.388C363.827 303.399 352.436 323.129 336.22 319.064L300.51 310.113C290.764 307.67 280.839 313.401 278.082 323.062L267.978 358.464C263.391 374.539 240.609 374.539 236.021 358.464L225.918 323.062C223.16 313.4 213.235 307.67 203.489 310.113L167.779 319.064C151.563 323.129 140.172 303.399 151.8 291.388L177.407 264.937C184.396 257.719 184.396 246.258 177.407 239.039L151.8 212.589C140.172 200.578 151.563 180.848 167.779 184.913L203.489 193.864C213.235 196.307 223.16 190.576 225.918 180.915L236.021 145.513C240.609 129.438 263.391 129.438 267.978 145.513Z" stroke="#E1ECF3" stroke-width="2"/>
</g>
<defs>
<clipPath id="clip0_316_20116">
<rect width="504" height="504" fill="white"/>
</clipPath>
</defs>
</svg>
