<svg width="280" height="280" viewBox="0 0 280 280" fill="none" xmlns="http://www.w3.org/2000/svg">
<g id="Looper-4">
<rect id="Rectangle 12_28" opacity="0.0344828" x="255.378" y="63.1952" width="176.891" height="213.43" transform="rotate(96 255.378 63.1952)" stroke="#E1ECF3" stroke-width="2"/>
<rect id="Rectangle 12_27" opacity="0.0689655" x="259.237" y="69.3386" width="176.891" height="213.43" transform="rotate(99 259.237 69.3386)" stroke="#E1ECF3" stroke-width="2"/>
<rect id="Rectangle 12_26" opacity="0.103448" x="262.773" y="75.6762" width="176.891" height="213.43" transform="rotate(102 262.773 75.6762)" stroke="#E1ECF3" stroke-width="2"/>
<rect id="Rectangle 12_25" opacity="0.137931" x="265.969" y="82.189" width="176.891" height="213.43" transform="rotate(105 265.969 82.189)" stroke="#E1ECF3" stroke-width="2"/>
<rect id="Rectangle 12_24" opacity="0.172414" x="268.824" y="88.861" width="176.891" height="213.43" transform="rotate(108 268.824 88.861)" stroke="#E1ECF3" stroke-width="2"/>
<rect id="Rectangle 12_23" opacity="0.206897" x="271.325" y="95.6731" width="176.891" height="213.43" transform="rotate(111 271.325 95.6731)" stroke="#E1ECF3" stroke-width="2"/>
<rect id="Rectangle 12_22" opacity="0.241379" x="273.461" y="102.607" width="176.891" height="213.43" transform="rotate(114 273.461 102.607)" stroke="#E1ECF3" stroke-width="2"/>
<rect id="Rectangle 12_21" opacity="0.275862" x="275.235" y="109.643" width="176.891" height="213.43" transform="rotate(117 275.235 109.643)" stroke="#E1ECF3" stroke-width="2"/>
<rect id="Rectangle 12_20" opacity="0.310345" x="276.64" y="116.763" width="176.891" height="213.43" transform="rotate(120 276.64 116.763)" stroke="#E1ECF3" stroke-width="2"/>
<rect id="Rectangle 12_19" opacity="0.344828" x="-1.38331" y="0.294032" width="176.891" height="213.43" transform="matrix(-0.544639 0.83867 -0.838671 -0.544639 277.163 125.266)" stroke="#E1ECF3" stroke-width="2"/>
<rect id="Rectangle 12_18" opacity="0.37931" x="278.322" y="131.173" width="176.891" height="213.43" transform="rotate(126 278.322 131.173)" stroke="#E1ECF3" stroke-width="2"/>
<rect id="Rectangle 12_17" opacity="0.413793" x="278.594" y="138.424" width="176.891" height="213.43" transform="rotate(129 278.594 138.424)" stroke="#E1ECF3" stroke-width="2"/>
<rect id="Rectangle 12_16" opacity="0.448276" x="278.486" y="145.68" width="176.891" height="213.43" transform="rotate(132 278.486 145.68)" stroke="#E1ECF3" stroke-width="2"/>
<rect id="Rectangle 12_15" opacity="0.482759" x="277.998" y="152.919" width="176.891" height="213.43" transform="rotate(135 277.998 152.919)" stroke="#E1ECF3" stroke-width="2"/>
<rect id="Rectangle 12_14" opacity="0.517241" x="277.131" y="160.124" width="176.891" height="213.43" transform="rotate(138 277.131 160.124)" stroke="#E1ECF3" stroke-width="2"/>
<rect id="Rectangle 12_13" opacity="0.551724" x="275.892" y="167.273" width="176.891" height="213.43" transform="rotate(141 275.892 167.273)" stroke="#E1ECF3" stroke-width="2"/>
<rect id="Rectangle 12_12" opacity="0.586207" x="274.279" y="174.348" width="176.891" height="213.43" transform="rotate(144 274.279 174.348)" stroke="#E1ECF3" stroke-width="2"/>
<rect id="Rectangle 12_11" opacity="0.62069" x="272.298" y="181.328" width="176.891" height="213.43" transform="rotate(147 272.298 181.328)" stroke="#E1ECF3" stroke-width="2"/>
<rect id="Rectangle 12_10" opacity="0.655172" x="269.952" y="188.195" width="176.891" height="213.43" transform="rotate(150 269.952 188.195)" stroke="#E1ECF3" stroke-width="2"/>
<rect id="Rectangle 12_9" opacity="0.689655" x="267.253" y="194.931" width="176.891" height="213.43" transform="rotate(153 267.253 194.931)" stroke="#E1ECF3" stroke-width="2"/>
<rect id="Rectangle 12_8" opacity="0.724138" x="264.205" y="201.516" width="176.891" height="213.43" transform="rotate(156 264.205 201.516)" stroke="#E1ECF3" stroke-width="2"/>
<rect id="Rectangle 12_7" opacity="0.758621" x="260.815" y="207.931" width="176.891" height="213.43" transform="rotate(159 260.815 207.931)" stroke="#E1ECF3" stroke-width="2"/>
<rect id="Rectangle 12_6" opacity="0.793103" x="257.093" y="214.161" width="176.891" height="213.43" transform="rotate(162 257.093 214.161)" stroke="#E1ECF3" stroke-width="2"/>
<rect id="Rectangle 12_5" opacity="0.827586" x="253.051" y="220.188" width="176.891" height="213.43" transform="rotate(165 253.051 220.188)" stroke="#E1ECF3" stroke-width="2"/>
<rect id="Rectangle 12_4" opacity="0.862069" x="248.699" y="225.995" width="176.891" height="213.43" transform="rotate(168 248.699 225.995)" stroke="#E1ECF3" stroke-width="2"/>
<rect id="Rectangle 12_3" opacity="0.896552" x="244.051" y="231.566" width="176.891" height="213.43" transform="rotate(171 244.051 231.566)" stroke="#E1ECF3" stroke-width="2"/>
<rect id="Rectangle 12_2" opacity="0.931035" x="239.118" y="236.886" width="176.891" height="213.43" transform="rotate(174 239.118 236.886)" stroke="#E1ECF3" stroke-width="2"/>
<rect id="Rectangle 12_1" opacity="0.965517" x="233.91" y="241.942" width="176.891" height="213.43" transform="rotate(177 233.91 241.942)" stroke="#E1ECF3" stroke-width="2"/>
<rect id="Rectangle 12" x="228.445" y="246.716" width="176.891" height="213.43" transform="rotate(180 228.445 246.716)" stroke="#E1ECF3" stroke-width="2"/>
</g>
</svg>
