<svg width="117" height="44" viewBox="0 0 117 44" fill="none" xmlns="http://www.w3.org/2000/svg">
<path d="M65.3356 26.2569H65.1611H65.2192C61.0318 25.9891 57.4648 22.5656 57.4648 18.3961C57.4648 13.4807 61.6716 9.38776 66.6538 9.06262C61.6716 8.7566 57.5811 4.72101 57.3291 -0.213501C57.077 4.70189 52.9866 8.7566 48.0043 9.06262C52.9866 9.36863 57.1934 13.4616 57.1934 18.3961C57.1934 22.5465 53.6263 25.9891 49.4389 26.2569H49.5552C47.8104 26.2569 46.1432 27.0411 44.9413 28.0548C43.7393 27.0411 42.0915 26.2569 40.3468 26.2569C38.8734 26.2569 37.4776 26.6777 36.2757 27.4045C36.0818 27.2706 34.5697 26.2569 32.5147 26.2378V43.5277H36.5083V33.4865C36.5083 31.8035 37.6715 30.063 39.5907 29.8143C41.6069 29.8143 42.9057 31.3062 42.9057 33.6013V43.5277H46.9574V33.6013C46.9574 31.3062 48.2563 29.8143 50.2725 29.8143C52.4825 30.0247 53.3355 31.8035 53.3355 33.4865V43.5277H57.3484C57.3484 43.5277 57.3484 39.3391 57.3484 36.585C58.0657 40.6397 61.3614 43.5277 65.607 43.5277H68.8638C70.6668 43.5277 72.2177 41.6725 72.2177 39.8938H65.7039C63.552 39.8938 61.943 38.6123 61.4002 36.5467H73.1288C73.1288 36.5467 73.2451 35.2653 73.2451 34.9784C73.2451 29.8526 70.0076 26.2569 65.3356 26.2569ZM57.4454 32.9128L57.4842 32.7406C57.3678 33.1997 57.3484 33.4865 57.3484 33.4865L57.4066 33.104L57.3484 33.4865C57.077 30.216 54.9252 27.5192 51.8815 26.6203C56.1853 24.9755 57.3291 21.6284 57.3291 21.6284V21.6093C57.3291 21.6093 58.5116 25.0328 62.9511 26.6586C60.1982 27.5001 58.1045 29.8717 57.4454 32.9128ZM61.4002 33.2188C61.9236 31.1914 63.4357 29.8335 65.2968 29.8335C67.565 29.8335 68.7088 31.4401 69.1159 33.2188H61.4002Z" fill="#8EACBD"/>
<path d="M80.5728 40.1232C78.9637 40.0849 77.6455 39.4347 77.2577 39.3008C74.8926 38.4401 73.555 40.8691 73.3417 41.5385C75.1446 42.82 77.6067 43.6041 79.9718 43.6806H80.3208C84.1398 43.6806 86.8539 41.5194 86.8539 38.421C86.8539 34.8444 84.3531 34.0029 81.387 33.1231C78.576 32.2815 77.8975 31.899 77.8975 31.2487C77.8975 30.5602 78.324 29.7378 80.3014 29.7378C81.5615 29.7378 83.3256 30.2924 85.051 31.2487L86.3692 27.8634C84.6051 26.8689 82.3951 26.2568 80.4371 26.2568C76.3854 26.2568 74.0009 28.4372 74.0009 31.4782C74.0009 33.1996 74.8151 34.481 76.4823 35.4182C77.5485 36.0302 79.0025 36.4128 80.4952 36.8144C82.2594 37.2734 82.9767 37.7898 82.9767 38.6122C82.996 39.3582 82.24 40.1806 80.5728 40.1232Z" fill="#8EACBD"/>
<path d="M26.4658 29.5847V36.3553C26.4464 38.0193 25.3026 39.7406 23.4222 39.9701C23.4222 39.9701 23.2283 40.0084 22.6661 40.0084C22.1233 40.0084 21.9488 39.9701 21.9488 39.9701C20.049 39.7215 18.8858 37.981 18.8858 36.317V26.2185C16.9666 26.2185 14.9117 27.5382 14.9117 29.4508V36.317C14.9117 40.8308 18.4787 43.6614 22.6661 43.6614C24.1395 43.6614 25.5159 43.2407 26.6985 42.5139C27.7647 43.2024 29.0636 43.6614 30.4206 43.6614V26.2185C28.5208 26.2376 26.4658 27.7868 26.4658 29.5847Z" fill="#8EACBD"/>
<path d="M12.1395 39.5305H5.52877V17.4399C3.55138 17.4399 0.68222 19.2952 0.68222 21.2843V40.4677C0.68222 41.0032 1.76785 43.4131 4.75332 43.5278H15.9585C15.881 41.8639 14.0199 39.5879 12.1395 39.5305Z" fill="#8EACBD"/>
<path d="M95.0347 33.1231C92.2237 32.2815 91.5452 31.899 91.5452 31.2487C91.5452 30.5602 91.9523 29.7378 93.9491 29.7378C95.2092 29.7378 96.9734 30.3116 98.6987 31.2487L100.017 27.8634C98.2528 26.8689 96.0428 26.2568 94.0848 26.2568C90.0525 26.2568 87.6486 28.4372 87.6486 31.4782C87.6486 33.1996 88.4628 34.481 90.13 35.4182C91.1963 36.0111 92.6502 36.4128 94.143 36.8144C95.9071 37.2734 96.6244 37.7898 96.6244 38.6122C96.6244 39.339 95.8683 40.1614 94.2011 40.1232C92.5921 40.0849 91.2738 39.4347 90.8861 39.3008C88.521 38.4401 87.1833 40.8691 86.9701 41.5385C88.773 42.82 91.2544 43.6041 93.6002 43.6806H93.9491C97.7682 43.6806 100.482 41.5194 100.482 38.421C100.502 34.8635 98.0008 34.022 95.0347 33.1231Z" fill="#8EACBD"/>
<path d="M109.09 26.2568C104.554 26.2568 100.987 30.0438 100.987 34.9209C100.987 39.8363 104.593 43.5276 109.381 43.5276H112.638C114.441 43.5276 115.992 41.6724 115.992 39.8937H109.439C107.288 39.8937 105.678 38.6122 105.136 36.5466H116.884C116.884 36.5466 117 35.2652 117 34.9783C117 29.8525 113.743 26.2568 109.09 26.2568ZM105.136 33.2187C105.659 31.1914 107.171 29.8334 109.032 29.8334C111.3 29.8334 112.444 31.44 112.851 33.2187H105.136Z" fill="#8EACBD"/>
</svg>
