<svg width="460" height="504" viewBox="0 0 460 504" fill="none" xmlns="http://www.w3.org/2000/svg">
<g id="LooperGroup">
<path id="Ellipse 2_49" opacity="0.01" d="M174.517 251.139C175.715 182.524 183.165 120.547 194.228 75.8187C199.762 53.4468 206.186 35.445 213.151 23.0942C216.634 16.9182 220.227 12.2022 223.871 9.05707C227.509 5.91726 231.146 4.38499 234.76 4.44806C238.373 4.51113 241.955 6.16941 245.481 9.43427C249.013 12.7046 252.439 17.5432 255.704 23.837C262.234 36.4234 268.026 54.6383 272.775 77.1898C282.271 122.276 287.554 184.476 286.356 253.091C285.159 321.707 277.708 383.684 266.645 428.412C261.111 450.784 254.687 468.786 247.722 481.137C244.239 487.313 240.646 492.029 237.002 495.174C233.364 498.314 229.727 499.846 226.114 499.783C222.5 499.72 218.919 498.061 215.392 494.797C211.86 491.526 208.435 486.688 205.169 480.394C198.639 467.807 192.847 449.592 188.098 427.041C178.602 381.954 173.319 319.755 174.517 251.139Z" stroke="url(#paint0_linear_316_20505)" stroke-width="2"/>
<path id="Ellipse 2_48" opacity="0.0204082" d="M175.731 240.488C189.775 174.419 208.71 115.961 227.956 74.8594C237.583 54.3013 247.264 38.1373 256.415 27.5366C260.991 22.2359 265.4 18.3667 269.566 16.0246C273.724 13.6868 277.584 12.8994 281.124 13.6519C284.665 14.4044 287.87 16.6936 290.718 20.5207C293.571 24.3546 296.026 29.6829 298.05 36.3865C302.099 49.7928 304.368 68.4969 304.8 91.193C305.665 136.569 299.187 197.676 285.143 263.744C271.1 329.812 252.164 388.271 232.918 429.372C223.292 449.93 213.611 466.094 204.46 476.695C199.884 481.995 195.474 485.865 191.309 488.207C187.15 490.545 183.29 491.332 179.75 490.579C176.21 489.827 173.004 487.538 170.156 483.711C167.303 479.877 164.849 474.549 162.824 467.845C158.776 454.439 156.507 435.734 156.074 413.038C155.209 367.662 161.688 306.556 175.731 240.488Z" stroke="url(#paint1_linear_316_20505)" stroke-width="2"/>
<path id="Ellipse 2_47" opacity="0.0408163" d="M178.956 230.263C204.925 169.084 234.285 116.214 260.742 80.1932C273.975 62.1762 286.449 48.4207 297.376 39.9434C308.379 31.4071 317.483 28.4705 324.166 31.3075C330.849 34.1444 335.061 42.7331 336.564 56.5776C338.056 70.3266 336.826 88.855 333.059 110.89C325.526 154.944 307.889 212.79 281.92 273.969C255.951 335.148 226.592 388.018 200.135 424.038C186.902 442.055 174.428 455.811 163.501 464.288C152.498 472.824 143.394 475.761 136.711 472.924C130.027 470.087 125.816 461.498 124.313 447.654C122.821 433.905 124.05 415.377 127.818 393.342C135.351 349.288 152.987 291.442 178.956 230.263Z" stroke="url(#paint2_linear_316_20505)" stroke-width="2"/>
<path id="Ellipse 2_46" opacity="0.0612245" d="M184.075 220.841C220.636 166.638 258.996 121.154 291.442 91.4309C307.672 76.564 322.38 65.6793 334.611 59.6067C346.923 53.4938 356.365 52.4285 362.391 56.493C368.417 60.5576 370.966 69.7108 369.911 83.4166C368.862 97.032 364.28 114.746 356.575 135.363C341.171 176.582 313.369 229.187 276.808 283.39C240.248 337.594 201.888 383.078 169.441 412.801C153.212 427.668 138.504 438.552 126.272 444.625C113.96 450.738 104.518 451.803 98.4925 447.738C92.4665 443.674 89.9173 434.521 90.9728 420.815C92.0214 407.2 96.6038 389.485 104.308 368.868C119.712 327.65 147.515 275.044 184.075 220.841Z" stroke="url(#paint3_linear_316_20505)" stroke-width="2"/>
<path id="Ellipse 2_45" opacity="0.0816327" d="M190.888 212.568C236.354 167.102 281.996 130.465 319.015 107.981C337.532 96.7348 353.843 89.0594 366.866 85.5716C379.972 82.0619 389.374 82.8859 394.519 88.0315C399.665 93.177 400.489 102.579 396.979 115.685C393.491 128.708 385.816 145.019 374.57 163.536C352.085 200.555 315.449 246.196 269.982 291.663C224.516 337.129 178.875 373.765 141.855 396.25C123.339 407.496 107.028 415.172 94.0043 418.659C80.8986 422.169 71.4968 421.345 66.3512 416.199C61.2057 411.054 60.3816 401.652 63.8914 388.546C67.3791 375.523 75.0546 359.212 86.3009 340.695C108.785 303.676 145.422 258.035 190.888 212.568Z" stroke="url(#paint4_linear_316_20505)" stroke-width="2"/>
<path id="Ellipse 2_44" opacity="0.102041" d="M199.162 205.749C251.572 170.398 302.553 143.692 342.594 129.08C362.622 121.772 379.858 117.51 393.142 116.681C406.506 115.847 415.497 118.504 419.57 124.544C423.644 130.583 422.74 139.915 416.96 151.993C411.216 163.999 400.807 178.384 386.528 194.216C357.981 225.868 314.121 263.132 261.712 298.482C209.302 333.833 158.321 360.54 118.281 375.151C98.2527 382.459 81.0159 386.721 67.7318 387.55C54.3682 388.384 45.3776 385.727 41.3038 379.688C37.2299 373.648 38.1346 364.317 43.9138 352.239C49.6586 340.232 60.0673 325.847 74.3461 310.016C102.893 278.364 146.753 241.1 199.162 205.749Z" stroke="url(#paint5_linear_316_20505)" stroke-width="2"/>
<path id="Ellipse 2_43" opacity="0.122449" d="M208.585 200.633C265.781 176.355 320.019 160.249 361.458 153.823C382.186 150.609 399.654 149.826 412.669 151.623C425.757 153.43 433.985 157.791 436.835 164.505C439.685 171.219 437.106 180.167 429.314 190.838C421.567 201.448 408.869 213.469 392.158 226.147C358.749 251.492 309.487 279.319 252.291 303.598C195.095 327.876 140.857 343.982 99.4171 350.408C78.6896 353.622 61.2213 354.405 48.2068 352.608C35.1185 350.801 26.89 346.44 24.0402 339.726C21.1903 333.012 23.7694 324.064 31.5611 313.394C39.3089 302.783 52.0068 290.762 68.7175 278.084C102.126 252.739 151.389 224.912 208.585 200.633Z" stroke="url(#paint6_linear_316_20505)" stroke-width="2"/>
<path id="Ellipse 2_42" opacity="0.142857" d="M218.809 197.41C278.528 184.716 333.885 179.459 375.094 181.204C395.707 182.078 412.722 184.701 424.96 188.988C437.263 193.298 444.413 199.168 445.931 206.311C447.449 213.454 443.305 221.725 433.819 230.666C424.383 239.56 409.906 248.877 391.43 258.059C354.493 276.415 301.785 294.128 242.065 306.822C182.346 319.516 126.989 324.773 85.7797 323.027C65.167 322.154 48.1517 319.531 35.914 315.243C23.6109 310.933 16.4611 305.063 14.9429 297.92C13.4247 290.778 17.5687 282.507 27.055 273.565C36.491 264.671 50.9682 255.354 69.4437 246.172C106.381 227.816 159.089 210.103 218.809 197.41Z" stroke="url(#paint7_linear_316_20505)" stroke-width="2"/>
<path id="Ellipse 2_41" opacity="0.163265" d="M229.462 196.196C289.425 195.15 343.787 200.568 383.197 210.157C402.909 214.953 418.824 220.778 429.82 227.324C440.871 233.902 446.672 241.029 446.8 248.339C446.927 255.649 441.379 262.975 430.564 269.935C419.803 276.86 404.101 283.237 384.568 288.718C345.517 299.676 291.377 306.989 231.414 308.036C171.452 309.082 117.089 303.664 77.6794 294.075C57.967 289.279 42.0525 283.453 31.0563 276.908C20.0051 270.33 14.2042 263.202 14.0766 255.892C13.949 248.583 19.4976 241.257 30.3125 234.297C41.0736 227.372 56.7751 220.994 76.3081 215.513C115.359 204.555 169.499 197.243 229.462 196.196Z" stroke="url(#paint8_linear_316_20505)" stroke-width="2"/>
<path id="Ellipse 2_40" opacity="0.183673" d="M240.151 197.037C298.146 207.263 349.511 222.785 385.668 239.592C403.754 247.999 417.981 256.704 427.331 265.191C436.725 273.718 440.963 281.804 439.692 289.012C438.421 296.221 431.673 302.37 419.929 307.17C408.24 311.947 391.894 315.26 372.024 316.975C332.298 320.402 278.723 317.42 220.728 307.194C162.732 296.968 111.368 281.446 75.2105 264.639C57.125 256.232 42.8975 247.527 33.5476 239.04C24.154 230.513 19.9156 222.427 21.1867 215.219C22.4578 208.01 29.2062 201.861 40.9496 197.061C52.6383 192.284 68.9849 188.971 88.8551 187.256C128.58 183.829 182.156 186.811 240.151 197.037Z" stroke="url(#paint9_linear_316_20505)" stroke-width="2"/>
<path id="Ellipse 2_39" opacity="0.204082" d="M250.478 199.902C304.447 220.619 350.991 245.304 382.615 268.447C398.432 280.023 410.469 291.178 417.843 301.22C425.249 311.306 427.776 320.017 425.15 326.859C422.523 333.701 414.817 338.484 402.564 341.024C390.365 343.552 373.955 343.788 354.455 341.806C315.468 337.845 264.361 325.046 210.393 304.329C156.424 283.612 109.88 258.927 78.2565 235.784C62.4388 224.208 50.4017 213.053 43.0279 203.011C35.6219 192.925 33.0952 184.214 35.7215 177.372C38.3479 170.53 46.0545 165.747 58.307 163.207C70.5063 160.679 86.916 160.443 106.417 162.425C145.403 166.386 196.51 179.186 250.478 199.902Z" stroke="url(#paint10_linear_316_20505)" stroke-width="2"/>
<path id="Ellipse 2_38" opacity="0.22449" d="M260.072 204.686C308.178 234.746 348.326 267.34 374.351 295.714C387.368 309.907 396.812 323.001 401.967 334.159C407.143 345.361 407.878 354.343 403.99 360.565C400.102 366.788 391.707 370.064 379.369 370.323C367.081 370.581 351.172 367.833 332.709 362.355C295.798 351.402 248.903 329.606 200.797 299.546C152.691 269.485 112.543 236.892 86.5177 208.517C73.5002 194.325 64.0563 181.231 58.9014 170.073C53.7259 158.87 52.9903 149.889 56.8787 143.666C60.7671 137.443 69.1618 134.167 81.4996 133.908C93.7879 133.65 109.697 136.398 128.159 141.877C165.071 152.829 211.965 174.626 260.072 204.686Z" stroke="url(#paint11_linear_316_20505)" stroke-width="2"/>
<path id="Ellipse 2_37" opacity="0.244898" d="M268.577 211.212C309.272 249.161 341.747 288.148 361.361 320.482C371.172 336.655 377.734 351.113 380.521 362.913C383.319 374.756 382.256 383.646 377.246 389.019C372.235 394.392 363.441 396.073 351.431 394.108C339.466 392.151 324.585 386.613 307.767 377.954C274.144 360.644 232.987 330.968 192.291 293.019C151.596 255.07 119.121 216.083 99.5072 183.749C89.6964 167.576 83.1339 153.118 80.3468 141.318C77.5493 129.475 78.6122 120.585 83.6227 115.212C88.6332 109.839 97.4274 108.158 109.437 110.123C121.402 112.08 136.283 117.618 153.101 126.277C186.725 143.588 227.882 173.263 268.577 211.212Z" stroke="url(#paint12_linear_316_20505)" stroke-width="2"/>
<path id="Ellipse 2_36" opacity="0.265306" d="M275.683 219.242C307.754 263.383 331.617 307.057 344.284 341.964C350.621 359.424 354.136 374.636 354.505 386.589C354.876 398.582 352.079 407.027 346.127 411.351C340.176 415.675 331.28 415.725 319.989 411.666C308.735 407.622 295.354 399.578 280.706 388.156C251.422 365.321 217.26 329.131 185.189 284.989C153.119 240.848 129.256 197.174 116.588 162.267C110.252 144.807 106.737 129.595 106.368 117.642C105.997 105.649 108.794 97.2042 114.745 92.8805C120.696 88.5567 129.592 88.5062 140.884 92.5648C152.138 96.6098 165.519 104.653 180.166 116.075C209.45 138.91 243.613 175.101 275.683 219.242Z" stroke="url(#paint13_linear_316_20505)" stroke-width="2"/>
<path id="Ellipse 2_35" opacity="0.285714" d="M281.128 228.479C303.729 276.948 318.406 323.484 323.882 359.523C326.62 377.549 327.048 392.891 325.048 404.514C323.041 416.172 318.643 423.84 311.968 426.953C305.292 430.065 296.591 428.506 286.371 422.549C276.181 416.61 264.704 406.421 252.655 392.736C228.567 365.376 202.353 324.221 179.751 275.752C157.15 227.283 142.473 180.747 136.998 144.708C134.259 126.682 133.832 111.34 135.832 99.7169C137.838 88.0583 142.236 80.3907 148.912 77.278C155.587 74.1653 164.288 75.7246 174.508 81.6817C184.698 87.6205 196.176 97.8094 208.224 111.494C232.312 138.854 258.526 180.01 281.128 228.479Z" stroke="url(#paint14_linear_316_20505)" stroke-width="2"/>
<path id="Ellipse 2_34" opacity="0.306122" d="M284.703 238.585C297.379 289.426 302.67 336.956 300.998 372.688C300.161 390.561 297.585 405.423 293.358 416.258C289.119 427.123 283.315 433.715 276.159 435.499C269.003 437.284 260.783 434.188 251.94 426.585C243.121 419.003 233.869 407.09 224.74 391.702C206.488 360.937 188.845 316.487 176.169 265.646C163.493 214.805 158.202 167.275 159.875 131.543C160.711 113.67 163.287 98.8078 167.514 87.9731C171.753 77.1086 177.558 70.5159 184.713 68.7317C191.869 66.9476 200.089 70.0436 208.933 77.6464C217.752 85.2283 227.004 97.1414 236.133 112.529C254.385 143.294 272.027 187.744 284.703 238.585Z" stroke="url(#paint15_linear_316_20505)" stroke-width="2"/>
<path id="Ellipse 2_33" opacity="0.326531" d="M286.288 249.189C288.974 300.433 285.047 347.12 276.552 381.168C272.303 398.198 266.924 412.008 260.699 421.639C254.459 431.293 247.497 436.56 240.123 436.946C232.749 437.333 225.276 432.823 218.06 423.873C210.862 414.946 204.07 401.774 198.064 385.281C186.056 352.308 177.271 306.287 174.585 255.043C171.9 203.798 175.826 157.111 184.321 123.064C188.571 106.034 193.949 92.2234 200.174 82.5926C206.415 72.9382 213.376 67.6718 220.75 67.2853C228.124 66.8988 235.598 71.4088 242.813 80.358C250.011 89.2853 256.804 102.458 262.81 118.95C274.818 151.923 283.603 197.944 286.288 249.189Z" stroke="url(#paint16_linear_316_20505)" stroke-width="2"/>
<path id="Ellipse 2_32" opacity="0.346939" d="M285.819 259.899C278.828 309.643 266.202 353.752 251.467 384.85C244.096 400.404 236.223 412.65 228.304 420.72C220.368 428.807 212.543 432.552 205.221 431.523C197.899 430.494 191.409 424.737 186.01 414.776C180.622 404.836 176.429 390.894 173.632 373.911C168.039 339.956 168.06 294.076 175.051 244.332C182.042 194.588 194.668 150.479 209.404 119.381C216.774 103.827 224.648 91.5811 232.566 83.5112C240.502 75.4239 248.327 71.6795 255.649 72.7085C262.971 73.7376 269.461 79.4938 274.86 89.4552C280.248 99.3952 284.441 113.337 287.238 130.32C292.831 164.275 292.81 210.156 285.819 259.899Z" stroke="url(#paint17_linear_316_20505)" stroke-width="2"/>
<path id="Ellipse 2_31" opacity="0.367347" d="M283.318 270.324C267.316 316.796 246.825 356.759 226.659 383.802C216.573 397.329 206.602 407.576 197.356 413.8C188.092 420.035 179.728 422.125 172.728 419.715C165.727 417.304 160.422 410.508 156.962 399.891C153.507 389.294 151.959 375.081 152.338 358.212C153.097 324.486 161.554 280.379 177.555 233.907C193.557 187.435 214.048 147.472 234.214 120.429C244.3 106.902 254.271 96.6551 263.517 90.4312C272.781 84.1957 281.145 82.106 288.146 84.5163C295.146 86.9267 300.451 93.7232 303.912 104.34C307.366 114.937 308.914 129.151 308.535 146.019C307.776 179.745 299.319 223.852 283.318 270.324Z" stroke="url(#paint18_linear_316_20505)" stroke-width="2"/>
<path id="Ellipse 2_30" opacity="0.387755" d="M278.874 280.08C254.84 321.707 227.591 356.177 202.992 378.261C190.689 389.307 179.091 397.215 168.928 401.39C158.749 405.571 150.187 405.941 143.767 402.235C137.347 398.528 133.387 390.929 131.918 380.023C130.452 369.134 131.502 355.136 134.916 338.957C141.742 306.612 157.97 265.779 182.003 224.151C206.037 182.524 233.286 148.054 257.885 125.97C270.188 114.924 281.786 107.016 291.949 102.841C302.128 98.6597 310.69 98.2897 317.11 101.996C323.53 105.703 327.49 113.302 328.959 124.209C330.425 135.097 329.375 149.095 325.961 165.274C319.135 197.619 302.908 238.452 278.874 280.08Z" stroke="url(#paint19_linear_316_20505)" stroke-width="2"/>
<path id="Ellipse 2_29" opacity="0.408163" d="M272.648 288.808C241.823 324.268 209.141 352.165 181.248 368.614C167.296 376.842 154.593 382.176 143.951 384.187C133.296 386.2 124.885 384.855 119.283 379.985C113.68 375.115 111.178 366.973 111.689 356.141C112.199 345.324 115.713 332.001 121.919 317.041C134.326 287.129 157.404 250.883 188.229 215.423C219.053 179.963 251.735 152.066 279.628 135.617C293.58 127.389 306.283 122.055 316.925 120.044C327.58 118.031 335.991 119.376 341.593 124.246C347.196 129.116 349.698 137.258 349.187 148.09C348.677 158.907 345.163 172.23 338.957 187.19C326.55 217.102 303.472 253.348 272.648 288.808Z" stroke="url(#paint20_linear_316_20505)" stroke-width="2"/>
<path id="Ellipse 2_28" opacity="0.428571" d="M264.871 296.187C228.7 324.448 192.069 344.993 162.11 355.382C147.126 360.578 133.865 363.214 123.193 363.038C112.51 362.861 104.587 359.874 100.011 354.017C95.4344 348.159 94.4532 339.749 96.8661 329.34C99.2764 318.942 105.043 306.713 113.709 293.431C131.037 266.876 159.834 236.303 196.006 208.043C232.177 179.783 268.808 159.238 298.766 148.849C313.751 143.653 327.011 141.016 337.683 141.193C348.366 141.37 356.29 144.357 360.866 150.214C365.442 156.072 366.424 164.482 364.011 174.891C361.6 185.288 355.834 197.517 347.167 210.799C329.839 237.355 301.043 267.927 264.871 296.187Z" stroke="url(#paint21_linear_316_20505)" stroke-width="2"/>
<path id="Ellipse 2_27" opacity="0.44898" d="M255.83 301.948C215.895 322.296 176.892 335.029 146.135 339.19C130.752 341.271 117.489 341.2 107.224 338.902C96.9509 336.603 89.8303 332.113 86.4511 325.481C83.0719 318.849 83.6252 310.449 87.8033 300.787C91.9781 291.132 99.7164 280.36 110.442 269.138C131.886 246.701 165.114 222.631 205.048 202.283C244.982 181.936 283.986 169.202 314.743 165.042C330.126 162.961 343.389 163.032 353.654 165.329C363.927 167.629 371.047 172.118 374.427 178.75C377.806 185.382 377.252 193.782 373.074 203.444C368.9 213.099 361.161 223.871 350.436 235.093C328.991 257.53 295.764 281.601 255.83 301.948Z" stroke="url(#paint22_linear_316_20505)" stroke-width="2"/>
<path id="Ellipse 2_26" opacity="0.469388" d="M245.856 305.877C203.814 317.933 164.041 322.72 133.739 320.742C118.584 319.752 105.854 317.074 96.4073 312.808C86.9551 308.539 80.9162 302.745 78.8618 295.58C76.8073 288.415 78.8581 280.301 84.612 271.673C90.3628 263.048 99.7387 254.031 112.067 245.161C136.716 227.426 172.983 210.409 215.025 198.354C257.067 186.299 296.84 181.511 327.142 183.49C342.297 184.479 355.027 187.157 364.474 191.423C373.926 195.692 379.965 201.486 382.019 208.651C384.074 215.816 382.023 223.93 376.269 232.558C370.518 241.183 361.142 250.2 348.814 259.07C324.165 276.805 287.898 293.822 245.856 305.877Z" stroke="url(#paint23_linear_316_20505)" stroke-width="2"/>
<path id="Ellipse 2_25" opacity="0.489796" d="M235.312 307.831C192.821 311.548 153.842 308.574 125.183 300.79C110.849 296.897 99.1508 291.816 90.8884 285.811C82.6235 279.804 77.8993 272.953 77.2488 265.518C76.5983 258.083 80.0612 250.516 87.1574 243.165C94.2514 235.816 104.89 228.781 118.33 222.458C145.202 209.816 183.072 200.118 225.563 196.4C268.054 192.683 307.032 195.658 335.692 203.441C350.025 207.334 361.724 212.415 369.986 218.421C378.251 224.428 382.975 231.278 383.626 238.713C384.276 246.149 380.813 253.715 373.717 261.066C366.623 268.415 355.985 275.451 342.545 281.773C315.673 294.415 277.803 304.114 235.312 307.831Z" stroke="url(#paint24_linear_316_20505)" stroke-width="2"/>
<path id="Ellipse 2_24" opacity="0.510204" d="M224.596 307.737C183.254 303.392 146.534 293.138 120.594 280.105C107.62 273.587 97.3912 266.399 90.6228 258.951C83.8536 251.501 80.6219 243.884 81.4031 236.451C82.1844 229.018 86.9293 222.239 95.0993 216.36C103.268 210.481 114.768 205.577 128.813 201.899C156.897 194.544 194.946 192.148 236.288 196.494C277.63 200.839 314.349 211.093 340.29 224.126C353.264 230.644 363.493 237.832 370.261 245.28C377.03 252.73 380.262 260.347 379.481 267.78C378.699 275.213 373.954 281.992 365.784 287.871C357.615 293.75 346.116 298.654 332.07 302.332C303.987 309.687 265.938 312.083 224.596 307.737Z" stroke="url(#paint25_linear_316_20505)" stroke-width="2"/>
<path id="Ellipse 2_23" opacity="0.530612" d="M214.084 305.6C175.367 293.763 142.217 276.978 119.919 259.446C108.767 250.677 100.372 241.755 95.3372 233.212C90.3029 224.67 88.6793 216.603 90.8675 209.445C93.0557 202.288 98.9129 196.508 107.863 192.241C116.815 187.974 128.763 185.272 142.912 184.238C171.202 182.172 208.07 186.794 246.788 198.631C285.506 210.469 318.655 227.253 340.954 244.786C352.106 253.554 360.501 262.476 365.535 271.019C370.57 279.562 372.193 287.629 370.005 294.786C367.817 301.944 361.96 307.724 353.009 311.991C344.058 316.258 332.109 318.96 317.96 319.993C289.67 322.059 252.802 317.437 214.084 305.6Z" stroke="url(#paint26_linear_316_20505)" stroke-width="2"/>
<path id="Ellipse 2_22" opacity="0.55102" d="M204.18 301.497C169.39 282.999 140.918 260.659 123.001 239.529C114.041 228.963 107.755 218.739 104.616 209.487C101.477 200.237 101.512 192.053 105.03 185.436C108.549 178.818 115.315 174.213 124.738 171.643C134.164 169.071 146.154 168.566 159.925 170.085C187.461 173.124 221.903 184.235 256.694 202.734C291.485 221.233 319.956 243.573 337.873 264.702C346.833 275.269 353.119 285.492 356.259 294.744C359.397 303.994 359.363 312.178 355.844 318.796C352.325 325.413 345.559 330.018 336.136 332.589C326.711 335.16 314.72 335.666 300.949 334.146C273.413 331.107 238.971 319.996 204.18 301.497Z" stroke="url(#paint27_linear_316_20505)" stroke-width="2"/>
<path id="Ellipse 2_21" opacity="0.571429" d="M195.241 295.58C165.461 271.465 142.538 244.721 129.533 221.011C123.029 209.154 119.03 198.101 117.866 188.545C116.702 178.994 118.376 171.027 123.1 165.195C127.823 159.362 135.268 156.068 144.852 155.221C154.44 154.373 166.083 155.986 179.033 159.882C204.929 167.674 235.855 184.536 265.634 208.651C295.414 232.766 318.337 259.51 331.343 283.22C337.847 295.077 341.845 306.13 343.009 315.686C344.173 325.237 342.499 333.204 337.776 339.036C333.053 344.869 325.608 348.163 316.023 349.01C306.435 349.858 294.792 348.245 281.842 344.349C255.946 336.557 225.021 319.695 195.241 295.58Z" stroke="url(#paint28_linear_316_20505)" stroke-width="2"/>
<path id="Ellipse 2_20" opacity="0.591837" d="M187.592 288.066C163.658 259.542 146.889 229.668 139.102 204.459C135.207 191.852 133.574 180.46 134.379 171.011C135.184 161.567 138.414 154.14 144.171 149.309C149.928 144.478 157.803 142.587 167.243 143.435C176.689 144.283 187.624 147.869 199.363 153.893C222.837 165.94 249.345 187.642 273.279 216.166C297.214 244.69 313.983 274.563 321.77 299.773C325.664 312.38 327.298 323.771 326.492 333.221C325.688 342.665 322.458 350.091 316.701 354.922C310.944 359.753 303.069 361.644 293.629 360.797C284.183 359.949 273.248 356.362 261.509 350.338C238.035 338.291 211.527 316.59 187.592 288.066Z" stroke="url(#paint29_linear_316_20505)" stroke-width="2"/>
<path id="Ellipse 2_19" opacity="0.612245" d="M181.525 279.23C163.999 247.611 153.713 215.946 151.221 190.338C149.975 177.532 150.683 166.289 153.369 157.34C156.054 148.398 160.693 141.809 167.275 138.161C173.858 134.512 181.903 134.07 190.909 136.532C199.922 138.995 209.831 144.353 220.031 152.196C240.428 167.88 261.831 193.382 279.357 225.001C296.884 256.62 307.169 288.285 309.661 313.893C310.907 326.699 310.2 337.942 307.513 346.891C304.828 355.833 300.19 362.422 293.607 366.07C287.025 369.719 278.98 370.161 269.973 367.699C260.96 365.236 251.051 359.878 240.852 352.035C220.455 336.351 199.052 310.849 181.525 279.23Z" stroke="url(#paint30_linear_316_20505)" stroke-width="2"/>
<path id="Ellipse 2_18" opacity="0.632653" d="M177.247 269.399C166.411 236.048 162.659 203.937 165.315 179C166.644 166.531 169.57 155.903 173.973 147.819C178.373 139.741 184.217 134.253 191.385 131.924C198.553 129.595 206.507 130.6 214.815 134.549C223.129 138.501 231.743 145.379 240.147 154.686C256.953 173.298 272.792 201.482 283.629 234.833C294.465 268.184 298.217 300.295 295.56 325.231C294.232 337.701 291.306 348.328 286.903 356.413C282.502 364.491 276.658 369.979 269.49 372.307C262.323 374.636 254.369 373.632 246.061 369.683C237.747 365.731 229.133 358.853 220.729 349.546C203.922 330.933 188.083 302.749 177.247 269.399Z" stroke="url(#paint31_linear_316_20505)" stroke-width="2"/>
<path id="Ellipse 2_17" opacity="0.653061" d="M174.927 258.932C170.785 225.203 173.348 193.941 180.797 170.676C188.274 147.321 200.531 132.405 215.514 130.566C230.496 128.726 245.997 140.234 258.903 161.086C271.759 181.857 281.808 211.571 285.949 245.3C290.091 279.029 287.528 310.291 280.079 333.556C272.602 356.91 260.345 371.827 245.363 373.666C230.38 375.506 214.879 363.998 201.973 343.146C189.117 322.374 179.068 292.661 174.927 258.932Z" stroke="url(#paint32_linear_316_20505)" stroke-width="2"/>
<path id="Ellipse 2_16" opacity="0.673469" d="M174.645 248.214C176.939 215.397 185.35 186.178 197.048 165.471C208.786 144.693 223.631 132.801 238.706 133.855C253.781 134.909 266.826 148.751 275.559 170.961C284.261 193.095 288.523 223.2 286.228 256.017C283.934 288.834 275.523 318.053 263.825 338.76C252.087 359.539 237.242 371.43 222.167 370.376C207.092 369.322 194.047 355.48 185.314 333.27C176.612 311.136 172.35 281.032 174.645 248.214Z" stroke="url(#paint33_linear_316_20505)" stroke-width="2"/>
<path id="Ellipse 2_15" opacity="0.693878" d="M176.414 237.64C184.647 206.912 198.223 180.784 213.469 163.375C228.762 145.913 245.492 137.471 260.106 141.386C274.72 145.302 284.988 160.979 289.501 183.748C294 206.447 292.692 235.862 284.459 266.591C276.225 297.319 262.65 323.447 247.404 340.856C232.111 358.318 215.38 366.761 200.766 362.845C186.153 358.929 175.885 343.252 171.372 320.483C166.873 297.784 168.18 268.369 176.414 237.64Z" stroke="url(#paint34_linear_316_20505)" stroke-width="2"/>
<path id="Ellipse 2_14" opacity="0.714286" d="M180.17 227.598C193.64 199.981 211.518 177.806 229.49 164.264C247.511 150.685 265.36 145.959 278.975 152.6C292.589 159.24 299.855 176.215 300.249 198.775C300.642 221.275 294.175 249.016 280.706 276.633C267.236 304.25 249.357 326.425 231.385 339.967C213.365 353.546 195.515 358.272 181.901 351.631C168.286 344.991 161.021 328.016 160.626 305.456C160.233 282.956 166.7 255.215 180.17 227.598Z" stroke="url(#paint35_linear_316_20505)" stroke-width="2"/>
<path id="Ellipse 2_13" opacity="0.734694" d="M185.769 218.457C203.607 194.785 224.795 177.213 244.589 167.914C264.429 158.593 282.601 157.688 294.714 166.815C306.826 175.942 310.965 193.66 307.474 215.301C303.991 236.891 292.94 262.102 275.101 285.774C257.263 309.446 236.075 327.018 216.281 336.317C196.441 345.638 178.269 346.543 166.156 337.416C154.044 328.289 149.905 310.571 153.396 288.93C156.879 267.34 167.93 242.129 185.769 218.457Z" stroke="url(#paint36_linear_316_20505)" stroke-width="2"/>
<path id="Ellipse 2_12" opacity="0.755102" d="M193.013 210.553C214.233 191.446 237.652 178.896 258.325 174.017C279.038 169.129 296.74 171.982 306.901 183.266C317.062 194.551 318.049 212.454 311.022 232.543C304.009 252.593 289.08 274.572 267.859 293.679C246.639 312.785 223.22 325.335 202.547 330.215C181.834 335.103 164.132 332.25 153.971 320.965C143.81 309.681 142.823 291.777 149.85 271.688C156.863 251.639 171.793 229.66 193.013 210.553Z" stroke="url(#paint37_linear_316_20505)" stroke-width="2"/>
<path id="Ellipse 2_11" opacity="0.77551" d="M201.633 204.176C225.177 190.029 249.717 182.682 270.328 182.199C290.973 181.715 307.45 188.104 315.281 201.137C323.112 214.17 321.017 231.718 310.898 249.719C300.795 267.691 282.788 285.908 259.243 300.055C235.699 314.202 211.16 321.549 190.548 322.032C169.904 322.516 153.427 316.127 145.596 303.094C137.765 290.061 139.859 272.513 149.978 254.512C160.082 236.54 178.089 218.322 201.633 204.176Z" stroke="url(#paint38_linear_316_20505)" stroke-width="2"/>
<path id="Ellipse 2_10" opacity="0.795918" d="M211.306 199.56C236.096 190.538 260.66 188.342 280.315 192.038C299.995 195.739 314.561 205.294 319.768 219.601C324.975 233.908 319.959 250.59 307.262 266.075C294.582 281.54 274.353 295.648 249.564 304.671C224.774 313.693 200.21 315.889 180.555 312.193C160.875 308.492 146.309 298.937 141.102 284.63C135.895 270.323 140.911 253.641 153.608 238.156C166.289 222.691 186.517 208.583 211.306 199.56Z" stroke="url(#paint39_linear_316_20505)" stroke-width="2"/>
<path id="Ellipse 2_9" opacity="0.816327" d="M221.688 196.876C246.668 192.919 270.228 195.602 288.113 203.086C306.015 210.577 318.082 222.799 320.467 237.856C322.852 252.914 315.152 268.266 300.441 280.923C285.744 293.567 264.166 303.399 239.186 307.355C214.205 311.312 190.646 308.629 172.76 301.145C154.858 293.654 142.791 281.433 140.406 266.375C138.021 251.317 145.721 235.965 160.432 223.309C175.13 210.664 196.707 200.833 221.688 196.876Z" stroke="url(#paint40_linear_316_20505)" stroke-width="2"/>
<path id="Ellipse 2_8" opacity="0.836735" d="M232.393 196.221C256.581 197.066 278.212 204.156 293.631 214.884C309.06 225.619 318.16 239.903 317.627 255.16C317.094 270.417 307.02 284.032 290.88 293.664C274.751 303.29 252.678 308.854 228.489 308.01C204.301 307.165 182.67 300.075 167.251 289.347C151.822 278.612 142.723 264.328 143.256 249.071C143.788 233.814 153.862 220.199 170.002 210.567C186.132 200.941 208.205 195.377 232.393 196.221Z" stroke="url(#paint41_linear_316_20505)" stroke-width="2"/>
<path id="Ellipse 2_7" opacity="0.857143" d="M243.02 197.621C265.54 202.82 284.463 213.682 296.861 226.988C309.263 240.299 315.067 255.964 311.628 270.86C308.189 285.756 296.106 297.291 279.123 303.818C262.147 310.343 240.378 311.81 217.857 306.61C195.337 301.411 176.414 290.55 164.016 277.243C151.613 263.932 145.81 248.268 149.249 233.372C152.688 218.476 164.771 206.941 181.754 200.413C198.73 193.889 220.499 192.422 243.02 197.621Z" stroke="url(#paint42_linear_316_20505)" stroke-width="2"/>
<path id="Ellipse 2_6" opacity="0.877551" d="M253.186 201.023C273.305 209.98 288.909 223.847 297.895 238.979C306.882 254.113 309.211 270.429 302.984 284.415C296.757 298.401 283.074 307.588 265.813 311.036C248.555 314.483 227.809 312.166 207.69 303.209C187.572 294.251 171.967 280.384 162.982 265.252C153.994 250.118 151.666 233.802 157.893 219.816C164.119 205.83 177.803 196.644 195.063 193.195C212.321 189.748 233.068 192.065 253.186 201.023Z" stroke="url(#paint43_linear_316_20505)" stroke-width="2"/>
<path id="Ellipse 2_5" opacity="0.897959" d="M262.516 206.302C279.661 218.307 291.529 234.327 296.886 250.482C302.242 266.637 301.074 282.86 292.28 295.419C283.487 307.978 268.641 314.625 251.628 315.116C234.615 315.608 215.503 309.935 198.358 297.93C181.212 285.924 169.344 269.905 163.988 253.75C158.631 237.594 159.799 221.371 168.593 208.812C177.387 196.254 192.232 189.607 209.245 189.115C226.258 188.623 245.37 194.297 262.516 206.302Z" stroke="url(#paint44_linear_316_20505)" stroke-width="2"/>
<path id="Ellipse 2_4" opacity="0.918367" d="M270.665 213.264C298.295 241.876 302.226 282.299 280.16 303.608C258.094 324.917 217.832 319.578 190.203 290.966C162.573 262.355 158.642 221.932 180.708 200.623C202.774 179.313 243.036 184.653 270.665 213.264Z" stroke="url(#paint45_linear_316_20505)" stroke-width="2"/>
<path id="Ellipse 2_3" opacity="0.938776" d="M277.339 221.655C297.793 253.152 293.054 292.136 267.289 308.868C241.524 325.6 203.983 314.074 183.528 282.576C163.073 251.079 167.813 212.095 193.578 195.363C219.342 178.631 256.884 190.157 277.339 221.655Z" stroke="url(#paint46_linear_316_20505)" stroke-width="2"/>
<path id="Ellipse 2_2" opacity="0.959184" d="M282.295 231.165C295.532 263.928 282.853 299.702 254.323 311.229C225.792 322.756 191.821 305.83 178.584 273.067C165.346 240.303 178.025 204.529 206.556 193.002C235.086 181.475 269.058 198.401 282.295 231.165Z" stroke="url(#paint47_linear_316_20505)" stroke-width="2"/>
<path id="Ellipse 2_1" opacity="0.979592" d="M285.337 241.444C291.656 273.949 272.116 304.976 241.855 310.858C211.595 316.74 181.854 295.292 175.536 262.787C169.218 230.282 188.758 199.255 219.018 193.373C249.279 187.491 279.019 208.939 285.337 241.444Z" stroke="url(#paint48_linear_316_20505)" stroke-width="2"/>
<circle id="Ellipse 2" cx="230.436" cy="252.116" r="55.9282" stroke="url(#paint49_linear_316_20505)" stroke-width="2"/>
</g>
<defs>
<linearGradient id="paint0_linear_316_20505" x1="226.096" y1="500.783" x2="235.103" y2="-15.2018" gradientUnits="userSpaceOnUse">
<stop stop-color="#6E8CA2"/>
<stop offset="1" stop-color="#4F6A7D"/>
</linearGradient>
<linearGradient id="paint1_linear_316_20505" x1="179.542" y1="491.558" x2="285.149" y2="-5.28442" gradientUnits="userSpaceOnUse">
<stop stop-color="#6E8CA2"/>
<stop offset="1" stop-color="#4F6A7D"/>
</linearGradient>
<linearGradient id="paint2_linear_316_20505" x1="136.32" y1="473.845" x2="331.615" y2="13.7573" gradientUnits="userSpaceOnUse">
<stop stop-color="#6E8CA2"/>
<stop offset="1" stop-color="#4F6A7D"/>
</linearGradient>
<linearGradient id="paint3_linear_316_20505" x1="97.9333" y1="448.568" x2="372.888" y2="40.9301" gradientUnits="userSpaceOnUse">
<stop stop-color="#6E8CA2"/>
<stop offset="1" stop-color="#4F6A7D"/>
</linearGradient>
<linearGradient id="paint4_linear_316_20505" x1="65.6441" y1="416.907" x2="407.586" y2="74.965" gradientUnits="userSpaceOnUse">
<stop stop-color="#6E8CA2"/>
<stop offset="1" stop-color="#4F6A7D"/>
</linearGradient>
<linearGradient id="paint5_linear_316_20505" x1="40.4747" y1="380.247" x2="434.647" y2="114.375" gradientUnits="userSpaceOnUse">
<stop stop-color="#6E8CA2"/>
<stop offset="1" stop-color="#4F6A7D"/>
</linearGradient>
<linearGradient id="paint6_linear_316_20505" x1="23.1197" y1="340.117" x2="453.305" y2="157.514" gradientUnits="userSpaceOnUse">
<stop stop-color="#6E8CA2"/>
<stop offset="1" stop-color="#4F6A7D"/>
</linearGradient>
<linearGradient id="paint7_linear_316_20505" x1="13.9647" y1="298.128" x2="463.145" y2="202.652" gradientUnits="userSpaceOnUse">
<stop stop-color="#6E8CA2"/>
<stop offset="1" stop-color="#4F6A7D"/>
</linearGradient>
<linearGradient id="paint8_linear_316_20505" x1="13.0768" y1="255.91" x2="464.102" y2="248.037" gradientUnits="userSpaceOnUse">
<stop stop-color="#6E8CA2"/>
<stop offset="1" stop-color="#4F6A7D"/>
</linearGradient>
<linearGradient id="paint9_linear_316_20505" x1="20.2019" y1="215.045" x2="456.445" y2="291.966" gradientUnits="userSpaceOnUse">
<stop stop-color="#6E8CA2"/>
<stop offset="1" stop-color="#4F6A7D"/>
</linearGradient>
<linearGradient id="paint10_linear_316_20505" x1="34.788" y1="177.013" x2="440.757" y2="332.85" gradientUnits="userSpaceOnUse">
<stop stop-color="#6E8CA2"/>
<stop offset="1" stop-color="#4F6A7D"/>
</linearGradient>
<linearGradient id="paint11_linear_316_20505" x1="56.0306" y1="143.136" x2="417.918" y2="369.269" gradientUnits="userSpaceOnUse">
<stop stop-color="#6E8CA2"/>
<stop offset="1" stop-color="#4F6A7D"/>
</linearGradient>
<linearGradient id="paint12_linear_316_20505" x1="82.8913" y1="114.53" x2="389.043" y2="400.02" gradientUnits="userSpaceOnUse">
<stop stop-color="#6E8CA2"/>
<stop offset="1" stop-color="#4F6A7D"/>
</linearGradient>
<linearGradient id="paint13_linear_316_20505" x1="114.157" y1="92.0715" x2="355.436" y2="424.163" gradientUnits="userSpaceOnUse">
<stop stop-color="#6E8CA2"/>
<stop offset="1" stop-color="#4F6A7D"/>
</linearGradient>
<linearGradient id="paint14_linear_316_20505" x1="148.489" y1="76.3717" x2="318.537" y2="441.04" gradientUnits="userSpaceOnUse">
<stop stop-color="#6E8CA2"/>
<stop offset="1" stop-color="#4F6A7D"/>
</linearGradient>
<linearGradient id="paint15_linear_316_20505" x1="184.472" y1="67.7615" x2="279.848" y2="450.296" gradientUnits="userSpaceOnUse">
<stop stop-color="#6E8CA2"/>
<stop offset="1" stop-color="#4F6A7D"/>
</linearGradient>
<linearGradient id="paint16_linear_316_20505" x1="220.698" y1="66.2867" x2="240.906" y2="451.882" gradientUnits="userSpaceOnUse">
<stop stop-color="#6E8CA2"/>
<stop offset="1" stop-color="#4F6A7D"/>
</linearGradient>
<linearGradient id="paint17_linear_316_20505" x1="255.788" y1="71.7183" x2="203.18" y2="446.043" gradientUnits="userSpaceOnUse">
<stop stop-color="#6E8CA2"/>
<stop offset="1" stop-color="#4F6A7D"/>
</linearGradient>
<linearGradient id="paint18_linear_316_20505" x1="288.471" y1="83.5708" x2="168.049" y2="433.301" gradientUnits="userSpaceOnUse">
<stop stop-color="#6E8CA2"/>
<stop offset="1" stop-color="#4F6A7D"/>
</linearGradient>
<linearGradient id="paint19_linear_316_20505" x1="317.61" y1="101.13" x2="136.729" y2="414.425" gradientUnits="userSpaceOnUse">
<stop stop-color="#6E8CA2"/>
<stop offset="1" stop-color="#4F6A7D"/>
</linearGradient>
<linearGradient id="paint20_linear_316_20505" x1="342.249" y1="123.491" x2="110.241" y2="390.387" gradientUnits="userSpaceOnUse">
<stop stop-color="#6E8CA2"/>
<stop offset="1" stop-color="#4F6A7D"/>
</linearGradient>
<linearGradient id="paint21_linear_316_20505" x1="361.654" y1="149.598" x2="89.3816" y2="362.321" gradientUnits="userSpaceOnUse">
<stop stop-color="#6E8CA2"/>
<stop offset="1" stop-color="#4F6A7D"/>
</linearGradient>
<linearGradient id="paint22_linear_316_20505" x1="375.318" y1="178.296" x2="74.6942" y2="331.472" gradientUnits="userSpaceOnUse">
<stop stop-color="#6E8CA2"/>
<stop offset="1" stop-color="#4F6A7D"/>
</linearGradient>
<linearGradient id="paint23_linear_316_20505" x1="382.981" y1="208.375" x2="66.46" y2="299.136" gradientUnits="userSpaceOnUse">
<stop stop-color="#6E8CA2"/>
<stop offset="1" stop-color="#4F6A7D"/>
</linearGradient>
<linearGradient id="paint24_linear_316_20505" x1="384.622" y1="238.626" x2="64.6888" y2="266.617" gradientUnits="userSpaceOnUse">
<stop stop-color="#6E8CA2"/>
<stop offset="1" stop-color="#4F6A7D"/>
</linearGradient>
<linearGradient id="paint25_linear_316_20505" x1="380.475" y1="267.885" x2="69.1561" y2="235.164" gradientUnits="userSpaceOnUse">
<stop stop-color="#6E8CA2"/>
<stop offset="1" stop-color="#4F6A7D"/>
</linearGradient>
<linearGradient id="paint26_linear_316_20505" x1="370.961" y1="295.079" x2="79.3718" y2="205.931" gradientUnits="userSpaceOnUse">
<stop stop-color="#6E8CA2"/>
<stop offset="1" stop-color="#4F6A7D"/>
</linearGradient>
<linearGradient id="paint27_linear_316_20505" x1="356.727" y1="319.265" x2="94.6755" y2="179.93" gradientUnits="userSpaceOnUse">
<stop stop-color="#6E8CA2"/>
<stop offset="1" stop-color="#4F6A7D"/>
</linearGradient>
<linearGradient id="paint28_linear_316_20505" x1="338.553" y1="339.665" x2="114.214" y2="157.999" gradientUnits="userSpaceOnUse">
<stop stop-color="#6E8CA2"/>
<stop offset="1" stop-color="#4F6A7D"/>
</linearGradient>
<linearGradient id="paint29_linear_316_20505" x1="317.344" y1="355.688" x2="137.01" y2="140.775" gradientUnits="userSpaceOnUse">
<stop stop-color="#6E8CA2"/>
<stop offset="1" stop-color="#4F6A7D"/>
</linearGradient>
<linearGradient id="paint30_linear_316_20505" x1="294.092" y1="366.945" x2="162.017" y2="128.674" gradientUnits="userSpaceOnUse">
<stop stop-color="#6E8CA2"/>
<stop offset="1" stop-color="#4F6A7D"/>
</linearGradient>
<linearGradient id="paint31_linear_316_20505" x1="269.799" y1="373.259" x2="188.124" y2="121.888" gradientUnits="userSpaceOnUse">
<stop stop-color="#6E8CA2"/>
<stop offset="1" stop-color="#4F6A7D"/>
</linearGradient>
<linearGradient id="paint32_linear_316_20505" x1="245.484" y1="374.659" x2="214.263" y2="120.382" gradientUnits="userSpaceOnUse">
<stop stop-color="#6E8CA2"/>
<stop offset="1" stop-color="#4F6A7D"/>
</linearGradient>
<linearGradient id="paint33_linear_316_20505" x1="222.097" y1="371.374" x2="239.401" y2="123.913" gradientUnits="userSpaceOnUse">
<stop stop-color="#6E8CA2"/>
<stop offset="1" stop-color="#4F6A7D"/>
</linearGradient>
<linearGradient id="paint34_linear_316_20505" x1="200.508" y1="363.811" x2="262.61" y2="132.043" gradientUnits="userSpaceOnUse">
<stop stop-color="#6E8CA2"/>
<stop offset="1" stop-color="#4F6A7D"/>
</linearGradient>
<linearGradient id="paint35_linear_316_20505" x1="181.462" y1="352.53" x2="283.086" y2="144.17" gradientUnits="userSpaceOnUse">
<stop stop-color="#6E8CA2"/>
<stop offset="1" stop-color="#4F6A7D"/>
</linearGradient>
<linearGradient id="paint36_linear_316_20505" x1="165.555" y1="338.215" x2="300.181" y2="159.559" gradientUnits="userSpaceOnUse">
<stop stop-color="#6E8CA2"/>
<stop offset="1" stop-color="#4F6A7D"/>
</linearGradient>
<linearGradient id="paint37_linear_316_20505" x1="153.228" y1="321.635" x2="313.435" y2="177.383" gradientUnits="userSpaceOnUse">
<stop stop-color="#6E8CA2"/>
<stop offset="1" stop-color="#4F6A7D"/>
</linearGradient>
<linearGradient id="paint38_linear_316_20505" x1="144.738" y1="303.609" x2="322.565" y2="196.76" gradientUnits="userSpaceOnUse">
<stop stop-color="#6E8CA2"/>
<stop offset="1" stop-color="#4F6A7D"/>
</linearGradient>
<linearGradient id="paint39_linear_316_20505" x1="140.162" y1="284.972" x2="327.478" y2="216.795" gradientUnits="userSpaceOnUse">
<stop stop-color="#6E8CA2"/>
<stop offset="1" stop-color="#4F6A7D"/>
</linearGradient>
<linearGradient id="paint40_linear_316_20505" x1="139.419" y1="266.531" x2="328.281" y2="236.619" gradientUnits="userSpaceOnUse">
<stop stop-color="#6E8CA2"/>
<stop offset="1" stop-color="#4F6A7D"/>
</linearGradient>
<linearGradient id="paint41_linear_316_20505" x1="142.256" y1="249.036" x2="325.24" y2="255.426" gradientUnits="userSpaceOnUse">
<stop stop-color="#6E8CA2"/>
<stop offset="1" stop-color="#4F6A7D"/>
</linearGradient>
<linearGradient id="paint42_linear_316_20505" x1="148.275" y1="233.147" x2="318.764" y2="272.507" gradientUnits="userSpaceOnUse">
<stop stop-color="#6E8CA2"/>
<stop offset="1" stop-color="#4F6A7D"/>
</linearGradient>
<linearGradient id="paint43_linear_316_20505" x1="156.979" y1="219.41" x2="309.407" y2="287.275" gradientUnits="userSpaceOnUse">
<stop stop-color="#6E8CA2"/>
<stop offset="1" stop-color="#4F6A7D"/>
</linearGradient>
<linearGradient id="paint44_linear_316_20505" x1="167.774" y1="208.239" x2="297.799" y2="299.284" gradientUnits="userSpaceOnUse">
<stop stop-color="#6E8CA2"/>
<stop offset="1" stop-color="#4F6A7D"/>
</linearGradient>
<linearGradient id="paint45_linear_316_20505" x1="180.013" y1="199.903" x2="284.636" y2="308.243" gradientUnits="userSpaceOnUse">
<stop stop-color="#6E8CA2"/>
<stop offset="1" stop-color="#4F6A7D"/>
</linearGradient>
<linearGradient id="paint46_linear_316_20505" x1="193.033" y1="194.524" x2="270.638" y2="314.026" gradientUnits="userSpaceOnUse">
<stop stop-color="#6E8CA2"/>
<stop offset="1" stop-color="#4F6A7D"/>
</linearGradient>
<linearGradient id="paint47_linear_316_20505" x1="206.181" y1="192.075" x2="256.517" y2="316.659" gradientUnits="userSpaceOnUse">
<stop stop-color="#6E8CA2"/>
<stop offset="1" stop-color="#4F6A7D"/>
</linearGradient>
<linearGradient id="paint48_linear_316_20505" x1="218.828" y1="192.391" x2="242.917" y2="316.319" gradientUnits="userSpaceOnUse">
<stop stop-color="#6E8CA2"/>
<stop offset="1" stop-color="#4F6A7D"/>
</linearGradient>
<linearGradient id="paint49_linear_316_20505" x1="230.436" y1="195.187" x2="230.436" y2="313.313" gradientUnits="userSpaceOnUse">
<stop stop-color="#6E8CA2"/>
<stop offset="1" stop-color="#4F6A7D"/>
</linearGradient>
</defs>
</svg>
