<svg width="704" height="308" viewBox="0 0 704 308" fill="none" xmlns="http://www.w3.org/2000/svg">
<g id="roche-infographic" clip-path="url(#clip0_16228_25092)">
<rect id="Rectangle 101" width="704" height="308" rx="16" fill="#F3FAFF"/>
<g id="Group">
<g id="Group_2">
<g id="Group_3">
<path id="Vector" d="M690.956 106.822C690.356 107.421 690.366 108.394 690.966 108.994C691.566 109.594 692.539 109.604 693.138 109.004C693.738 108.405 693.738 107.423 693.137 106.823C692.537 106.223 691.555 106.222 690.956 106.822Z" fill="#50A9DE"/>
<path id="Vector_2" d="M699.527 157.384C699.327 157.584 699.327 157.893 699.527 158.093C699.727 158.293 700.037 158.293 700.236 158.093C700.427 157.902 700.427 157.593 700.227 157.393C700.027 157.193 699.718 157.193 699.527 157.384Z" fill="#786EBE"/>
<path id="Vector_3" d="M685.006 165.066C684.56 165.512 684.552 166.248 685.006 166.703C685.461 167.157 686.188 167.158 686.643 166.703C687.088 166.258 687.096 165.522 686.642 165.067C686.196 164.622 685.46 164.612 685.006 165.066Z" fill="#0078C1"/>
<path id="Vector_4" d="M660.017 163.172C658.872 164.316 658.882 166.161 660.019 167.298C661.156 168.435 663.01 168.436 664.146 167.301C665.29 166.156 665.28 164.311 664.143 163.174C663.006 162.019 661.161 162.027 660.017 163.172Z" fill="#FFFFFE"/>
<path id="Vector_5" d="M645.957 167.827C645.621 168.163 645.612 168.718 645.957 169.063C646.294 169.4 646.848 169.409 647.194 169.064C647.539 168.719 647.539 168.173 647.193 167.828C646.838 167.491 646.293 167.491 645.957 167.827Z" fill="#FFFFFE"/>
<path id="Vector_6" d="M658.871 198.839C658.217 199.494 658.227 200.539 658.882 201.194C659.537 201.849 660.591 201.849 661.236 201.204C661.89 200.55 661.89 199.496 661.235 198.841C660.58 198.186 659.526 198.185 658.871 198.839Z" fill="#50A9DE"/>
<path id="Vector_7" d="M621.274 178.54C620.357 179.458 620.367 180.939 621.276 181.849C622.195 182.767 623.676 182.759 624.585 181.85C625.502 180.933 625.492 179.451 624.583 178.542C623.673 177.632 622.183 177.632 621.274 178.54Z" fill="#786EBE"/>
<path id="Vector_8" d="M629.305 202.96C629.078 203.187 629.078 203.569 629.305 203.796C629.532 204.023 629.914 204.023 630.141 203.796C630.369 203.569 630.377 203.197 630.141 202.96C629.905 202.724 629.532 202.733 629.305 202.96Z" fill="#FFFFFE"/>
<path id="Vector_9" d="M600.166 191.609C599.784 191.228 599.784 190.609 600.165 190.228C600.546 189.846 601.165 189.847 601.547 190.228C601.928 190.61 601.929 191.229 601.547 191.61C601.166 191.991 600.548 191.991 600.166 191.609Z" fill="#50A9DE"/>
<path id="Vector_10" d="M552.964 178.568C552.788 178.392 552.788 178.107 552.964 177.931C553.139 177.756 553.424 177.756 553.6 177.932C553.776 178.107 553.776 178.392 553.6 178.568C553.425 178.744 553.14 178.743 552.964 178.568Z" fill="#0078C1"/>
<path id="Vector_11" d="M541.612 180.461C541.039 181.034 541.04 181.943 541.613 182.516C542.177 183.08 543.095 183.089 543.667 182.517C544.23 181.954 544.239 181.035 543.666 180.463C543.093 179.89 542.184 179.889 541.612 180.461Z" fill="#0078C1"/>
<path id="Vector_12" d="M575.89 183.215C575.817 183.288 575.817 183.397 575.89 183.47C575.963 183.543 576.073 183.544 576.146 183.471C576.219 183.398 576.209 183.279 576.146 183.215C576.082 183.151 575.963 183.142 575.89 183.215Z" fill="#786EBE"/>
<path id="Vector_13" d="M592.826 169.026C592.744 169.108 592.735 169.245 592.826 169.336C592.917 169.427 593.045 169.427 593.136 169.336C593.227 169.245 593.227 169.117 593.136 169.026C593.045 168.935 592.917 168.935 592.826 169.026Z" fill="#FFFFFE"/>
<path id="Vector_14" d="M631.145 177.236C630.623 176.714 630.623 175.868 631.145 175.346C631.666 174.824 632.513 174.824 633.035 175.347C633.558 175.869 633.558 176.716 633.036 177.237C632.514 177.759 631.668 177.759 631.145 177.236Z" fill="#FFFFFE"/>
<path id="Vector_15" d="M631.39 141.432C631.036 141.786 631.045 142.359 631.391 142.704C631.745 143.059 632.318 143.05 632.663 142.705C633.018 142.35 633.008 141.778 632.663 141.432C632.317 141.087 631.744 141.077 631.39 141.432Z" fill="#0078C1"/>
<path id="Vector_16" d="M648.459 138.768C647.751 139.477 647.751 140.622 648.461 141.332C649.17 142.041 650.315 142.042 651.024 141.333C651.733 140.624 651.732 139.479 651.023 138.77C650.313 138.06 649.168 138.06 648.459 138.768Z" fill="#786EBE"/>
<path id="Vector_17" d="M675.979 147.064C675.838 146.923 675.838 146.695 675.978 146.555C676.119 146.414 676.347 146.414 676.487 146.555C676.628 146.695 676.628 146.923 676.488 147.064C676.347 147.204 676.119 147.204 675.979 147.064Z" fill="#0078C1"/>
<path id="Vector_18" d="M696.722 147.947C696.195 148.474 696.196 149.329 696.723 149.856C697.251 150.384 698.105 150.384 698.632 149.857C699.159 149.33 699.159 148.476 698.631 147.948C698.104 147.421 697.249 147.42 696.722 147.947Z" fill="#786EBE"/>
<path id="Vector_19" d="M668.583 101.165C668.083 101.665 668.084 102.483 668.584 102.983C669.084 103.483 669.893 103.493 670.402 102.984C670.901 102.484 670.901 101.666 670.401 101.166C669.901 100.666 669.082 100.665 668.583 101.165Z" fill="#0078C1"/>
<path id="Vector_20" d="M700.125 102.454C699.753 102.827 699.753 103.427 700.126 103.8C700.499 104.173 701.099 104.173 701.471 103.8C701.844 103.428 701.843 102.828 701.47 102.455C701.097 102.082 700.497 102.082 700.125 102.454Z" fill="#065E94"/>
<path id="Vector_21" d="M685.404 59.0969C684.786 59.7147 684.787 60.7328 685.405 61.3512C686.024 61.9696 687.042 61.9702 687.66 61.3524C688.287 60.7255 688.277 59.7165 687.659 59.0981C687.04 58.4797 686.031 58.47 685.404 59.0969Z" fill="#FFFFFE"/>
<path id="Vector_22" d="M689.863 34.8111C689.682 34.9928 689.682 35.2837 689.864 35.4656C690.046 35.6475 690.336 35.6477 690.518 35.466C690.7 35.2843 690.7 34.9934 690.518 34.8115C690.336 34.6296 690.036 34.6385 689.863 34.8111Z" fill="#50A9DE"/>
<path id="Vector_23" d="M698.837 55.4134C698.455 55.7949 697.837 55.7946 697.455 55.4126C697.073 55.0307 697.073 54.4125 697.454 54.031C697.836 53.6494 698.454 53.6497 698.836 54.0317C699.218 54.4137 699.218 55.0318 698.837 55.4134Z" fill="#148CD5"/>
<path id="Vector_24" d="M685.717 101.583C684.945 102.355 683.7 102.346 682.927 101.572C682.154 100.799 682.162 99.5541 682.925 98.791C683.697 98.0187 684.943 98.0285 685.707 98.7924C686.48 99.5655 686.49 100.811 685.717 101.583Z" fill="#0078C1"/>
<path id="Vector_25" d="M677.57 114.041C676.853 114.759 675.698 114.749 674.989 114.039C674.27 113.321 674.279 112.167 674.988 111.458C675.705 110.74 676.869 110.741 677.578 111.45C678.288 112.16 678.279 113.332 677.57 114.041Z" fill="#FFFFFE"/>
<path id="Vector_26" d="M649.561 107.418C649.215 107.763 648.652 107.763 648.306 107.417C647.961 107.072 647.96 106.508 648.306 106.163C648.651 105.817 649.214 105.818 649.56 106.163C649.906 106.509 649.906 107.073 649.561 107.418Z" fill="#0078C1"/>
<path id="Vector_27" d="M627.991 108.052C627.328 108.715 626.237 108.715 625.573 108.051C624.909 107.387 624.909 106.296 625.572 105.633C626.235 104.969 627.308 104.97 627.981 105.643C628.663 106.307 628.663 107.38 627.991 108.052Z" fill="#50A9DE"/>
<path id="Vector_28" d="M622.092 125.247C621.937 125.401 621.692 125.392 621.546 125.246C621.392 125.092 621.382 124.846 621.537 124.692C621.691 124.538 621.937 124.547 622.091 124.701C622.246 124.838 622.246 125.092 622.092 125.247Z" fill="#065E94"/>
<path id="Vector_29" d="M591.998 113.869C591.934 113.933 591.825 113.933 591.752 113.86C591.688 113.796 591.678 113.677 591.742 113.614C591.806 113.55 591.925 113.541 591.998 113.614C592.061 113.696 592.062 113.805 591.998 113.869Z" fill="#FFFFFE"/>
<path id="Vector_30" d="M630.769 170.737C630.478 171.028 630.024 171.027 629.733 170.736C629.442 170.445 629.442 169.991 629.732 169.7C630.014 169.419 630.477 169.41 630.768 169.701C631.059 169.992 631.06 170.446 630.769 170.737Z" fill="#148CD5"/>
<path id="Vector_31" d="M593.39 150.656C592.936 151.11 592.19 151.11 591.736 150.655C591.281 150.2 591.281 149.455 591.735 149.001C592.189 148.546 592.934 148.547 593.389 149.001C593.853 149.465 593.844 150.202 593.39 150.656Z" fill="#0078C1"/>
<path id="Vector_32" d="M573.936 147.591C572.964 148.563 571.383 148.563 570.41 147.589C569.436 146.616 569.436 145.035 570.408 144.063C571.38 143.091 572.961 143.091 573.935 144.064C574.917 145.047 574.909 146.619 573.936 147.591Z" fill="#FFFFFE"/>
<path id="Vector_33" d="M594.171 184.234C593.681 184.725 592.872 184.734 592.372 184.233C591.88 183.742 591.871 182.933 592.371 182.434C592.861 181.943 593.67 181.934 594.17 182.434C594.662 182.944 594.662 183.744 594.171 184.234Z" fill="#FFFFFE"/>
<path id="Vector_34" d="M597.185 194.444C596.722 194.907 595.977 194.907 595.504 194.434C595.04 193.97 595.04 193.225 595.503 192.761C595.966 192.298 596.712 192.298 597.175 192.762C597.648 193.235 597.649 193.981 597.185 194.444Z" fill="#FFFFFE"/>
<path id="Vector_35" d="M590.597 215.565C590.243 215.92 589.67 215.91 589.316 215.555C588.961 215.201 588.952 214.628 589.306 214.274C589.66 213.919 590.242 213.92 590.597 214.274C590.96 214.638 590.952 215.211 590.597 215.565Z" fill="#50A9DE"/>
<path id="Vector_36" d="M595.643 234.493C595.416 234.72 595.035 234.72 594.807 234.492C594.58 234.265 594.58 233.883 594.807 233.656C595.034 233.429 595.407 233.42 595.643 233.657C595.87 233.884 595.88 234.257 595.643 234.493Z" fill="#0078C1"/>
<path id="Vector_37" d="M611.251 218.576C610.897 218.93 610.333 218.93 609.978 218.575C609.624 218.221 609.633 217.648 609.978 217.303C610.332 216.948 610.905 216.958 611.25 217.303C611.605 217.64 611.605 218.222 611.251 218.576Z" fill="#FFFFFE"/>
<path id="Vector_38" d="M624.167 200.367C623.777 200.757 623.14 200.757 622.749 200.366C622.358 199.975 622.358 199.338 622.748 198.948C623.139 198.557 623.775 198.558 624.166 198.949C624.558 199.34 624.567 199.967 624.167 200.367Z" fill="#065E94"/>
<path id="Vector_39" d="M608.708 152.909C608.108 153.509 607.136 153.499 606.545 152.908C605.944 152.308 605.944 151.344 606.543 150.745C607.143 150.145 608.116 150.155 608.707 150.746C609.316 151.337 609.308 152.31 608.708 152.909Z" fill="#FFFFFE"/>
<path id="Vector_40" d="M636.738 146.779C635.975 147.542 634.748 147.533 633.993 146.778C633.238 146.023 633.237 144.787 633.991 144.033C634.745 143.279 635.982 143.279 636.737 144.034C637.491 144.789 637.492 146.025 636.738 146.779Z" fill="#50A9DE"/>
<path id="Vector_41" d="M629.87 120.179C629.216 120.833 628.171 120.823 627.525 120.177C626.879 119.532 626.879 118.477 627.524 117.832C628.169 117.187 629.223 117.188 629.869 117.834C630.515 118.479 630.524 119.525 629.87 120.179Z" fill="#065E94"/>
<path id="Vector_42" d="M657.034 127.61C656.607 128.037 655.925 128.028 655.507 127.61C655.089 127.191 655.088 126.5 655.506 126.082C655.924 125.665 656.615 125.665 657.033 126.083C657.452 126.502 657.452 127.192 657.034 127.61Z" fill="#FFFFFE"/>
<path id="Vector_43" d="M635.68 87.8311C635.423 87.5749 635.423 87.1598 635.679 86.9039C635.935 86.648 636.35 86.6482 636.606 86.9043C636.863 87.1605 636.863 87.5756 636.607 87.8315C636.351 88.0874 635.936 88.0872 635.68 87.8311Z" fill="#065E94"/>
<path id="Vector_44" d="M665.809 98.391C665.264 98.9361 664.391 98.9357 663.854 98.3991C663.318 97.8625 663.317 96.9899 663.863 96.4448C664.399 95.9088 665.271 95.9092 665.808 96.4458C666.344 96.9824 666.345 97.855 665.809 98.391Z" fill="#FFFFFE"/>
<path id="Vector_45" d="M697.979 100.308C697.852 100.435 697.652 100.435 697.525 100.308C697.397 100.18 697.406 99.9894 697.533 99.8622C697.661 99.735 697.861 99.7351 697.979 99.8533C698.106 99.9806 698.106 100.181 697.979 100.308Z" fill="#786EBE"/>
<path id="Vector_46" d="M517.617 184.812C517.099 185.33 517.1 186.166 517.618 186.685C518.136 187.203 518.973 187.203 519.491 186.686C520.008 186.168 520.008 185.332 519.489 184.813C518.98 184.286 518.135 184.294 517.617 184.812Z" fill="#786EBE"/>
<path id="Vector_47" d="M528.66 217.569C528.342 217.887 528.343 218.396 528.661 218.714C528.979 219.032 529.497 219.023 529.806 218.714C530.115 218.406 530.124 217.887 529.806 217.569C529.496 217.242 528.978 217.251 528.66 217.569Z" fill="#065E94"/>
<path id="Vector_48" d="M503.498 214.574C503.116 214.955 503.117 215.592 503.499 215.974C503.881 216.356 504.517 216.356 504.898 215.974C505.289 215.584 505.28 214.956 504.898 214.574C504.516 214.193 503.879 214.192 503.498 214.574Z" fill="#50A9DE"/>
<path id="Vector_49" d="M516.215 249.822C515.534 250.503 515.534 251.612 516.207 252.285C516.889 252.967 517.989 252.959 518.671 252.277C519.352 251.596 519.342 250.496 518.669 249.823C517.996 249.15 516.887 249.149 516.215 249.822Z" fill="#0078C1"/>
<path id="Vector_50" d="M468.95 235.953C468.768 236.135 468.768 236.426 468.95 236.608C469.132 236.789 469.423 236.79 469.605 236.608C469.786 236.426 469.786 236.135 469.604 235.953C469.422 235.772 469.131 235.771 468.95 235.953Z" fill="#FFFFFE"/>
<path id="Vector_51" d="M473.25 271.506C473.095 271.66 473.096 271.915 473.25 272.069C473.405 272.224 473.659 272.224 473.814 272.07C473.968 271.915 473.968 271.661 473.813 271.506C473.659 271.352 473.404 271.351 473.25 271.506Z" fill="#786EBE"/>
<path id="Vector_52" d="M459.502 246.129C458.702 246.928 458.703 248.237 459.512 249.047C460.322 249.856 461.622 249.848 462.421 249.048C463.23 248.24 463.229 246.931 462.429 246.13C461.61 245.33 460.301 245.329 459.502 246.129Z" fill="#0078C1"/>
<path id="Vector_53" d="M476.82 232.885C476.384 233.321 476.393 234.021 476.821 234.448C477.248 234.876 477.957 234.876 478.384 234.449C478.811 234.022 478.811 233.313 478.383 232.886C477.956 232.458 477.247 232.458 476.82 232.885Z" fill="#0078C1"/>
<path id="Vector_54" d="M504.554 234.581C503.872 235.262 503.873 236.371 504.546 237.044C505.228 237.727 506.328 237.718 507.009 237.037C507.691 236.355 507.681 235.255 507.008 234.582C506.344 233.9 505.235 233.9 504.554 234.581Z" fill="#FFFFFE"/>
<path id="Vector_55" d="M546.882 245.311C546.791 245.402 546.791 245.566 546.882 245.657C546.973 245.748 547.137 245.748 547.228 245.657C547.328 245.557 547.327 245.411 547.227 245.311C547.127 245.211 546.982 245.211 546.882 245.311Z" fill="#FFFFFE"/>
<path id="Vector_56" d="M550.386 218.525C549.741 219.17 549.741 220.206 550.387 220.852C551.033 221.498 552.069 221.498 552.714 220.853C553.359 220.208 553.349 219.163 552.713 218.526C552.076 217.89 551.031 217.88 550.386 218.525Z" fill="#0078C1"/>
<path id="Vector_57" d="M571.821 239.016C571.204 239.634 570.204 239.634 569.576 239.006C568.958 238.388 568.948 237.379 569.566 236.761C570.184 236.143 571.193 236.134 571.82 236.762C572.448 237.39 572.448 238.389 571.821 239.016Z" fill="#786EBE"/>
<path id="Vector_58" d="M564.602 253.511C564.52 253.593 564.383 253.602 564.301 253.52C564.219 253.438 564.21 253.301 564.301 253.21C564.383 253.128 564.511 253.128 564.602 253.219C564.684 253.283 564.684 253.429 564.602 253.511Z" fill="#786EBE"/>
<path id="Vector_59" d="M540.468 251.543C540.313 251.698 540.059 251.698 539.904 251.543C539.75 251.389 539.75 251.134 539.904 250.98C540.058 250.825 540.313 250.825 540.468 250.98C540.613 251.144 540.622 251.389 540.468 251.543Z" fill="#786EBE"/>
<path id="Vector_60" d="M521.008 254.615C520.854 254.769 520.599 254.769 520.445 254.614C520.29 254.46 520.29 254.205 520.444 254.051C520.599 253.896 520.844 253.906 520.999 254.06C521.153 254.215 521.154 254.469 521.008 254.615Z" fill="#FFFFFE"/>
<path id="Vector_61" d="M514.506 283.672C513.908 283.074 513.907 282.105 514.505 281.508C515.102 280.911 516.07 280.912 516.668 281.509C517.266 282.107 517.266 283.076 516.669 283.673C516.072 284.27 515.103 284.269 514.506 283.672Z" fill="#FFFFFE"/>
<path id="Vector_62" d="M500.352 298.608C499.979 298.98 499.361 298.98 498.988 298.607C498.616 298.234 498.615 297.616 498.988 297.244C499.369 296.862 499.978 296.871 500.351 297.244C500.733 297.626 500.734 298.226 500.352 298.608Z" fill="#0078C1"/>
<path id="Vector_63" d="M463.716 291.862C463.208 292.371 462.389 292.37 461.88 291.861C461.371 291.352 461.37 290.533 461.879 290.025C462.388 289.516 463.215 289.525 463.715 290.026C464.225 290.535 464.225 291.353 463.716 291.862Z" fill="#0078C1"/>
<path id="Vector_64" d="M449.635 307.18C449.253 307.562 448.644 307.552 448.271 307.179C447.898 306.806 447.889 306.197 448.27 305.816C448.643 305.443 449.261 305.444 449.634 305.817C450.016 306.199 450.016 306.798 449.635 307.18Z" fill="#FFFFFE"/>
<path id="Vector_65" d="M414.894 307.798C414.576 308.116 414.067 308.116 413.748 307.798C413.43 307.479 413.43 306.97 413.748 306.652C414.066 306.334 414.575 306.334 414.893 306.653C415.212 306.971 415.212 307.48 414.894 307.798Z" fill="#FFFFFE"/>
<path id="Vector_66" d="M446.236 290.244C445.854 290.625 445.245 290.616 444.872 290.243C444.49 289.861 444.49 289.261 444.871 288.88C445.244 288.507 445.853 288.498 446.235 288.88C446.608 289.253 446.617 289.862 446.236 290.244Z" fill="#786EBE"/>
<path id="Vector_67" d="M470.885 286.257C469.995 287.148 468.558 287.147 467.667 286.256C466.776 285.364 466.775 283.928 467.665 283.038C468.556 282.148 470.001 282.139 470.892 283.031C471.784 283.922 471.775 285.367 470.885 286.257Z" fill="#0078C1"/>
<path id="Vector_68" d="M568.844 298.872C568.572 299.144 568.135 299.144 567.862 298.871C567.59 298.598 567.589 298.162 567.862 297.889C568.135 297.617 568.571 297.617 568.844 297.89C569.117 298.163 569.117 298.599 568.844 298.872Z" fill="#FFFFFE"/>
<path id="Vector_69" d="M579.105 277.534C578.95 277.688 578.696 277.688 578.541 277.534C578.386 277.379 578.386 277.124 578.541 276.97C578.695 276.816 578.95 276.816 579.104 276.97C579.259 277.125 579.259 277.379 579.105 277.534Z" fill="#0078C1"/>
<path id="Vector_70" d="M601.788 269.928C601.243 270.473 600.353 270.473 599.807 269.927C599.261 269.382 599.261 268.491 599.806 267.946C600.351 267.401 601.242 267.401 601.787 267.947C602.333 268.492 602.334 269.383 601.788 269.928Z" fill="#148CD5"/>
</g>
<g id="Group_4">
<path id="Vector_71" d="M685.46 79.5583C685.261 79.7581 690.09 84.9147 696.256 91.0808C702.422 97.247 707.579 102.076 707.779 101.877C707.979 101.677 703.149 96.5202 696.983 90.354C690.817 84.1878 685.66 79.3584 685.46 79.5583Z" fill="#786EBE"/>
<path id="Vector_72" d="M653.538 134.199C666.225 146.886 676.348 157.335 676.148 157.535C675.948 157.735 665.499 147.613 652.811 134.926C640.124 122.238 630.002 111.789 630.202 111.589C630.393 111.38 640.842 121.503 653.538 134.199Z" fill="#FFFFFE"/>
<path id="Vector_73" d="M600.835 185.665C603.209 188.039 604.964 190.121 604.774 190.312C604.574 190.512 602.482 188.747 600.117 186.383C597.744 184.009 595.988 181.926 596.188 181.726C596.379 181.536 598.461 183.291 600.835 185.665Z" fill="#FFFFFE"/>
<path id="Vector_74" d="M632.815 154.522C640.245 161.952 646.112 168.145 645.912 168.345C645.712 168.545 639.528 162.688 632.088 155.248C624.658 147.818 618.792 141.625 618.991 141.425C619.2 141.234 625.385 147.091 632.815 154.522Z" fill="#0078C1"/>
<path id="Vector_75" d="M614.368 182.681C614.168 182.881 611.64 180.68 608.73 177.77C605.819 174.86 603.618 172.331 603.818 172.132C604.018 171.932 606.546 174.133 609.457 177.043C612.367 179.953 614.568 182.482 614.368 182.681Z" fill="#786EBE"/>
<path id="Vector_76" d="M622.501 176.932C622.301 177.132 619.509 174.667 616.263 171.42C613.016 168.173 610.551 165.382 610.751 165.182C610.951 164.982 613.734 167.456 616.98 170.702C620.236 173.94 622.701 176.732 622.501 176.932Z" fill="#FFFFFE"/>
<path id="Vector_77" d="M696.047 125.522C695.847 125.722 688.217 118.419 678.995 109.197C669.782 99.984 662.47 92.3447 662.669 92.1448C662.869 91.9449 670.5 99.2481 679.721 108.47C688.943 117.692 696.247 125.322 696.047 125.522Z" fill="#786EBE"/>
<path id="Vector_78" d="M709.573 90.1334C709.373 90.3333 706.417 87.7048 702.97 84.2579C699.532 80.8201 696.904 77.8645 697.104 77.6646C697.304 77.4648 700.259 80.0933 703.697 83.5311C707.144 86.978 709.772 89.9336 709.573 90.1334Z" fill="#786EBE"/>
<path id="Vector_79" d="M521.26 265.786C529.8 274.326 536.557 281.411 536.357 281.611C536.157 281.811 529.073 275.053 520.533 266.513C511.993 257.973 505.236 250.889 505.435 250.689C505.635 250.489 512.72 257.246 521.26 265.786Z" fill="#0078C1"/>
<path id="Vector_80" d="M579.015 246.156C578.816 246.355 570.194 238.061 559.753 227.62C549.313 217.18 541.018 208.558 541.218 208.358C541.418 208.158 550.039 216.453 560.48 226.894C570.921 237.334 579.215 245.956 579.015 246.156Z" fill="#FFFFFE"/>
<path id="Vector_81" d="M556.948 268.805C556.748 269.005 547.926 260.492 537.24 249.806C526.554 239.12 518.05 230.289 518.241 230.098C518.441 229.898 527.272 238.402 537.958 249.088C548.644 259.774 557.148 268.605 556.948 268.805Z" fill="#FFFFFE"/>
<path id="Vector_82" d="M487.358 323.135C487.158 323.335 481.837 318.341 475.462 311.966C469.096 305.6 464.094 300.27 464.293 300.071C464.493 299.871 469.814 304.882 476.18 311.248C482.564 317.615 487.557 322.935 487.358 323.135Z" fill="#065E94"/>
<path id="Vector_83" d="M480.891 333.385C480.691 333.585 474.47 327.691 467.004 320.224C459.537 312.758 453.643 306.537 453.843 306.337C454.043 306.137 460.264 312.031 467.731 319.498C475.197 326.982 481.091 333.185 480.891 333.385Z" fill="#0078C1"/>
<path id="Vector_84" d="M562.202 270.462C562.002 270.662 551.698 260.685 539.175 248.162C526.661 235.647 516.684 225.343 516.883 225.143C517.083 224.943 527.378 234.929 539.893 247.444C552.416 259.949 562.402 270.262 562.202 270.462Z" fill="#50A9DE"/>
<path id="Vector_85" d="M577.974 254.636C577.775 254.836 567.662 245.05 555.384 232.772C543.106 220.494 533.32 210.381 533.52 210.181C533.72 209.981 543.833 219.767 556.111 232.045C568.388 244.323 578.174 254.436 577.974 254.636Z" fill="#786EBE"/>
<path id="Vector_86" d="M700.832 115.535C699.842 116.525 699.843 118.143 700.834 119.134C701.825 120.126 703.443 120.127 704.434 119.136C705.424 118.146 705.423 116.528 704.432 115.537C703.44 114.545 701.822 114.545 700.832 115.535Z" fill="#50A9DE"/>
<path id="Vector_87" d="M694.032 130.121C693.041 131.111 693.042 132.729 694.034 133.72C695.025 134.712 696.643 134.712 697.633 133.722C698.623 132.732 698.623 131.114 697.631 130.122C696.631 129.122 695.022 129.13 694.032 130.121Z" fill="#FFFFFE"/>
<path id="Vector_88" d="M685.167 143.46C684.176 144.45 684.177 146.068 685.169 147.059C686.16 148.051 687.769 148.061 688.768 147.061C689.758 146.071 689.758 144.453 688.766 143.462C687.775 142.47 686.157 142.47 685.167 143.46Z" fill="#148CD5"/>
<path id="Vector_89" d="M673.957 155.343C672.957 156.343 672.967 157.952 673.958 158.943C674.95 159.934 676.559 159.944 677.558 158.945C678.548 157.955 678.547 156.337 677.556 155.345C676.565 154.354 674.947 154.353 673.957 155.343Z" fill="#FFFFFE"/>
<path id="Vector_90" d="M663.18 163.301C662.189 164.291 662.19 165.909 663.181 166.9C664.173 167.891 665.791 167.892 666.781 166.902C667.771 165.912 667.78 164.303 666.779 163.302C665.788 162.311 664.179 162.301 663.18 163.301Z" fill="#786EBE"/>
<path id="Vector_91" d="M651.157 169.357C650.167 170.347 650.168 171.965 651.159 172.957C652.15 173.948 653.768 173.949 654.759 172.959C655.749 171.968 655.748 170.35 654.757 169.359C653.765 168.368 652.147 168.367 651.157 169.357Z" fill="#FFFFFE"/>
<path id="Vector_92" d="M638.425 173.922C637.435 174.913 637.436 176.531 638.427 177.522C639.418 178.513 641.027 178.523 642.027 177.524C643.017 176.534 643.016 174.916 642.025 173.924C641.033 172.933 639.415 172.932 638.425 173.922Z" fill="#786EBE"/>
<path id="Vector_93" d="M625.483 177.388C624.493 178.378 624.493 179.996 625.485 180.988C626.476 181.979 628.094 181.98 629.084 180.99C630.084 179.99 630.074 178.381 629.082 177.39C628.091 176.399 626.482 176.389 625.483 177.388Z" fill="#065E94"/>
<path id="Vector_94" d="M612.431 180.744C611.441 181.735 611.442 183.353 612.433 184.344C613.425 185.335 615.043 185.336 616.033 184.346C617.023 183.356 617.022 181.738 616.031 180.746C615.04 179.755 613.422 179.754 612.431 180.744Z" fill="#786EBE"/>
<path id="Vector_95" d="M584.038 187.238C583.047 188.228 583.048 189.846 584.04 190.837C585.031 191.829 586.649 191.829 587.639 190.839C588.63 189.849 588.629 188.231 587.637 187.24C586.637 186.239 585.028 186.247 584.038 187.238Z" fill="#0078C1"/>
<path id="Vector_96" d="M571.04 188.122C570.049 189.112 570.05 190.73 571.042 191.721C572.033 192.713 573.651 192.713 574.641 191.723C575.64 190.724 575.631 189.115 574.639 188.124C573.639 187.123 572.03 187.131 571.04 188.122Z" fill="#786EBE"/>
<path id="Vector_97" d="M595.215 180.772C594.225 181.762 594.226 183.38 595.217 184.371C596.209 185.363 597.827 185.363 598.817 184.373C599.807 183.383 599.806 181.765 598.815 180.774C597.824 179.782 596.206 179.781 595.215 180.772Z" fill="#786EBE"/>
<path id="Vector_98" d="M619.991 174.422C618.991 175.421 619.001 177.03 619.993 178.021C620.984 179.013 622.593 179.023 623.592 178.023C624.583 177.033 624.582 175.415 623.59 174.424C622.599 173.432 620.981 173.432 619.991 174.422Z" fill="#50A9DE"/>
<path id="Vector_99" d="M644.111 166.545C643.111 167.544 643.121 169.153 644.113 170.144C645.104 171.135 646.713 171.145 647.712 170.146C648.703 169.156 648.702 167.538 647.71 166.546C646.71 165.546 645.101 165.554 644.111 166.545Z" fill="#786EBE"/>
<path id="Vector_100" d="M666.33 154.621C665.339 155.612 665.34 157.23 666.331 158.221C667.332 159.221 668.932 159.222 669.931 158.223C670.93 157.223 670.93 155.624 669.929 154.623C668.929 153.623 667.329 153.622 666.33 154.621Z" fill="#148CD5"/>
<path id="Vector_101" d="M676.924 145.464C675.933 146.455 675.934 148.073 676.926 149.064C677.917 150.055 679.535 150.056 680.525 149.066C681.515 148.076 681.515 146.458 680.523 145.466C679.523 144.466 677.914 144.474 676.924 145.464Z" fill="#786EBE"/>
<path id="Vector_102" d="M685.917 134.743C684.917 135.742 684.927 137.351 685.919 138.343C686.91 139.334 688.519 139.344 689.518 138.345C690.508 137.354 690.508 135.736 689.516 134.745C688.525 133.754 686.916 133.744 685.917 134.743Z" fill="#0078C1"/>
<path id="Vector_103" d="M693.391 122.867C692.401 123.857 692.393 125.466 693.393 126.466C694.385 127.457 696.003 127.458 696.993 126.468C697.983 125.478 697.982 123.86 696.991 122.868C696 121.877 694.391 121.867 693.391 122.867Z" fill="#FFFFFE"/>
<path id="Vector_104" d="M699.411 110.244C698.421 111.234 698.422 112.852 699.413 113.844C700.404 114.835 702.022 114.836 703.013 113.845C704.012 112.846 704.002 111.237 703.011 110.246C702.019 109.236 700.41 109.245 699.411 110.244Z" fill="#0078C1"/>
<path id="Vector_105" d="M687.389 81.4862C686.398 82.4765 684.78 82.4756 683.789 81.4843C682.798 80.493 682.797 78.875 683.787 77.8847C684.786 76.8854 686.395 76.8953 687.387 77.8866C688.378 78.878 688.379 80.496 687.389 81.4862Z" fill="#065E94"/>
<path id="Vector_106" d="M671.802 86.5048C670.811 87.495 669.193 87.4942 668.202 86.5029C667.211 85.5115 667.21 83.8936 668.2 82.9033C669.19 81.913 670.808 81.9139 671.8 82.9052C672.791 83.8965 672.792 85.5145 671.802 86.5048Z" fill="#50A9DE"/>
<path id="Vector_107" d="M657.225 93.3144C656.235 94.3047 654.617 94.3038 653.626 93.3125C652.635 92.3212 652.634 90.7032 653.624 89.7129C654.614 88.7226 656.232 88.7234 657.224 89.7148C658.215 90.7061 658.216 92.3241 657.225 93.3144Z" fill="#148CD5"/>
<path id="Vector_108" d="M643.877 102.17C642.887 103.16 641.269 103.159 640.278 102.168C639.286 101.177 639.276 99.5679 640.276 98.5685C641.266 97.5783 642.884 97.5792 643.875 98.5705C644.867 99.5618 644.867 101.18 643.877 102.17Z" fill="#065E94"/>
<path id="Vector_109" d="M631.993 113.381C630.994 114.38 629.385 114.37 628.394 113.379C627.402 112.387 627.392 110.778 628.392 109.779C629.382 108.789 631 108.79 631.991 109.781C632.983 110.772 632.983 112.39 631.993 113.381Z" fill="#148CD5"/>
<path id="Vector_110" d="M624.037 124.157C623.046 125.147 621.428 125.146 620.437 124.155C619.446 123.164 619.445 121.546 620.435 120.556C621.425 119.565 623.043 119.566 624.035 120.557C625.026 121.549 625.036 123.158 624.037 124.157Z" fill="#50A9DE"/>
<path id="Vector_111" d="M617.98 136.18C616.99 137.17 615.372 137.169 614.38 136.178C613.389 135.187 613.388 133.569 614.378 132.578C615.369 131.588 616.987 131.589 617.978 132.58C618.969 133.572 618.97 135.19 617.98 136.18Z" fill="#FFFFFE"/>
<path id="Vector_112" d="M613.414 148.912C612.424 149.903 610.806 149.902 609.815 148.91C608.823 147.919 608.813 146.31 609.813 145.311C610.803 144.32 612.421 144.321 613.412 145.313C614.404 146.304 614.405 147.922 613.414 148.912Z" fill="#786EBE"/>
<path id="Vector_113" d="M609.949 161.854C608.959 162.845 607.341 162.844 606.349 161.853C605.358 160.861 605.357 159.243 606.347 158.253C607.347 157.254 608.956 157.263 609.947 158.255C610.938 159.246 610.948 160.855 609.949 161.854Z" fill="#786EBE"/>
<path id="Vector_114" d="M606.593 174.906C605.602 175.896 603.994 175.904 602.993 174.904C601.993 173.903 602.001 172.294 602.991 171.304C603.982 170.314 605.59 170.306 606.591 171.306C607.591 172.306 607.583 173.915 606.593 174.906Z" fill="#FFFFFE"/>
<path id="Vector_115" d="M608.27 183.778C607.28 184.768 605.662 184.768 604.67 183.776C603.679 182.785 603.678 181.167 604.669 180.177C605.659 179.186 607.277 179.187 608.268 180.179C609.269 181.179 609.269 182.779 608.27 183.778Z" fill="#0078C1"/>
<path id="Vector_116" d="M600.108 203.308C599.118 204.298 597.5 204.297 596.509 203.306C595.517 202.315 595.516 200.697 596.507 199.706C597.497 198.716 599.106 198.708 600.106 199.708C601.098 200.7 601.098 202.318 600.108 203.308Z" fill="#148CD5"/>
<path id="Vector_117" d="M599.216 216.297C598.225 217.287 596.616 217.295 595.616 216.295C594.625 215.304 594.624 213.686 595.614 212.695C596.613 211.696 598.222 211.706 599.214 212.697C600.214 213.698 600.206 215.307 599.216 216.297Z" fill="#065E94"/>
<path id="Vector_118" d="M606.566 192.122C605.575 193.112 603.966 193.12 602.966 192.12C601.975 191.129 601.974 189.511 602.964 188.52C603.954 187.53 605.572 187.531 606.564 188.522C607.564 189.523 607.556 191.132 606.566 192.122Z" fill="#786EBE"/>
<path id="Vector_119" d="M612.924 167.355C611.925 168.355 610.316 168.345 609.325 167.353C608.333 166.362 608.324 164.753 609.323 163.754C610.313 162.763 611.931 162.764 612.923 163.756C613.914 164.747 613.915 166.365 612.924 167.355Z" fill="#786EBE"/>
<path id="Vector_120" d="M620.801 143.235C619.802 144.234 618.193 144.224 617.202 143.233C616.211 142.242 616.201 140.633 617.2 139.634C618.19 138.643 619.808 138.644 620.8 139.635C621.791 140.627 621.792 142.245 620.801 143.235Z" fill="#50A9DE"/>
<path id="Vector_121" d="M632.716 121.007C631.725 121.998 630.116 122.006 629.116 121.005C628.125 120.014 628.115 118.405 629.114 117.406C630.113 116.407 631.722 116.416 632.714 117.408C633.714 118.408 633.715 120.008 632.716 121.007Z" fill="#148CD5"/>
<path id="Vector_122" d="M641.881 110.423C640.891 111.413 639.273 111.412 638.282 110.421C637.291 109.429 637.29 107.811 638.28 106.821C639.27 105.831 640.888 105.832 641.88 106.823C642.871 107.814 642.872 109.432 641.881 110.423Z" fill="#0078C1"/>
<path id="Vector_123" d="M652.594 101.42C651.594 102.42 649.986 102.41 648.994 101.418C647.994 100.418 647.993 98.818 648.992 97.8187C649.983 96.8284 651.592 96.8202 652.592 97.8206C653.592 98.821 653.593 100.421 652.594 101.42Z" fill="#786EBE"/>
<path id="Vector_124" d="M664.47 93.9454C663.48 94.9357 661.862 94.9349 660.871 93.9435C659.879 92.9522 659.879 91.3342 660.869 90.344C661.859 89.3537 663.477 89.3545 664.468 90.3459C665.469 91.3463 665.47 92.9461 664.47 93.9454Z" fill="#50A9DE"/>
<path id="Vector_125" d="M677.093 87.9256C676.102 88.9159 674.484 88.915 673.493 87.9237C672.502 86.9324 672.501 85.3144 673.491 84.3241C674.49 83.3247 676.099 83.3346 677.091 84.326C678.082 85.3173 678.092 86.9262 677.093 87.9256Z" fill="#0078C1"/>
<path id="Vector_126" d="M699.823 80.3839C698.833 81.3742 697.215 81.3733 696.223 80.382C695.232 79.3907 695.231 77.7727 696.221 76.7824C697.212 75.7922 698.83 75.793 699.821 76.7843C700.812 77.7757 700.813 79.3937 699.823 80.3839Z" fill="#0078C1"/>
<path id="Vector_127" d="M553.175 198.602C552.184 199.592 552.176 201.201 553.176 202.202C554.168 203.193 555.786 203.194 556.776 202.203C557.766 201.213 557.766 199.595 556.774 198.604C555.783 197.594 554.174 197.603 553.175 198.602Z" fill="#FFFFFE"/>
<path id="Vector_128" d="M539.536 206.676C538.545 207.666 538.546 209.284 539.538 210.275C540.529 211.267 542.147 211.267 543.137 210.277C544.127 209.287 544.136 207.678 543.135 206.678C542.135 205.677 540.526 205.685 539.536 206.676Z" fill="#0078C1"/>
<path id="Vector_129" d="M527.178 216.504C526.188 217.495 526.189 219.113 527.18 220.104C528.172 221.095 529.79 221.096 530.78 220.106C531.77 219.116 531.769 217.498 530.778 216.506C529.787 215.515 528.178 215.505 527.178 216.504Z" fill="#148CD5"/>
<path id="Vector_130" d="M516.44 228.297C515.45 229.288 515.451 230.905 516.442 231.897C517.434 232.888 519.043 232.898 520.042 231.899C521.032 230.909 521.031 229.291 520.04 228.299C519.049 227.308 517.431 227.307 516.44 228.297Z" fill="#786EBE"/>
<path id="Vector_131" d="M504.398 249.652C503.399 250.652 503.409 252.26 504.4 253.252C505.392 254.243 507.001 254.253 508 253.254C508.99 252.263 508.989 250.645 507.998 249.654C507.007 248.663 505.398 248.653 504.398 249.652Z" fill="#FFFFFE"/>
<path id="Vector_132" d="M496.375 272.863C495.385 273.854 495.386 275.472 496.377 276.463C497.368 277.454 498.986 277.455 499.977 276.465C500.967 275.475 500.966 273.857 499.975 272.865C498.983 271.874 497.365 271.873 496.375 272.863Z" fill="#FFFFFE"/>
<path id="Vector_133" d="M490.534 296.912C489.535 297.912 489.545 299.52 490.536 300.512C491.527 301.503 493.136 301.513 494.136 300.514C495.126 299.523 495.125 297.905 494.134 296.914C493.133 295.914 491.524 295.922 490.534 296.912Z" fill="#065E94"/>
<path id="Vector_134" d="M486.122 308.363C485.132 309.353 485.133 310.971 486.124 311.963C487.115 312.954 488.733 312.955 489.724 311.965C490.714 310.974 490.713 309.356 489.722 308.365C488.721 307.365 487.112 307.373 486.122 308.363Z" fill="#FFFFFE"/>
<path id="Vector_135" d="M491.255 284.859C490.265 285.849 490.266 287.467 491.257 288.459C492.248 289.45 493.866 289.451 494.857 288.461C495.856 287.461 495.846 285.852 494.855 284.861C493.863 283.87 492.254 283.86 491.255 284.859Z" fill="#786EBE"/>
<path id="Vector_136" d="M496.569 261.446C495.579 262.437 495.58 264.055 496.571 265.046C497.562 266.037 499.18 266.038 500.171 265.048C501.161 264.058 501.169 262.449 500.169 261.448C499.168 260.448 497.569 260.447 496.569 261.446Z" fill="#786EBE"/>
<path id="Vector_137" d="M504.683 238.981C503.693 239.971 503.694 241.589 504.685 242.58C505.676 243.572 507.294 243.572 508.285 242.582C509.284 241.583 509.274 239.974 508.283 238.983C507.292 237.991 505.674 237.99 504.683 238.981Z" fill="#FFFFFE"/>
<path id="Vector_138" d="M515.084 223.343C514.084 224.342 514.094 225.951 515.085 226.942C516.077 227.934 517.686 227.943 518.685 226.944C519.675 225.954 519.674 224.336 518.683 223.345C517.692 222.353 516.074 222.352 515.084 223.343Z" fill="#FFFFFE"/>
<path id="Vector_139" d="M530.9 207.562C529.91 208.552 529.911 210.17 530.902 211.161C531.894 212.153 533.512 212.154 534.502 211.163C535.492 210.173 535.491 208.555 534.5 207.564C533.509 206.573 531.9 206.563 530.9 207.562Z" fill="#065E94"/>
<path id="Vector_140" d="M549.383 195.755C548.393 196.745 548.394 198.363 549.385 199.354C550.376 200.346 551.994 200.346 552.985 199.356C553.975 198.366 553.974 196.748 552.983 195.757C551.982 194.774 550.374 194.764 549.383 195.755Z" fill="#50A9DE"/>
<path id="Vector_141" d="M588.744 234.171C587.754 235.162 586.136 235.161 585.145 234.17C584.153 233.178 584.152 231.56 585.143 230.57C586.133 229.58 587.751 229.58 588.742 230.572C589.743 231.554 589.744 233.172 588.744 234.171Z" fill="#065E94"/>
<path id="Vector_142" d="M580.661 247.802C579.671 248.792 578.053 248.791 577.061 247.8C576.07 246.809 576.069 245.191 577.06 244.2C578.05 243.21 579.668 243.211 580.659 244.202C581.65 245.194 581.651 246.812 580.661 247.802Z" fill="#148CD5"/>
<path id="Vector_143" d="M570.833 260.159C569.843 261.149 568.234 261.157 567.233 260.157C566.242 259.165 566.241 257.547 567.231 256.557C568.222 255.567 569.84 255.568 570.831 256.559C571.822 257.55 571.832 259.159 570.833 260.159Z" fill="#0078C1"/>
<path id="Vector_144" d="M559.039 270.896C558.049 271.887 556.431 271.886 555.44 270.894C554.449 269.903 554.439 268.294 555.438 267.295C556.428 266.305 558.046 266.306 559.038 267.297C560.029 268.288 560.03 269.906 559.039 270.896Z" fill="#0078C1"/>
<path id="Vector_145" d="M537.685 282.939C536.686 283.938 535.086 283.937 534.086 282.937C533.094 281.945 533.084 280.336 534.084 279.337C535.074 278.347 536.692 278.348 537.683 279.339C538.684 280.339 538.685 281.939 537.685 282.939Z" fill="#148CD5"/>
<path id="Vector_146" d="M514.474 290.962C513.484 291.952 511.866 291.951 510.874 290.96C509.883 289.969 509.882 288.351 510.872 287.36C511.863 286.37 513.481 286.371 514.472 287.362C515.472 288.363 515.464 289.972 514.474 290.962Z" fill="#50A9DE"/>
<path id="Vector_147" d="M490.425 296.803C489.426 297.802 487.817 297.793 486.825 296.801C485.834 295.81 485.824 294.201 486.823 293.202C487.814 292.211 489.432 292.212 490.423 293.203C491.423 294.204 491.415 295.813 490.425 296.803Z" fill="#50A9DE"/>
<path id="Vector_148" d="M466.549 302.326C465.55 303.325 463.941 303.315 462.95 302.324C461.958 301.333 461.957 299.715 462.948 298.725C463.938 297.734 465.556 297.735 466.547 298.726C467.539 299.718 467.539 301.336 466.549 302.326Z" fill="#065E94"/>
<path id="Vector_149" d="M450.962 307.344C449.963 308.344 448.354 308.334 447.363 307.342C446.372 306.351 446.362 304.742 447.361 303.743C448.351 302.753 449.969 302.753 450.961 303.745C451.952 304.736 451.953 306.354 450.962 307.344Z" fill="#FFFFFE"/>
<path id="Vector_150" d="M456.262 308.756C455.263 309.756 453.654 309.746 452.663 308.754C451.671 307.763 451.661 306.154 452.661 305.155C453.651 304.165 455.269 304.165 456.26 305.157C457.252 306.148 457.253 307.766 456.262 308.756Z" fill="#FFFFFE"/>
<path id="Vector_151" d="M478.983 301.224C477.993 302.214 476.375 302.213 475.383 301.222C474.392 300.231 474.391 298.613 475.381 297.622C476.372 296.632 477.99 296.633 478.981 297.624C479.972 298.615 479.973 300.233 478.983 301.224Z" fill="#FFFFFE"/>
<path id="Vector_152" d="M502.478 296.082C501.488 297.072 499.87 297.071 498.878 296.08C497.887 295.089 497.886 293.471 498.876 292.481C499.876 291.481 501.485 291.491 502.476 292.482C503.467 293.474 503.477 295.083 502.478 296.082Z" fill="#FFFFFE"/>
<path id="Vector_153" d="M525.89 290.768C524.9 291.758 523.282 291.757 522.291 290.766C521.299 289.775 521.298 288.157 522.289 287.166C523.279 286.176 524.897 286.177 525.888 287.168C526.889 288.15 526.89 289.768 525.89 290.768Z" fill="#50A9DE"/>
<path id="Vector_154" d="M548.365 282.662C547.375 283.653 545.757 283.652 544.765 282.661C543.774 281.669 543.773 280.051 544.763 279.061C545.763 278.062 547.372 278.072 548.363 279.063C549.354 280.054 549.355 281.672 548.365 282.662Z" fill="#0078C1"/>
<path id="Vector_155" d="M563.994 272.254C562.995 273.253 561.386 273.243 560.395 272.252C559.404 271.26 559.394 269.651 560.393 268.652C561.383 267.662 563.001 267.663 563.993 268.654C564.993 269.654 564.985 271.263 563.994 272.254Z" fill="#0078C1"/>
<path id="Vector_156" d="M579.775 256.436C578.785 257.427 577.167 257.426 576.175 256.435C575.184 255.443 575.183 253.825 576.173 252.835C577.164 251.845 578.782 251.846 579.773 252.837C580.764 253.828 580.774 255.437 579.775 256.436Z" fill="#FFFFFE"/>
<path id="Vector_157" d="M591.582 237.954C590.592 238.944 588.974 238.943 587.983 237.952C586.991 236.961 586.99 235.343 587.981 234.352C588.971 233.362 590.589 233.363 591.58 234.354C592.572 235.364 592.572 236.964 591.582 237.954Z" fill="#50A9DE"/>
</g>
</g>
</g>
<g id="Group_5">
<g id="Group_6">
<g id="Group_7">
<path id="Vector_158" d="M255.459 23.9254C254.768 24.6159 254.769 25.7249 255.46 26.4161C256.151 27.1073 257.26 27.1079 257.951 26.4174C258.641 25.7269 258.641 24.618 257.949 23.9268C257.258 23.2356 256.14 23.2441 255.459 23.9254Z" fill="#FFFFFE"/>
<path id="Vector_159" d="M222.597 20.4632C221.998 21.0628 222.007 22.0354 222.607 22.6357C223.208 23.2359 224.18 23.2455 224.78 22.6459C225.38 22.0463 225.379 21.0646 224.779 20.4643C224.179 19.8641 223.197 19.8635 222.597 20.4632Z" fill="#50A9DE"/>
<path id="Vector_160" d="M247.428 65.8983C247.037 66.2889 247.037 66.9252 247.428 67.3163C247.819 67.7073 248.456 67.7077 248.846 67.317C249.237 66.9264 249.237 66.2901 248.846 65.899C248.455 65.5079 247.818 65.5076 247.428 65.8983Z" fill="#786EBE"/>
<path id="Vector_161" d="M231.169 71.0254C230.969 71.2253 230.969 71.5343 231.169 71.7344C231.369 71.9345 231.678 71.9346 231.878 71.7348C232.069 71.544 232.069 71.2349 231.869 71.0348C231.668 70.8348 231.359 70.8346 231.169 71.0254Z" fill="#786EBE"/>
<path id="Vector_162" d="M216.647 78.7078C216.202 79.153 216.193 79.8893 216.648 80.344C217.103 80.7988 217.83 80.7991 218.284 80.3449C218.729 79.8997 218.738 79.1634 218.283 78.7087C217.838 78.2631 217.101 78.2536 216.647 78.7078Z" fill="#0078C1"/>
<path id="Vector_163" d="M191.658 76.813C190.513 77.9577 190.523 79.803 191.66 80.9398C192.797 82.0766 194.651 82.0776 195.787 80.942C196.932 79.7973 196.922 77.952 195.785 76.8152C194.648 75.6602 192.803 75.6683 191.658 76.813Z" fill="#FFFFFE"/>
<path id="Vector_164" d="M177.598 81.4686C177.262 81.8048 177.253 82.3592 177.599 82.7048C177.935 83.0413 178.49 83.0507 178.835 82.7055C179.18 82.3602 179.18 81.8148 178.835 81.4692C178.48 81.1327 177.935 81.1324 177.598 81.4686Z" fill="#FFFFFE"/>
<path id="Vector_165" d="M190.513 112.481C189.859 113.135 189.869 114.18 190.523 114.835C191.178 115.49 192.233 115.491 192.878 114.846C193.532 114.191 193.531 113.137 192.876 112.482C192.222 111.827 191.167 111.827 190.513 112.481Z" fill="#50A9DE"/>
<path id="Vector_166" d="M152.916 92.1815C151.998 93.0991 152.008 94.5807 152.918 95.4902C153.836 96.4088 155.318 96.4005 156.226 95.492C157.144 94.5744 157.134 93.0927 156.224 92.1833C155.315 91.2738 153.824 91.273 152.916 92.1815Z" fill="#786EBE"/>
<path id="Vector_167" d="M160.946 116.601C160.719 116.828 160.719 117.21 160.947 117.437C161.174 117.665 161.556 117.665 161.783 117.438C162.01 117.211 162.019 116.838 161.782 116.602C161.546 116.365 161.173 116.374 160.946 116.601Z" fill="#FFFFFE"/>
<path id="Vector_168" d="M131.807 105.251C131.426 104.869 131.425 104.251 131.807 103.869C132.188 103.488 132.807 103.488 133.188 103.87C133.57 104.252 133.57 104.87 133.189 105.252C132.808 105.633 132.189 105.633 131.807 105.251Z" fill="#50A9DE"/>
<path id="Vector_169" d="M84.6055 92.2091C84.4297 92.0333 84.4295 91.7484 84.6051 91.5728C84.7807 91.3972 85.0656 91.3974 85.2414 91.5732C85.4172 91.749 85.4174 92.0338 85.2418 92.2095C85.0661 92.3851 84.7813 92.3849 84.6055 92.2091Z" fill="#0078C1"/>
<path id="Vector_170" d="M73.2533 94.1029C72.6809 94.6753 72.6814 95.5842 73.2544 96.1572C73.8183 96.7211 74.7363 96.7307 75.3087 96.1583C75.8719 95.595 75.8805 94.677 75.3076 94.104C74.7346 93.531 73.8256 93.5306 73.2533 94.1029Z" fill="#0078C1"/>
<path id="Vector_171" d="M107.532 96.8566C107.459 96.9296 107.459 97.039 107.532 97.1119C107.605 97.1849 107.714 97.185 107.787 97.1121C107.86 97.0392 107.851 96.9206 107.787 96.8568C107.723 96.7929 107.605 96.7837 107.532 96.8566Z" fill="#786EBE"/>
<path id="Vector_172" d="M124.467 82.6672C124.385 82.7493 124.376 82.886 124.467 82.9773C124.559 83.0685 124.686 83.0686 124.778 82.9774C124.869 82.8863 124.869 82.7586 124.777 82.6674C124.686 82.5762 124.558 82.5761 124.467 82.6672Z" fill="#FFFFFE"/>
<path id="Vector_173" d="M162.787 90.8779C162.265 90.3555 162.264 89.509 162.786 88.9871C163.308 88.4653 164.154 88.4657 164.677 88.9881C165.199 89.5105 165.2 90.357 164.678 90.8788C164.156 91.4007 163.309 91.4002 162.787 90.8779Z" fill="#FFFFFE"/>
<path id="Vector_174" d="M163.032 55.073C162.677 55.4274 162.687 56 163.032 56.3456C163.387 56.7003 163.96 56.6915 164.305 56.3463C164.659 55.992 164.65 55.4193 164.304 55.0737C163.959 54.7281 163.386 54.7187 163.032 55.073Z" fill="#0078C1"/>
<path id="Vector_175" d="M180.101 52.4097C179.392 53.1183 179.393 54.2637 180.102 54.9731C180.811 55.6824 181.957 55.683 182.665 54.9744C183.374 54.2657 183.374 53.1204 182.664 52.411C181.955 51.7016 180.809 51.701 180.101 52.4097Z" fill="#786EBE"/>
<path id="Vector_176" d="M207.62 60.7051C207.48 60.5644 207.479 60.3365 207.62 60.196C207.76 60.0555 207.988 60.0556 208.129 60.1963C208.27 60.3369 208.27 60.5648 208.129 60.7053C207.989 60.8458 207.761 60.8457 207.62 60.7051Z" fill="#0078C1"/>
<path id="Vector_177" d="M228.364 61.5886C227.837 62.1156 227.837 62.97 228.365 63.4975C228.892 64.025 229.747 64.0255 230.274 63.4985C230.801 62.9716 230.8 62.1171 230.273 61.5896C229.745 61.0621 228.891 61.0617 228.364 61.5886Z" fill="#786EBE"/>
<path id="Vector_178" d="M200.224 14.8065C199.725 15.3061 199.725 16.1242 200.225 16.6244C200.725 17.1246 201.534 17.1342 202.043 16.6254C202.543 16.1257 202.542 15.3077 202.042 14.8075C201.542 14.3072 200.724 14.3068 200.224 14.8065Z" fill="#0078C1"/>
<path id="Vector_179" d="M231.767 16.0958C231.394 16.4683 231.394 17.0682 231.767 17.4411C232.14 17.814 232.74 17.8143 233.113 17.4418C233.485 17.0693 233.485 16.4694 233.112 16.0965C232.739 15.7236 232.139 15.7233 231.767 16.0958Z" fill="#065E94"/>
<path id="Vector_180" d="M255.732 24.1983C255.55 24.38 255.259 24.3798 255.077 24.1979C254.895 24.016 254.895 23.7252 255.077 23.5435C255.259 23.3618 255.549 23.3619 255.731 23.5438C255.904 23.7348 255.913 24.0166 255.732 24.1983Z" fill="#FFFFFE"/>
<path id="Vector_181" d="M217.359 15.2245C216.587 15.9968 215.341 15.987 214.568 15.214C213.795 14.4409 213.804 13.1956 214.567 12.4324C215.339 11.6602 216.584 11.6699 217.348 12.4339C218.121 13.2069 218.131 14.4523 217.359 15.2245Z" fill="#0078C1"/>
<path id="Vector_182" d="M209.212 27.6823C208.494 28.4 207.34 28.3903 206.63 27.6809C205.912 26.9625 205.92 25.8081 206.629 25.0994C207.347 24.3817 208.51 24.3824 209.22 25.0917C209.929 25.8011 209.921 26.9737 209.212 27.6823Z" fill="#FFFFFE"/>
<path id="Vector_183" d="M181.202 21.0592C180.857 21.4045 180.293 21.4042 179.948 21.0586C179.602 20.713 179.602 20.1494 179.947 19.8042C180.292 19.4589 180.856 19.4592 181.202 19.8048C181.547 20.1504 181.547 20.714 181.202 21.0592Z" fill="#0078C1"/>
<path id="Vector_184" d="M159.632 21.6934C158.969 22.3566 157.878 22.356 157.215 21.6921C156.551 21.0282 156.55 19.9374 157.213 19.2742C157.877 18.611 158.949 18.6115 159.622 19.2845C160.304 19.9485 160.305 21.0211 159.632 21.6934Z" fill="#50A9DE"/>
<path id="Vector_185" d="M153.733 38.8883C153.579 39.0427 153.333 39.0335 153.188 38.888C153.033 38.7334 153.024 38.4879 153.178 38.3335C153.333 38.179 153.578 38.1882 153.733 38.3429C153.887 38.4793 153.887 38.7338 153.733 38.8883Z" fill="#065E94"/>
<path id="Vector_186" d="M123.639 27.5105C123.575 27.5743 123.466 27.5742 123.393 27.5013C123.329 27.4374 123.32 27.3188 123.384 27.2551C123.448 27.1913 123.566 27.1822 123.639 27.2552C123.703 27.3373 123.703 27.4467 123.639 27.5105Z" fill="#FFFFFE"/>
<path id="Vector_187" d="M162.411 84.3784C162.12 84.6691 161.665 84.6689 161.374 84.3779C161.083 84.0868 161.083 83.6323 161.374 83.3416C161.655 83.06 162.119 83.0512 162.41 83.3422C162.701 83.6332 162.701 84.0877 162.411 84.3784Z" fill="#148CD5"/>
<path id="Vector_188" d="M125.031 64.2973C124.577 64.7516 123.832 64.7512 123.377 64.2964C122.922 63.8417 122.922 63.0964 123.376 62.6421C123.831 62.1879 124.576 62.1882 125.031 62.643C125.494 63.1068 125.486 63.8431 125.031 64.2973Z" fill="#0078C1"/>
<path id="Vector_189" d="M105.578 61.2328C104.606 62.2049 103.024 62.2041 102.051 61.231C101.078 60.2578 101.077 58.6762 102.049 57.7041C103.021 56.732 104.603 56.7329 105.576 57.706C106.558 58.6882 106.55 60.2607 105.578 61.2328Z" fill="#FFFFFE"/>
<path id="Vector_190" d="M125.813 97.8758C125.322 98.3664 124.513 98.375 124.013 97.8748C123.522 97.3837 123.512 96.5747 124.012 96.075C124.503 95.5844 125.312 95.5757 125.812 96.0759C126.303 96.5852 126.303 97.3852 125.813 97.8758Z" fill="#FFFFFE"/>
<path id="Vector_191" d="M128.827 108.085C128.364 108.549 127.618 108.548 127.145 108.075C126.681 107.612 126.681 106.866 127.144 106.403C127.608 105.939 128.353 105.94 128.817 106.404C129.29 106.877 129.29 107.622 128.827 108.085Z" fill="#FFFFFE"/>
<path id="Vector_192" d="M122.239 129.207C121.885 129.561 121.312 129.552 120.957 129.197C120.603 128.842 120.593 128.27 120.947 127.915C121.302 127.561 121.884 127.561 122.238 127.916C122.602 128.28 122.593 128.852 122.239 129.207Z" fill="#50A9DE"/>
<path id="Vector_193" d="M127.285 148.134C127.058 148.361 126.676 148.361 126.449 148.134C126.221 147.907 126.221 147.525 126.448 147.298C126.675 147.071 127.048 147.062 127.285 147.298C127.512 147.525 127.521 147.898 127.285 148.134Z" fill="#0078C1"/>
<path id="Vector_194" d="M142.893 132.217C142.538 132.572 141.975 132.571 141.62 132.217C141.265 131.862 141.274 131.289 141.619 130.944C141.974 130.59 142.546 130.599 142.892 130.945C143.247 131.281 143.247 131.863 142.893 132.217Z" fill="#FFFFFE"/>
<path id="Vector_195" d="M155.809 114.008C155.418 114.399 154.782 114.398 154.391 114.007C154 113.616 153.999 112.98 154.39 112.589C154.781 112.199 155.417 112.199 155.808 112.59C156.199 112.981 156.208 113.608 155.809 114.008Z" fill="#065E94"/>
<path id="Vector_196" d="M140.349 66.5507C139.75 67.1503 138.777 67.1407 138.186 66.5496C137.586 65.9493 137.585 64.9858 138.185 64.3862C138.785 63.7866 139.757 63.7962 140.348 64.3873C140.958 64.9785 140.949 65.9511 140.349 66.5507Z" fill="#FFFFFE"/>
<path id="Vector_197" d="M168.379 60.4207C167.616 61.1838 166.389 61.1741 165.634 60.4192C164.879 59.6644 164.879 58.4282 165.633 57.6741C166.387 56.92 167.623 56.9207 168.378 57.6755C169.133 58.4304 169.134 59.6666 168.379 60.4207Z" fill="#50A9DE"/>
<path id="Vector_198" d="M161.512 33.8202C160.858 34.4743 159.812 34.4646 159.167 33.8189C158.521 33.1732 158.52 32.1188 159.165 31.4737C159.81 30.8287 160.865 30.8293 161.51 31.475C162.156 32.1207 162.166 33.166 161.512 33.8202Z" fill="#065E94"/>
<path id="Vector_199" d="M188.676 41.2518C188.249 41.6788 187.567 41.6694 187.149 41.251C186.73 40.8327 186.73 40.1418 187.148 39.7239C187.566 39.306 188.257 39.3064 188.675 39.7247C189.093 40.1431 189.094 40.8339 188.676 41.2518Z" fill="#FFFFFE"/>
<path id="Vector_200" d="M167.321 1.47255C167.065 1.21638 167.065 0.801252 167.321 0.545344C167.577 0.289435 167.992 0.28965 168.248 0.545816C168.504 0.801982 168.504 1.2171 168.248 1.473C167.992 1.72891 167.577 1.72872 167.321 1.47255Z" fill="#065E94"/>
<path id="Vector_201" d="M197.45 12.0325C196.905 12.5776 196.033 12.5772 195.496 12.0406C194.959 11.504 194.959 10.6314 195.504 10.0863C196.04 9.55024 196.913 9.55071 197.449 10.0873C197.986 10.6239 197.986 11.4965 197.45 12.0325Z" fill="#FFFFFE"/>
<path id="Vector_202" d="M229.621 13.9493C229.493 14.0765 229.293 14.0764 229.166 13.949C229.039 13.8217 229.048 13.6308 229.175 13.5037C229.302 13.3765 229.502 13.3766 229.62 13.4948C229.748 13.6221 229.748 13.8221 229.621 13.9493Z" fill="#786EBE"/>
<path id="Vector_203" d="M49.2585 98.4536C48.7407 98.9714 48.7412 99.8076 49.2596 100.326C49.778 100.844 50.6142 100.845 51.132 100.327C51.6498 99.8093 51.6494 98.973 51.131 98.4546C50.6217 97.9271 49.7763 97.9357 49.2585 98.4536Z" fill="#786EBE"/>
<path id="Vector_204" d="M60.3018 131.21C59.9839 131.528 59.9841 132.037 60.3024 132.355C60.6207 132.674 61.1389 132.665 61.4478 132.356C61.7567 132.047 61.7655 131.529 61.4472 131.211C61.138 130.883 60.6198 130.892 60.3018 131.21Z" fill="#065E94"/>
<path id="Vector_205" d="M35.1394 128.215C34.7578 128.597 34.7582 129.233 35.1401 129.615C35.5221 129.997 36.1584 129.997 36.54 129.616C36.9306 129.225 36.9212 128.598 36.5392 128.216C36.1573 127.834 35.521 127.834 35.1394 128.215Z" fill="#50A9DE"/>
<path id="Vector_206" d="M47.8565 163.463C47.1751 164.145 47.1757 165.254 47.8487 165.927C48.5308 166.609 49.6307 166.6 50.3121 165.919C50.9935 165.237 50.9838 164.137 50.3108 163.464C49.6378 162.791 48.5288 162.791 47.8565 163.463Z" fill="#0078C1"/>
<path id="Vector_207" d="M0.591293 149.595C0.409597 149.776 0.409764 150.067 0.591655 150.249C0.773546 150.431 1.0644 150.431 1.2461 150.249C1.42779 150.068 1.42765 149.777 1.24576 149.595C1.06387 149.413 0.772989 149.413 0.591293 149.595Z" fill="#FFFFFE"/>
<path id="Vector_208" d="M4.8913 185.147C4.73688 185.302 4.73705 185.556 4.89166 185.711C5.04627 185.865 5.30076 185.866 5.45517 185.711C5.60959 185.557 5.60943 185.302 5.45482 185.148C5.30021 184.993 5.04571 184.993 4.8913 185.147Z" fill="#786EBE"/>
<path id="Vector_209" d="M25.2975 235.443C24.8432 235.897 24.8527 236.634 25.2983 237.079C25.753 237.534 26.4893 237.543 26.9436 237.089C27.3978 236.635 27.3975 235.89 26.9427 235.435C26.4971 234.989 25.7517 234.989 25.2975 235.443Z" fill="#50A9DE"/>
<path id="Vector_210" d="M3.03113 242.576C2.69495 242.912 2.68613 243.467 3.02263 243.803C3.35913 244.14 3.91365 244.149 4.25891 243.804C4.59509 243.468 4.59482 242.922 4.24922 242.577C3.92181 242.231 3.36731 242.24 3.03113 242.576Z" fill="#50A9DE"/>
<path id="Vector_211" d="M18.7029 278.853C18.3213 279.234 18.3216 279.834 18.7036 280.216C19.0765 280.589 19.6855 280.599 20.0671 280.217C20.4397 279.845 20.4484 279.236 20.0665 278.854C19.6845 278.472 19.0755 278.48 18.7029 278.853Z" fill="#786EBE"/>
<path id="Vector_212" d="M14.3303 295.867C14.085 296.112 14.0852 296.512 14.3308 296.758C14.5763 297.003 14.9854 297.013 15.2307 296.767C15.476 296.522 15.4849 296.113 15.2302 295.858C14.9846 295.613 14.5847 295.612 14.3303 295.867Z" fill="#0078C1"/>
<path id="Vector_213" d="M29.5618 255.57C29.1075 256.025 29.0988 256.779 29.5535 257.234C30.0083 257.689 30.7537 257.689 31.217 257.226C31.6713 256.771 31.6709 256.026 31.2162 255.571C30.7705 255.107 30.0252 255.107 29.5618 255.57Z" fill="#50A9DE"/>
<path id="Vector_214" d="M32.4846 229.857C31.9758 230.366 31.9763 231.184 32.4856 231.693C32.9949 232.202 33.813 232.203 34.3217 231.694C34.8304 231.185 34.83 230.367 34.3207 229.858C33.8114 229.349 32.9933 229.348 32.4846 229.857Z" fill="#786EBE"/>
<path id="Vector_215" d="M8.46146 146.526C8.02539 146.962 8.03485 147.662 8.4623 148.09C8.88975 148.517 9.59876 148.518 10.0257 148.091C10.4527 147.664 10.4523 146.955 10.0249 146.527C9.59743 146.1 8.88844 146.099 8.46146 146.526Z" fill="#0078C1"/>
<path id="Vector_216" d="M36.1952 148.223C35.5138 148.904 35.5144 150.013 36.1874 150.686C36.8695 151.368 37.9694 151.36 38.6507 150.678C39.3321 149.997 39.3224 148.897 38.6494 148.224C37.9855 147.542 36.8766 147.541 36.1952 148.223Z" fill="#FFFFFE"/>
<path id="Vector_217" d="M78.5235 158.953C78.4327 159.044 78.4328 159.207 78.5237 159.298C78.6147 159.389 78.7783 159.389 78.8691 159.298C78.969 159.198 78.9689 159.053 78.8689 158.953C78.7688 158.853 78.6234 158.853 78.5235 158.953Z" fill="#FFFFFE"/>
<path id="Vector_218" d="M82.0272 132.167C81.3821 132.812 81.3827 133.848 82.0284 134.494C82.6741 135.139 83.7104 135.14 84.3554 134.495C85.0005 133.85 84.9908 132.805 84.3542 132.168C83.7176 131.531 82.6722 131.522 82.0272 132.167Z" fill="#0078C1"/>
<path id="Vector_219" d="M103.463 152.658C102.845 153.276 101.845 153.275 101.218 152.647C100.599 152.029 100.59 151.02 101.207 150.402C101.825 149.785 102.834 149.776 103.462 150.404C104.089 151.031 104.09 152.031 103.463 152.658Z" fill="#786EBE"/>
<path id="Vector_220" d="M96.2436 167.153C96.1616 167.235 96.0248 167.244 95.9427 167.162C95.8606 167.08 95.8514 166.943 95.9425 166.852C96.0246 166.77 96.1522 166.77 96.2435 166.861C96.3256 166.925 96.3256 167.071 96.2436 167.153Z" fill="#786EBE"/>
<path id="Vector_221" d="M72.1094 165.185C71.9549 165.339 71.7004 165.339 71.5458 165.185C71.3912 165.03 71.3911 164.776 71.5455 164.621C71.6999 164.467 71.9545 164.467 72.1091 164.621C72.2546 164.785 72.2638 165.031 72.1094 165.185Z" fill="#786EBE"/>
<path id="Vector_222" d="M52.6498 168.256C52.4953 168.411 52.2408 168.41 52.0862 168.256C51.9316 168.101 51.9315 167.847 52.0859 167.692C52.2403 167.538 52.4858 167.547 52.6404 167.702C52.795 167.856 52.7951 168.111 52.6498 168.256Z" fill="#FFFFFE"/>
<path id="Vector_223" d="M46.1472 197.313C45.5495 196.715 45.549 195.747 46.1461 195.15C46.7432 194.553 47.7118 194.553 48.3095 195.151C48.9072 195.748 48.9077 196.717 48.3106 197.314C47.7135 197.911 46.745 197.911 46.1472 197.313Z" fill="#FFFFFE"/>
<path id="Vector_224" d="M31.9935 212.249C31.621 212.622 31.0029 212.621 30.63 212.249C30.2571 211.876 30.2568 211.258 30.6293 210.885C31.0109 210.503 31.6199 210.513 31.9928 210.886C32.3748 211.268 32.3751 211.868 31.9935 212.249Z" fill="#0078C1"/>
<path id="Vector_225" d="M2.52649 199.899C1.63616 200.789 0.199979 200.788 -0.691298 199.897C-1.58257 199.006 -1.58334 197.57 -0.693016 196.679C0.197313 195.789 1.6426 195.781 2.53387 196.672C3.42515 197.563 3.41682 199.009 2.52649 199.899Z" fill="#0078C1"/>
<path id="Vector_226" d="M69.2934 237.921C69.0845 238.13 68.739 238.13 68.5208 237.911C68.3025 237.693 68.3023 237.348 68.5113 237.139C68.7293 236.921 69.0747 236.921 69.293 237.139C69.5113 237.357 69.5024 237.712 69.2934 237.921Z" fill="#786EBE"/>
<path id="Vector_227" d="M87.6942 225.759C87.0128 226.441 85.922 226.44 85.2399 225.758C84.5669 225.085 84.5572 223.985 85.2387 223.304C85.911 222.631 87.02 222.632 87.693 223.305C88.3751 223.987 88.3756 225.078 87.6942 225.759Z" fill="#786EBE"/>
<path id="Vector_228" d="M100.486 212.513C100.213 212.786 99.7768 212.785 99.504 212.513C99.2311 212.24 99.2309 211.803 99.5035 211.531C99.7761 211.258 100.212 211.258 100.485 211.531C100.758 211.804 100.758 212.24 100.486 212.513Z" fill="#FFFFFE"/>
<path id="Vector_229" d="M110.746 191.175C110.592 191.33 110.337 191.33 110.182 191.175C110.028 191.021 110.028 190.766 110.182 190.611C110.337 190.457 110.591 190.457 110.746 190.612C110.9 190.766 110.901 191.021 110.746 191.175Z" fill="#0078C1"/>
<path id="Vector_230" d="M133.43 183.57C132.885 184.115 131.994 184.114 131.448 183.569C130.903 183.023 130.902 182.132 131.447 181.587C131.992 181.042 132.883 181.043 133.429 181.588C133.975 182.134 133.975 183.025 133.43 183.57Z" fill="#148CD5"/>
</g>
<g id="Group_8">
<path id="Vector_231" d="M217.102 -6.80024C216.902 -6.60037 221.731 -1.44387 227.898 4.72231C234.064 10.8885 239.22 15.7179 239.42 15.5181C239.62 15.3182 234.791 10.1617 228.624 3.99551C222.458 -2.17068 217.302 -7.00012 217.102 -6.80024Z" fill="#786EBE"/>
<path id="Vector_232" d="M185.18 47.8402C197.867 60.5273 207.989 70.9769 207.79 71.1768C207.59 71.3766 197.14 61.2541 184.453 48.567C171.766 35.88 161.643 25.4304 161.843 25.2305C162.034 25.0215 172.484 35.1441 185.18 47.8402Z" fill="#FFFFFE"/>
<path id="Vector_233" d="M132.477 99.3063C134.85 101.68 136.606 103.763 136.415 103.953C136.215 104.153 134.124 102.389 131.759 100.024C129.385 97.6503 127.63 95.5678 127.83 95.3679C128.02 95.1772 130.103 96.9326 132.477 99.3063Z" fill="#FFFFFE"/>
<path id="Vector_234" d="M164.456 68.1632C171.887 75.5935 177.753 81.7868 177.553 81.9867C177.353 82.1865 171.169 76.3294 163.73 68.8899C156.299 61.4596 150.433 55.2663 150.633 55.0664C150.842 54.8757 157.026 60.7328 164.456 68.1632Z" fill="#0078C1"/>
<path id="Vector_235" d="M146.01 96.3229C145.81 96.5227 143.281 94.3217 140.371 91.4114C137.461 88.5011 135.26 85.9729 135.46 85.7731C135.66 85.5732 138.188 87.7743 141.098 90.6846C144.008 93.5949 146.209 96.123 146.01 96.3229Z" fill="#786EBE"/>
<path id="Vector_236" d="M154.143 90.5734C153.943 90.7733 151.151 88.3085 147.904 85.0617C144.657 81.8149 142.192 79.023 142.392 78.8231C142.592 78.6232 145.375 81.0972 148.622 84.344C151.878 87.5817 154.343 90.3736 154.143 90.5734Z" fill="#FFFFFE"/>
<path id="Vector_237" d="M227.688 39.1637C227.488 39.3636 219.858 32.0604 210.636 22.8384C201.423 13.6255 194.111 5.98614 194.311 5.78627C194.511 5.5864 202.141 12.8896 211.363 22.1116C220.585 31.3336 227.888 38.9638 227.688 39.1637Z" fill="#786EBE"/>
<path id="Vector_238" d="M241.214 3.77491C241.014 3.97478 238.059 1.34625 234.612 -2.10063C231.174 -5.53841 228.545 -8.49401 228.745 -8.69388C228.945 -8.89376 231.901 -6.26523 235.338 -2.82744C238.785 0.619436 241.414 3.57503 241.214 3.77491Z" fill="#786EBE"/>
<path id="Vector_239" d="M52.9013 179.428C61.4412 187.968 68.1987 195.052 67.9988 195.252C67.7989 195.452 60.7143 188.695 52.1744 180.155C43.6345 171.615 36.877 164.53 37.0769 164.33C37.2768 164.13 44.3614 170.888 52.9013 179.428Z" fill="#0078C1"/>
<path id="Vector_240" d="M-9.87689 242.551C-0.882258 251.546 6.24814 259.003 6.05734 259.194C5.86654 259.385 -1.60001 252.263 -10.5946 243.269C-19.5893 234.274 -26.7196 226.817 -26.5198 226.617C-26.3199 226.417 -18.8715 233.556 -9.87689 242.551Z" fill="#786EBE"/>
<path id="Vector_241" d="M110.657 159.797C110.457 159.997 101.835 151.702 91.3948 141.262C80.9541 130.821 72.6596 122.199 72.8594 122C73.0593 121.8 81.6808 130.094 92.1215 140.535C102.562 150.976 110.857 159.597 110.657 159.797Z" fill="#FFFFFE"/>
<path id="Vector_242" d="M88.5894 182.446C88.3895 182.646 79.5678 174.133 68.8816 163.447C58.1954 152.761 49.6917 143.93 49.8825 143.739C50.0824 143.54 58.9132 152.043 69.5994 162.729C80.2856 173.416 88.7893 182.246 88.5894 182.446Z" fill="#FFFFFE"/>
<path id="Vector_243" d="M18.9991 236.776C18.7992 236.976 13.479 231.983 7.10359 225.607C0.737323 219.241 -4.26491 213.912 -4.06502 213.712C-3.86514 213.512 1.4551 218.523 7.82137 224.89C14.2058 231.256 19.1989 236.576 18.9991 236.776Z" fill="#065E94"/>
<path id="Vector_244" d="M12.5323 247.026C12.3325 247.226 6.1119 241.333 -1.35483 233.866C-8.82155 226.399 -14.7151 220.179 -14.5152 219.979C-14.3153 219.779 -8.09474 225.672 -0.62802 233.139C6.83871 240.624 12.7322 246.826 12.5323 247.026Z" fill="#0078C1"/>
<path id="Vector_245" d="M93.8437 184.103C93.6438 184.303 83.3397 174.326 70.8164 161.803C58.3021 149.289 48.3251 138.985 48.525 138.785C48.7248 138.585 59.0199 148.571 71.5341 161.085C84.0575 173.59 94.0436 183.904 93.8437 184.103Z" fill="#50A9DE"/>
<path id="Vector_246" d="M109.616 168.277C109.416 168.477 99.303 158.691 87.0252 146.413C74.7474 134.136 64.9614 124.022 65.1612 123.823C65.3611 123.623 75.4742 133.409 87.752 145.687C100.03 157.964 109.816 168.077 109.616 168.277Z" fill="#786EBE"/>
<path id="Vector_247" d="M237.492 13.5899C236.502 14.5802 236.503 16.1982 237.494 17.1895C238.486 18.1808 240.104 18.1817 241.094 17.1914C242.093 16.1921 242.083 14.5832 241.092 13.5918C240.101 12.6005 238.483 12.5997 237.492 13.5899Z" fill="#0078C1"/>
<path id="Vector_248" d="M232.474 29.1763C231.483 30.1666 231.484 31.7846 232.475 32.7759C233.467 33.7672 235.085 33.7681 236.075 32.7778C237.065 31.7876 237.064 30.1696 236.073 29.1783C235.082 28.1869 233.464 28.1861 232.474 29.1763Z" fill="#50A9DE"/>
<path id="Vector_249" d="M225.673 43.7621C224.683 44.7524 224.684 46.3704 225.675 47.3617C226.666 48.353 228.284 48.3539 229.275 47.3636C230.265 46.3733 230.264 44.7553 229.273 43.764C228.272 42.7635 226.663 42.7718 225.673 43.7621Z" fill="#FFFFFE"/>
<path id="Vector_250" d="M216.808 57.1013C215.818 58.0915 215.819 59.7095 216.81 60.7008C217.801 61.6921 219.41 61.7021 220.41 60.7027C221.4 59.7125 221.399 58.0945 220.408 57.1032C219.416 56.1119 217.798 56.111 216.808 57.1013Z" fill="#148CD5"/>
<path id="Vector_251" d="M205.598 68.9849C204.599 69.9843 204.609 71.5932 205.6 72.5845C206.591 73.5758 208.2 73.5858 209.2 72.5864C210.19 71.5962 210.189 69.9782 209.198 68.9869C208.206 67.9955 206.588 67.9947 205.598 68.9849Z" fill="#FFFFFE"/>
<path id="Vector_252" d="M194.821 76.942C193.831 77.9323 193.832 79.5503 194.823 80.5416C195.814 81.5329 197.432 81.5337 198.422 80.5435C199.413 79.5532 199.421 77.9443 198.421 76.9439C197.429 75.9526 195.82 75.9426 194.821 76.942Z" fill="#786EBE"/>
<path id="Vector_253" d="M182.799 82.9986C181.808 83.9889 181.809 85.6069 182.801 86.5982C183.792 87.5895 185.41 87.5904 186.4 86.6001C187.39 85.6098 187.39 83.9918 186.398 83.0005C185.407 82.0092 183.789 82.0084 182.799 82.9986Z" fill="#FFFFFE"/>
<path id="Vector_254" d="M170.067 87.564C169.076 88.5542 169.077 90.1723 170.068 91.1636C171.06 92.1549 172.669 92.1648 173.668 91.1654C174.658 90.1752 174.657 88.5571 173.666 87.5658C172.675 86.5745 171.057 86.5737 170.067 87.564Z" fill="#786EBE"/>
<path id="Vector_255" d="M157.124 91.0296C156.134 92.0199 156.135 93.6379 157.126 94.6292C158.117 95.6206 159.736 95.6214 160.726 94.6311C161.725 93.6318 161.715 92.0228 160.724 91.0315C159.733 90.0402 158.124 90.0303 157.124 91.0296Z" fill="#065E94"/>
<path id="Vector_256" d="M144.073 94.3858C143.083 95.3761 143.083 96.9941 144.075 97.9854C145.066 98.9767 146.684 98.9776 147.674 97.9873C148.665 96.9971 148.664 95.3791 147.672 94.3877C146.681 93.3964 145.063 93.3956 144.073 94.3858Z" fill="#786EBE"/>
<path id="Vector_257" d="M115.679 100.879C114.689 101.869 114.69 103.487 115.681 104.479C116.673 105.47 118.29 105.471 119.281 104.481C120.271 103.49 120.27 101.872 119.279 100.881C118.278 99.8806 116.67 99.8888 115.679 100.879Z" fill="#0078C1"/>
<path id="Vector_258" d="M102.681 101.763C101.691 102.753 101.692 104.371 102.683 105.363C103.674 106.354 105.292 106.355 106.283 105.365C107.282 104.365 107.272 102.756 106.281 101.765C105.28 100.765 103.671 100.773 102.681 101.763Z" fill="#786EBE"/>
<path id="Vector_259" d="M126.857 94.4132C125.867 95.4034 125.867 97.0214 126.859 98.0128C127.85 99.0041 129.468 99.0049 130.458 98.0147C131.449 97.0244 131.448 95.4064 130.456 94.4151C129.465 93.4237 127.847 93.4229 126.857 94.4132Z" fill="#786EBE"/>
<path id="Vector_260" d="M151.632 88.0633C150.633 89.0627 150.643 90.6716 151.634 91.663C152.625 92.6543 154.234 92.6642 155.234 91.6648C156.224 90.6745 156.223 89.0565 155.232 88.0652C154.241 87.0739 152.623 87.0731 151.632 88.0633Z" fill="#50A9DE"/>
<path id="Vector_261" d="M175.752 80.186C174.753 81.1854 174.763 82.7943 175.754 83.7856C176.745 84.777 178.354 84.7869 179.354 83.7875C180.344 82.7972 180.343 81.1792 179.352 80.1879C178.351 79.1875 176.743 79.1957 175.752 80.186Z" fill="#786EBE"/>
<path id="Vector_262" d="M197.971 68.2628C196.981 69.2531 196.982 70.8711 197.973 71.8624C198.973 72.8628 200.573 72.8637 201.573 71.8643C202.572 70.8649 202.571 69.2651 201.571 68.2647C200.57 67.2643 198.97 67.2634 197.971 68.2628Z" fill="#148CD5"/>
<path id="Vector_263" d="M208.565 59.1059C207.575 60.0962 207.576 61.7141 208.567 62.7055C209.558 63.6968 211.176 63.6976 212.167 62.7074C213.157 61.7171 213.156 60.0991 212.165 59.1078C211.164 58.1074 209.555 58.1156 208.565 59.1059Z" fill="#786EBE"/>
<path id="Vector_264" d="M217.558 48.3846C216.559 49.384 216.569 50.9929 217.56 51.9842C218.551 52.9755 220.16 52.9855 221.16 51.9861C222.15 50.9958 222.149 49.3778 221.158 48.3865C220.166 47.3952 218.557 47.3853 217.558 48.3846Z" fill="#0078C1"/>
<path id="Vector_265" d="M225.033 36.508C224.043 37.4983 224.034 39.1072 225.035 40.1076C226.026 41.0989 227.644 41.0998 228.634 40.1095C229.625 39.1192 229.624 37.5012 228.633 36.5099C227.641 35.5186 226.032 35.5087 225.033 36.508Z" fill="#FFFFFE"/>
<path id="Vector_266" d="M231.053 23.8854C230.062 24.8757 230.063 26.4937 231.054 27.485C232.046 28.4764 233.664 28.4772 234.654 27.4869C235.653 26.4876 235.644 24.8786 234.652 23.8873C233.661 22.8778 232.052 22.8861 231.053 23.8854Z" fill="#0078C1"/>
<path id="Vector_267" d="M238.604 1.16476C237.613 2.15504 237.614 3.77303 238.606 4.76435C239.597 5.75566 241.215 5.75652 242.205 4.76625C243.196 3.77598 243.195 2.15798 242.203 1.16666C241.203 0.16625 239.594 0.174493 238.604 1.16476Z" fill="#FFFFFE"/>
<path id="Vector_268" d="M203.443 0.146241C202.453 1.13651 200.835 1.13566 199.843 0.144342C198.852 -0.846974 198.851 -2.46497 199.842 -3.45524C200.832 -4.4455 202.45 -4.44464 203.441 -3.45333C204.432 -2.46201 204.433 -0.844027 203.443 0.146241Z" fill="#50A9DE"/>
<path id="Vector_269" d="M188.867 6.95585C187.877 7.94614 186.259 7.94529 185.267 6.95397C184.276 5.96265 184.275 4.34466 185.266 3.35437C186.256 2.36409 187.874 2.36492 188.865 3.35624C189.857 4.34756 189.857 5.96557 188.867 6.95585Z" fill="#148CD5"/>
<path id="Vector_270" d="M175.519 15.8115C174.528 16.8018 172.91 16.8009 171.919 15.8096C170.928 14.8183 170.918 13.2094 171.917 12.21C172.907 11.2198 174.525 11.2206 175.517 12.212C176.508 13.2033 176.509 14.8212 175.519 15.8115Z" fill="#065E94"/>
<path id="Vector_271" d="M163.635 27.0221C162.635 28.0214 161.026 28.0115 160.035 27.0202C159.044 26.0289 159.034 24.42 160.033 23.4206C161.023 22.4303 162.641 22.4312 163.633 23.4225C164.624 24.4138 164.625 26.0318 163.635 27.0221Z" fill="#148CD5"/>
<path id="Vector_272" d="M155.678 37.7985C154.688 38.7888 153.07 38.7879 152.079 37.7966C151.087 36.8052 151.086 35.1873 152.077 34.197C153.067 33.2067 154.685 33.2076 155.676 34.1989C156.668 35.1902 156.678 36.7991 155.678 37.7985Z" fill="#50A9DE"/>
<path id="Vector_273" d="M149.621 49.8213C148.631 50.8116 147.013 50.8107 146.022 49.8194C145.03 48.8281 145.03 47.2101 146.02 46.2198C147.01 45.2295 148.628 45.2304 149.619 46.2217C150.611 47.213 150.612 48.831 149.621 49.8213Z" fill="#FFFFFE"/>
<path id="Vector_274" d="M145.056 62.5538C144.066 63.544 142.448 63.5432 141.456 62.5519C140.465 61.5606 140.455 59.9516 141.454 58.9523C142.445 57.962 144.063 57.9628 145.054 58.9541C146.045 59.9455 146.046 61.5635 145.056 62.5538Z" fill="#786EBE"/>
<path id="Vector_275" d="M141.59 75.4959C140.6 76.4861 138.982 76.4853 137.991 75.494C136.999 74.5027 136.999 72.8847 137.989 71.8944C138.988 70.895 140.597 70.905 141.589 71.8963C142.58 72.8876 142.59 74.4965 141.59 75.4959Z" fill="#786EBE"/>
<path id="Vector_276" d="M138.234 88.5471C137.244 89.5374 135.635 89.5456 134.635 88.5452C133.634 87.5448 133.643 85.9359 134.633 84.9457C135.623 83.9554 137.232 83.9471 138.232 84.9475C139.233 85.948 139.225 87.5569 138.234 88.5471Z" fill="#FFFFFE"/>
<path id="Vector_277" d="M139.911 97.4197C138.921 98.41 137.303 98.4091 136.312 97.4178C135.321 96.4265 135.32 94.8085 136.31 93.8182C137.3 92.8279 138.918 92.8288 139.91 93.8201C140.91 94.8205 140.911 96.4203 139.911 97.4197Z" fill="#0078C1"/>
<path id="Vector_278" d="M131.75 116.949C130.759 117.94 129.141 117.939 128.15 116.947C127.159 115.956 127.158 114.338 128.148 113.348C129.138 112.358 130.747 112.349 131.748 113.35C132.739 114.341 132.74 115.959 131.75 116.949Z" fill="#148CD5"/>
<path id="Vector_279" d="M130.857 129.938C129.867 130.929 128.258 130.937 127.257 129.936C126.266 128.945 126.265 127.327 127.256 126.337C128.255 125.338 129.864 125.347 130.855 126.339C131.856 127.339 131.847 128.948 130.857 129.938Z" fill="#065E94"/>
<path id="Vector_280" d="M138.207 105.763C137.217 106.754 135.608 106.762 134.608 105.761C133.616 104.77 133.615 103.152 134.606 102.162C135.596 101.172 137.214 101.172 138.205 102.164C139.206 103.164 139.197 104.773 138.207 105.763Z" fill="#786EBE"/>
<path id="Vector_281" d="M144.566 80.9967C143.567 81.9961 141.958 81.9862 140.966 80.9949C139.975 80.0035 139.965 78.3946 140.964 77.3952C141.955 76.4049 143.573 76.4058 144.564 77.3971C145.555 78.3884 145.556 80.0065 144.566 80.9967Z" fill="#786EBE"/>
<path id="Vector_282" d="M152.443 56.8765C151.444 57.8759 149.835 57.8659 148.843 56.8746C147.852 55.8833 147.842 54.2744 148.841 53.275C149.832 52.2847 151.45 52.2856 152.441 53.2769C153.432 54.2682 153.433 55.8862 152.443 56.8765Z" fill="#50A9DE"/>
<path id="Vector_283" d="M164.357 34.6488C163.367 35.6391 161.758 35.6474 160.757 34.647C159.766 33.6556 159.756 32.0467 160.756 31.0474C161.755 30.048 163.364 30.0579 164.355 31.0492C165.356 32.0496 165.356 33.6495 164.357 34.6488Z" fill="#148CD5"/>
<path id="Vector_284" d="M173.523 24.0642C172.533 25.0545 170.915 25.0536 169.923 24.0623C168.932 23.071 168.931 21.453 169.921 20.4627C170.912 19.4725 172.53 19.4733 173.521 20.4646C174.512 21.456 174.513 23.0739 173.523 24.0642Z" fill="#0078C1"/>
<path id="Vector_285" d="M184.235 15.0617C183.236 16.061 181.627 16.0511 180.636 15.0598C179.635 14.0593 179.635 12.4595 180.634 11.4602C181.624 10.4699 183.233 10.4617 184.233 11.4621C185.234 12.4625 185.235 14.0623 184.235 15.0617Z" fill="#786EBE"/>
<path id="Vector_286" d="M196.112 7.58693C195.121 8.57719 193.503 8.57634 192.512 7.58503C191.521 6.59371 191.52 4.97571 192.51 3.98544C193.501 2.99518 195.119 2.99603 196.11 3.98734C197.11 4.98776 197.111 6.58757 196.112 7.58693Z" fill="#50A9DE"/>
<path id="Vector_287" d="M208.734 1.56706C207.744 2.55734 206.126 2.55649 205.134 1.56517C204.143 0.573853 204.142 -1.04415 205.133 -2.03443C206.132 -3.0338 207.741 -3.02388 208.732 -2.03256C209.724 -1.04124 209.733 0.567689 208.734 1.56706Z" fill="#0078C1"/>
<path id="Vector_288" d="M84.8161 112.243C83.8258 113.234 83.8175 114.843 84.8179 115.843C85.8093 116.834 87.4273 116.835 88.4176 115.845C89.4078 114.855 89.407 113.237 88.4157 112.245C87.4244 111.236 85.8154 111.244 84.8161 112.243Z" fill="#FFFFFE"/>
<path id="Vector_289" d="M71.1771 120.317C70.1869 121.307 70.1877 122.925 71.179 123.917C72.1704 124.908 73.7884 124.909 74.7786 123.919C75.7689 122.928 75.7771 121.319 74.7767 120.319C73.7763 119.319 72.1674 119.327 71.1771 120.317Z" fill="#0078C1"/>
<path id="Vector_290" d="M58.8199 130.146C57.8297 131.136 57.8306 132.754 58.8219 133.745C59.8132 134.737 61.4312 134.738 62.4214 133.747C63.4116 132.757 63.4108 131.139 62.4195 130.148C61.4281 129.156 59.8192 129.146 58.8199 130.146Z" fill="#148CD5"/>
<path id="Vector_291" d="M48.0819 141.939C47.0916 142.929 47.0925 144.547 48.0838 145.538C49.0751 146.53 50.684 146.54 51.6834 145.54C52.6736 144.55 52.6727 142.932 51.6814 141.941C50.6901 140.949 49.0721 140.949 48.0819 141.939Z" fill="#786EBE"/>
<path id="Vector_292" d="M36.04 163.294C35.0406 164.293 35.0505 165.902 36.0419 166.893C37.0332 167.885 38.6421 167.894 39.6415 166.895C40.6317 165.905 40.6308 164.287 39.6395 163.296C38.6482 162.304 37.0393 162.294 36.04 163.294Z" fill="#FFFFFE"/>
<path id="Vector_293" d="M28.0165 186.505C27.0263 187.495 27.0271 189.113 28.0185 190.104C29.0098 191.096 30.6278 191.097 31.618 190.106C32.6083 189.116 32.6074 187.498 31.6161 186.507C30.6247 185.516 29.0068 185.515 28.0165 186.505Z" fill="#FFFFFE"/>
<path id="Vector_294" d="M22.1756 210.554C21.1762 211.553 21.1862 213.162 22.1775 214.153C23.1688 215.145 24.7777 215.154 25.7771 214.155C26.7674 213.165 26.7666 211.547 25.7752 210.555C24.7748 209.555 23.1659 209.563 22.1756 210.554Z" fill="#065E94"/>
<path id="Vector_295" d="M16.6522 234.43C15.6528 235.429 15.6628 237.038 16.6541 238.029C17.6454 239.021 19.2634 239.021 20.2537 238.031C21.2439 237.041 21.2431 235.423 20.2518 234.432C19.2604 233.44 17.6424 233.439 16.6522 234.43Z" fill="#786EBE"/>
<path id="Vector_296" d="M11.6343 250.016C10.6349 251.016 10.6449 252.624 11.6362 253.616C12.6275 254.607 14.2364 254.617 15.2358 253.618C16.2261 252.627 16.2252 251.009 15.2339 250.018C14.2426 249.027 12.6246 249.026 11.6343 250.016Z" fill="#065E94"/>
<path id="Vector_297" d="M4.83308 264.602C3.84281 265.592 3.84366 267.21 4.83498 268.201C5.8263 269.193 7.4443 269.193 8.43457 268.203C9.42483 267.213 9.42398 265.595 8.43266 264.604C7.43225 263.603 5.82335 263.611 4.83308 264.602Z" fill="#FFFFFE"/>
<path id="Vector_298" d="M-4.03123 277.941C-5.02149 278.931 -5.02064 280.549 -4.02932 281.541C-3.038 282.532 -1.42 282.533 -0.429737 281.543C0.56053 280.552 0.559654 278.934 -0.431665 277.943C-1.42298 276.952 -3.04096 276.951 -4.03123 277.941Z" fill="#786EBE"/>
<path id="Vector_299" d="M-3.27238 269.215C-4.26266 270.206 -4.26181 271.824 -3.27049 272.815C-2.27917 273.806 -0.661167 273.807 0.329108 272.817C1.31938 271.827 1.31854 270.209 0.327218 269.217C-0.673186 268.235 -2.28211 268.225 -3.27238 269.215Z" fill="#50A9DE"/>
<path id="Vector_300" d="M4.20212 257.339C3.21186 258.329 3.20361 259.938 4.20403 260.938C5.19535 261.929 6.81335 261.93 7.80361 260.94C8.79388 259.95 8.79303 258.332 7.80171 257.34C6.8013 256.358 5.19239 256.348 4.20212 257.339Z" fill="#0078C1"/>
<path id="Vector_301" d="M10.222 244.716C9.22265 245.715 9.23261 247.324 10.2239 248.315C11.2152 249.307 12.8241 249.317 13.8235 248.317C14.8138 247.327 14.8129 245.709 13.8216 244.718C12.8212 243.717 11.2123 243.726 10.222 244.716Z" fill="#50A9DE"/>
<path id="Vector_302" d="M17.7637 222.005C16.7734 222.995 16.7743 224.613 17.7656 225.604C18.7569 226.595 20.3749 226.596 21.3652 225.606C22.3554 224.616 22.3546 222.998 21.3633 222.007C20.3629 221.006 18.754 221.014 17.7637 222.005Z" fill="#FFFFFE"/>
<path id="Vector_303" d="M22.8966 198.501C21.9063 199.491 21.9072 201.109 22.8985 202.1C23.8898 203.092 25.5078 203.092 26.4981 202.102C27.4974 201.103 27.4875 199.494 26.4962 198.503C25.5049 197.511 23.896 197.501 22.8966 198.501Z" fill="#786EBE"/>
<path id="Vector_304" d="M28.2107 175.088C27.2205 176.078 27.2213 177.696 28.2126 178.688C29.204 179.679 30.822 179.68 31.8122 178.689C32.8025 177.699 32.8107 176.09 31.8103 175.09C30.8099 174.089 29.2101 174.089 28.2107 175.088Z" fill="#786EBE"/>
<path id="Vector_305" d="M36.3247 152.622C35.3344 153.612 35.3353 155.23 36.3266 156.222C37.318 157.213 38.9359 157.214 39.9262 156.224C40.9255 155.224 40.9156 153.615 39.9243 152.624C38.933 151.633 37.315 151.632 36.3247 152.622Z" fill="#FFFFFE"/>
<path id="Vector_306" d="M46.7251 136.984C45.7257 137.983 45.7357 139.592 46.727 140.584C47.7183 141.575 49.3272 141.585 50.3266 140.586C51.3168 139.595 51.316 137.977 50.3247 136.986C49.3333 135.995 47.7153 135.994 46.7251 136.984Z" fill="#FFFFFE"/>
<path id="Vector_307" d="M62.5419 121.203C61.5517 122.194 61.5526 123.812 62.5439 124.803C63.5352 125.794 65.1532 125.795 66.1434 124.805C67.1337 123.815 67.1328 122.197 66.1415 121.205C65.1501 120.214 63.5413 120.204 62.5419 121.203Z" fill="#065E94"/>
<path id="Vector_308" d="M81.0247 109.396C80.0344 110.386 80.0353 112.004 81.0266 112.996C82.0179 113.987 83.6359 113.988 84.6262 112.998C85.6165 112.007 85.6156 110.389 84.6243 109.398C83.6239 108.416 82.015 108.406 81.0247 109.396Z" fill="#50A9DE"/>
<path id="Vector_309" d="M120.386 147.813C119.395 148.803 117.777 148.802 116.786 147.811C115.795 146.82 115.794 145.202 116.784 144.211C117.775 143.221 119.393 143.222 120.384 144.213C121.384 145.195 121.385 146.813 120.386 147.813Z" fill="#065E94"/>
<path id="Vector_310" d="M112.303 161.443C111.312 162.434 109.694 162.433 108.703 161.441C107.712 160.45 107.711 158.832 108.701 157.842C109.691 156.852 111.309 156.852 112.301 157.844C113.292 158.835 113.293 160.453 112.303 161.443Z" fill="#148CD5"/>
<path id="Vector_311" d="M102.474 173.8C101.484 174.79 99.8752 174.799 98.8748 173.798C97.8835 172.807 97.8826 171.189 98.8728 170.199C99.8631 169.208 101.481 169.209 102.472 170.201C103.464 171.192 103.474 172.801 102.474 173.8Z" fill="#0078C1"/>
<path id="Vector_312" d="M90.681 184.538C89.6907 185.528 88.0728 185.527 87.0814 184.536C86.0901 183.545 86.0801 181.936 87.0795 180.936C88.0697 179.946 89.6877 179.947 90.679 180.938C91.6703 181.93 91.6712 183.548 90.681 184.538Z" fill="#0078C1"/>
<path id="Vector_313" d="M69.3267 196.58C68.3274 197.579 66.7275 197.579 65.7271 196.578C64.7358 195.587 64.7259 193.978 65.7252 192.979C66.7155 191.988 68.3335 191.989 69.3248 192.981C70.3252 193.981 70.3261 195.581 69.3267 196.58Z" fill="#148CD5"/>
<path id="Vector_314" d="M46.1153 204.603C45.1251 205.593 43.5071 205.593 42.5158 204.601C41.5244 203.61 41.5236 201.992 42.5138 201.002C43.5041 200.012 45.122 200.012 46.1134 201.004C47.1138 202.004 47.1056 203.613 46.1153 204.603Z" fill="#50A9DE"/>
<path id="Vector_315" d="M22.0664 210.445C21.067 211.444 19.4581 211.434 18.4668 210.443C17.4754 209.451 17.4655 207.842 18.4649 206.843C19.4552 205.853 21.0732 205.854 22.0645 206.845C23.065 207.845 23.0567 209.454 22.0664 210.445Z" fill="#50A9DE"/>
<path id="Vector_316" d="M10.6244 214.865C9.63409 215.856 8.01611 215.855 7.02479 214.863C6.03347 213.872 6.0326 212.254 7.02287 211.264C8.01313 210.273 9.63113 210.274 10.6224 211.266C11.6138 212.257 11.6146 213.875 10.6244 214.865Z" fill="#FFFFFE"/>
<path id="Vector_317" d="M34.1193 209.724C33.129 210.714 31.511 210.713 30.5197 209.722C29.5284 208.73 29.5276 207.112 30.5178 206.122C31.5172 205.123 33.1261 205.133 34.1174 206.124C35.1087 207.115 35.1187 208.724 34.1193 209.724Z" fill="#FFFFFE"/>
<path id="Vector_318" d="M57.5317 204.409C56.5414 205.4 54.9234 205.399 53.9321 204.407C52.9408 203.416 52.9399 201.798 53.9302 200.808C54.9205 199.818 56.5385 199.818 57.5298 200.81C58.5302 201.792 58.5311 203.41 57.5317 204.409Z" fill="#50A9DE"/>
<path id="Vector_319" d="M80.0064 196.304C79.0161 197.294 77.3982 197.293 76.4068 196.302C75.4155 195.311 75.4147 193.693 76.4049 192.702C77.4043 191.703 79.0132 191.713 80.0045 192.704C80.9958 193.696 80.9967 195.314 80.0064 196.304Z" fill="#0078C1"/>
<path id="Vector_320" d="M95.6359 185.895C94.6366 186.894 93.0277 186.884 92.0364 185.893C91.045 184.902 91.0351 183.293 92.0345 182.294C93.0247 181.303 94.6427 181.304 95.634 182.295C96.6345 183.296 96.6262 184.905 95.6359 185.895Z" fill="#0078C1"/>
<path id="Vector_321" d="M111.416 170.078C110.426 171.068 108.808 171.067 107.817 170.076C106.826 169.085 106.825 167.467 107.815 166.476C108.805 165.486 110.423 165.487 111.414 166.478C112.406 167.47 112.416 169.079 111.416 170.078Z" fill="#FFFFFE"/>
<path id="Vector_322" d="M123.224 151.595C122.233 152.586 120.615 152.585 119.624 151.593C118.633 150.602 118.632 148.984 119.622 147.994C120.612 147.004 122.23 147.004 123.222 147.996C124.213 149.005 124.214 150.605 123.224 151.595Z" fill="#50A9DE"/>
</g>
</g>
</g>
</g>
<defs>
<clipPath id="clip0_16228_25092">
<rect width="704" height="308" fill="white"/>
</clipPath>
</defs>
</svg>
