<svg width="153" height="79" viewBox="0 0 153 79" fill="none" xmlns="http://www.w3.org/2000/svg">
<path d="M103.075 30.1123C102.127 29.4204 100.62 28.9776 99.169 29.0052C97.5785 29.0329 96.0717 29.5311 95.0114 30.3614V20.4531H90.0724V52.7795H95.0114V35.8967C95.0114 34.7343 96.0159 33.4335 97.8575 33.3505C98.6667 33.3228 99.8108 33.6826 100.397 34.5406C101.011 35.4262 100.983 36.644 100.983 37.9448L100.955 52.7795H105.894V37.7787C105.894 33.3505 105.336 31.7729 103.075 30.1123Z" fill="#0078C1"/>
<path d="M62.8944 41.2106C62.8944 44.3657 62.7828 45.2513 62.7549 45.5281C62.5875 47.2994 61.8341 49.1538 59.7692 49.1538C57.7323 49.1538 56.8952 47.161 56.8115 45.4451C56.7836 45.4451 56.672 44.3657 56.672 41.2106C56.672 38.0554 56.7836 36.7269 56.8115 36.7269C56.8115 34.9279 57.7602 33.1566 59.7692 33.1566C61.8062 33.1566 62.727 34.9279 62.7549 36.6993C62.7549 36.7269 62.8944 38.0554 62.8944 41.2106ZM67.6659 37.3912C66.9683 30.4997 63.006 29.0051 59.7692 29.0051C55.1652 29.0051 52.3748 31.9112 51.8725 37.3912C51.8168 37.834 51.7609 38.6366 51.733 41.2106C51.7051 43.0926 51.8447 44.6425 51.8725 45.0299C52.1795 50.1501 55.1373 53.2776 59.7692 53.2776C64.4012 53.2776 67.359 50.0948 67.6938 45.0299C67.7217 44.6701 67.8054 43.0926 67.8054 41.2106C67.8054 40.3526 67.7496 38.0554 67.6659 37.3912Z" fill="#0078C1"/>
<path d="M114.153 38.3045C114.181 37.2251 114.181 37.0037 114.209 36.6993C114.348 34.7619 115.214 33.1566 117.223 33.1566C119.594 33.129 120.152 35.4261 120.236 36.6993C120.292 37.3912 120.32 37.834 120.32 38.3045H114.153ZM120.264 44.7808C120.264 44.7808 120.264 45.1406 120.208 45.5835C120.069 46.7182 119.622 49.1538 117.223 49.1538C115.158 49.1538 114.376 47.2994 114.237 45.4728C114.209 44.9469 114.125 44.3657 114.125 42.373H125.147C125.147 42.373 125.147 40.74 125.119 39.7714C125.119 39.3839 125.091 38.7473 125.008 37.3912C124.84 35.3154 124.059 33.0459 122.859 31.6067C121.492 29.8908 119.539 29.0051 117.223 29.0051C112.758 29.0051 109.968 31.8835 109.438 37.3912C109.382 37.8894 109.298 38.5813 109.298 41.2106C109.298 43.0926 109.41 44.6701 109.438 45.0299C109.717 50.0671 112.73 53.2776 117.223 53.2776C121.687 53.2776 124.673 50.1501 125.008 44.7808H120.264Z" fill="#0078C1"/>
<path d="M36.1071 3.95777H116.413L147.107 39.6053L116.413 74.7547H36.1071L5.27375 39.4946L36.1071 3.95777ZM118.339 0H34.1539L0 39.3562L34.1818 78.4634H118.339L152.381 39.4946L118.339 0Z" fill="#0078C1"/>
<path d="M37.1116 24.8536H39.4276C41.9668 24.8536 43.362 26.1821 43.4178 28.5623C43.4178 28.7561 43.4457 28.9498 43.4457 29.3096C43.4457 29.7524 43.4457 29.8908 43.4178 30.0845C43.2783 31.4961 42.6365 33.9593 39.6787 33.9593H37.1116V24.8536ZM48.8032 50.759L48.3009 42.8435C48.0777 39.3009 47.1569 37.1974 45.2873 36.118C46.6267 35.3154 48.3567 33.3504 48.3288 29.2266C48.3288 22.9716 44.3944 20.7575 39.7624 20.7021H32.2285V52.7794H37.0837L37.1116 38.1108H39.8183C41.3809 38.1108 43.1388 39.4669 43.4178 43.2863L43.9201 50.7867C43.9759 51.8661 44.1712 52.7794 44.1712 52.7794H49.0543C49.0543 52.7794 48.8311 51.8938 48.8032 50.759Z" fill="#0078C1"/>
<path d="M82.092 44.5594C82.092 44.9192 82.0641 45.2237 82.0362 45.4451C81.8967 47.2441 81.2829 49.1538 79.0506 49.1538C77.0136 49.1538 76.2044 47.078 76.037 45.5558C75.9533 44.6425 75.9812 43.9229 75.9533 41.2106C75.9254 38.0554 76.037 37.2251 76.0928 36.7269C76.2602 34.7065 77.0415 33.1566 79.0506 33.1566C81.1433 33.129 82.0083 34.9279 82.0362 36.6993C82.0362 36.7269 82.0921 37.1421 82.12 38.0831H87.0031C87.0031 37.751 86.9752 37.4742 86.9752 37.3358C86.4171 30.6381 82.2874 29.0051 79.0506 29.0051C74.4465 29.0051 71.6561 31.9112 71.1539 37.3912C71.0981 37.834 71.0423 38.6366 71.0144 41.2106C70.9864 43.0926 71.126 44.6425 71.1539 45.0299C71.4608 50.1501 74.4186 53.2776 79.0506 53.2776C83.85 53.3053 86.5008 50.3992 86.9752 45.0299C86.9752 44.8362 87.0031 44.6978 87.0031 44.5594H82.092Z" fill="#0078C1"/>
</svg>
