<svg width="77" height="40" viewBox="0 0 77 40" fill="none" xmlns="http://www.w3.org/2000/svg">
<g id="layer1">
<g id="g20076">
<path id="path19828" d="M52.1531 15.0561C51.6788 14.7102 50.9254 14.4888 50.1999 14.5026C49.4046 14.5164 48.6512 14.7655 48.1211 15.1807V10.2266H45.6516V26.3897H48.1211V17.9484C48.1211 17.3672 48.6233 16.7167 49.5442 16.6752C49.9488 16.6614 50.5208 16.8413 50.8138 17.2703C51.1207 17.7131 51.1067 18.322 51.1067 18.9724L51.0928 26.3897H53.5622V18.8894C53.5622 16.6752 53.2832 15.8864 52.1531 15.0561Z" fill="#8EACBD"/>
<path id="path19830" d="M32.0632 20.6052C32.0632 22.1827 32.0073 22.6255 31.9934 22.7639C31.9097 23.6496 31.533 24.5768 30.5006 24.5768C29.4821 24.5768 29.0635 23.5804 29.0217 22.7224C29.0077 22.7224 28.9519 22.1827 28.9519 20.6052C28.9519 19.0276 29.0077 18.3633 29.0217 18.3633C29.0217 17.4638 29.496 16.5782 30.5006 16.5782C31.519 16.5782 31.9794 17.4638 31.9934 18.3495C31.9934 18.3633 32.0632 19.0276 32.0632 20.6052ZM34.4489 18.6955C34.1001 15.2497 32.119 14.5024 30.5006 14.5024C28.1985 14.5024 26.8033 15.9555 26.5522 18.6955C26.5243 18.9169 26.4964 19.3182 26.4825 20.6052C26.4685 21.5462 26.5383 22.3211 26.5522 22.5148C26.7057 25.0749 28.1846 26.6387 30.5006 26.6387C32.8165 26.6387 34.2954 25.0473 34.4629 22.5148C34.4768 22.3349 34.5187 21.5462 34.5187 20.6052C34.5187 20.1762 34.4908 19.0276 34.4489 18.6955Z" fill="#8EACBD"/>
<path id="path19832" d="M57.6914 19.1521C57.7054 18.6124 57.7054 18.5017 57.7193 18.3495C57.7891 17.3808 58.2216 16.5782 59.2261 16.5782C60.412 16.5644 60.6911 17.7129 60.7329 18.3495C60.7608 18.6955 60.7748 18.9169 60.7748 19.1521H57.6914ZM60.7468 22.3903C60.7468 22.3903 60.7468 22.5702 60.7189 22.7916C60.6492 23.359 60.426 24.5768 59.2261 24.5768C58.1937 24.5768 57.803 23.6496 57.7333 22.7363C57.7193 22.4733 57.6775 22.1827 57.6775 21.1864H63.1884C63.1884 21.1864 63.1884 20.3699 63.1744 19.8856C63.1744 19.6918 63.1605 19.3735 63.1186 18.6955C63.0349 17.6576 62.6443 16.5228 62.0444 15.8032C61.3607 14.9453 60.3841 14.5024 59.2261 14.5024C56.9938 14.5024 55.5987 15.9416 55.3336 18.6955C55.3057 18.9446 55.2638 19.2905 55.2638 20.6052C55.2638 21.5462 55.3196 22.3349 55.3336 22.5148C55.4731 25.0334 56.9799 26.6387 59.2261 26.6387C61.4584 26.6387 62.9512 25.0749 63.1186 22.3903H60.7468Z" fill="#8EACBD"/>
<path id="path19834" d="M18.6689 1.97889H58.8221L74.169 19.8027L58.8221 37.3774H18.6689L3.25226 19.7473L18.6689 1.97889ZM59.7847 0H17.6923L0.615387 19.6781L17.7063 39.2317H59.7847L76.8059 19.7473L59.7847 0Z" fill="#8EACBD"/>
<path id="path19836" d="M19.1712 12.4268H20.3292C21.5988 12.4268 22.2964 13.0911 22.3243 14.2812C22.3243 14.378 22.3382 14.4749 22.3382 14.6548C22.3382 14.8762 22.3382 14.9454 22.3243 15.0423C22.2545 15.748 21.9336 16.9796 20.4548 16.9796H19.1712V12.4268ZM25.017 25.3795L24.7658 21.4217C24.6542 19.6504 24.1938 18.5987 23.2591 18.059C23.9287 17.6577 24.7938 16.6752 24.7798 14.6133C24.7798 11.4858 22.8126 10.3787 20.4966 10.3511H16.7296V26.3897H19.1572L19.1712 19.0554H20.5245C21.3058 19.0554 22.1848 19.7335 22.3243 21.6432L22.5754 25.3933C22.6033 25.933 22.701 26.3897 22.701 26.3897H25.1425C25.1425 26.3897 25.0309 25.9469 25.017 25.3795Z" fill="#8EACBD"/>
<path id="path19838" d="M41.6619 22.2796C41.6619 22.4595 41.648 22.6117 41.634 22.7224C41.5643 23.6219 41.2573 24.5768 40.1412 24.5768C39.1227 24.5768 38.7181 23.5389 38.6344 22.7778C38.5925 22.3211 38.6065 21.9613 38.5925 20.6052C38.5786 19.0276 38.6344 18.6124 38.6623 18.3633C38.746 17.3531 39.1367 16.5782 40.1412 16.5782C41.1876 16.5644 41.6201 17.4638 41.634 18.3495C41.634 18.3633 41.6619 18.5709 41.6759 19.0414H44.1174C44.1174 18.8754 44.1035 18.737 44.1035 18.6678C43.8245 15.3189 41.7596 14.5024 40.1412 14.5024C37.8392 14.5024 36.444 15.9555 36.1928 18.6955C36.1649 18.9169 36.137 19.3182 36.1231 20.6052C36.1091 21.5462 36.1789 22.3211 36.1928 22.5148C36.3463 25.0749 37.8252 26.6387 40.1412 26.6387C42.5409 26.6525 43.8663 25.1995 44.1035 22.5148C44.1035 22.418 44.1174 22.3488 44.1174 22.2796H41.6619Z" fill="#8EACBD"/>
</g>
</g>
</svg>
