<svg width="21" height="27" viewBox="0 0 21 27" fill="none" xmlns="http://www.w3.org/2000/svg">
<g id="Group 460">
<path id="Vector" d="M14.5 17V14C14.5 12.9391 14.0786 11.9217 13.3284 11.1716C12.5783 10.4214 11.5609 10 10.5 10C9.43913 10 8.42172 10.4214 7.67157 11.1716C6.92143 11.9217 6.5 12.9391 6.5 14V17C5.96973 17.0005 5.46133 17.2114 5.08637 17.5864C4.71141 17.9613 4.50053 18.4697 4.5 19V25C4.50053 25.5303 4.71141 26.0387 5.08637 26.4136C5.46133 26.7886 5.96973 26.9995 6.5 27H14.5C15.0303 26.9995 15.5387 26.7886 15.9136 26.4136C16.2886 26.0387 16.4995 25.5303 16.5 25V19C16.4995 18.4697 16.2886 17.9613 15.9136 17.5864C15.5387 17.2114 15.0303 17.0005 14.5 17ZM8.5 14C8.5 13.4696 8.71071 12.9609 9.08579 12.5858C9.46086 12.2107 9.96957 12 10.5 12C11.0304 12 11.5391 12.2107 11.9142 12.5858C12.2893 12.9609 12.5 13.4696 12.5 14V17H8.5V14ZM6.5 25V19H14.5V25H6.5Z" fill="#28C878"/>
<path id="Vector_2" d="M0.605469 4.10513L2.01947 5.51914C3.13228 4.40373 4.45418 3.5188 5.90948 2.915C7.36478 2.3112 8.92488 2.0004 10.5005 2.0004C12.0761 2.0004 13.6362 2.3112 15.0915 2.915C16.5468 3.5188 17.8687 4.40373 18.9815 5.51914L20.3955 4.10513C19.0971 2.80384 17.5548 1.77143 15.8568 1.06701C14.1589 0.36259 12.3387 0 10.5005 0C8.66222 0 6.84202 0.36259 5.14409 1.06701C3.44616 1.77143 1.90385 2.80384 0.605469 4.10513Z" fill="#28C878"/>
<path id="Vector_3" d="M10.5006 5C9.31887 4.99941 8.14865 5.23233 7.0572 5.68538C5.96574 6.13844 4.97457 6.8027 4.14062 7.64L5.55262 9.053C6.20182 8.40236 6.97297 7.88615 7.82194 7.53394C8.6709 7.18173 9.581 7.00043 10.5001 7.00043C11.4193 7.00043 12.3293 7.18173 13.1783 7.53394C14.0273 7.88615 14.7984 8.40236 15.4476 9.053L16.8616 7.639C16.0274 6.80185 15.036 6.13776 13.9444 5.68488C12.8528 5.232 11.6825 4.99925 10.5006 5Z" fill="#28C878"/>
</g>
</svg>
