<svg width="48" height="48" viewBox="0 0 48 48" fill="none" xmlns="http://www.w3.org/2000/svg">
<g id="sketch">
<g id="sketch_2">
<path id="vector" fill-rule="evenodd" clip-rule="evenodd" d="M12.1636 7.18526L24 6L35.8363 7.18526L44.9999 18.837L24 41.9999L3 18.837L12.1636 7.18526Z" fill="#FDB300"/>
<path id="vector_2" d="M11.5059 18.837L23.9999 42L3 18.837H11.5059ZM36.4941 18.837L24.0001 42L45 18.837" fill="#EA6C00"/>
<path id="vector_3" fill-rule="evenodd" clip-rule="evenodd" d="M11.5059 18.837H36.4937L23.9998 42" fill="#FDAD00"/>
<path id="vector_4" d="M23.9998 6L12.1634 7.18507L11.5059 18.8369L23.9998 6ZM24 6L35.8363 7.18507L36.4939 18.8369" fill="#FDD231"/>
<path id="vector_5" d="M45 18.8368L35.8365 7.18503L36.4941 18.8368H45ZM3 18.8368L12.1635 7.18503L11.5059 18.8368" fill="#FDAD00"/>
<path id="vector_6" fill-rule="evenodd" clip-rule="evenodd" d="M23.9998 6L11.5059 18.8369H36.4937" fill="#FEEEB7"/>
</g>
</g>
</svg>
