<svg width="80" height="80" viewBox="0 0 80 80" fill="none" xmlns="http://www.w3.org/2000/svg">
<g id="Group 370">
<path id="Rectangle 106" d="M2.35244 23.0669C2.56526 15.504 8.29088 9.24059 15.8044 8.35152L59.9855 3.12355C69.7637 1.96649 78.059 10.2412 76.9263 20.0222L72.029 62.312C71.1781 69.6596 65.1772 75.3372 57.7938 75.7803L17.3988 78.2045C8.46308 78.7408 0.989461 71.5012 1.24127 62.5529L2.35244 23.0669Z" fill="#2AB673" fill-opacity="0.08" stroke="#2AB673" stroke-width="1.5"/>
<g id="Iconly/Two-tone/Time Square">
<g id="Time Square">
<path id="Stroke 1" fill-rule="evenodd" clip-rule="evenodd" d="M45.78 27.667H34.2213C30.1933 27.667 27.668 30.519 27.668 34.555V45.4457C27.668 49.4817 30.18 52.3337 34.2213 52.3337H45.7786C49.82 52.3337 52.3346 49.4817 52.3346 45.4457V34.555C52.3346 30.519 49.82 27.667 45.78 27.667Z" stroke="#2AB673" stroke-width="1.5" stroke-linecap="round" stroke-linejoin="round"/>
<path id="Stroke 3" opacity="0.4" d="M44.5213 42.6903L40 39.993V34.1783" stroke="#2AB673" stroke-width="1.5" stroke-linecap="round" stroke-linejoin="round"/>
</g>
</g>
</g>
</svg>
