<svg width="492" height="526" viewBox="0 0 492 526" fill="none" xmlns="http://www.w3.org/2000/svg">
<g id="Topology-3">
<g id="Group 8">
<path id="Vector 94" d="M117.167 2L184.996 60.5407H218.91L269.075 2L314.294 29.5071L382.123 11.169L375.058 112.734H420.277L433.701 178.327L402.613 250.974L465.496 277.776L490.225 463.272H356.687L339.024 508.412H241.52L196.301 476.673L92.4382 523.929L58.5239 490.074V401.91L24.6096 354.655L58.5239 277.776V200.897L2 178.327V60.5407L117.167 2Z" stroke="white" stroke-width="3"/>
<path id="Vector 95" d="M220.594 241.303L232.86 235.038H249.04L260.328 246.888L263.263 261.681L269.96 264.55L272.594 284.4H258.371L241.289 285.834L230.226 290.891L226.614 287.268V277.833V256.323L220.594 253.907V241.303Z" stroke="white" stroke-width="3"/>
</g>
<path id="Vector 94 - Vector 95 - 77" d="M125.595 19.9259L188.678 73.7225H221.228L267.968 20.1407L310.143 45.9876L372.867 29.6292L366.458 123.95L408.714 124.171L421.207 185.482L392.611 253.304L450.11 278.044L472.39 449.272L348.467 449.327L331.505 491.05L240.651 491.439L198.771 462.002L102.759 505.483L71.4535 473.87V392.125L40.1479 346.85L71.2219 275.792L70.9904 204.734L18.8145 183.415V74.2044L125.595 19.9259Z" stroke="white" stroke-width="3"/>
<path id="Vector 94 - Vector 95 - 154" d="M134.022 37.8523L192.359 86.9048H223.545L266.86 38.2819L305.991 62.4687L363.61 48.0898L357.858 135.167L397.15 135.608L408.712 192.638L382.609 255.635L434.724 278.313L454.554 435.272L340.247 435.382L323.987 473.688L239.782 474.466L201.241 447.331L113.08 487.038L84.383 457.666V382.34L55.6863 339.045L83.9199 273.808L83.4568 208.571L35.6289 188.504V87.8686L134.022 37.8523Z" stroke="white" stroke-width="3"/>
<path id="Vector 94 - Vector 95 - 231" d="M142.449 55.7781L196.04 100.087H225.862L265.753 56.4225L301.839 78.9491L354.354 66.5498L349.257 146.383L385.587 147.045L396.217 199.792L372.607 257.965L419.338 278.582L436.719 421.271L332.027 421.437L316.468 456.325L238.912 457.492L203.712 432.66L123.401 468.592L97.3126 441.461V372.554L71.2246 331.24L96.6179 271.824L95.9233 212.408L52.4434 193.592V101.532L142.449 55.7781Z" stroke="white" stroke-width="3"/>
<path id="Vector 94 - Vector 95 - 308" d="M150.876 73.704L199.722 113.268H228.179L264.645 74.5632L297.688 95.4296L345.097 85.01L340.657 157.6L374.024 158.482L383.723 206.947L362.605 260.295L403.952 278.85L418.884 407.271L323.806 407.491L308.95 438.963L238.043 440.519L206.182 417.988L133.721 450.146L110.242 425.257V362.769L86.763 323.435L109.316 269.839L108.39 216.244L69.2578 198.68V115.196L150.876 73.704Z" stroke="white" stroke-width="3"/>
<path id="Vector 94 - Vector 95 - 385" d="M159.305 91.6304L203.405 126.451H230.498L263.54 92.7045L293.538 111.911L335.843 103.471L332.059 168.817L362.462 169.92L371.23 214.103L352.605 262.626L388.567 279.119L401.05 393.271L315.588 393.546L301.433 421.601L237.176 423.546L208.654 403.317L144.044 431.701L123.174 409.053V352.984L102.303 315.63L122.016 267.856L120.858 220.081L86.0742 203.768V128.86L159.305 91.6304Z" stroke="white" stroke-width="3"/>
<path id="Vector 94 - Vector 95 - 462" d="M167.733 109.556L207.086 139.633H232.815L262.432 110.845L289.386 128.391L326.586 121.931L323.459 180.033L350.899 181.357L358.736 221.257L342.604 264.956L373.181 279.388L383.215 379.27L307.368 379.601L293.914 404.238L236.307 406.572L211.124 388.646L154.365 413.255L136.103 392.848V343.199L117.842 307.825L134.714 265.872L133.325 223.918L102.889 208.856V142.524L167.733 109.556Z" stroke="white" stroke-width="3"/>
<path id="Vector 94 - Vector 95 - 538" d="M176.16 127.482L210.768 152.814H235.133L261.325 128.986L285.234 144.872L317.33 140.391L314.859 191.25L339.336 192.794L346.241 228.412L332.602 267.286L357.795 279.656L365.379 365.27L299.148 365.656L286.396 386.876L235.438 389.599L213.595 373.974L164.686 394.809L149.033 376.644V333.413L133.38 300.02L147.412 263.887L145.791 227.755L119.703 213.944V156.188L176.16 127.482Z" stroke="white" stroke-width="3"/>
<path id="Vector 94 - Vector 95 - 615" d="M184.589 145.408L214.451 165.996H237.452L260.219 147.127L281.084 161.352L308.075 158.851L306.261 202.466L327.775 204.231L333.748 235.567L322.602 269.616L342.411 279.924L347.546 351.269L290.929 351.71L278.879 369.513L234.57 372.625L216.067 359.303L175.008 376.364L161.964 360.44V323.628L148.92 292.215L160.112 261.903L158.259 231.591L136.52 219.032V169.851L184.589 145.408Z" stroke="white" stroke-width="3"/>
<path id="Vector 94 - Vector 95 - 692" d="M193.016 163.334L218.133 179.178H239.769L259.112 165.268L276.933 177.833L298.819 177.312L297.661 213.683L316.211 215.668L321.254 242.722L312.6 271.947L327.025 280.193L329.711 337.269L282.709 337.765L271.361 352.151L233.701 355.652L218.537 344.632L185.329 357.918L174.894 344.236V313.842L164.459 284.41L172.81 259.919L170.726 235.428L153.334 224.12V183.515L193.016 163.334Z" stroke="white" stroke-width="3"/>
<path id="Vector 94 - Vector 95 - 769" d="M201.443 181.26L221.814 192.36H242.086L258.004 183.408L272.781 194.314L289.563 195.772L289.061 224.899L304.648 227.106L308.759 249.877L302.598 274.277L311.639 280.462L311.875 323.269L274.489 323.82L263.842 334.788L232.832 338.678L221.007 329.961L195.65 339.472L187.823 328.031V304.057L179.997 276.605L185.508 257.935L183.192 239.265L170.148 229.208V197.179L201.443 181.26Z" stroke="white" stroke-width="3"/>
<path id="Vector 94 - Vector 95 - 846" d="M209.873 199.186L225.497 205.542H244.405L256.899 201.549L268.631 210.794L280.308 214.232L280.463 236.116L293.087 238.543L296.266 257.032L292.598 276.607L296.255 280.73L294.042 309.268L266.27 309.875L256.326 317.426L231.965 321.705L223.48 315.289L205.973 321.027L200.755 311.827V294.272L195.537 268.8L198.208 255.951L195.661 243.101L186.965 234.296V210.843L209.873 199.186Z" stroke="white" stroke-width="3"/>
<path id="Vector 94 - Vector 95 - 923" d="M218.3 217.113L229.179 218.724H246.722L255.791 219.69L264.479 227.275L271.052 232.692L271.863 247.333L281.523 249.98L283.772 264.188L282.596 278.937L280.869 280.999L276.206 295.268L258.05 295.93L248.807 300.064L231.095 304.732L225.95 300.618L216.293 302.581L213.684 295.623V284.487L211.076 260.995L210.906 253.967L208.127 246.939L203.779 239.385V224.507L218.3 217.113Z" stroke="white" stroke-width="3"/>
</g>
</svg>
