<svg width="542" height="533" viewBox="0 0 542 533" fill="none" xmlns="http://www.w3.org/2000/svg">
<path d="M508.521 210.322C545.021 196.293 563.046 126.89 490.371 138.343C478.455 140.221 457.936 140.41 432.96 138.343C410.081 136.45 397.563 99.3853 368.001 88.0079C321.639 70.1646 289.324 136.879 264.952 126.263C233.031 112.357 219.181 69.7803 201.718 46.2297C185.277 24.0594 158.898 9.93755 131.777 4.5153C84.1971 -4.99738 34.3349 12.2658 31.8542 59.8202C30.6123 83.6257 41.244 115.022 69.9793 154.45C82.8269 172.078 93.4149 187.623 101.976 201.438C124.012 236.996 71.8893 227.436 69.9793 269.717C68.8909 293.809 113.889 318.972 89.8866 338.02C72.8198 351.564 52.1119 367.107 30.8223 389.304C-6.56563 428.284 -12.0705 477.021 41.2897 483.915C66.4789 487.169 104.785 481.098 159.048 460.276C193.772 446.951 192.548 480.096 237.047 483.915C281.545 487.734 302.066 456.505 320.483 479.111L320.852 479.564C334.888 496.795 349.858 515.172 378.611 525.208C403.379 533.854 427.91 533.028 446.76 525.208C466.933 516.84 480.599 500.462 481.084 479.111C481.571 457.689 468.787 431.26 435.991 402.894C414.368 384.192 464.681 371.526 459.538 338.02C454.395 304.514 405.849 299.857 419.929 279.785C444.387 244.917 465.773 226.752 508.521 210.322Z" stroke="white" stroke-width="3"/>
<path d="M309.421 278C315.024 275.865 313.554 265.915 307.481 265.412C300.567 264.839 291.556 268.334 284.625 267.93C271.244 267.149 267.434 262.422 260.381 253.009C257.857 249.635 253.808 247.486 249.644 246.661C242.34 245.213 234.685 247.84 234.304 255.077C234.114 258.7 235.746 263.478 240.157 269.478C242.13 272.161 243.755 274.527 245.069 276.629C251.249 285.782 246.407 294.3 243.213 297.415C240.593 299.476 237.414 301.842 234.146 305.22C228.406 311.152 229.158 320.136 235.753 319.618C245.069 318.887 279.845 302.981 285.909 319.618C288.725 327.346 295.106 327.092 297.999 325.902C301.096 324.629 303.194 322.136 303.269 318.887C303.343 315.627 297.999 310.226 296.346 307.288C290.243 296.442 287.088 286.764 309.421 278Z" stroke="white" stroke-width="3"/>
<path d="M474.471 149.948C540.63 139.783 524.138 203.206 490.677 216.068C449.769 231.814 430.596 249.223 408.894 281.934C396.158 300.331 440.484 304.758 445.302 335.437C450.12 366.117 404.463 377.838 424.132 395.003C453.964 421.109 465.405 445.382 464.683 464.99C464.112 484.47 451.469 499.405 432.907 506.951C415.549 513.997 393.022 514.578 370.361 506.361C343.424 495.636 326.658 480.148 312.949 464.418C295.895 443.873 277.059 472.094 236.547 468.354C196.035 464.613 197.261 434.116 165.927 445.971C116.853 464.609 82.2882 469.917 59.607 466.769C11.203 460.355 16.3927 415.746 50.4845 379.945C69.9297 359.416 88.7399 344.872 103.989 332.132C125.708 314.61 84.6213 291.5 85.4335 269.335C86.9723 230.591 134.258 239.044 114.125 206.473C106.252 193.685 96.5858 179.351 84.9054 163.146C58.7959 126.613 49.8137 97.8076 51.6026 76.2792C54.0475 33.0481 99.5983 17.4084 143.054 26.1604C167.896 31.1906 192.045 44.1653 207.116 64.491C223.642 86.7753 236.586 125.945 266.836 138.668C289.322 148.346 319.082 87.574 361.623 103.741C388.878 114.024 400.628 147.682 421.755 149.431C444.752 151.334 463.591 151.4 474.471 149.948Z" stroke="white" stroke-width="3"/>
<path d="M457.901 162.072C517.328 153.211 502.422 210.561 472.11 222.237C433.18 237.276 416.283 253.903 397.407 284.411C386.057 301.105 426.018 305.296 430.494 333.104C434.97 360.913 394.119 371.672 411.77 387.275C438.54 411.081 448.602 433.164 447.648 450.928C446.991 468.51 435.414 481.98 418.524 488.691C402.714 494.954 382.267 495.29 361.787 487.512C337.008 476.202 318.516 463.861 305.289 449.785C289.655 431.331 272.566 456.504 236.173 452.847C199.78 449.19 201.004 421.386 173.163 431.752C129.438 448.18 98.7265 452.718 78.6272 449.68C35.3378 443.755 40.1949 403.339 70.8786 370.77C88.4155 351.938 105.267 338.415 118.648 326.498C138.013 310.526 100.973 289.503 101.507 269.298C102.669 234.148 144.963 241.482 126.8 211.945C119.64 200.203 110.928 187.099 100.453 172.342C77.055 138.758 69.7503 112.585 72.0791 93.3651C74.4797 54.5206 115.569 40.5273 154.758 48.5058C177.239 53.1366 199.078 64.9452 212.731 83.3965C228.263 104.382 240.259 140.088 268.735 151.61C289.262 160.335 316.37 105.594 354.948 120.061C379.807 129.236 390.747 159.437 410.054 161.039C430.997 162.776 448.093 163.097 457.901 162.072Z" stroke="white" stroke-width="3"/>
<path d="M442 173.673C494.911 166.102 481.538 217.468 454.265 227.975C417.176 242.332 402.492 258.203 386.373 286.555C376.367 301.573 412.107 305.533 416.258 330.513C420.408 355.493 384.213 365.308 399.911 379.372C423.717 400.916 432.437 420.843 431.247 436.791C430.504 452.501 419.949 464.527 404.67 470.415C390.353 475.903 371.91 475.994 353.537 468.644C330.827 456.73 310.549 447.518 297.757 435.075C283.487 418.683 268.082 440.847 235.676 437.268C203.27 433.689 204.496 408.534 180.045 417.428C141.508 431.669 114.538 435.444 96.9468 432.512C58.6136 427.067 63.1554 390.781 90.5429 361.395C106.235 344.231 121.189 331.706 132.752 320.594C149.834 306.148 116.705 287.179 116.963 268.902C117.755 237.293 155.212 243.519 138.951 216.97C132.479 206.255 124.69 194.362 115.382 181.03C94.6094 150.342 88.954 126.761 91.8296 109.821C94.1943 75.3033 130.972 62.9348 166.037 70.1521C186.239 74.3907 205.847 85.0515 218.131 101.657C232.724 121.377 243.815 153.673 270.62 164.012C289.261 171.798 313.814 123.004 348.571 135.793C371.123 143.873 381.293 170.665 398.848 172.122C417.812 173.696 433.228 174.272 442 173.673Z" stroke="white" stroke-width="3"/>
<path d="M426.1 185.792C472.494 179.524 460.653 224.814 436.419 234.135C401.168 247.784 388.698 262.87 375.337 289.017C366.677 302.332 398.195 306.055 402.02 328.162C405.846 350.27 374.309 359.122 388.053 371.623C408.893 390.867 416.27 408.601 414.844 422.705C414.014 436.516 404.483 447.076 390.815 452.13C377.989 456.834 361.552 456.681 345.285 449.771C324.644 437.273 302.574 431.207 290.215 420.419C277.308 406.119 263.589 425.233 235.171 421.739C206.752 418.244 207.98 395.783 186.921 403.189C153.575 415.219 130.349 418.224 115.266 415.402C81.8914 410.446 86.1182 378.356 110.209 352.203C124.056 336.738 137.111 325.234 146.856 314.946C161.653 302.053 132.437 285.17 132.418 268.855C132.838 240.841 165.457 245.948 151.099 222.436C145.315 212.767 138.448 202.105 130.308 190.222C112.162 162.485 108.158 141.538 111.582 126.907C113.911 96.7775 146.376 86.0559 177.316 92.4993C195.238 96.3381 212.615 105.832 223.53 120.562C237.185 138.981 247.371 167.811 272.506 176.949C289.262 183.782 311.26 141.022 342.194 152.11C362.439 159.081 371.84 182.415 387.644 183.725C404.629 185.133 418.365 185.963 426.1 185.792Z" stroke="white" stroke-width="3"/>
<path d="M409.451 197.907C449.224 192.942 438.942 232.156 417.802 240.29C384.468 253.228 374.241 267.528 363.667 291.466C356.371 303.077 383.598 306.563 387.089 325.797C390.58 345.031 363.771 352.92 375.531 363.858C393.359 380.8 399.377 396.342 397.718 408.6C396.803 420.512 388.317 429.606 376.29 433.826C364.985 437.747 350.59 437.348 336.467 430.88C317.94 417.803 294.129 414.88 282.233 405.746C270.718 393.538 258.715 409.603 234.348 406.194C209.98 402.784 211.208 383.018 193.588 388.937C165.506 398.755 146.075 400.991 133.535 398.28C105.193 393.814 109.095 365.92 129.834 343.003C141.806 329.237 152.933 318.756 160.838 309.292C173.318 297.952 148.08 283.158 147.785 268.803C147.832 244.387 175.539 248.376 163.117 227.9C158.033 219.278 152.104 209.849 145.15 199.414C129.672 174.63 127.327 156.318 131.291 143.996C133.579 118.255 161.659 109.18 188.405 114.849C204.007 118.288 219.114 126.615 228.636 139.469C241.322 156.586 250.579 181.947 273.988 189.883C288.821 195.764 308.214 159.037 335.257 168.425C353.15 174.287 361.76 194.164 375.777 195.326C390.746 196.568 402.769 197.652 409.451 197.907Z" stroke="white" stroke-width="3"/>
<path d="M393.549 209.497C426.801 205.824 418.052 239.043 399.953 246.006C368.453 258.262 360.442 271.805 352.63 293.584C346.679 303.516 369.682 306.772 372.848 323.172C376.015 339.573 353.866 346.515 363.671 355.912C378.532 370.588 383.206 383.97 381.31 394.409C380.308 404.445 372.845 412.092 362.43 415.487C352.617 418.633 340.227 417.989 328.212 411.948C311.754 398.265 286.143 398.478 274.679 390.98C264.528 380.838 254.211 393.888 233.833 390.556C213.455 387.224 214.686 370.113 200.46 374.556C177.572 382.184 161.886 383.655 151.858 381.05C128.476 377.064 132.064 353.308 149.504 333.578C159.63 321.483 168.858 312.003 174.942 303.345C185.137 293.533 163.813 280.796 163.241 268.374C162.916 247.504 185.781 250.382 175.263 232.9C170.867 225.308 165.862 217.091 160.076 208.084C147.225 186.2 146.534 170.485 151.048 160.447C153.301 139.041 177.067 131.594 199.685 136.501C213.007 139.547 225.882 146.724 234.034 157.729C245.783 173.578 254.136 195.524 275.876 202.275C288.823 207.214 305.661 176.446 328.88 184.152C344.466 188.918 352.307 205.379 364.572 206.396C377.562 207.474 387.904 208.814 393.549 209.497Z" stroke="white" stroke-width="3"/>
<path d="M377.648 221.596C404.374 219.225 397.159 246.361 382.102 252.136C352.43 263.675 346.638 276.426 341.591 295.987C336.987 304.213 355.765 307.23 358.606 320.754C361.447 334.277 343.964 340.255 351.812 348.086C363.703 360.457 367.032 371.643 364.898 380.235C363.807 388.37 357.367 394.55 348.565 397.111C340.244 399.473 329.861 398.585 319.955 392.989C305.565 378.737 278.141 382.084 267.106 376.241C258.318 368.192 249.688 378.193 233.302 374.948C216.917 371.703 218.151 357.291 207.323 360.247C189.635 365.665 177.698 366.367 170.184 363.875C151.768 360.38 155.041 340.825 169.181 324.335C177.46 313.943 184.787 305.488 189.048 297.659C196.955 289.402 179.547 278.757 178.697 268.299C177.999 251.031 196.019 252.791 187.406 238.349C183.698 231.806 179.616 224.824 174.999 217.268C164.779 198.344 165.745 185.267 170.812 177.538C173.031 160.524 192.479 154.724 210.968 158.855C222.009 161.501 232.65 167.509 239.432 176.636C250.246 191.175 257.694 209.648 277.769 215.196C288.831 219.181 303.112 194.452 322.506 200.457C335.784 204.113 342.857 217.114 353.37 217.984C364.38 218.895 373.041 220.488 377.648 221.596Z" stroke="white" stroke-width="3"/>
<path d="M361.75 233.356C381.941 232.277 376.262 253.476 364.25 258.094C336.396 268.984 332.828 281.016 330.553 298.472C327.299 305.037 341.846 307.832 344.362 318.553C346.879 329.273 334.067 334.319 339.956 340.627C348.874 350.761 350.854 359.812 348.48 366.604C347.3 372.881 341.884 377.627 334.694 379.367C327.867 380.957 319.492 379.82 311.697 374.635C299.375 359.727 270.116 366.237 259.505 362.019C252.081 356.021 245.138 363.024 232.751 359.846C220.364 356.669 221.601 344.877 214.178 346.36C201.697 349.594 193.518 349.53 188.522 347.135C175.079 344.112 178.039 328.652 188.873 315.312C195.303 306.565 200.726 299.088 203.16 292.042C208.775 285.295 195.289 276.683 194.16 268.132C193.086 254.372 206.253 255.022 199.547 243.542L199.372 243.22C196.406 237.787 193.304 232.106 189.925 226.079C182.339 210.008 184.969 199.499 190.594 194.04C192.779 181.326 207.905 177.144 222.26 180.523C231.017 182.782 239.422 187.654 244.833 194.952C254.714 208.265 261.259 223.367 279.674 227.741C288.849 230.794 300.573 211.972 316.139 216.307C327.108 218.872 333.414 228.483 342.174 229.211C351.204 229.96 358.182 231.815 361.75 233.356Z" stroke="white" stroke-width="3"/>
<path d="M345.081 245.426C358.649 245.648 354.531 260.745 345.616 264.17C319.706 274.329 318.377 285.553 318.883 300.77C316.993 305.623 327.245 308.176 329.425 316.01C331.606 323.843 323.522 327.919 327.426 332.655C333.332 340.473 333.954 347.32 331.351 352.259C330.088 356.63 325.72 359.904 320.175 360.809C314.871 361.615 308.541 360.236 302.892 355.502C292.692 340.047 261.733 349.677 251.595 347.117C245.568 343.216 240.343 347.165 232.009 344.079C223.674 340.993 224.909 331.912 220.922 331.909C213.704 332.933 209.316 332.101 206.861 329.823C198.45 327.294 201.082 316.049 208.564 305.962C213.117 298.927 216.612 292.485 217.209 286.277C220.508 281.091 211.002 274.579 209.599 268.001C208.156 257.855 216.411 257.389 211.643 248.96C209.326 244.485 207.107 239.939 204.847 235.25C199.928 222.156 204.209 214.296 210.366 211.15C212.507 202.837 223.245 200.306 233.402 202.905C239.837 204.761 245.97 208.459 249.985 213.872C258.889 225.859 264.501 237.472 281.173 240.639C288.421 242.736 297.535 229.968 309.203 232.599C317.815 234.053 323.325 240.198 330.294 240.777C337.303 241.359 342.567 243.463 345.081 245.426Z" stroke="white" stroke-width="3"/>
<path d="M329.161 257.674C336.153 259.191 333.583 268.234 327.738 270.477C303.715 279.921 304.615 290.354 307.894 303.363C307.36 306.519 313.351 308.833 315.201 313.804C317.051 318.774 313.664 321.889 315.597 325.067C318.511 330.591 317.782 335.252 314.945 338.353C313.597 340.831 310.263 342.646 306.348 342.721C302.552 342.747 298.248 341.126 294.727 336.834C286.622 320.817 253.904 333.562 244.218 332.649C239.571 330.832 236.049 331.746 231.737 328.747C227.426 325.748 228.662 319.354 228.092 317.872C226.106 316.697 225.49 315.101 225.562 312.935C222.15 310.896 224.462 303.832 228.616 296.969C231.307 291.629 232.888 286.209 231.654 280.826C232.651 277.188 227.094 272.757 225.415 268.135C223.599 261.574 226.976 259.996 224.129 254.592C222.507 251.162 221.219 247.845 220.137 244.6C217.868 234.453 223.804 229.218 230.503 228.371C232.605 224.428 238.99 223.536 244.982 225.363C249.115 226.819 252.995 229.355 255.627 232.898C263.574 243.579 268.268 251.735 283.236 253.706C288.577 254.853 295.108 248.095 302.915 249.032C309.194 249.383 313.922 252.085 319.119 252.517C324.128 252.934 327.693 255.288 329.161 257.674Z" stroke="white" stroke-width="3"/>
</svg>
