<svg width="307" height="353" viewBox="0 0 307 353" fill="none" xmlns="http://www.w3.org/2000/svg">
<g id="Topology-1">
<path id="Vector 90" d="M60.4382 318.674C-23.7696 235.713 71.3119 167.425 161.318 155.19C212.642 145.99 213.023 82.2269 276.624 70.8658C340.226 59.5048 311.735 155.836 410.003 140.099C508.272 124.361 548.393 284.63 478.936 326.844C409.479 369.058 442.176 381.035 402.367 474.602C362.558 568.169 201.543 563.075 186.185 468.391C170.826 373.708 151.595 408.48 60.4382 318.674Z" stroke="#E1ECF3" stroke-width="1.2494"/>
<path id="Vector 91" d="M256.237 308.03C247.668 300.445 253.631 276.785 269.201 276.423C283.46 276.092 292.188 265.724 301.004 264.157C324.213 260.03 319.278 267.788 332.627 271.094C348.872 275.117 369.05 298.56 345.046 312.419C325.305 323.817 336.747 329.995 324.417 342.778C312.088 355.561 291.148 358.008 280.155 338.969C276.027 331.819 270.508 320.663 256.237 308.03Z" stroke="#E1ECF3" stroke-width="1.2494"/>
<path id="Vector 90 - Vector 91 - 91" d="M77.9594 317.228C0.627873 241.12 87.6078 176.888 170.847 165.733C218.802 157.339 219.941 98.4302 278.562 87.9595C338.492 77.2561 312.142 165.536 402.69 151.529C493.502 137.588 531.811 285.418 466.486 325.054C401.548 364.467 432.313 375.917 395.002 462.14C357.691 548.363 209.411 543.954 194.449 456.147C180.111 369.421 162.126 400.018 77.9594 317.228Z" stroke="#E1ECF3" stroke-width="1.2494"/>
<path id="Vector 90 - Vector 91 - 182" d="M95.4808 315.782C25.0255 246.526 103.904 186.352 180.376 176.276C224.961 168.688 226.859 114.634 280.5 105.053C336.757 95.0076 312.549 175.235 395.378 162.96C478.733 150.815 515.228 286.206 454.035 323.265C393.617 359.876 422.45 370.799 387.637 449.678C352.825 528.557 217.278 524.834 202.713 443.904C189.397 365.135 172.658 391.557 95.4808 315.782Z" stroke="#E1ECF3" stroke-width="1.2494"/>
<path id="Vector 90 - Vector 91 - 273" d="M113.002 314.337C49.4233 251.933 120.2 195.816 189.905 186.819C231.121 180.038 233.778 130.837 282.438 122.147C335.023 112.759 312.957 184.934 388.065 174.39C463.964 164.042 498.646 286.995 441.585 321.476C385.687 355.285 412.587 365.681 380.272 437.216C347.958 508.751 225.146 505.713 210.978 431.66C198.682 360.849 183.19 383.096 113.002 314.337Z" stroke="#E1ECF3" stroke-width="1.2494"/>
<path id="Vector 90 - Vector 91 - 364" d="M130.524 312.892C73.8217 257.34 136.497 205.281 199.435 197.363C237.281 191.388 240.697 147.042 284.376 139.242C333.29 130.511 313.365 194.634 380.753 185.822C449.195 177.27 482.064 287.784 429.136 319.687C377.757 350.695 402.725 360.563 372.908 424.754C343.092 488.946 233.014 486.594 219.243 419.417C207.968 356.564 193.723 374.635 130.524 312.892Z" stroke="#E1ECF3" stroke-width="1.2494"/>
<path id="Vector 90 - Vector 91 - 455" d="M148.237 311.776C98.4105 263.077 152.984 215.074 209.155 208.236C243.632 203.068 247.806 163.575 286.505 156.666C331.747 148.593 313.963 204.664 373.632 197.582C434.617 190.827 465.673 288.902 416.876 318.228C370.017 346.434 393.053 355.775 365.735 412.623C338.416 469.47 241.072 467.803 227.698 407.503C217.444 352.608 204.446 366.504 148.237 311.776Z" stroke="#E1ECF3" stroke-width="1.2494"/>
<path id="Vector 90 - Vector 91 - 545" d="M166.175 311.05C123.224 269.204 169.696 225.258 219.101 219.499C250.207 215.137 255.141 180.499 288.859 174.48C330.429 167.064 314.787 215.083 366.735 209.733C420.263 204.774 449.507 290.41 404.842 317.158C362.503 342.563 383.606 351.377 358.786 400.88C333.966 450.383 249.356 449.403 236.379 395.979C227.146 349.042 215.394 358.762 166.175 311.05Z" stroke="#E1ECF3" stroke-width="1.2494"/>
<path id="Vector 90 - Vector 91 - 636" d="M184.125 310.346C148.051 275.351 186.421 235.463 229.059 230.783C256.796 227.227 262.488 197.443 291.226 192.314C329.124 185.557 315.623 225.523 359.852 221.904C405.923 218.742 433.353 291.94 392.821 316.11C355.001 338.713 374.173 347 351.851 389.159C329.528 431.318 257.652 431.023 245.072 384.477C236.86 345.496 226.355 351.041 184.125 310.346Z" stroke="#E1ECF3" stroke-width="1.2494"/>
<path id="Vector 90 - Vector 91 - 727" d="M202.094 309.672C172.896 281.53 203.165 245.699 239.036 242.099C263.403 239.349 269.854 214.419 293.612 210.181C327.837 204.081 316.478 235.995 352.987 234.107C391.601 232.741 417.218 293.501 380.819 315.092C347.518 334.895 364.757 342.654 344.933 377.469C325.109 412.285 265.967 412.675 253.784 373.005C246.593 341.983 237.334 343.352 202.094 309.672Z" stroke="#E1ECF3" stroke-width="1.2494"/>
<path id="Vector 90 - Vector 91 - 818" d="M220.091 309.044C197.77 287.754 219.936 255.98 249.04 253.46C270.038 251.516 277.248 231.44 296.025 228.092C326.579 222.65 317.361 246.512 346.15 246.355C377.307 246.786 401.112 295.106 368.844 314.12C340.063 331.121 355.37 338.353 338.044 365.825C320.718 393.296 274.31 394.372 262.524 361.579C256.354 338.514 248.342 335.708 220.091 309.044Z" stroke="#E1ECF3" stroke-width="1.2494"/>
<path id="Vector 90 - Vector 91 - 909" d="M238.13 308.484C222.685 294.047 236.749 266.33 259.087 264.889C276.715 263.751 284.684 248.53 298.48 246.072C325.362 241.287 318.286 257.097 339.355 258.672C363.055 260.899 385.046 296.781 356.911 313.217C332.65 327.416 346.025 334.121 331.197 354.249C316.369 374.376 282.695 376.138 271.305 350.221C266.156 335.114 259.391 328.133 238.13 308.484Z" stroke="#E1ECF3" stroke-width="1.2494"/>
</g>
</svg>
