<svg width="629" height="618" viewBox="0 0 629 618" fill="none" xmlns="http://www.w3.org/2000/svg">
<g id="Topology-1" opacity="0.2">
<path id="Vector 90" d="M179.555 95.1142C212.972 -16.7244 321.406 40.1305 376.755 116.415C410.323 158.963 468.055 131.975 509.617 184.717C551.179 237.459 450.217 252.943 512.794 335.211C575.371 417.479 450.483 522.522 378.194 477.701C305.905 432.88 311.192 467.632 207.154 471.68C103.115 475.728 28.4505 327.694 106.34 273.195C184.229 218.697 143.38 216.181 179.555 95.1142Z" stroke="white" stroke-width="3"/>
<path id="Vector 91" d="M285.547 267.911C288.174 256.898 312.462 252.157 320.453 266.106C327.771 278.88 341.424 282.342 347.179 289.655C362.328 308.91 352.898 307.765 356.486 321.274C360.851 337.713 349.627 366.04 325.304 350.238C305.3 337.241 305.357 350.254 287.751 344.565C270.145 338.876 257.628 320.957 269.4 302.839C273.82 296.035 281.172 286.253 285.547 267.911Z" stroke="white" stroke-width="3"/>
<path id="Vector 90 - Vector 91 - 91" d="M189.485 110.365C220.103 7.69255 320.888 58.9479 371.931 129.566C403.113 169.406 456.837 145.187 495.144 193.799C534.305 243.496 441.664 257.469 498.878 333.486C556.164 409.77 441.609 507.838 373.68 465.656C306.145 423.728 310.956 456.503 214.775 459.666C118.594 462.829 49.5792 326.624 121.458 275.432C192.668 225.27 156.201 222.094 189.485 110.365Z" stroke="white" stroke-width="3"/>
<path id="Vector 90 - Vector 91 - 182" d="M199.415 125.617C227.234 32.1101 320.369 77.7659 367.107 142.717C395.902 179.851 445.62 158.399 480.671 202.882C517.431 249.535 433.111 261.996 484.963 331.762C536.956 402.061 432.734 493.155 369.166 453.611C306.384 414.577 310.72 445.375 222.396 447.653C134.073 449.931 70.7076 325.554 136.575 277.67C201.107 231.843 169.022 228.007 199.415 125.617Z" stroke="white" stroke-width="3"/>
<path id="Vector 90 - Vector 91 - 273" d="M209.345 140.869C234.365 56.5278 319.851 96.584 362.284 155.868C388.693 190.295 434.403 171.612 466.199 211.964C500.558 255.573 424.559 266.523 471.048 330.038C517.749 394.353 423.861 478.473 364.653 441.566C306.624 405.425 310.484 434.248 230.018 435.64C149.552 437.033 91.837 324.485 151.694 279.908C209.546 238.417 181.843 233.92 209.345 140.869Z" stroke="white" stroke-width="3"/>
<path id="Vector 90 - Vector 91 - 364" d="M219.27 156.121C241.491 80.9459 319.326 115.402 357.454 169.02C381.477 200.74 423.18 184.825 451.721 221.048C483.679 261.612 416.001 271.05 457.127 328.315C498.536 386.645 414.981 463.791 360.134 429.522C306.858 396.274 310.243 423.12 237.634 423.628C165.026 424.135 112.96 323.416 166.807 282.146C217.98 244.991 194.659 239.833 219.27 156.121Z" stroke="white" stroke-width="3"/>
<path id="Vector 90 - Vector 91 - 455" d="M229.005 171.689C248.427 105.68 318.613 134.537 352.435 182.487C374.071 211.501 411.767 198.354 437.053 230.447C466.609 267.967 407.253 275.893 443.016 326.907C479.134 379.253 405.911 449.424 355.425 417.794C306.902 387.439 309.812 412.309 245.06 411.931C180.309 411.553 133.894 322.663 181.729 284.7C226.224 251.881 207.284 246.063 229.005 171.689Z" stroke="white" stroke-width="3"/>
<path id="Vector 90 - Vector 91 - 545" d="M238.486 187.624C255.109 130.781 317.645 154.038 347.163 196.322C366.412 222.629 400.101 212.25 422.132 240.213C449.287 274.689 398.251 281.103 428.652 325.866C459.478 372.227 396.588 435.425 350.462 406.432C306.692 378.97 309.127 401.865 252.233 400.602C195.34 399.339 154.574 322.276 196.399 287.621C234.214 259.138 219.657 252.659 238.486 187.624Z" stroke="white" stroke-width="3"/>
<path id="Vector 90 - Vector 91 - 636" d="M247.963 203.584C261.787 155.907 316.674 173.565 341.886 210.181C358.749 233.782 388.431 226.171 407.206 250.004C431.96 281.436 389.245 286.338 414.284 324.85C439.817 365.227 387.261 421.451 345.496 395.096C306.479 370.527 308.438 391.445 259.402 389.297C210.366 387.149 175.25 321.915 211.064 290.567C242.2 266.42 232.024 259.281 247.963 203.584Z" stroke="white" stroke-width="3"/>
<path id="Vector 90 - Vector 91 - 727" d="M257.412 219.569C268.436 181.059 315.673 193.117 336.58 224.067C351.057 244.96 376.732 240.118 392.252 259.821C414.605 288.208 380.211 291.599 399.887 323.86C420.128 358.253 377.905 407.502 340.5 383.786C306.237 362.11 307.72 381.051 266.542 378.018C225.363 374.985 195.897 321.58 225.7 293.539C250.158 273.728 244.364 265.928 257.412 219.569Z" stroke="white" stroke-width="3"/>
<path id="Vector 90 - Vector 91 - 818" d="M266.839 235.604C275.064 206.259 314.652 212.717 331.253 238C343.344 256.187 365.011 254.113 377.276 269.686C397.228 295.03 371.155 296.908 385.468 322.919C400.418 351.327 368.528 393.602 335.484 372.524C305.973 353.741 306.981 370.706 273.66 366.788C240.339 362.869 216.523 321.293 240.315 296.56C258.094 281.084 256.682 272.623 266.839 235.604Z" stroke="white" stroke-width="3"/>
<path id="Vector 90 - Vector 91 - 909" d="M276.219 251.702C281.645 231.523 313.583 232.382 325.879 251.998C335.583 267.478 353.244 268.172 362.253 279.615C379.804 301.914 362.053 302.281 371.003 322.041C380.66 344.465 359.103 379.765 330.42 361.325C305.662 345.435 306.195 360.425 280.731 355.621C255.268 350.817 237.101 321.07 254.884 299.644C265.983 288.504 268.953 279.383 276.219 251.702Z" stroke="white" stroke-width="3"/>
</g>
</svg>
