<svg width="667" height="150" viewBox="0 0 667 150" fill="none" xmlns="http://www.w3.org/2000/svg">
<g id="Group 398">
<path id="Vector 92" d="M404.323 396.535C421.99 442.514 509.391 465.219 494.968 373.671C492.603 358.66 492.366 332.812 494.968 301.351C497.353 272.53 544.029 256.761 558.356 219.521C580.827 161.119 496.812 120.412 510.182 89.7113C527.693 49.5007 581.311 32.0542 610.969 10.055C638.888 -10.6549 656.672 -43.8848 663.5 -78.0488C675.48 -137.985 653.74 -200.796 593.854 -203.921C563.875 -205.486 524.337 -192.093 474.684 -155.895C452.485 -139.711 432.909 -126.374 415.511 -115.589C370.733 -87.8309 382.772 -153.489 329.526 -155.895C299.186 -157.266 267.499 -100.583 243.511 -130.818C226.454 -152.317 206.881 -178.403 178.928 -205.221C129.839 -252.319 68.4637 -259.253 59.7826 -192.036C55.6846 -160.305 63.329 -112.05 89.5511 -43.6962C106.332 0.0463988 64.5919 -1.49554 59.7826 54.5588C54.9733 110.613 94.2998 136.464 65.8313 159.663L65.2611 160.128C43.5622 177.809 20.4193 196.667 7.78047 232.888C-3.10661 264.088 -2.06645 294.989 7.78047 318.734C18.3188 344.147 38.9442 361.362 65.8313 361.972C92.8092 362.585 126.091 346.481 161.813 305.168C185.366 277.93 201.316 341.309 243.511 334.83C285.706 328.351 291.57 267.198 316.848 284.935C360.757 315.745 383.633 342.685 404.323 396.535Z" stroke="#E1ECF3" stroke-width="1.19883"/>
<path id="Vector 93" d="M319.094 145.73C321.783 152.788 334.313 150.936 334.947 143.286C335.669 134.576 331.268 123.226 331.776 114.495C332.759 97.6379 338.712 92.8395 350.566 83.9547C354.815 80.7754 357.522 75.674 358.561 70.4293C360.384 61.2281 357.076 51.5855 347.962 51.1058C343.399 50.8656 337.382 52.9216 329.826 58.4786C326.447 60.9631 323.468 63.0107 320.821 64.6663C309.295 72.4507 298.567 66.3511 294.645 62.3283C292.049 59.0279 289.07 55.0233 284.816 50.9062C277.345 43.676 266.032 44.6233 266.684 52.9304C267.604 64.6663 287.635 108.473 266.684 116.111C256.952 119.659 257.271 127.697 258.77 131.342C260.374 135.243 263.513 137.886 267.604 137.98C271.71 138.074 278.511 131.342 282.211 129.259C295.871 121.571 308.058 117.597 319.094 145.73Z" stroke="#E1ECF3" stroke-width="1.19883"/>
<path id="Vector 92 - Vector 93 - 91" d="M480.354 353.641C493.154 436.982 413.284 416.207 397.087 374.056C377.257 322.524 355.335 298.372 314.14 271.034C290.973 254.991 285.398 310.828 246.762 316.897C208.127 322.966 193.366 265.452 171.75 290.23C138.875 327.808 108.307 342.221 83.6143 341.312C59.0822 340.592 40.2743 324.666 30.772 301.283C21.8989 279.417 21.1665 251.041 31.515 222.494C45.0212 188.562 64.5254 167.441 84.3341 150.173C110.207 128.69 74.6674 104.962 79.3781 53.9294C84.0887 2.89662 122.494 4.44121 107.565 -35.0304C84.0934 -96.8486 77.409 -140.39 81.3737 -168.961C89.4508 -229.936 145.628 -223.398 190.713 -180.453C216.566 -155.958 234.881 -132.263 250.924 -113.054C272.991 -85.6949 302.094 -137.451 330.006 -136.428C378.797 -134.49 368.152 -74.9241 409.17 -100.285C425.274 -110.204 443.326 -122.379 463.732 -137.093C509.739 -169.983 546.015 -181.298 573.126 -179.045C627.568 -175.965 647.263 -118.585 636.242 -63.8433C629.907 -32.5502 613.568 -2.13019 587.971 16.8555C559.908 37.6724 510.581 53.9785 494.558 92.0839C482.37 120.41 558.902 157.899 538.543 211.487C525.592 245.821 483.207 260.621 481.005 287.235C478.607 316.205 478.525 339.936 480.354 353.641Z" stroke="#E1ECF3" stroke-width="1.19883"/>
<path id="Vector 92 - Vector 93 - 182" d="M465.085 332.768C476.244 407.628 404.022 388.852 389.318 350.668C370.378 301.628 349.44 280.343 311.021 256.565C289.997 242.268 284.72 292.605 249.7 298.244C214.681 303.883 201.131 252.422 181.482 274.658C151.503 308.379 123.693 321.055 101.322 319.853C79.1812 319.026 62.2184 304.441 53.7662 283.165C45.8799 263.25 45.4564 237.493 55.2513 211.694C69.4949 180.48 85.0357 157.186 102.761 140.524C126.001 120.83 94.3002 99.3023 98.9054 53.4585C103.511 7.61467 138.525 9.15664 125.471 -25.9152C104.783 -80.9958 99.0685 -119.682 102.894 -145.001C110.356 -199.533 161.252 -193.414 202.267 -154.762C225.982 -132.671 243.013 -111.444 258.02 -94.5873C278.133 -70.1935 304.609 -116.853 330.054 -116.18C374.318 -114.715 365.082 -61.4377 402.279 -84.3185C417.066 -93.338 433.568 -104.312 452.151 -117.507C494.445 -146.982 527.405 -156.184 551.609 -153.25C600.527 -150.226 618.149 -98.4654 608.101 -49.099C602.27 -20.7798 587.399 6.73013 564.163 23.929C537.735 43.4938 492.771 58.6053 478.26 94.4774C467.272 120.335 536.209 154.482 517.991 203.08C506.436 234.394 468.403 248.175 466.386 272.496C464.198 298.877 463.795 320.413 465.085 332.768Z" stroke="#E1ECF3" stroke-width="1.19883"/>
<path id="Vector 92 - Vector 93 - 273" d="M450.477 312.738C460.011 379.39 395.325 362.544 382.093 328.188C364.013 281.467 344.027 262.97 308.323 242.664C289.41 230.06 284.422 275.082 252.964 280.31C221.506 285.539 209.147 239.944 191.435 259.719C164.304 289.706 139.211 300.691 119.127 299.192C99.3426 298.256 84.1987 284.961 76.7835 265.714C69.872 247.678 69.7568 224.446 79.0134 201.301C94.0174 172.693 105.618 147.149 121.287 131.035C141.93 113.059 114.019 93.6543 118.526 52.8321C123.033 12.01 154.711 13.5546 143.511 -17.2464C125.576 -65.7912 120.823 -99.7648 124.516 -121.924C131.373 -170.213 177.067 -164.491 214.075 -129.991C235.69 -110.224 251.462 -91.387 265.456 -76.8202C283.648 -55.3026 307.537 -97.0345 330.553 -96.7099C370.359 -95.7126 362.519 -48.5279 395.952 -69.0117C409.445 -77.1649 424.423 -86.977 441.212 -98.7019C479.858 -124.869 509.554 -131.993 530.887 -128.371C574.356 -125.392 589.932 -79.0625 580.843 -34.8913C575.505 -9.44315 562.08 15.2567 541.168 30.7314C516.335 49.1136 475.663 63.0845 462.643 96.8507C452.838 120.334 514.285 151.262 498.18 195.045C488.004 223.454 454.265 236.266 452.43 258.379C450.448 282.269 449.723 301.688 450.477 312.738Z" stroke="#E1ECF3" stroke-width="1.19883"/>
<path id="Vector 92 - Vector 93 - 364" d="M435.213 292.708C443.107 351.15 386.072 336.235 374.334 305.707C357.145 261.301 338.147 245.594 305.22 228.763C288.452 217.853 283.763 257.557 255.923 262.375C228.083 267.194 216.935 227.467 201.192 244.78C176.958 271.032 154.625 280.326 136.864 278.529C119.471 277.483 106.173 265.477 99.8083 248.259C93.8838 232.103 94.0773 211.397 102.779 190.906C118.518 164.904 126.156 137.102 139.742 121.535C157.751 105.276 133.68 87.9941 138.08 52.1952C142.481 16.3963 170.767 17.9437 161.44 -8.58426C146.291 -50.5905 142.507 -79.8489 146.061 -98.8477C152.302 -140.89 192.713 -135.566 225.648 -105.219C245.124 -87.7755 259.61 -71.3301 272.567 -59.0547C288.804 -40.4144 310.064 -77.2179 330.611 -77.2414C365.888 -76.7124 359.457 -35.623 389.067 -53.7092C401.243 -60.996 414.669 -69.6459 429.634 -79.8999C464.565 -102.758 490.943 -107.802 509.369 -103.489C547.311 -100.555 560.813 -59.6585 552.699 -20.6839C547.864 1.8927 535.908 23.782 517.358 37.5319C494.163 54.7328 457.857 67.5635 446.35 99.2261C437.744 120.334 491.593 148.044 477.63 187.012C468.851 212.515 439.466 224.357 437.816 244.265C436.044 265.662 434.998 282.964 435.213 292.708Z" stroke="#E1ECF3" stroke-width="1.19883"/>
<path id="Vector 92 - Vector 93 - 455" d="M419.959 271.734C426.212 321.835 376.829 308.883 366.586 282.254C350.292 240.263 332.284 227.38 302.139 214.06C287.517 204.869 283.127 239.166 258.905 243.564C234.683 247.962 224.748 214.191 210.974 229.005C189.639 251.463 170.067 259.044 154.629 256.954C139.629 255.801 128.176 245.111 122.862 229.961C117.924 215.72 118.426 197.587 126.572 179.796C143.04 156.458 146.721 126.463 158.223 111.477C173.597 96.9723 153.366 81.8521 157.66 51.1564C161.954 20.4606 186.845 22.0074 179.392 -0.18866C167.027 -35.5628 164.212 -60.041 167.625 -75.8367C173.249 -111.54 208.377 -106.624 237.237 -80.4989C254.573 -65.4181 267.772 -51.4008 279.69 -41.4439C293.971 -25.7223 312.601 -57.5151 330.678 -57.8867C361.426 -57.827 356.403 -22.9244 382.189 -38.5726C393.046 -44.9768 404.921 -52.4451 418.061 -61.2054C449.273 -80.7036 472.333 -83.6573 487.851 -78.6637C520.267 -75.7814 531.695 -40.4086 524.556 -6.71768C520.225 12.9369 509.739 31.9666 493.551 43.9612C471.997 59.9416 440.058 71.6033 430.064 101.091C422.659 119.776 468.909 144.206 457.087 178.272C449.705 200.811 424.673 211.657 423.209 229.314C421.646 248.17 420.281 263.317 419.959 271.734Z" stroke="#E1ECF3" stroke-width="1.19883"/>
<path id="Vector 92 - Vector 93 - 545" d="M405.364 251.704C409.989 293.591 368.157 282.571 359.387 259.771C343.954 220.091 326.898 210 299.472 200.158C286.964 192.662 282.864 221.639 262.211 225.628C241.557 229.616 232.814 201.716 220.981 214.066C202.499 232.787 185.647 238.675 172.5 236.287C159.861 235.024 150.232 225.623 145.956 212.503C141.995 200.142 142.806 184.535 150.413 169.399C167.645 148.667 167.376 116.405 176.819 101.964C189.591 89.1768 173.156 76.1802 177.352 50.5102C181.548 24.8402 203.097 26.3902 197.502 8.46997C187.896 -20.3614 186.044 -40.1211 189.324 -52.7538C194.343 -82.2075 224.26 -77.6883 249.106 -55.7185C264.338 -42.9628 276.277 -31.3382 287.18 -23.6745C299.536 -10.832 315.575 -37.6941 331.219 -38.4147C357.501 -38.8239 353.877 -10.0202 375.892 -23.2698C385.454 -28.8073 395.801 -35.1129 407.144 -42.4015C434.702 -58.5891 454.492 -59.4601 467.134 -53.7737C494.091 -50.9358 503.469 -20.9979 497.29 7.49414C493.454 24.2761 484.416 40.494 470.557 50.7635C450.598 65.5635 422.96 76.0854 414.459 103.471C408.239 119.781 446.986 140.991 437.281 170.241C431.28 189.874 410.55 199.751 409.269 215.201C407.912 231.565 406.224 244.593 405.364 251.704Z" stroke="#E1ECF3" stroke-width="1.19883"/>
<path id="Vector 92 - Vector 93 - 636" d="M390.127 231.676C393.112 265.342 358.94 256.254 351.667 237.286C337.136 199.909 321.079 192.613 296.445 186.255C286.085 180.456 282.286 204.11 265.255 207.689C248.224 211.267 240.697 189.244 230.835 199.13C215.256 214.11 201.169 218.302 190.349 215.614C180.104 214.24 172.322 206.128 169.096 195.04C166.122 184.558 167.24 171.479 174.288 159C192.236 140.873 188.021 106.327 195.379 92.4263C205.514 81.3565 192.921 70.4843 197.007 49.8441C201.094 29.2038 219.243 30.7575 215.521 17.1179C208.697 -5.16396 207.813 -20.2001 210.952 -29.6658C215.353 -52.8644 239.979 -48.7412 260.745 -30.9298C273.832 -20.5007 284.48 -11.2708 294.339 -5.90358C304.737 4.05695 318.143 -17.8713 331.313 -18.9419C353.059 -19.8215 350.842 2.87778 369.029 -7.97166C377.269 -12.6423 386.062 -17.7845 395.577 -23.6001C419.409 -36.4742 435.876 -35.2573 445.609 -28.8744C467.036 -26.08 474.34 -1.58046 469.137 21.7094C465.806 35.6172 458.24 49.022 446.746 57.5654C428.437 71.1872 405.173 80.57 398.187 105.858C393.168 119.793 424.31 137.783 416.748 162.213C412.144 178.94 395.77 187.849 394.675 201.092C393.528 214.962 391.522 225.872 390.127 231.676Z" stroke="#E1ECF3" stroke-width="1.19883"/>
<path id="Vector 92 - Vector 93 - 727" d="M375.316 211.649C376.675 237.083 349.979 229.93 344.163 214.797C330.449 179.71 315.297 175.216 293.315 172.35C285.047 168.251 281.527 186.575 268.026 189.745C254.526 192.915 248.171 176.777 240.228 184.194C227.466 195.429 216.067 197.922 207.514 194.932C199.609 193.446 193.632 186.623 191.441 177.567C189.439 168.966 190.871 158.417 197.4 148.597C216.175 133.075 207.976 96.217 213.288 82.8514C220.841 73.4992 212.023 64.7531 216.024 49.1491C220.026 33.5451 234.875 35.1034 233.008 25.7521C228.935 10.0307 229.016 -0.273212 232.031 -6.56606C235.838 -23.5 255.307 -19.772 272.108 -6.12401C283.123 1.97601 292.539 8.80774 301.411 11.8732C309.908 18.947 320.754 1.95826 331.522 0.535681C348.851 -0.816384 348.031 15.7692 362.489 7.32252L362.887 7.10499C369.731 3.36765 376.888 -0.540732 384.48 -4.79879C404.718 -14.3546 417.953 -11.0418 424.827 -3.95647C440.838 -1.20416 446.105 17.8511 441.85 35.933C439.006 46.9641 432.87 57.5529 423.679 64.3689C406.914 76.8158 387.896 85.0606 382.387 108.258C378.542 119.816 402.246 134.584 396.786 154.192C393.556 168.011 381.452 175.953 380.536 186.989C379.593 198.364 377.257 207.154 375.316 211.649Z" stroke="#E1ECF3" stroke-width="1.19883"/>
<path id="Vector 92 - Vector 93 - 818" d="M360.116 190.651C359.837 207.742 340.825 202.555 336.512 191.325C323.718 158.687 309.584 157.013 290.42 157.65C284.309 155.269 281.094 168.183 271.229 170.93C261.364 173.677 256.231 163.494 250.267 168.411C240.421 175.851 231.799 176.634 225.579 173.356C220.075 171.765 215.952 166.262 214.812 159.277C213.797 152.596 215.533 144.622 221.495 137.506C240.958 124.657 228.831 85.6574 232.055 72.8877C236.967 65.2947 231.994 58.7135 235.881 48.2143C239.767 37.7152 251.202 39.271 251.206 34.2484C249.917 25.1559 250.964 19.6286 253.834 16.5357C257.018 5.94035 271.179 9.25649 283.883 18.6809C292.742 24.4161 300.854 28.8198 308.672 29.5708C315.202 33.727 323.404 21.7526 331.687 19.9848C344.464 18.1667 345.051 28.5662 355.666 22.5594C361.302 19.6405 367.026 16.8455 372.931 13.9987C389.42 7.80302 399.32 13.1955 403.281 20.9507C413.749 23.6483 416.937 37.1752 413.664 49.9694C411.327 58.075 406.669 65.8011 399.852 70.8593C384.758 82.0751 370.133 89.1449 366.144 110.147C363.504 119.276 379.583 130.758 376.27 145.456C374.438 156.305 366.7 163.245 365.971 172.024C365.239 180.853 362.589 187.484 360.116 190.651Z" stroke="#E1ECF3" stroke-width="1.19883"/>
<path id="Vector 92 - Vector 93 - 909" d="M344.692 170.597C342.781 179.404 331.393 176.166 328.569 168.804C316.675 138.542 303.538 139.676 287.155 143.807C283.181 143.133 280.266 150.68 274.007 153.011C267.747 155.341 263.825 151.075 259.823 153.509C252.867 157.181 246.996 156.262 243.092 152.689C239.971 150.99 237.686 146.791 237.59 141.858C237.558 137.077 239.599 131.656 245.004 127.22C265.175 117.01 249.124 75.7958 250.274 63.5942C252.563 57.7397 251.411 53.3034 255.188 47.8723C258.965 42.4411 267.017 43.9976 268.883 43.2803C270.363 40.7781 272.373 40.0018 275.1 40.0929C277.669 35.7954 286.565 38.7076 295.208 43.9405C301.932 47.3297 308.758 49.3215 315.536 47.7666C320.117 49.0226 325.698 42.023 331.518 39.9074C339.781 37.6209 341.768 41.8742 348.573 38.2878C352.893 36.2446 357.07 34.6227 361.156 33.2595C373.935 30.4012 380.527 37.878 381.594 46.3167C386.56 48.9653 387.683 57.0081 385.382 64.5566C383.548 69.7621 380.355 74.6498 375.893 77.966C362.442 87.9772 352.171 93.89 349.69 112.745C348.245 119.473 356.756 127.7 355.575 137.534C355.133 145.444 351.73 151.4 351.186 157.947C350.662 164.256 347.697 168.748 344.692 170.597Z" stroke="#E1ECF3" stroke-width="1.19883"/>
</g>
</svg>
